%TF.GenerationSoftware,KiCad,Pcbnew,10.0.1*%
%TF.CreationDate,2026-07-16T16:05:34+02:00*%
%TF.ProjectId,ArcDice,41726344-6963-4652-9e6b-696361645f70,v2.0*%
%TF.SameCoordinates,Original*%
%TF.FileFunction,Copper,L2,Bot*%
%TF.FilePolarity,Positive*%
%FSLAX46Y46*%
G04 Gerber Fmt 4.6, Leading zero omitted, Abs format (unit mm)*
G04 Created by KiCad (PCBNEW 10.0.1) date 2026-07-16 16:05:34*
%MOMM*%
%LPD*%
G01*
G04 APERTURE LIST*
G04 Aperture macros list*
%AMRoundRect*
0 Rectangle with rounded corners*
0 $1 Rounding radius*
0 $2 $3 $4 $5 $6 $7 $8 $9 X,Y pos of 4 corners*
0 Add a 4 corners polygon primitive as box body*
4,1,4,$2,$3,$4,$5,$6,$7,$8,$9,$2,$3,0*
0 Add four circle primitives for the rounded corners*
1,1,$1+$1,$2,$3*
1,1,$1+$1,$4,$5*
1,1,$1+$1,$6,$7*
1,1,$1+$1,$8,$9*
0 Add four rect primitives between the rounded corners*
20,1,$1+$1,$2,$3,$4,$5,0*
20,1,$1+$1,$4,$5,$6,$7,0*
20,1,$1+$1,$6,$7,$8,$9,0*
20,1,$1+$1,$8,$9,$2,$3,0*%
G04 Aperture macros list end*
%TA.AperFunction,ComponentPad*%
%ADD10R,1.800000X1.800000*%
%TD*%
%TA.AperFunction,ComponentPad*%
%ADD11C,1.800000*%
%TD*%
%TA.AperFunction,ComponentPad*%
%ADD12C,1.600000*%
%TD*%
%TA.AperFunction,ComponentPad*%
%ADD13C,2.000000*%
%TD*%
%TA.AperFunction,ComponentPad*%
%ADD14RoundRect,0.250000X0.550000X0.550000X-0.550000X0.550000X-0.550000X-0.550000X0.550000X-0.550000X0*%
%TD*%
%TA.AperFunction,SMDPad,CuDef*%
%ADD15O,3.000000X5.000000*%
%TD*%
%TA.AperFunction,Conductor*%
%ADD16C,0.200000*%
%TD*%
%TA.AperFunction,Conductor*%
%ADD17C,0.250000*%
%TD*%
%TA.AperFunction,Conductor*%
%ADD18C,0.600000*%
%TD*%
G04 APERTURE END LIST*
D10*
%TO.P,D4,1,K_1*%
%TO.N,/GND*%
X133730000Y-75000000D03*
D11*
%TO.P,D4,2,A_2*%
%TO.N,Net-(D4-A)*%
X136270000Y-75000000D03*
%TD*%
D10*
%TO.P,D7,1,K_1*%
%TO.N,/GND*%
X143730000Y-85000000D03*
D11*
%TO.P,D7,2,A_2*%
%TO.N,Net-(D7-A)*%
X146270000Y-85000000D03*
%TD*%
D12*
%TO.P,R7,1*%
%TO.N,Net-(D7-A)*%
X147060000Y-90500000D03*
%TO.P,R7,2*%
%TO.N,/SEGMENT_DIAGONAL_A*%
X139440000Y-90500000D03*
%TD*%
D10*
%TO.P,D6,1,K_1*%
%TO.N,/GND*%
X123730000Y-85000000D03*
D11*
%TO.P,D6,2,A_2*%
%TO.N,Net-(D6-A)*%
X126270000Y-85000000D03*
%TD*%
D12*
%TO.P,R2,1*%
%TO.N,Net-(D2-A)*%
X150500000Y-61440000D03*
%TO.P,R2,2*%
%TO.N,/SEGMENT_DIAGONAL_B*%
X150500000Y-69060000D03*
%TD*%
%TO.P,R3,1*%
%TO.N,Net-(D3-A)*%
X119500000Y-67560000D03*
%TO.P,R3,2*%
%TO.N,/SEGMENT_MIDDLE_ROW*%
X119500000Y-59940000D03*
%TD*%
%TO.P,R5,1*%
%TO.N,Net-(D5-A)*%
X139060000Y-80750000D03*
%TO.P,R5,2*%
%TO.N,/SEGMENT_MIDDLE_ROW*%
X131440000Y-80750000D03*
%TD*%
%TO.P,R6,1*%
%TO.N,Net-(D6-A)*%
X119750000Y-78310000D03*
%TO.P,R6,2*%
%TO.N,/SEGMENT_DIAGONAL_B*%
X119750000Y-70690000D03*
%TD*%
D13*
%TO.P,SW2,1,1_1*%
%TO.N,/GND*%
X131750000Y-43500000D03*
X138250000Y-43500000D03*
%TO.P,SW2,2,2_2*%
%TO.N,/BTN_ROLL*%
X131750000Y-48000000D03*
X138250000Y-48000000D03*
%TD*%
D12*
%TO.P,R1,1*%
%TO.N,Net-(D1-A)*%
X140000000Y-72560000D03*
%TO.P,R1,2*%
%TO.N,/SEGMENT_DIAGONAL_A*%
X140000000Y-64940000D03*
%TD*%
D11*
%TO.P,SW1,1,A_1*%
%TO.N,/SYS_VCC*%
X150450000Y-52250000D03*
%TO.P,SW1,2,B_2*%
%TO.N,/SW IN*%
X155250000Y-52250000D03*
%TO.P,SW1,3,C_3*%
%TO.N,unconnected-(SW1-C-Pad3)*%
X160050000Y-52250000D03*
%TD*%
D10*
%TO.P,D1,1,K_1*%
%TO.N,/GND*%
X123730000Y-65000000D03*
D11*
%TO.P,D1,2,A_2*%
%TO.N,Net-(D1-A)*%
X126270000Y-65000000D03*
%TD*%
D12*
%TO.P,R4,1*%
%TO.N,Net-(D4-A)*%
X130250000Y-72810000D03*
%TO.P,R4,2*%
%TO.N,/SEGMENT_CENTER*%
X130250000Y-65190000D03*
%TD*%
D10*
%TO.P,D3,1,K_1*%
%TO.N,/GND*%
X123730000Y-75000000D03*
D11*
%TO.P,D3,2,A_2*%
%TO.N,Net-(D3-A)*%
X126270000Y-75000000D03*
%TD*%
D12*
%TO.P,R8,1*%
%TO.N,/RESET_N*%
X120060000Y-44250000D03*
%TO.P,R8,2*%
%TO.N,/SYS_VCC*%
X112440000Y-44250000D03*
%TD*%
D10*
%TO.P,D5,1,K_1*%
%TO.N,/GND*%
X143730000Y-75000000D03*
D11*
%TO.P,D5,2,A_2*%
%TO.N,Net-(D5-A)*%
X146270000Y-75000000D03*
%TD*%
D10*
%TO.P,D2,1,K_1*%
%TO.N,/GND*%
X143730000Y-65000000D03*
D11*
%TO.P,D2,2,A_2*%
%TO.N,Net-(D2-A)*%
X146270000Y-65000000D03*
%TD*%
D14*
%TO.P,C2,1*%
%TO.N,/SYS_VCC*%
X108205113Y-55000000D03*
D12*
%TO.P,C2,2*%
%TO.N,/GND*%
X106205113Y-55000000D03*
%TD*%
D13*
%TO.P,U2,1,IN+_1*%
%TO.N,unconnected-(U2-IN+-Pad1)*%
X166595000Y-100505000D03*
%TO.P,U2,2,IN-_2*%
%TO.N,/GND*%
X152595000Y-100505000D03*
%TO.P,U2,3,OUT+_3*%
%TO.N,/SW IN*%
X166595000Y-77505000D03*
%TO.P,U2,4,OUT-_4*%
%TO.N,/GND*%
X152595000Y-77505000D03*
%TO.P,U2,5,BAT+_5*%
%TO.N,/BAT_PLUS*%
X164055000Y-77505000D03*
%TO.P,U2,6,BAT-_6*%
%TO.N,/BAT_MINUS*%
X155135000Y-77505000D03*
%TD*%
D12*
%TO.P,C1,1*%
%TO.N,/SYS_VCC*%
X108750000Y-49750000D03*
%TO.P,C1,2*%
%TO.N,/GND*%
X108750000Y-47250000D03*
%TD*%
D15*
%TO.P,BT1,1,+_1*%
%TO.N,/BAT_PLUS*%
X136500000Y-99250000D03*
%TO.P,BT1,2,-_2*%
%TO.N,/BAT_MINUS*%
X105500000Y-99250000D03*
%TD*%
D14*
%TO.P,U1,1,~{RESET}/PB5_1*%
%TO.N,/RESET_N*%
X120060000Y-48190000D03*
D12*
%TO.P,U1,2,PB3_2*%
%TO.N,/SEGMENT_MIDDLE_ROW*%
X120060000Y-50730000D03*
%TO.P,U1,3,PB4_3*%
%TO.N,/BTN_ROLL*%
X120060000Y-53270000D03*
%TO.P,U1,4,GND_4*%
%TO.N,/GND*%
X120060000Y-55810000D03*
%TO.P,U1,5,PB0_5*%
%TO.N,/SEGMENT_CENTER*%
X112440000Y-55810000D03*
%TO.P,U1,6,PB1_6*%
%TO.N,/SEGMENT_DIAGONAL_A*%
X112440000Y-53270000D03*
%TO.P,U1,7,PB2_7*%
%TO.N,/SEGMENT_DIAGONAL_B*%
X112440000Y-50730000D03*
%TO.P,U1,8,VCC_8*%
%TO.N,/SYS_VCC*%
X112440000Y-48190000D03*
%TD*%
%TO.N,Net-(D4-A)*%
D16*
X136270000Y-75000000D02*
X134080000Y-72810000D01*
X134080000Y-72810000D02*
X130250000Y-72810000D01*
%TO.N,Net-(D7-A)*%
X146270000Y-85000000D02*
X146270000Y-89710000D01*
X146270000Y-89710000D02*
X147060000Y-90500000D01*
%TO.N,/SEGMENT_DIAGONAL_A*%
D17*
X137935000Y-88995000D02*
X139440000Y-90500000D01*
X141125000Y-77094009D02*
X137935000Y-80284009D01*
X137935000Y-80284009D02*
X137935000Y-88995000D01*
X140000000Y-64940000D02*
X141125000Y-66065000D01*
X141125000Y-66065000D02*
X141125000Y-77094009D01*
%TO.N,Net-(D6-A)*%
D16*
X126270000Y-85000000D02*
X119750000Y-78480000D01*
X119750000Y-78480000D02*
X119750000Y-78310000D01*
%TO.N,Net-(D2-A)*%
X146940000Y-65000000D02*
X146270000Y-65000000D01*
X150500000Y-61440000D02*
X146940000Y-65000000D01*
%TO.N,/SEGMENT_DIAGONAL_B*%
D17*
X112440000Y-50730000D02*
X111315000Y-51855000D01*
X111315000Y-62255000D02*
X119750000Y-70690000D01*
X111315000Y-51855000D02*
X111315000Y-62255000D01*
%TO.N,Net-(D3-A)*%
D16*
X119500000Y-68230000D02*
X119500000Y-67560000D01*
X126270000Y-75000000D02*
X119500000Y-68230000D01*
%TO.N,/SEGMENT_MIDDLE_ROW*%
D17*
X129125000Y-78435000D02*
X129125000Y-72845000D01*
X129125000Y-72845000D02*
X119500000Y-63220000D01*
X119500000Y-63220000D02*
X119500000Y-59940000D01*
X131440000Y-80750000D02*
X129125000Y-78435000D01*
%TO.N,Net-(D5-A)*%
D16*
X140520000Y-80750000D02*
X139060000Y-80750000D01*
X146270000Y-75000000D02*
X140520000Y-80750000D01*
%TO.N,/BTN_ROLL*%
D17*
X121230000Y-53270000D02*
X120060000Y-53270000D01*
X131750000Y-48000000D02*
X126500000Y-48000000D01*
X126500000Y-48000000D02*
X121230000Y-53270000D01*
X138250000Y-48000000D02*
X131750000Y-48000000D01*
%TO.N,Net-(D1-A)*%
D16*
X140000000Y-72560000D02*
X137560000Y-72560000D01*
X137560000Y-72560000D02*
X135000000Y-70000000D01*
X135000000Y-70000000D02*
X131270000Y-70000000D01*
X131270000Y-70000000D02*
X126270000Y-65000000D01*
%TO.N,/SYS_VCC*%
D18*
X112440000Y-48190000D02*
X110310000Y-48190000D01*
X108750000Y-49750000D02*
X108750000Y-54455113D01*
X144700000Y-46500000D02*
X114690000Y-46500000D01*
X150450000Y-52250000D02*
X144700000Y-46500000D01*
X110310000Y-48190000D02*
X108750000Y-49750000D01*
X114130000Y-46500000D02*
X114690000Y-46500000D01*
X112440000Y-48190000D02*
X114130000Y-46500000D01*
X114690000Y-46500000D02*
X112440000Y-44250000D01*
X108750000Y-54455113D02*
X108205113Y-55000000D01*
%TO.N,/SW IN*%
X155250000Y-66160000D02*
X155250000Y-52250000D01*
X166595000Y-77505000D02*
X155250000Y-66160000D01*
%TO.N,/SEGMENT_CENTER*%
D17*
X130250000Y-65190000D02*
X130190000Y-65190000D01*
X123250000Y-58250000D02*
X114880000Y-58250000D01*
X130190000Y-65190000D02*
X123250000Y-58250000D01*
X114880000Y-58250000D02*
X112440000Y-55810000D01*
%TO.N,/BAT_PLUS*%
D18*
X147750000Y-99250000D02*
X164055000Y-82945000D01*
X136500000Y-99250000D02*
X147750000Y-99250000D01*
X164055000Y-82945000D02*
X164055000Y-77505000D01*
%TO.N,/BAT_MINUS*%
X148000000Y-93250000D02*
X155135000Y-86115000D01*
X105500000Y-99250000D02*
X121000000Y-99250000D01*
X155135000Y-86115000D02*
X155135000Y-77505000D01*
X127000000Y-93250000D02*
X148000000Y-93250000D01*
X121000000Y-99250000D02*
X127000000Y-93250000D01*
%TD*%
%TA.AperFunction,Conductor*%
%TO.N,/GND*%
G36*
X169442539Y-40520185D02*
G01*
X169488294Y-40572989D01*
X169499500Y-40624500D01*
X169499500Y-109375500D01*
X169479815Y-109442539D01*
X169427011Y-109488294D01*
X169375500Y-109499500D01*
X100624500Y-109499500D01*
X100557461Y-109479815D01*
X100511706Y-109427011D01*
X100500500Y-109375500D01*
X100500500Y-106893713D01*
X101649500Y-106893713D01*
X101649500Y-107106287D01*
X101682754Y-107316243D01*
X101742966Y-107501557D01*
X101748444Y-107518414D01*
X101844951Y-107707820D01*
X101969890Y-107879786D01*
X102120213Y-108030109D01*
X102292179Y-108155048D01*
X102292181Y-108155049D01*
X102292184Y-108155051D01*
X102481588Y-108251557D01*
X102683757Y-108317246D01*
X102893713Y-108350500D01*
X102893714Y-108350500D01*
X103106286Y-108350500D01*
X103106287Y-108350500D01*
X103316243Y-108317246D01*
X103518412Y-108251557D01*
X103707816Y-108155051D01*
X103729789Y-108139086D01*
X103879786Y-108030109D01*
X103879788Y-108030106D01*
X103879792Y-108030104D01*
X104030104Y-107879792D01*
X104030106Y-107879788D01*
X104030109Y-107879786D01*
X104155048Y-107707820D01*
X104155047Y-107707820D01*
X104155051Y-107707816D01*
X104251557Y-107518412D01*
X104317246Y-107316243D01*
X104350500Y-107106287D01*
X104350500Y-106893713D01*
X104317246Y-106683757D01*
X104251557Y-106481588D01*
X104155051Y-106292184D01*
X104148532Y-106283211D01*
X104096596Y-106211726D01*
X104047182Y-106143713D01*
X119649500Y-106143713D01*
X119649500Y-106356286D01*
X119682753Y-106566239D01*
X119748444Y-106768414D01*
X119844951Y-106957820D01*
X119969890Y-107129786D01*
X120120213Y-107280109D01*
X120292179Y-107405048D01*
X120292181Y-107405049D01*
X120292184Y-107405051D01*
X120481588Y-107501557D01*
X120683757Y-107567246D01*
X120893713Y-107600500D01*
X120893714Y-107600500D01*
X121106286Y-107600500D01*
X121106287Y-107600500D01*
X121316243Y-107567246D01*
X121518412Y-107501557D01*
X121707816Y-107405051D01*
X121830051Y-107316243D01*
X121879786Y-107280109D01*
X121879788Y-107280106D01*
X121879792Y-107280104D01*
X122030104Y-107129792D01*
X122030106Y-107129788D01*
X122030109Y-107129786D01*
X122155048Y-106957820D01*
X122155047Y-106957820D01*
X122155051Y-106957816D01*
X122187713Y-106893713D01*
X165649500Y-106893713D01*
X165649500Y-107106287D01*
X165682754Y-107316243D01*
X165742966Y-107501557D01*
X165748444Y-107518414D01*
X165844951Y-107707820D01*
X165969890Y-107879786D01*
X166120213Y-108030109D01*
X166292179Y-108155048D01*
X166292181Y-108155049D01*
X166292184Y-108155051D01*
X166481588Y-108251557D01*
X166683757Y-108317246D01*
X166893713Y-108350500D01*
X166893714Y-108350500D01*
X167106286Y-108350500D01*
X167106287Y-108350500D01*
X167316243Y-108317246D01*
X167518412Y-108251557D01*
X167707816Y-108155051D01*
X167729789Y-108139086D01*
X167879786Y-108030109D01*
X167879788Y-108030106D01*
X167879792Y-108030104D01*
X168030104Y-107879792D01*
X168030106Y-107879788D01*
X168030109Y-107879786D01*
X168155048Y-107707820D01*
X168155047Y-107707820D01*
X168155051Y-107707816D01*
X168251557Y-107518412D01*
X168317246Y-107316243D01*
X168350500Y-107106287D01*
X168350500Y-106893713D01*
X168317246Y-106683757D01*
X168251557Y-106481588D01*
X168155051Y-106292184D01*
X168155049Y-106292181D01*
X168155048Y-106292179D01*
X168030109Y-106120213D01*
X167879786Y-105969890D01*
X167707820Y-105844951D01*
X167518414Y-105748444D01*
X167518413Y-105748443D01*
X167518412Y-105748443D01*
X167316243Y-105682754D01*
X167316241Y-105682753D01*
X167316240Y-105682753D01*
X167154957Y-105657208D01*
X167106287Y-105649500D01*
X166893713Y-105649500D01*
X166845042Y-105657208D01*
X166683760Y-105682753D01*
X166481585Y-105748444D01*
X166292179Y-105844951D01*
X166120213Y-105969890D01*
X165969890Y-106120213D01*
X165844951Y-106292179D01*
X165748444Y-106481585D01*
X165682753Y-106683760D01*
X165659188Y-106832546D01*
X165649500Y-106893713D01*
X122187713Y-106893713D01*
X122251557Y-106768412D01*
X122317246Y-106566243D01*
X122350500Y-106356287D01*
X122350500Y-106143713D01*
X122317246Y-105933757D01*
X122251557Y-105731588D01*
X122155051Y-105542184D01*
X122155049Y-105542181D01*
X122155048Y-105542179D01*
X122030109Y-105370213D01*
X121879786Y-105219890D01*
X121707820Y-105094951D01*
X121518414Y-104998444D01*
X121518413Y-104998443D01*
X121518412Y-104998443D01*
X121316243Y-104932754D01*
X121316241Y-104932753D01*
X121316240Y-104932753D01*
X121154957Y-104907208D01*
X121106287Y-104899500D01*
X120893713Y-104899500D01*
X120845042Y-104907208D01*
X120683760Y-104932753D01*
X120481585Y-104998444D01*
X120292179Y-105094951D01*
X120120213Y-105219890D01*
X119969890Y-105370213D01*
X119844951Y-105542179D01*
X119748444Y-105731585D01*
X119682753Y-105933760D01*
X119649500Y-106143713D01*
X104047182Y-106143713D01*
X104030109Y-106120213D01*
X103879786Y-105969890D01*
X103707820Y-105844951D01*
X103518414Y-105748444D01*
X103518413Y-105748443D01*
X103518412Y-105748443D01*
X103316243Y-105682754D01*
X103316241Y-105682753D01*
X103316240Y-105682753D01*
X103154957Y-105657208D01*
X103106287Y-105649500D01*
X102893713Y-105649500D01*
X102845042Y-105657208D01*
X102683760Y-105682753D01*
X102481585Y-105748444D01*
X102292179Y-105844951D01*
X102120213Y-105969890D01*
X101969890Y-106120213D01*
X101844951Y-106292179D01*
X101748444Y-106481585D01*
X101682753Y-106683760D01*
X101659188Y-106832546D01*
X101649500Y-106893713D01*
X100500500Y-106893713D01*
X100500500Y-98118872D01*
X103499500Y-98118872D01*
X103499500Y-100381127D01*
X103524476Y-100570826D01*
X103533730Y-100641116D01*
X103591992Y-100858554D01*
X103601602Y-100894418D01*
X103601605Y-100894428D01*
X103701953Y-101136690D01*
X103701958Y-101136700D01*
X103833075Y-101363803D01*
X103992718Y-101571851D01*
X103992726Y-101571860D01*
X104178140Y-101757274D01*
X104178148Y-101757281D01*
X104386196Y-101916924D01*
X104613299Y-102048041D01*
X104613309Y-102048046D01*
X104855571Y-102148394D01*
X104855581Y-102148398D01*
X105108884Y-102216270D01*
X105368880Y-102250500D01*
X105368887Y-102250500D01*
X105631113Y-102250500D01*
X105631120Y-102250500D01*
X105891116Y-102216270D01*
X106144419Y-102148398D01*
X106386697Y-102048043D01*
X106613803Y-101916924D01*
X106821851Y-101757282D01*
X106821855Y-101757277D01*
X106821860Y-101757274D01*
X107007274Y-101571860D01*
X107007277Y-101571855D01*
X107007282Y-101571851D01*
X107166924Y-101363803D01*
X107298043Y-101136697D01*
X107398398Y-100894419D01*
X107466270Y-100641116D01*
X107500500Y-100381120D01*
X107500500Y-100174500D01*
X107520185Y-100107461D01*
X107572989Y-100061706D01*
X107624500Y-100050500D01*
X121078844Y-100050500D01*
X121078845Y-100050499D01*
X121233497Y-100019737D01*
X121379179Y-99959394D01*
X121510289Y-99871789D01*
X122377578Y-99004500D01*
X123263207Y-98118872D01*
X134499500Y-98118872D01*
X134499500Y-100381127D01*
X134524476Y-100570826D01*
X134533730Y-100641116D01*
X134591992Y-100858554D01*
X134601602Y-100894418D01*
X134601605Y-100894428D01*
X134701953Y-101136690D01*
X134701958Y-101136700D01*
X134833075Y-101363803D01*
X134992718Y-101571851D01*
X134992726Y-101571860D01*
X135178140Y-101757274D01*
X135178148Y-101757281D01*
X135386196Y-101916924D01*
X135613299Y-102048041D01*
X135613309Y-102048046D01*
X135855571Y-102148394D01*
X135855581Y-102148398D01*
X136108884Y-102216270D01*
X136368880Y-102250500D01*
X136368887Y-102250500D01*
X136631113Y-102250500D01*
X136631120Y-102250500D01*
X136891116Y-102216270D01*
X137144419Y-102148398D01*
X137386697Y-102048043D01*
X137613803Y-101916924D01*
X137821851Y-101757282D01*
X137821855Y-101757277D01*
X137821860Y-101757274D01*
X138007274Y-101571860D01*
X138007277Y-101571855D01*
X138007282Y-101571851D01*
X138166924Y-101363803D01*
X138298043Y-101136697D01*
X138398398Y-100894419D01*
X138466270Y-100641116D01*
X138499733Y-100386947D01*
X151095000Y-100386947D01*
X151095000Y-100623052D01*
X151131934Y-100856247D01*
X151204897Y-101080802D01*
X151312087Y-101291174D01*
X151372338Y-101374104D01*
X151372340Y-101374105D01*
X152112037Y-100634408D01*
X152129075Y-100697993D01*
X152194901Y-100812007D01*
X152287993Y-100905099D01*
X152402007Y-100970925D01*
X152465590Y-100987962D01*
X151725893Y-101727658D01*
X151808828Y-101787914D01*
X152019197Y-101895102D01*
X152243752Y-101968065D01*
X152243751Y-101968065D01*
X152476948Y-102005000D01*
X152713052Y-102005000D01*
X152946247Y-101968065D01*
X153170802Y-101895102D01*
X153381163Y-101787918D01*
X153381169Y-101787914D01*
X153464104Y-101727658D01*
X153464105Y-101727658D01*
X152724408Y-100987962D01*
X152787993Y-100970925D01*
X152902007Y-100905099D01*
X152995099Y-100812007D01*
X153060925Y-100697993D01*
X153077962Y-100634409D01*
X153817658Y-101374105D01*
X153817658Y-101374104D01*
X153877914Y-101291169D01*
X153877918Y-101291163D01*
X153985102Y-101080802D01*
X154058065Y-100856247D01*
X154095000Y-100623052D01*
X154095000Y-100386947D01*
X154094993Y-100386902D01*
X165094500Y-100386902D01*
X165094500Y-100623097D01*
X165131446Y-100856368D01*
X165204433Y-101080996D01*
X165311519Y-101291163D01*
X165311657Y-101291433D01*
X165450483Y-101482510D01*
X165617490Y-101649517D01*
X165808567Y-101788343D01*
X165907991Y-101839002D01*
X166019003Y-101895566D01*
X166019005Y-101895566D01*
X166019008Y-101895568D01*
X166084735Y-101916924D01*
X166243631Y-101968553D01*
X166476903Y-102005500D01*
X166476908Y-102005500D01*
X166713097Y-102005500D01*
X166946368Y-101968553D01*
X166947870Y-101968065D01*
X167170992Y-101895568D01*
X167381433Y-101788343D01*
X167572510Y-101649517D01*
X167739517Y-101482510D01*
X167878343Y-101291433D01*
X167985568Y-101080992D01*
X168058553Y-100856368D01*
X168083637Y-100697993D01*
X168095500Y-100623097D01*
X168095500Y-100386902D01*
X168058553Y-100153631D01*
X167995441Y-99959394D01*
X167985568Y-99929008D01*
X167985566Y-99929005D01*
X167985566Y-99929003D01*
X167878477Y-99718830D01*
X167878343Y-99718567D01*
X167739517Y-99527490D01*
X167572510Y-99360483D01*
X167381433Y-99221657D01*
X167170996Y-99114433D01*
X166946368Y-99041446D01*
X166713097Y-99004500D01*
X166713092Y-99004500D01*
X166476908Y-99004500D01*
X166476903Y-99004500D01*
X166243631Y-99041446D01*
X166019003Y-99114433D01*
X165808566Y-99221657D01*
X165725047Y-99282338D01*
X165617490Y-99360483D01*
X165617488Y-99360485D01*
X165617487Y-99360485D01*
X165450485Y-99527487D01*
X165450485Y-99527488D01*
X165450483Y-99527490D01*
X165390862Y-99609550D01*
X165311657Y-99718566D01*
X165204433Y-99929003D01*
X165131446Y-100153631D01*
X165094500Y-100386902D01*
X154094993Y-100386902D01*
X154058065Y-100153752D01*
X153985102Y-99929197D01*
X153877914Y-99718828D01*
X153817658Y-99635894D01*
X153817658Y-99635893D01*
X153077962Y-100375590D01*
X153060925Y-100312007D01*
X152995099Y-100197993D01*
X152902007Y-100104901D01*
X152787993Y-100039075D01*
X152724409Y-100022037D01*
X153464105Y-99282340D01*
X153464104Y-99282338D01*
X153381174Y-99222087D01*
X153170802Y-99114897D01*
X152946247Y-99041934D01*
X152946248Y-99041934D01*
X152713052Y-99005000D01*
X152476948Y-99005000D01*
X152243752Y-99041934D01*
X152019197Y-99114897D01*
X151808830Y-99222084D01*
X151725894Y-99282340D01*
X152465591Y-100022037D01*
X152402007Y-100039075D01*
X152287993Y-100104901D01*
X152194901Y-100197993D01*
X152129075Y-100312007D01*
X152112037Y-100375591D01*
X151372340Y-99635894D01*
X151312084Y-99718830D01*
X151204897Y-99929197D01*
X151131934Y-100153752D01*
X151095000Y-100386947D01*
X138499733Y-100386947D01*
X138500500Y-100381120D01*
X138500500Y-100174500D01*
X138520185Y-100107461D01*
X138572989Y-100061706D01*
X138624500Y-100050500D01*
X147828844Y-100050500D01*
X147828845Y-100050499D01*
X147983497Y-100019737D01*
X148129179Y-99959394D01*
X148260289Y-99871789D01*
X148496185Y-99635893D01*
X148890161Y-99241918D01*
X164676786Y-83455292D01*
X164676789Y-83455289D01*
X164764394Y-83324179D01*
X164824737Y-83178497D01*
X164855500Y-83023842D01*
X164855500Y-78841302D01*
X164875185Y-78774263D01*
X164906609Y-78740988D01*
X165032510Y-78649517D01*
X165199517Y-78482510D01*
X165224682Y-78447872D01*
X165280011Y-78405207D01*
X165349625Y-78399228D01*
X165411420Y-78431833D01*
X165425315Y-78447870D01*
X165450483Y-78482510D01*
X165617490Y-78649517D01*
X165808567Y-78788343D01*
X165874287Y-78821829D01*
X166019003Y-78895566D01*
X166019005Y-78895566D01*
X166019008Y-78895568D01*
X166127508Y-78930822D01*
X166243631Y-78968553D01*
X166476903Y-79005500D01*
X166476908Y-79005500D01*
X166713097Y-79005500D01*
X166946368Y-78968553D01*
X166947870Y-78968065D01*
X167170992Y-78895568D01*
X167381433Y-78788343D01*
X167572510Y-78649517D01*
X167739517Y-78482510D01*
X167878343Y-78291433D01*
X167985568Y-78080992D01*
X168058553Y-77856368D01*
X168083637Y-77697993D01*
X168095500Y-77623097D01*
X168095500Y-77386902D01*
X168058553Y-77153631D01*
X168019163Y-77032403D01*
X167985568Y-76929008D01*
X167985566Y-76929005D01*
X167985566Y-76929003D01*
X167929002Y-76817991D01*
X167878343Y-76718567D01*
X167739517Y-76527490D01*
X167572510Y-76360483D01*
X167381433Y-76221657D01*
X167376440Y-76219113D01*
X167170996Y-76114433D01*
X166946368Y-76041446D01*
X166713097Y-76004500D01*
X166713092Y-76004500D01*
X166476908Y-76004500D01*
X166476903Y-76004500D01*
X166323208Y-76028843D01*
X166253915Y-76019888D01*
X166216129Y-75994051D01*
X156086819Y-65864741D01*
X156053334Y-65803418D01*
X156050500Y-65777060D01*
X156050500Y-53462697D01*
X156070185Y-53395658D01*
X156101616Y-53362378D01*
X156162361Y-53318245D01*
X156162361Y-53318244D01*
X156162365Y-53318242D01*
X156318242Y-53162365D01*
X156447815Y-52984022D01*
X156547895Y-52787606D01*
X156616015Y-52577951D01*
X156650500Y-52360222D01*
X156650500Y-52139778D01*
X158649500Y-52139778D01*
X158649500Y-52360221D01*
X158683985Y-52577952D01*
X158752103Y-52787603D01*
X158752104Y-52787606D01*
X158852187Y-52984025D01*
X158981752Y-53162358D01*
X158981756Y-53162363D01*
X159137636Y-53318243D01*
X159137641Y-53318247D01*
X159274538Y-53417707D01*
X159315978Y-53447815D01*
X159444375Y-53513237D01*
X159512393Y-53547895D01*
X159512396Y-53547896D01*
X159597355Y-53575500D01*
X159722049Y-53616015D01*
X159939778Y-53650500D01*
X159939779Y-53650500D01*
X160160221Y-53650500D01*
X160160222Y-53650500D01*
X160377951Y-53616015D01*
X160587606Y-53547895D01*
X160784022Y-53447815D01*
X160962365Y-53318242D01*
X161118242Y-53162365D01*
X161247815Y-52984022D01*
X161347895Y-52787606D01*
X161416015Y-52577951D01*
X161450500Y-52360222D01*
X161450500Y-52139778D01*
X161416015Y-51922049D01*
X161374213Y-51793394D01*
X161347896Y-51712396D01*
X161347895Y-51712393D01*
X161313237Y-51644375D01*
X161247815Y-51515978D01*
X161204433Y-51456267D01*
X161118247Y-51337641D01*
X161118243Y-51337636D01*
X160962363Y-51181756D01*
X160962358Y-51181752D01*
X160784025Y-51052187D01*
X160784024Y-51052186D01*
X160784022Y-51052185D01*
X160721096Y-51020122D01*
X160587606Y-50952104D01*
X160587603Y-50952103D01*
X160377952Y-50883985D01*
X160234383Y-50861246D01*
X160160222Y-50849500D01*
X159939778Y-50849500D01*
X159867201Y-50860995D01*
X159722047Y-50883985D01*
X159512396Y-50952103D01*
X159512393Y-50952104D01*
X159315974Y-51052187D01*
X159137641Y-51181752D01*
X159137636Y-51181756D01*
X158981756Y-51337636D01*
X158981752Y-51337641D01*
X158852187Y-51515974D01*
X158752104Y-51712393D01*
X158752103Y-51712396D01*
X158683985Y-51922047D01*
X158649500Y-52139778D01*
X156650500Y-52139778D01*
X156616015Y-51922049D01*
X156574213Y-51793394D01*
X156547896Y-51712396D01*
X156547895Y-51712393D01*
X156513237Y-51644375D01*
X156447815Y-51515978D01*
X156404433Y-51456267D01*
X156318247Y-51337641D01*
X156318243Y-51337636D01*
X156162363Y-51181756D01*
X156162358Y-51181752D01*
X155984025Y-51052187D01*
X155984024Y-51052186D01*
X155984022Y-51052185D01*
X155921096Y-51020122D01*
X155787606Y-50952104D01*
X155787603Y-50952103D01*
X155577952Y-50883985D01*
X155434383Y-50861246D01*
X155360222Y-50849500D01*
X155139778Y-50849500D01*
X155067201Y-50860995D01*
X154922047Y-50883985D01*
X154712396Y-50952103D01*
X154712393Y-50952104D01*
X154515974Y-51052187D01*
X154337641Y-51181752D01*
X154337636Y-51181756D01*
X154181756Y-51337636D01*
X154181752Y-51337641D01*
X154052187Y-51515974D01*
X153952104Y-51712393D01*
X153952103Y-51712396D01*
X153883985Y-51922047D01*
X153849500Y-52139778D01*
X153849500Y-52360221D01*
X153883985Y-52577952D01*
X153952103Y-52787603D01*
X153952104Y-52787606D01*
X154052187Y-52984025D01*
X154181752Y-53162358D01*
X154181756Y-53162363D01*
X154337638Y-53318245D01*
X154398384Y-53362378D01*
X154441050Y-53417707D01*
X154449500Y-53462697D01*
X154449500Y-66238846D01*
X154480261Y-66393489D01*
X154480264Y-66393501D01*
X154540602Y-66539172D01*
X154540609Y-66539185D01*
X154628210Y-66670288D01*
X154628213Y-66670292D01*
X163786849Y-75828927D01*
X163820334Y-75890250D01*
X163815350Y-75959942D01*
X163773478Y-76015875D01*
X163718569Y-76039081D01*
X163703629Y-76041447D01*
X163479003Y-76114433D01*
X163268566Y-76221657D01*
X163219664Y-76257187D01*
X163077490Y-76360483D01*
X163077488Y-76360485D01*
X163077487Y-76360485D01*
X162910485Y-76527487D01*
X162910485Y-76527488D01*
X162910483Y-76527490D01*
X162867452Y-76586717D01*
X162771657Y-76718566D01*
X162664433Y-76929003D01*
X162591446Y-77153631D01*
X162554500Y-77386902D01*
X162554500Y-77623097D01*
X162591446Y-77856368D01*
X162664433Y-78080996D01*
X162728966Y-78207648D01*
X162771657Y-78291433D01*
X162910483Y-78482510D01*
X163077490Y-78649517D01*
X163203388Y-78740987D01*
X163246051Y-78796313D01*
X163254500Y-78841302D01*
X163254500Y-82562060D01*
X163234815Y-82629099D01*
X163218181Y-82649741D01*
X147454741Y-98413181D01*
X147393418Y-98446666D01*
X147367060Y-98449500D01*
X138624500Y-98449500D01*
X138557461Y-98429815D01*
X138511706Y-98377011D01*
X138500500Y-98325500D01*
X138500500Y-98118886D01*
X138500499Y-98118872D01*
X138488422Y-98027140D01*
X138466270Y-97858884D01*
X138398398Y-97605581D01*
X138398394Y-97605571D01*
X138298046Y-97363309D01*
X138298041Y-97363299D01*
X138166924Y-97136196D01*
X138007281Y-96928148D01*
X138007274Y-96928140D01*
X137821860Y-96742726D01*
X137821851Y-96742718D01*
X137613803Y-96583075D01*
X137386700Y-96451958D01*
X137386690Y-96451953D01*
X137144428Y-96351605D01*
X137144421Y-96351603D01*
X137144419Y-96351602D01*
X136891116Y-96283730D01*
X136833339Y-96276123D01*
X136631127Y-96249500D01*
X136631120Y-96249500D01*
X136368880Y-96249500D01*
X136368872Y-96249500D01*
X136137772Y-96279926D01*
X136108884Y-96283730D01*
X135855581Y-96351602D01*
X135855571Y-96351605D01*
X135613309Y-96451953D01*
X135613299Y-96451958D01*
X135386196Y-96583075D01*
X135178148Y-96742718D01*
X134992718Y-96928148D01*
X134833075Y-97136196D01*
X134701958Y-97363299D01*
X134701953Y-97363309D01*
X134601605Y-97605571D01*
X134601602Y-97605581D01*
X134533730Y-97858885D01*
X134499500Y-98118872D01*
X123263207Y-98118872D01*
X123354939Y-98027140D01*
X127295259Y-94086819D01*
X127356582Y-94053334D01*
X127382940Y-94050500D01*
X148078844Y-94050500D01*
X148078845Y-94050499D01*
X148233497Y-94019737D01*
X148379179Y-93959394D01*
X148510289Y-93871789D01*
X155756789Y-86625289D01*
X155844394Y-86494179D01*
X155904738Y-86348497D01*
X155935500Y-86193842D01*
X155935500Y-86036157D01*
X155935500Y-78841302D01*
X155955185Y-78774263D01*
X155986609Y-78740988D01*
X156112510Y-78649517D01*
X156279517Y-78482510D01*
X156418343Y-78291433D01*
X156525568Y-78080992D01*
X156598553Y-77856368D01*
X156623637Y-77697993D01*
X156635500Y-77623097D01*
X156635500Y-77386902D01*
X156598553Y-77153631D01*
X156559163Y-77032403D01*
X156525568Y-76929008D01*
X156525566Y-76929005D01*
X156525566Y-76929003D01*
X156469002Y-76817991D01*
X156418343Y-76718567D01*
X156279517Y-76527490D01*
X156112510Y-76360483D01*
X155921433Y-76221657D01*
X155916440Y-76219113D01*
X155710996Y-76114433D01*
X155486368Y-76041446D01*
X155253097Y-76004500D01*
X155253092Y-76004500D01*
X155016908Y-76004500D01*
X155016903Y-76004500D01*
X154783631Y-76041446D01*
X154559003Y-76114433D01*
X154348566Y-76221657D01*
X154299664Y-76257187D01*
X154157490Y-76360483D01*
X154157488Y-76360485D01*
X154157487Y-76360485D01*
X153990482Y-76527490D01*
X153947451Y-76586717D01*
X153892120Y-76629382D01*
X153837405Y-76637448D01*
X153817658Y-76635893D01*
X153077962Y-77375590D01*
X153060925Y-77312007D01*
X152995099Y-77197993D01*
X152902007Y-77104901D01*
X152787993Y-77039075D01*
X152724409Y-77022037D01*
X153464105Y-76282340D01*
X153464104Y-76282338D01*
X153381174Y-76222087D01*
X153170802Y-76114897D01*
X152946247Y-76041934D01*
X152946248Y-76041934D01*
X152713052Y-76005000D01*
X152476948Y-76005000D01*
X152243752Y-76041934D01*
X152019197Y-76114897D01*
X151808830Y-76222084D01*
X151725894Y-76282340D01*
X152465591Y-77022037D01*
X152402007Y-77039075D01*
X152287993Y-77104901D01*
X152194901Y-77197993D01*
X152129075Y-77312007D01*
X152112037Y-77375591D01*
X151372340Y-76635894D01*
X151312084Y-76718830D01*
X151204897Y-76929197D01*
X151131934Y-77153752D01*
X151095000Y-77386947D01*
X151095000Y-77623052D01*
X151131934Y-77856247D01*
X151204897Y-78080802D01*
X151312087Y-78291174D01*
X151372338Y-78374104D01*
X151372340Y-78374105D01*
X152112037Y-77634408D01*
X152129075Y-77697993D01*
X152194901Y-77812007D01*
X152287993Y-77905099D01*
X152402007Y-77970925D01*
X152465590Y-77987962D01*
X151725893Y-78727658D01*
X151808828Y-78787914D01*
X152019197Y-78895102D01*
X152243752Y-78968065D01*
X152243751Y-78968065D01*
X152476948Y-79005000D01*
X152713052Y-79005000D01*
X152946247Y-78968065D01*
X153170802Y-78895102D01*
X153381163Y-78787918D01*
X153381169Y-78787914D01*
X153464104Y-78727658D01*
X153464105Y-78727658D01*
X152724408Y-77987962D01*
X152787993Y-77970925D01*
X152902007Y-77905099D01*
X152995099Y-77812007D01*
X153060925Y-77697993D01*
X153077962Y-77634409D01*
X153817657Y-78374104D01*
X153837404Y-78372550D01*
X153905781Y-78386914D01*
X153947451Y-78423282D01*
X153990483Y-78482510D01*
X154157490Y-78649517D01*
X154283388Y-78740987D01*
X154326051Y-78796313D01*
X154334500Y-78841302D01*
X154334500Y-85732060D01*
X154314815Y-85799099D01*
X154298181Y-85819741D01*
X147704741Y-92413181D01*
X147643418Y-92446666D01*
X147617060Y-92449500D01*
X126921154Y-92449500D01*
X126766509Y-92480261D01*
X126766497Y-92480264D01*
X126723832Y-92497936D01*
X126723833Y-92497937D01*
X126620823Y-92540604D01*
X126620814Y-92540609D01*
X126489712Y-92628209D01*
X126489710Y-92628212D01*
X120704741Y-98413181D01*
X120643418Y-98446666D01*
X120617060Y-98449500D01*
X107624500Y-98449500D01*
X107557461Y-98429815D01*
X107511706Y-98377011D01*
X107500500Y-98325500D01*
X107500500Y-98118886D01*
X107500499Y-98118872D01*
X107488422Y-98027140D01*
X107466270Y-97858884D01*
X107398398Y-97605581D01*
X107398394Y-97605571D01*
X107298046Y-97363309D01*
X107298041Y-97363299D01*
X107166924Y-97136196D01*
X107007281Y-96928148D01*
X107007274Y-96928140D01*
X106821860Y-96742726D01*
X106821851Y-96742718D01*
X106613803Y-96583075D01*
X106386700Y-96451958D01*
X106386690Y-96451953D01*
X106144428Y-96351605D01*
X106144421Y-96351603D01*
X106144419Y-96351602D01*
X105891116Y-96283730D01*
X105833339Y-96276123D01*
X105631127Y-96249500D01*
X105631120Y-96249500D01*
X105368880Y-96249500D01*
X105368872Y-96249500D01*
X105137772Y-96279926D01*
X105108884Y-96283730D01*
X104855581Y-96351602D01*
X104855571Y-96351605D01*
X104613309Y-96451953D01*
X104613299Y-96451958D01*
X104386196Y-96583075D01*
X104178148Y-96742718D01*
X103992718Y-96928148D01*
X103833075Y-97136196D01*
X103701958Y-97363299D01*
X103701953Y-97363309D01*
X103601605Y-97605571D01*
X103601602Y-97605581D01*
X103533730Y-97858885D01*
X103499500Y-98118872D01*
X100500500Y-98118872D01*
X100500500Y-92143713D01*
X119649500Y-92143713D01*
X119649500Y-92356286D01*
X119682753Y-92566239D01*
X119748444Y-92768414D01*
X119844951Y-92957820D01*
X119969890Y-93129786D01*
X120120213Y-93280109D01*
X120292179Y-93405048D01*
X120292181Y-93405049D01*
X120292184Y-93405051D01*
X120481588Y-93501557D01*
X120683757Y-93567246D01*
X120893713Y-93600500D01*
X120893714Y-93600500D01*
X121106286Y-93600500D01*
X121106287Y-93600500D01*
X121316243Y-93567246D01*
X121518412Y-93501557D01*
X121707816Y-93405051D01*
X121729789Y-93389086D01*
X121879786Y-93280109D01*
X121879788Y-93280106D01*
X121879792Y-93280104D01*
X122030104Y-93129792D01*
X122030106Y-93129788D01*
X122030109Y-93129786D01*
X122155048Y-92957820D01*
X122155047Y-92957820D01*
X122155051Y-92957816D01*
X122251557Y-92768412D01*
X122317246Y-92566243D01*
X122350500Y-92356287D01*
X122350500Y-92143713D01*
X122317246Y-91933757D01*
X122251557Y-91731588D01*
X122155051Y-91542184D01*
X122155049Y-91542181D01*
X122155048Y-91542179D01*
X122030109Y-91370213D01*
X121879786Y-91219890D01*
X121707820Y-91094951D01*
X121518414Y-90998444D01*
X121518413Y-90998443D01*
X121518412Y-90998443D01*
X121316243Y-90932754D01*
X121316241Y-90932753D01*
X121316240Y-90932753D01*
X121154957Y-90907208D01*
X121106287Y-90899500D01*
X120893713Y-90899500D01*
X120845042Y-90907208D01*
X120683760Y-90932753D01*
X120481585Y-90998444D01*
X120292179Y-91094951D01*
X120120213Y-91219890D01*
X119969890Y-91370213D01*
X119844951Y-91542179D01*
X119748444Y-91731585D01*
X119682753Y-91933760D01*
X119649500Y-92143713D01*
X100500500Y-92143713D01*
X100500500Y-78207648D01*
X118449500Y-78207648D01*
X118449500Y-78412351D01*
X118481522Y-78614534D01*
X118544781Y-78809223D01*
X118637715Y-78991613D01*
X118758028Y-79157213D01*
X118902786Y-79301971D01*
X119057749Y-79414556D01*
X119068390Y-79422287D01*
X119176063Y-79477149D01*
X119250776Y-79515218D01*
X119250778Y-79515218D01*
X119250781Y-79515220D01*
X119355137Y-79549127D01*
X119445465Y-79578477D01*
X119493197Y-79586037D01*
X119647648Y-79610500D01*
X119647649Y-79610500D01*
X119852350Y-79610500D01*
X119852352Y-79610500D01*
X119944401Y-79595920D01*
X120013690Y-79604874D01*
X120051477Y-79630712D01*
X123943681Y-83522916D01*
X123977166Y-83584239D01*
X123980000Y-83610597D01*
X123980000Y-84624722D01*
X123903694Y-84580667D01*
X123789244Y-84550000D01*
X123670756Y-84550000D01*
X123556306Y-84580667D01*
X123480000Y-84624722D01*
X123480000Y-83600000D01*
X122782155Y-83600000D01*
X122722627Y-83606401D01*
X122722620Y-83606403D01*
X122587913Y-83656645D01*
X122587906Y-83656649D01*
X122472812Y-83742809D01*
X122472809Y-83742812D01*
X122386649Y-83857906D01*
X122386645Y-83857913D01*
X122336403Y-83992620D01*
X122336401Y-83992627D01*
X122330000Y-84052155D01*
X122330000Y-84750000D01*
X123354722Y-84750000D01*
X123310667Y-84826306D01*
X123280000Y-84940756D01*
X123280000Y-85059244D01*
X123310667Y-85173694D01*
X123354722Y-85250000D01*
X122330000Y-85250000D01*
X122330000Y-85947844D01*
X122336401Y-86007372D01*
X122336403Y-86007379D01*
X122386645Y-86142086D01*
X122386649Y-86142093D01*
X122472809Y-86257187D01*
X122472812Y-86257190D01*
X122587906Y-86343350D01*
X122587913Y-86343354D01*
X122722620Y-86393596D01*
X122722627Y-86393598D01*
X122782155Y-86399999D01*
X122782172Y-86400000D01*
X123480000Y-86400000D01*
X123480000Y-85375277D01*
X123556306Y-85419333D01*
X123670756Y-85450000D01*
X123789244Y-85450000D01*
X123903694Y-85419333D01*
X123980000Y-85375277D01*
X123980000Y-86400000D01*
X124677828Y-86400000D01*
X124677844Y-86399999D01*
X124737372Y-86393598D01*
X124737379Y-86393596D01*
X124872086Y-86343354D01*
X124872093Y-86343350D01*
X124987187Y-86257190D01*
X124987190Y-86257187D01*
X125073350Y-86142093D01*
X125073354Y-86142086D01*
X125103213Y-86062031D01*
X125145084Y-86006097D01*
X125210548Y-85981680D01*
X125278821Y-85996531D01*
X125307076Y-86017683D01*
X125357636Y-86068243D01*
X125357641Y-86068247D01*
X125513192Y-86181260D01*
X125535978Y-86197815D01*
X125652501Y-86257187D01*
X125732393Y-86297895D01*
X125732396Y-86297896D01*
X125837221Y-86331955D01*
X125942049Y-86366015D01*
X126159778Y-86400500D01*
X126159779Y-86400500D01*
X126380221Y-86400500D01*
X126380222Y-86400500D01*
X126597951Y-86366015D01*
X126807606Y-86297895D01*
X127004022Y-86197815D01*
X127182365Y-86068242D01*
X127338242Y-85912365D01*
X127467815Y-85734022D01*
X127567895Y-85537606D01*
X127636015Y-85327951D01*
X127670500Y-85110222D01*
X127670500Y-84889778D01*
X127636015Y-84672049D01*
X127601955Y-84567221D01*
X127567896Y-84462396D01*
X127567895Y-84462393D01*
X127533237Y-84394375D01*
X127467815Y-84265978D01*
X127451260Y-84243192D01*
X127338247Y-84087641D01*
X127338243Y-84087636D01*
X127182363Y-83931756D01*
X127182358Y-83931752D01*
X127004025Y-83802187D01*
X127004024Y-83802186D01*
X127004022Y-83802185D01*
X126941096Y-83770122D01*
X126807606Y-83702104D01*
X126807603Y-83702103D01*
X126597952Y-83633985D01*
X126450285Y-83610597D01*
X126380222Y-83599500D01*
X126159778Y-83599500D01*
X126116232Y-83606397D01*
X125942045Y-83633985D01*
X125871794Y-83656811D01*
X125801953Y-83658806D01*
X125745796Y-83626561D01*
X121002387Y-78883152D01*
X120968902Y-78821829D01*
X120972136Y-78757154D01*
X121018477Y-78614534D01*
X121050500Y-78412352D01*
X121050500Y-78207648D01*
X121018477Y-78005466D01*
X120955220Y-77810781D01*
X120955218Y-77810778D01*
X120955218Y-77810776D01*
X120921503Y-77744607D01*
X120862287Y-77628390D01*
X120832172Y-77586940D01*
X120741971Y-77462786D01*
X120597213Y-77318028D01*
X120431613Y-77197715D01*
X120431612Y-77197714D01*
X120431610Y-77197713D01*
X120348992Y-77155617D01*
X120249223Y-77104781D01*
X120054534Y-77041522D01*
X119879995Y-77013878D01*
X119852352Y-77009500D01*
X119647648Y-77009500D01*
X119623329Y-77013351D01*
X119445465Y-77041522D01*
X119250776Y-77104781D01*
X119068386Y-77197715D01*
X118902786Y-77318028D01*
X118758028Y-77462786D01*
X118637715Y-77628386D01*
X118544781Y-77810776D01*
X118481522Y-78005465D01*
X118449500Y-78207648D01*
X100500500Y-78207648D01*
X100500500Y-54897682D01*
X104905113Y-54897682D01*
X104905113Y-55102317D01*
X104937122Y-55304417D01*
X105000357Y-55499031D01*
X105093254Y-55681350D01*
X105093260Y-55681359D01*
X105125636Y-55725921D01*
X105125637Y-55725922D01*
X105805113Y-55046446D01*
X105805113Y-55052661D01*
X105832372Y-55154394D01*
X105885033Y-55245606D01*
X105959507Y-55320080D01*
X106050719Y-55372741D01*
X106152452Y-55400000D01*
X106158665Y-55400000D01*
X105479189Y-56079474D01*
X105523763Y-56111859D01*
X105706081Y-56204755D01*
X105900695Y-56267990D01*
X106102796Y-56300000D01*
X106307430Y-56300000D01*
X106509530Y-56267990D01*
X106704144Y-56204755D01*
X106886454Y-56111863D01*
X106886462Y-56111858D01*
X106956665Y-56060852D01*
X107022471Y-56037371D01*
X107090525Y-56053196D01*
X107117233Y-56073488D01*
X107186457Y-56142712D01*
X107335779Y-56234814D01*
X107502316Y-56289999D01*
X107605104Y-56300500D01*
X108805121Y-56300499D01*
X108907910Y-56289999D01*
X109074447Y-56234814D01*
X109223769Y-56142712D01*
X109347825Y-56018656D01*
X109439927Y-55869334D01*
X109495112Y-55702797D01*
X109505613Y-55600009D01*
X109505612Y-54747376D01*
X109515053Y-54699920D01*
X109519738Y-54688610D01*
X109550500Y-54533955D01*
X109550500Y-54376270D01*
X109550500Y-50839033D01*
X109570185Y-50771994D01*
X109593962Y-50744748D01*
X109597210Y-50741972D01*
X109597219Y-50741966D01*
X109741966Y-50597219D01*
X109741968Y-50597215D01*
X109741971Y-50597213D01*
X109794732Y-50524590D01*
X109862287Y-50431610D01*
X109955220Y-50249219D01*
X110018477Y-50054534D01*
X110050500Y-49852352D01*
X110050500Y-49647648D01*
X110050499Y-49647644D01*
X110050165Y-49643404D01*
X110064519Y-49575024D01*
X110086096Y-49545980D01*
X110605259Y-49026819D01*
X110666582Y-48993334D01*
X110692940Y-48990500D01*
X111350967Y-48990500D01*
X111418006Y-49010185D01*
X111445252Y-49033962D01*
X111448035Y-49037220D01*
X111592786Y-49181971D01*
X111747749Y-49294556D01*
X111758390Y-49302287D01*
X111849840Y-49348883D01*
X111851080Y-49349515D01*
X111901876Y-49397490D01*
X111918671Y-49465311D01*
X111896134Y-49531446D01*
X111851080Y-49570485D01*
X111758386Y-49617715D01*
X111592786Y-49738028D01*
X111448028Y-49882786D01*
X111327715Y-50048386D01*
X111234781Y-50230776D01*
X111171522Y-50425465D01*
X111139500Y-50627648D01*
X111139500Y-50832352D01*
X111145642Y-50871130D01*
X111172285Y-51039346D01*
X111170252Y-51039667D01*
X111167165Y-51100834D01*
X111137781Y-51147627D01*
X110916270Y-51369139D01*
X110829144Y-51456264D01*
X110829138Y-51456272D01*
X110760691Y-51558708D01*
X110760689Y-51558711D01*
X110760688Y-51558714D01*
X110753026Y-51577213D01*
X110745287Y-51595896D01*
X110713537Y-51672549D01*
X110713535Y-51672556D01*
X110689500Y-51793389D01*
X110689500Y-62316611D01*
X110713535Y-62437444D01*
X110713540Y-62437461D01*
X110760685Y-62551281D01*
X110760687Y-62551285D01*
X110785254Y-62588051D01*
X110785257Y-62588054D01*
X110789564Y-62594500D01*
X110829142Y-62653733D01*
X110916267Y-62740858D01*
X110916269Y-62740859D01*
X110926482Y-62751072D01*
X118447781Y-70272371D01*
X118481266Y-70333694D01*
X118480785Y-70380416D01*
X118482285Y-70380654D01*
X118449500Y-70587648D01*
X118449500Y-70792351D01*
X118481522Y-70994534D01*
X118544781Y-71189223D01*
X118596907Y-71291524D01*
X118629138Y-71354781D01*
X118637715Y-71371613D01*
X118758028Y-71537213D01*
X118902786Y-71681971D01*
X119057749Y-71794556D01*
X119068390Y-71802287D01*
X119184607Y-71861503D01*
X119250776Y-71895218D01*
X119250778Y-71895218D01*
X119250781Y-71895220D01*
X119336836Y-71923181D01*
X119445465Y-71958477D01*
X119511475Y-71968932D01*
X119647648Y-71990500D01*
X119647649Y-71990500D01*
X119852351Y-71990500D01*
X119852352Y-71990500D01*
X120054534Y-71958477D01*
X120249219Y-71895220D01*
X120431610Y-71802287D01*
X120554799Y-71712786D01*
X120597213Y-71681971D01*
X120597215Y-71681968D01*
X120597219Y-71681966D01*
X120741966Y-71537219D01*
X120741968Y-71537215D01*
X120741971Y-71537213D01*
X120806995Y-71447713D01*
X120862287Y-71371610D01*
X120955220Y-71189219D01*
X121018477Y-70994534D01*
X121034664Y-70892330D01*
X121064591Y-70829201D01*
X121123903Y-70792269D01*
X121193765Y-70793267D01*
X121244817Y-70824052D01*
X123943681Y-73522916D01*
X123977166Y-73584239D01*
X123980000Y-73610597D01*
X123980000Y-74624722D01*
X123903694Y-74580667D01*
X123789244Y-74550000D01*
X123670756Y-74550000D01*
X123556306Y-74580667D01*
X123480000Y-74624722D01*
X123480000Y-73600000D01*
X122782155Y-73600000D01*
X122722627Y-73606401D01*
X122722620Y-73606403D01*
X122587913Y-73656645D01*
X122587906Y-73656649D01*
X122472812Y-73742809D01*
X122472809Y-73742812D01*
X122386649Y-73857906D01*
X122386645Y-73857913D01*
X122336403Y-73992620D01*
X122336401Y-73992627D01*
X122330000Y-74052155D01*
X122330000Y-74750000D01*
X123354722Y-74750000D01*
X123310667Y-74826306D01*
X123280000Y-74940756D01*
X123280000Y-75059244D01*
X123310667Y-75173694D01*
X123354722Y-75250000D01*
X122330000Y-75250000D01*
X122330000Y-75947844D01*
X122336401Y-76007372D01*
X122336403Y-76007379D01*
X122386645Y-76142086D01*
X122386649Y-76142093D01*
X122472809Y-76257187D01*
X122472812Y-76257190D01*
X122587906Y-76343350D01*
X122587913Y-76343354D01*
X122722620Y-76393596D01*
X122722627Y-76393598D01*
X122782155Y-76399999D01*
X122782172Y-76400000D01*
X123480000Y-76400000D01*
X123480000Y-75375277D01*
X123556306Y-75419333D01*
X123670756Y-75450000D01*
X123789244Y-75450000D01*
X123903694Y-75419333D01*
X123980000Y-75375277D01*
X123980000Y-76400000D01*
X124677828Y-76400000D01*
X124677844Y-76399999D01*
X124737372Y-76393598D01*
X124737379Y-76393596D01*
X124872086Y-76343354D01*
X124872093Y-76343350D01*
X124987187Y-76257190D01*
X124987190Y-76257187D01*
X125073350Y-76142093D01*
X125073354Y-76142086D01*
X125103213Y-76062031D01*
X125145084Y-76006097D01*
X125210548Y-75981680D01*
X125278821Y-75996531D01*
X125307076Y-76017683D01*
X125357636Y-76068243D01*
X125357641Y-76068247D01*
X125513192Y-76181260D01*
X125535978Y-76197815D01*
X125652501Y-76257187D01*
X125732393Y-76297895D01*
X125732396Y-76297896D01*
X125799525Y-76319707D01*
X125942049Y-76366015D01*
X126159778Y-76400500D01*
X126159779Y-76400500D01*
X126380221Y-76400500D01*
X126380222Y-76400500D01*
X126597951Y-76366015D01*
X126807606Y-76297895D01*
X127004022Y-76197815D01*
X127182365Y-76068242D01*
X127338242Y-75912365D01*
X127467815Y-75734022D01*
X127567895Y-75537606D01*
X127636015Y-75327951D01*
X127670500Y-75110222D01*
X127670500Y-74889778D01*
X127636015Y-74672049D01*
X127601955Y-74567221D01*
X127567896Y-74462396D01*
X127567895Y-74462393D01*
X127533237Y-74394375D01*
X127467815Y-74265978D01*
X127409563Y-74185800D01*
X127338247Y-74087641D01*
X127338243Y-74087636D01*
X127182363Y-73931756D01*
X127182358Y-73931752D01*
X127004025Y-73802187D01*
X127004024Y-73802186D01*
X127004022Y-73802185D01*
X126931192Y-73765076D01*
X126807606Y-73702104D01*
X126807603Y-73702103D01*
X126597952Y-73633985D01*
X126450285Y-73610597D01*
X126380222Y-73599500D01*
X126159778Y-73599500D01*
X126116232Y-73606397D01*
X125942045Y-73633985D01*
X125871794Y-73656811D01*
X125801953Y-73658806D01*
X125745796Y-73626561D01*
X120581365Y-68462130D01*
X120547880Y-68400807D01*
X120552864Y-68331115D01*
X120568728Y-68301563D01*
X120612287Y-68241610D01*
X120705220Y-68059219D01*
X120768477Y-67864534D01*
X120800500Y-67662352D01*
X120800500Y-67457648D01*
X120768477Y-67255466D01*
X120705220Y-67060781D01*
X120705218Y-67060778D01*
X120705218Y-67060776D01*
X120671503Y-66994607D01*
X120612287Y-66878390D01*
X120604556Y-66867749D01*
X120491971Y-66712786D01*
X120347213Y-66568028D01*
X120181613Y-66447715D01*
X120181612Y-66447714D01*
X120181610Y-66447713D01*
X120124653Y-66418691D01*
X119999223Y-66354781D01*
X119804534Y-66291522D01*
X119629995Y-66263878D01*
X119602352Y-66259500D01*
X119397648Y-66259500D01*
X119373329Y-66263351D01*
X119195465Y-66291522D01*
X119000776Y-66354781D01*
X118818386Y-66447715D01*
X118652786Y-66568028D01*
X118508028Y-66712786D01*
X118387715Y-66878386D01*
X118294781Y-67060776D01*
X118231522Y-67255465D01*
X118199500Y-67457648D01*
X118199500Y-67662351D01*
X118231523Y-67864535D01*
X118231523Y-67864538D01*
X118275219Y-67999018D01*
X118277214Y-68068859D01*
X118241134Y-68128692D01*
X118178433Y-68159520D01*
X118109019Y-68151555D01*
X118069607Y-68125017D01*
X115633813Y-65689223D01*
X111976819Y-62032228D01*
X111943334Y-61970905D01*
X111940500Y-61944547D01*
X111940500Y-57185800D01*
X111960185Y-57118761D01*
X112012989Y-57073006D01*
X112082147Y-57063062D01*
X112102820Y-57067870D01*
X112135458Y-57078475D01*
X112135461Y-57078475D01*
X112135466Y-57078477D01*
X112337648Y-57110500D01*
X112337649Y-57110500D01*
X112542351Y-57110500D01*
X112542352Y-57110500D01*
X112611371Y-57099568D01*
X112749347Y-57077715D01*
X112749672Y-57079767D01*
X112810743Y-57082802D01*
X112857628Y-57112218D01*
X114394139Y-58648729D01*
X114394142Y-58648733D01*
X114481267Y-58735858D01*
X114532490Y-58770084D01*
X114583714Y-58804312D01*
X114583715Y-58804312D01*
X114583716Y-58804313D01*
X114657390Y-58834829D01*
X114657394Y-58834830D01*
X114664207Y-58837652D01*
X114697548Y-58851463D01*
X114757971Y-58863481D01*
X114818393Y-58875500D01*
X114818394Y-58875500D01*
X118425953Y-58875500D01*
X118492992Y-58895185D01*
X118538747Y-58947989D01*
X118548691Y-59017147D01*
X118519666Y-59080703D01*
X118513634Y-59087181D01*
X118508032Y-59092782D01*
X118508028Y-59092786D01*
X118387715Y-59258386D01*
X118294781Y-59440776D01*
X118231522Y-59635465D01*
X118199500Y-59837648D01*
X118199500Y-60042351D01*
X118231522Y-60244534D01*
X118294781Y-60439223D01*
X118299271Y-60448034D01*
X118373026Y-60592786D01*
X118387715Y-60621613D01*
X118508028Y-60787213D01*
X118508034Y-60787219D01*
X118652781Y-60931966D01*
X118818390Y-61052287D01*
X118818394Y-61052289D01*
X118822332Y-61055150D01*
X118821111Y-61056829D01*
X118862155Y-61102177D01*
X118874500Y-61156114D01*
X118874500Y-63281611D01*
X118898535Y-63402444D01*
X118898540Y-63402461D01*
X118945685Y-63516280D01*
X118945687Y-63516283D01*
X118945688Y-63516286D01*
X118979915Y-63567509D01*
X119014142Y-63618733D01*
X119101267Y-63705858D01*
X119101269Y-63705859D01*
X119111232Y-63715822D01*
X128463181Y-73067771D01*
X128496666Y-73129094D01*
X128499500Y-73155452D01*
X128499500Y-78496611D01*
X128523535Y-78617444D01*
X128523540Y-78617461D01*
X128570685Y-78731280D01*
X128570687Y-78731283D01*
X128570688Y-78731286D01*
X128604915Y-78782509D01*
X128639142Y-78833733D01*
X128726267Y-78920858D01*
X128726269Y-78920859D01*
X128736232Y-78930822D01*
X130137781Y-80332371D01*
X130171266Y-80393694D01*
X130170785Y-80440416D01*
X130172285Y-80440654D01*
X130139500Y-80647648D01*
X130139500Y-80852351D01*
X130171522Y-81054534D01*
X130234781Y-81249223D01*
X130327715Y-81431613D01*
X130448028Y-81597213D01*
X130592786Y-81741971D01*
X130747749Y-81854556D01*
X130758390Y-81862287D01*
X130874607Y-81921503D01*
X130940776Y-81955218D01*
X130940778Y-81955218D01*
X130940781Y-81955220D01*
X131045137Y-81989127D01*
X131135465Y-82018477D01*
X131236557Y-82034488D01*
X131337648Y-82050500D01*
X131337649Y-82050500D01*
X131542351Y-82050500D01*
X131542352Y-82050500D01*
X131744534Y-82018477D01*
X131939219Y-81955220D01*
X132121610Y-81862287D01*
X132214590Y-81794732D01*
X132287213Y-81741971D01*
X132287215Y-81741968D01*
X132287219Y-81741966D01*
X132431966Y-81597219D01*
X132431968Y-81597215D01*
X132431971Y-81597213D01*
X132484732Y-81524590D01*
X132552287Y-81431610D01*
X132645220Y-81249219D01*
X132708477Y-81054534D01*
X132740500Y-80852352D01*
X132740500Y-80647648D01*
X132708477Y-80445466D01*
X132706913Y-80440654D01*
X132645218Y-80250776D01*
X132611503Y-80184607D01*
X132552287Y-80068390D01*
X132493683Y-79987728D01*
X132431968Y-79902783D01*
X132287213Y-79758028D01*
X132121613Y-79637715D01*
X132121612Y-79637714D01*
X132121610Y-79637713D01*
X132039587Y-79595920D01*
X131939223Y-79544781D01*
X131744534Y-79481522D01*
X131569995Y-79453878D01*
X131542352Y-79449500D01*
X131337648Y-79449500D01*
X131234101Y-79465900D01*
X131130654Y-79482285D01*
X131130333Y-79480262D01*
X131069120Y-79477149D01*
X131022371Y-79447781D01*
X130408323Y-78833733D01*
X129786819Y-78212228D01*
X129753334Y-78150905D01*
X129750500Y-78124547D01*
X129750500Y-74185800D01*
X129770185Y-74118761D01*
X129822989Y-74073006D01*
X129892147Y-74063062D01*
X129912820Y-74067870D01*
X129945458Y-74078475D01*
X129945461Y-74078475D01*
X129945466Y-74078477D01*
X130147648Y-74110500D01*
X130147649Y-74110500D01*
X130352351Y-74110500D01*
X130352352Y-74110500D01*
X130554534Y-74078477D01*
X130749219Y-74015220D01*
X130931610Y-73922287D01*
X131028417Y-73851953D01*
X131097213Y-73801971D01*
X131097215Y-73801968D01*
X131097219Y-73801966D01*
X131241966Y-73657219D01*
X131241968Y-73657215D01*
X131241971Y-73657213D01*
X131362284Y-73491614D01*
X131362283Y-73491614D01*
X131362287Y-73491610D01*
X131369117Y-73478204D01*
X131417091Y-73427409D01*
X131479602Y-73410500D01*
X132560570Y-73410500D01*
X132627609Y-73430185D01*
X132673364Y-73482989D01*
X132683308Y-73552147D01*
X132654283Y-73615703D01*
X132603903Y-73650682D01*
X132587913Y-73656645D01*
X132587906Y-73656649D01*
X132472812Y-73742809D01*
X132472809Y-73742812D01*
X132386649Y-73857906D01*
X132386645Y-73857913D01*
X132336403Y-73992620D01*
X132336401Y-73992627D01*
X132330000Y-74052155D01*
X132330000Y-74750000D01*
X133354722Y-74750000D01*
X133310667Y-74826306D01*
X133280000Y-74940756D01*
X133280000Y-75059244D01*
X133310667Y-75173694D01*
X133354722Y-75250000D01*
X132330000Y-75250000D01*
X132330000Y-75947844D01*
X132336401Y-76007372D01*
X132336403Y-76007379D01*
X132386645Y-76142086D01*
X132386649Y-76142093D01*
X132472809Y-76257187D01*
X132472812Y-76257190D01*
X132587906Y-76343350D01*
X132587913Y-76343354D01*
X132722620Y-76393596D01*
X132722627Y-76393598D01*
X132782155Y-76399999D01*
X132782172Y-76400000D01*
X133480000Y-76400000D01*
X133480000Y-75375277D01*
X133556306Y-75419333D01*
X133670756Y-75450000D01*
X133789244Y-75450000D01*
X133903694Y-75419333D01*
X133980000Y-75375277D01*
X133980000Y-76400000D01*
X134677828Y-76400000D01*
X134677844Y-76399999D01*
X134737372Y-76393598D01*
X134737379Y-76393596D01*
X134872086Y-76343354D01*
X134872093Y-76343350D01*
X134987187Y-76257190D01*
X134987190Y-76257187D01*
X135073350Y-76142093D01*
X135073354Y-76142086D01*
X135103213Y-76062031D01*
X135145084Y-76006097D01*
X135210548Y-75981680D01*
X135278821Y-75996531D01*
X135307076Y-76017683D01*
X135357636Y-76068243D01*
X135357641Y-76068247D01*
X135513192Y-76181260D01*
X135535978Y-76197815D01*
X135652501Y-76257187D01*
X135732393Y-76297895D01*
X135732396Y-76297896D01*
X135799525Y-76319707D01*
X135942049Y-76366015D01*
X136159778Y-76400500D01*
X136159779Y-76400500D01*
X136380221Y-76400500D01*
X136380222Y-76400500D01*
X136597951Y-76366015D01*
X136807606Y-76297895D01*
X137004022Y-76197815D01*
X137182365Y-76068242D01*
X137338242Y-75912365D01*
X137467815Y-75734022D01*
X137567895Y-75537606D01*
X137636015Y-75327951D01*
X137670500Y-75110222D01*
X137670500Y-74889778D01*
X137636015Y-74672049D01*
X137601955Y-74567221D01*
X137567896Y-74462396D01*
X137567895Y-74462393D01*
X137533237Y-74394375D01*
X137467815Y-74265978D01*
X137409563Y-74185800D01*
X137338247Y-74087641D01*
X137338243Y-74087636D01*
X137182363Y-73931756D01*
X137182358Y-73931752D01*
X137004025Y-73802187D01*
X137004024Y-73802186D01*
X137004022Y-73802185D01*
X136931192Y-73765076D01*
X136807606Y-73702104D01*
X136807603Y-73702103D01*
X136597952Y-73633985D01*
X136450285Y-73610597D01*
X136380222Y-73599500D01*
X136159778Y-73599500D01*
X136116232Y-73606397D01*
X135942045Y-73633985D01*
X135871794Y-73656811D01*
X135801953Y-73658806D01*
X135745796Y-73626561D01*
X134567590Y-72448355D01*
X134567588Y-72448352D01*
X134448717Y-72329481D01*
X134448716Y-72329480D01*
X134361904Y-72279360D01*
X134361904Y-72279359D01*
X134361900Y-72279358D01*
X134311785Y-72250423D01*
X134159057Y-72209499D01*
X134000943Y-72209499D01*
X133993347Y-72209499D01*
X133993331Y-72209500D01*
X131479602Y-72209500D01*
X131412563Y-72189815D01*
X131369117Y-72141795D01*
X131362284Y-72128385D01*
X131241971Y-71962786D01*
X131097213Y-71818028D01*
X130931613Y-71697715D01*
X130931612Y-71697714D01*
X130931610Y-71697713D01*
X130874653Y-71668691D01*
X130749223Y-71604781D01*
X130554534Y-71541522D01*
X130379995Y-71513878D01*
X130352352Y-71509500D01*
X130147648Y-71509500D01*
X130123329Y-71513351D01*
X129945465Y-71541522D01*
X129750776Y-71604781D01*
X129568386Y-71697715D01*
X129402786Y-71818028D01*
X129402782Y-71818032D01*
X129280384Y-71940431D01*
X129219061Y-71973916D01*
X129149369Y-71968932D01*
X129105022Y-71940431D01*
X123516319Y-66351728D01*
X123482834Y-66290405D01*
X123480000Y-66264047D01*
X123480000Y-65375277D01*
X123556306Y-65419333D01*
X123670756Y-65450000D01*
X123789244Y-65450000D01*
X123903694Y-65419333D01*
X123980000Y-65375277D01*
X123980000Y-66400000D01*
X124677828Y-66400000D01*
X124677844Y-66399999D01*
X124737372Y-66393598D01*
X124737379Y-66393596D01*
X124872086Y-66343354D01*
X124872093Y-66343350D01*
X124987187Y-66257190D01*
X124987190Y-66257187D01*
X125073350Y-66142093D01*
X125073354Y-66142086D01*
X125103213Y-66062031D01*
X125145084Y-66006097D01*
X125210548Y-65981680D01*
X125278821Y-65996531D01*
X125307076Y-66017683D01*
X125357636Y-66068243D01*
X125357641Y-66068247D01*
X125513192Y-66181260D01*
X125535978Y-66197815D01*
X125623123Y-66242218D01*
X125732393Y-66297895D01*
X125732396Y-66297896D01*
X125799525Y-66319707D01*
X125942049Y-66366015D01*
X126159778Y-66400500D01*
X126159779Y-66400500D01*
X126380221Y-66400500D01*
X126380222Y-66400500D01*
X126597951Y-66366015D01*
X126668205Y-66343187D01*
X126738044Y-66341192D01*
X126794203Y-66373438D01*
X130785139Y-70364374D01*
X130785149Y-70364385D01*
X130789479Y-70368715D01*
X130789480Y-70368716D01*
X130901284Y-70480520D01*
X130988095Y-70530639D01*
X130988097Y-70530641D01*
X131026151Y-70552611D01*
X131038215Y-70559577D01*
X131190943Y-70600501D01*
X131190946Y-70600501D01*
X131356653Y-70600501D01*
X131356669Y-70600500D01*
X134699903Y-70600500D01*
X134766942Y-70620185D01*
X134787583Y-70636818D01*
X137191284Y-73040520D01*
X137191286Y-73040521D01*
X137191290Y-73040524D01*
X137301391Y-73104090D01*
X137328216Y-73119577D01*
X137480943Y-73160501D01*
X137480945Y-73160501D01*
X137646654Y-73160501D01*
X137646670Y-73160500D01*
X138770398Y-73160500D01*
X138837437Y-73180185D01*
X138880883Y-73228205D01*
X138887715Y-73241614D01*
X139008028Y-73407213D01*
X139152786Y-73551971D01*
X139299835Y-73658806D01*
X139318390Y-73672287D01*
X139434607Y-73731503D01*
X139500776Y-73765218D01*
X139500778Y-73765218D01*
X139500781Y-73765220D01*
X139605137Y-73799127D01*
X139695465Y-73828477D01*
X139796557Y-73844488D01*
X139897648Y-73860500D01*
X139897649Y-73860500D01*
X140102351Y-73860500D01*
X140102352Y-73860500D01*
X140304534Y-73828477D01*
X140304539Y-73828475D01*
X140304541Y-73828475D01*
X140337180Y-73817870D01*
X140407021Y-73815873D01*
X140466855Y-73851953D01*
X140497684Y-73914653D01*
X140499500Y-73935800D01*
X140499500Y-76783556D01*
X140479815Y-76850595D01*
X140463181Y-76871237D01*
X137449143Y-79885274D01*
X137449140Y-79885277D01*
X137437444Y-79902783D01*
X137380689Y-79987721D01*
X137380685Y-79987728D01*
X137354671Y-80050534D01*
X137333538Y-80101552D01*
X137333538Y-80101554D01*
X137309500Y-80222405D01*
X137309500Y-89056611D01*
X137333535Y-89177444D01*
X137333540Y-89177461D01*
X137380685Y-89291281D01*
X137380687Y-89291285D01*
X137383023Y-89294781D01*
X137414097Y-89341284D01*
X137449142Y-89393733D01*
X137536267Y-89480858D01*
X137536269Y-89480859D01*
X137546271Y-89490861D01*
X138137781Y-90082371D01*
X138171266Y-90143694D01*
X138170785Y-90190416D01*
X138172285Y-90190654D01*
X138139500Y-90397648D01*
X138139500Y-90602351D01*
X138171522Y-90804534D01*
X138234781Y-90999223D01*
X138327715Y-91181613D01*
X138448028Y-91347213D01*
X138592786Y-91491971D01*
X138747749Y-91604556D01*
X138758390Y-91612287D01*
X138874607Y-91671503D01*
X138940776Y-91705218D01*
X138940778Y-91705218D01*
X138940781Y-91705220D01*
X139045137Y-91739127D01*
X139135465Y-91768477D01*
X139236557Y-91784488D01*
X139337648Y-91800500D01*
X139337649Y-91800500D01*
X139542351Y-91800500D01*
X139542352Y-91800500D01*
X139744534Y-91768477D01*
X139939219Y-91705220D01*
X140121610Y-91612287D01*
X140218106Y-91542179D01*
X140287213Y-91491971D01*
X140287215Y-91491968D01*
X140287219Y-91491966D01*
X140431966Y-91347219D01*
X140431968Y-91347215D01*
X140431971Y-91347213D01*
X140484732Y-91274590D01*
X140552287Y-91181610D01*
X140645220Y-90999219D01*
X140708477Y-90804534D01*
X140740500Y-90602352D01*
X140740500Y-90397648D01*
X140708477Y-90195466D01*
X140708476Y-90195464D01*
X140645218Y-90000776D01*
X140611503Y-89934607D01*
X140552287Y-89818390D01*
X140530973Y-89789054D01*
X140431971Y-89652786D01*
X140287213Y-89508028D01*
X140121613Y-89387715D01*
X140121612Y-89387714D01*
X140121610Y-89387713D01*
X140064653Y-89358691D01*
X139939223Y-89294781D01*
X139744534Y-89231522D01*
X139569995Y-89203878D01*
X139542352Y-89199500D01*
X139337648Y-89199500D01*
X139250501Y-89213303D01*
X139130654Y-89232285D01*
X139130333Y-89230262D01*
X139069120Y-89227149D01*
X139022371Y-89197781D01*
X138596819Y-88772228D01*
X138563334Y-88710905D01*
X138560500Y-88684547D01*
X138560500Y-84052155D01*
X142330000Y-84052155D01*
X142330000Y-84750000D01*
X143354722Y-84750000D01*
X143310667Y-84826306D01*
X143280000Y-84940756D01*
X143280000Y-85059244D01*
X143310667Y-85173694D01*
X143354722Y-85250000D01*
X142330000Y-85250000D01*
X142330000Y-85947844D01*
X142336401Y-86007372D01*
X142336403Y-86007379D01*
X142386645Y-86142086D01*
X142386649Y-86142093D01*
X142472809Y-86257187D01*
X142472812Y-86257190D01*
X142587906Y-86343350D01*
X142587913Y-86343354D01*
X142722620Y-86393596D01*
X142722627Y-86393598D01*
X142782155Y-86399999D01*
X142782172Y-86400000D01*
X143480000Y-86400000D01*
X143480000Y-85375277D01*
X143556306Y-85419333D01*
X143670756Y-85450000D01*
X143789244Y-85450000D01*
X143903694Y-85419333D01*
X143980000Y-85375277D01*
X143980000Y-86400000D01*
X144677828Y-86400000D01*
X144677844Y-86399999D01*
X144737372Y-86393598D01*
X144737379Y-86393596D01*
X144872086Y-86343354D01*
X144872093Y-86343350D01*
X144987187Y-86257190D01*
X144987190Y-86257187D01*
X145073350Y-86142093D01*
X145073354Y-86142086D01*
X145103213Y-86062031D01*
X145145084Y-86006097D01*
X145210548Y-85981680D01*
X145278821Y-85996531D01*
X145307076Y-86017683D01*
X145357636Y-86068243D01*
X145357641Y-86068247D01*
X145535976Y-86197814D01*
X145601794Y-86231350D01*
X145652591Y-86279324D01*
X145669500Y-86341835D01*
X145669500Y-89623330D01*
X145669499Y-89623348D01*
X145669499Y-89789054D01*
X145669498Y-89789054D01*
X145669499Y-89789057D01*
X145710423Y-89941785D01*
X145739360Y-89991904D01*
X145787269Y-90074887D01*
X145787457Y-90075212D01*
X145803929Y-90143112D01*
X145798001Y-90175526D01*
X145791523Y-90195464D01*
X145759500Y-90397648D01*
X145759500Y-90602351D01*
X145791522Y-90804534D01*
X145854781Y-90999223D01*
X145947715Y-91181613D01*
X146068028Y-91347213D01*
X146212786Y-91491971D01*
X146367749Y-91604556D01*
X146378390Y-91612287D01*
X146494607Y-91671503D01*
X146560776Y-91705218D01*
X146560778Y-91705218D01*
X146560781Y-91705220D01*
X146665137Y-91739127D01*
X146755465Y-91768477D01*
X146856557Y-91784488D01*
X146957648Y-91800500D01*
X146957649Y-91800500D01*
X147162351Y-91800500D01*
X147162352Y-91800500D01*
X147364534Y-91768477D01*
X147559219Y-91705220D01*
X147741610Y-91612287D01*
X147838106Y-91542179D01*
X147907213Y-91491971D01*
X147907215Y-91491968D01*
X147907219Y-91491966D01*
X148051966Y-91347219D01*
X148051968Y-91347215D01*
X148051971Y-91347213D01*
X148104732Y-91274590D01*
X148172287Y-91181610D01*
X148265220Y-90999219D01*
X148328477Y-90804534D01*
X148360500Y-90602352D01*
X148360500Y-90397648D01*
X148328477Y-90195466D01*
X148328476Y-90195464D01*
X148265218Y-90000776D01*
X148231503Y-89934607D01*
X148172287Y-89818390D01*
X148150973Y-89789054D01*
X148051971Y-89652786D01*
X147907213Y-89508028D01*
X147741613Y-89387715D01*
X147741612Y-89387714D01*
X147741610Y-89387713D01*
X147684653Y-89358691D01*
X147559223Y-89294781D01*
X147364534Y-89231522D01*
X147189995Y-89203878D01*
X147162352Y-89199500D01*
X146994500Y-89199500D01*
X146927461Y-89179815D01*
X146881706Y-89127011D01*
X146870500Y-89075500D01*
X146870500Y-86341835D01*
X146890185Y-86274796D01*
X146938206Y-86231350D01*
X146938547Y-86231175D01*
X147004022Y-86197815D01*
X147182365Y-86068242D01*
X147338242Y-85912365D01*
X147467815Y-85734022D01*
X147567895Y-85537606D01*
X147636015Y-85327951D01*
X147670500Y-85110222D01*
X147670500Y-84889778D01*
X147636015Y-84672049D01*
X147601955Y-84567221D01*
X147567896Y-84462396D01*
X147567895Y-84462393D01*
X147533237Y-84394375D01*
X147467815Y-84265978D01*
X147451260Y-84243192D01*
X147338247Y-84087641D01*
X147338243Y-84087636D01*
X147182363Y-83931756D01*
X147182358Y-83931752D01*
X147004025Y-83802187D01*
X147004024Y-83802186D01*
X147004022Y-83802185D01*
X146941096Y-83770122D01*
X146807606Y-83702104D01*
X146807603Y-83702103D01*
X146597952Y-83633985D01*
X146450285Y-83610597D01*
X146380222Y-83599500D01*
X146159778Y-83599500D01*
X146089715Y-83610597D01*
X145942047Y-83633985D01*
X145732396Y-83702103D01*
X145732393Y-83702104D01*
X145535974Y-83802187D01*
X145357641Y-83931752D01*
X145357636Y-83931756D01*
X145307075Y-83982317D01*
X145245752Y-84015801D01*
X145176060Y-84010816D01*
X145120127Y-83968945D01*
X145103213Y-83937968D01*
X145073354Y-83857913D01*
X145073350Y-83857906D01*
X144987190Y-83742812D01*
X144987187Y-83742809D01*
X144872093Y-83656649D01*
X144872086Y-83656645D01*
X144737379Y-83606403D01*
X144737372Y-83606401D01*
X144677844Y-83600000D01*
X143980000Y-83600000D01*
X143980000Y-84624722D01*
X143903694Y-84580667D01*
X143789244Y-84550000D01*
X143670756Y-84550000D01*
X143556306Y-84580667D01*
X143480000Y-84624722D01*
X143480000Y-83600000D01*
X142782155Y-83600000D01*
X142722627Y-83606401D01*
X142722620Y-83606403D01*
X142587913Y-83656645D01*
X142587906Y-83656649D01*
X142472812Y-83742809D01*
X142472809Y-83742812D01*
X142386649Y-83857906D01*
X142386645Y-83857913D01*
X142336403Y-83992620D01*
X142336401Y-83992627D01*
X142330000Y-84052155D01*
X138560500Y-84052155D01*
X138560500Y-82125800D01*
X138580185Y-82058761D01*
X138632989Y-82013006D01*
X138702147Y-82003062D01*
X138722820Y-82007870D01*
X138755458Y-82018475D01*
X138755461Y-82018475D01*
X138755466Y-82018477D01*
X138957648Y-82050500D01*
X138957649Y-82050500D01*
X139162351Y-82050500D01*
X139162352Y-82050500D01*
X139364534Y-82018477D01*
X139559219Y-81955220D01*
X139741610Y-81862287D01*
X139834590Y-81794732D01*
X139907213Y-81741971D01*
X139907215Y-81741968D01*
X139907219Y-81741966D01*
X140051966Y-81597219D01*
X140051968Y-81597215D01*
X140051971Y-81597213D01*
X140172284Y-81431614D01*
X140172285Y-81431613D01*
X140172287Y-81431610D01*
X140179117Y-81418204D01*
X140189566Y-81407140D01*
X140195889Y-81393297D01*
X140213068Y-81382256D01*
X140227091Y-81367409D01*
X140242772Y-81363167D01*
X140254667Y-81355523D01*
X140289602Y-81350500D01*
X140433331Y-81350500D01*
X140433347Y-81350501D01*
X140440943Y-81350501D01*
X140599054Y-81350501D01*
X140599057Y-81350501D01*
X140751785Y-81309577D01*
X140801904Y-81280639D01*
X140888716Y-81230520D01*
X141000520Y-81118716D01*
X141000520Y-81118714D01*
X141010728Y-81108507D01*
X141010730Y-81108504D01*
X145745797Y-76373436D01*
X145807118Y-76339953D01*
X145871794Y-76343188D01*
X145942049Y-76366015D01*
X146159778Y-76400500D01*
X146159779Y-76400500D01*
X146380221Y-76400500D01*
X146380222Y-76400500D01*
X146597951Y-76366015D01*
X146807606Y-76297895D01*
X147004022Y-76197815D01*
X147182365Y-76068242D01*
X147338242Y-75912365D01*
X147467815Y-75734022D01*
X147567895Y-75537606D01*
X147636015Y-75327951D01*
X147670500Y-75110222D01*
X147670500Y-74889778D01*
X147636015Y-74672049D01*
X147601955Y-74567221D01*
X147567896Y-74462396D01*
X147567895Y-74462393D01*
X147533237Y-74394375D01*
X147467815Y-74265978D01*
X147409563Y-74185800D01*
X147338247Y-74087641D01*
X147338243Y-74087636D01*
X147182363Y-73931756D01*
X147182358Y-73931752D01*
X147004025Y-73802187D01*
X147004024Y-73802186D01*
X147004022Y-73802185D01*
X146931192Y-73765076D01*
X146807606Y-73702104D01*
X146807603Y-73702103D01*
X146597952Y-73633985D01*
X146450285Y-73610597D01*
X146380222Y-73599500D01*
X146159778Y-73599500D01*
X146089715Y-73610597D01*
X145942047Y-73633985D01*
X145732396Y-73702103D01*
X145732393Y-73702104D01*
X145535974Y-73802187D01*
X145357641Y-73931752D01*
X145357636Y-73931756D01*
X145307075Y-73982317D01*
X145245752Y-74015801D01*
X145176060Y-74010816D01*
X145120127Y-73968945D01*
X145103213Y-73937968D01*
X145073354Y-73857913D01*
X145073350Y-73857906D01*
X144987190Y-73742812D01*
X144987187Y-73742809D01*
X144872093Y-73656649D01*
X144872086Y-73656645D01*
X144737379Y-73606403D01*
X144737372Y-73606401D01*
X144677844Y-73600000D01*
X143980000Y-73600000D01*
X143980000Y-74624722D01*
X143903694Y-74580667D01*
X143789244Y-74550000D01*
X143670756Y-74550000D01*
X143556306Y-74580667D01*
X143480000Y-74624722D01*
X143480000Y-73600000D01*
X142782155Y-73600000D01*
X142722627Y-73606401D01*
X142722620Y-73606403D01*
X142587913Y-73656645D01*
X142587906Y-73656649D01*
X142472812Y-73742809D01*
X142472809Y-73742812D01*
X142386649Y-73857906D01*
X142386645Y-73857913D01*
X142336403Y-73992620D01*
X142336401Y-73992627D01*
X142330000Y-74052155D01*
X142330000Y-74750000D01*
X143354722Y-74750000D01*
X143310667Y-74826306D01*
X143280000Y-74940756D01*
X143280000Y-75059244D01*
X143310667Y-75173694D01*
X143354722Y-75250000D01*
X142330000Y-75250000D01*
X142330000Y-75947844D01*
X142336401Y-76007372D01*
X142336403Y-76007379D01*
X142386645Y-76142086D01*
X142386649Y-76142093D01*
X142472809Y-76257187D01*
X142472812Y-76257190D01*
X142587906Y-76343350D01*
X142587913Y-76343354D01*
X142722620Y-76393596D01*
X142722627Y-76393598D01*
X142782155Y-76399999D01*
X142782172Y-76400000D01*
X143480000Y-76400000D01*
X143480000Y-75375277D01*
X143556306Y-75419333D01*
X143670756Y-75450000D01*
X143789244Y-75450000D01*
X143903694Y-75419333D01*
X143980000Y-75375277D01*
X143980000Y-76389402D01*
X143960315Y-76456441D01*
X143943681Y-76477083D01*
X140350731Y-80070033D01*
X140289408Y-80103518D01*
X140219716Y-80098534D01*
X140163783Y-80056662D01*
X140162732Y-80055237D01*
X140051968Y-79902783D01*
X139907213Y-79758028D01*
X139741613Y-79637714D01*
X139711020Y-79622126D01*
X139660225Y-79574151D01*
X139643431Y-79506329D01*
X139665970Y-79440195D01*
X139679630Y-79423967D01*
X141523729Y-77579869D01*
X141523733Y-77579867D01*
X141610858Y-77492742D01*
X141679311Y-77390295D01*
X141726463Y-77276461D01*
X141731457Y-77251349D01*
X141739053Y-77213168D01*
X141739053Y-77213163D01*
X141750500Y-77155616D01*
X141750500Y-77032403D01*
X141750500Y-68957648D01*
X149199500Y-68957648D01*
X149199500Y-69162351D01*
X149231522Y-69364534D01*
X149294781Y-69559223D01*
X149387715Y-69741613D01*
X149508028Y-69907213D01*
X149652786Y-70051971D01*
X149807749Y-70164556D01*
X149818390Y-70172287D01*
X149934607Y-70231503D01*
X150000776Y-70265218D01*
X150000778Y-70265218D01*
X150000781Y-70265220D01*
X150022790Y-70272371D01*
X150195465Y-70328477D01*
X150228404Y-70333694D01*
X150397648Y-70360500D01*
X150397649Y-70360500D01*
X150602351Y-70360500D01*
X150602352Y-70360500D01*
X150804534Y-70328477D01*
X150999219Y-70265220D01*
X151181610Y-70172287D01*
X151274590Y-70104732D01*
X151347213Y-70051971D01*
X151347215Y-70051968D01*
X151347219Y-70051966D01*
X151491966Y-69907219D01*
X151491968Y-69907215D01*
X151491971Y-69907213D01*
X151544732Y-69834590D01*
X151612287Y-69741610D01*
X151705220Y-69559219D01*
X151768477Y-69364534D01*
X151800500Y-69162352D01*
X151800500Y-68957648D01*
X151776076Y-68803444D01*
X151768477Y-68755465D01*
X151705218Y-68560776D01*
X151671503Y-68494607D01*
X151612287Y-68378390D01*
X151577940Y-68331115D01*
X151491971Y-68212786D01*
X151347213Y-68068028D01*
X151181613Y-67947715D01*
X151181612Y-67947714D01*
X151181610Y-67947713D01*
X151124653Y-67918691D01*
X150999223Y-67854781D01*
X150804534Y-67791522D01*
X150629995Y-67763878D01*
X150602352Y-67759500D01*
X150397648Y-67759500D01*
X150373329Y-67763351D01*
X150195465Y-67791522D01*
X150000776Y-67854781D01*
X149818386Y-67947715D01*
X149652786Y-68068028D01*
X149508028Y-68212786D01*
X149387715Y-68378386D01*
X149294781Y-68560776D01*
X149231522Y-68755465D01*
X149199500Y-68957648D01*
X141750500Y-68957648D01*
X141750500Y-66003394D01*
X141726463Y-65882548D01*
X141679311Y-65768714D01*
X141679310Y-65768713D01*
X141679307Y-65768707D01*
X141610858Y-65666267D01*
X141610855Y-65666263D01*
X141520637Y-65576045D01*
X141520606Y-65576016D01*
X141302218Y-65357628D01*
X141299555Y-65352752D01*
X141294928Y-65349675D01*
X141282990Y-65322415D01*
X141268733Y-65296305D01*
X141268540Y-65289420D01*
X141266900Y-65285673D01*
X141267915Y-65267016D01*
X141267452Y-65250384D01*
X141268299Y-65245081D01*
X141268477Y-65244534D01*
X141300500Y-65042352D01*
X141300500Y-64837648D01*
X141268477Y-64635466D01*
X141205220Y-64440781D01*
X141205218Y-64440778D01*
X141205218Y-64440776D01*
X141112287Y-64258390D01*
X141013003Y-64121736D01*
X141013002Y-64121733D01*
X140991971Y-64092787D01*
X140991967Y-64092782D01*
X140951340Y-64052155D01*
X142330000Y-64052155D01*
X142330000Y-64750000D01*
X143354722Y-64750000D01*
X143310667Y-64826306D01*
X143280000Y-64940756D01*
X143280000Y-65059244D01*
X143310667Y-65173694D01*
X143354722Y-65250000D01*
X142330000Y-65250000D01*
X142330000Y-65947844D01*
X142336401Y-66007372D01*
X142336403Y-66007379D01*
X142386645Y-66142086D01*
X142386649Y-66142093D01*
X142472809Y-66257187D01*
X142472812Y-66257190D01*
X142587906Y-66343350D01*
X142587913Y-66343354D01*
X142722620Y-66393596D01*
X142722627Y-66393598D01*
X142782155Y-66399999D01*
X142782172Y-66400000D01*
X143480000Y-66400000D01*
X143480000Y-65375277D01*
X143556306Y-65419333D01*
X143670756Y-65450000D01*
X143789244Y-65450000D01*
X143903694Y-65419333D01*
X143980000Y-65375277D01*
X143980000Y-66400000D01*
X144677828Y-66400000D01*
X144677844Y-66399999D01*
X144737372Y-66393598D01*
X144737379Y-66393596D01*
X144872086Y-66343354D01*
X144872093Y-66343350D01*
X144987187Y-66257190D01*
X144987190Y-66257187D01*
X145073350Y-66142093D01*
X145073354Y-66142086D01*
X145103213Y-66062031D01*
X145145084Y-66006097D01*
X145210548Y-65981680D01*
X145278821Y-65996531D01*
X145307076Y-66017683D01*
X145357636Y-66068243D01*
X145357641Y-66068247D01*
X145513192Y-66181260D01*
X145535978Y-66197815D01*
X145623123Y-66242218D01*
X145732393Y-66297895D01*
X145732396Y-66297896D01*
X145799525Y-66319707D01*
X145942049Y-66366015D01*
X146159778Y-66400500D01*
X146159779Y-66400500D01*
X146380221Y-66400500D01*
X146380222Y-66400500D01*
X146597951Y-66366015D01*
X146807606Y-66297895D01*
X147004022Y-66197815D01*
X147182365Y-66068242D01*
X147338242Y-65912365D01*
X147467815Y-65734022D01*
X147567895Y-65537606D01*
X147636015Y-65327951D01*
X147662594Y-65160129D01*
X147692523Y-65096996D01*
X147697368Y-65091865D01*
X150055158Y-62734075D01*
X150116479Y-62700592D01*
X150181151Y-62703825D01*
X150195466Y-62708477D01*
X150397648Y-62740500D01*
X150397649Y-62740500D01*
X150602351Y-62740500D01*
X150602352Y-62740500D01*
X150804534Y-62708477D01*
X150999219Y-62645220D01*
X151181610Y-62552287D01*
X151274590Y-62484732D01*
X151347213Y-62431971D01*
X151347215Y-62431968D01*
X151347219Y-62431966D01*
X151491966Y-62287219D01*
X151491968Y-62287215D01*
X151491971Y-62287213D01*
X151560134Y-62193393D01*
X151612287Y-62121610D01*
X151705220Y-61939219D01*
X151768477Y-61744534D01*
X151800500Y-61542352D01*
X151800500Y-61337648D01*
X151768477Y-61135465D01*
X151705218Y-60940776D01*
X151671503Y-60874607D01*
X151612287Y-60758390D01*
X151604556Y-60747749D01*
X151491971Y-60592786D01*
X151347213Y-60448028D01*
X151181613Y-60327715D01*
X151181612Y-60327714D01*
X151181610Y-60327713D01*
X151124653Y-60298691D01*
X150999223Y-60234781D01*
X150804534Y-60171522D01*
X150629995Y-60143878D01*
X150602352Y-60139500D01*
X150397648Y-60139500D01*
X150373329Y-60143351D01*
X150195465Y-60171522D01*
X150000776Y-60234781D01*
X149818386Y-60327715D01*
X149652786Y-60448028D01*
X149508028Y-60592786D01*
X149387715Y-60758386D01*
X149294781Y-60940776D01*
X149231522Y-61135465D01*
X149199500Y-61337648D01*
X149199500Y-61542351D01*
X149231522Y-61744534D01*
X149236173Y-61758848D01*
X149238165Y-61828690D01*
X149205921Y-61884842D01*
X147243722Y-63847041D01*
X147182399Y-63880526D01*
X147112707Y-63875542D01*
X147083156Y-63859678D01*
X147004025Y-63802187D01*
X147004024Y-63802186D01*
X147004022Y-63802185D01*
X146941096Y-63770122D01*
X146807606Y-63702104D01*
X146807603Y-63702103D01*
X146597952Y-63633985D01*
X146489086Y-63616742D01*
X146380222Y-63599500D01*
X146159778Y-63599500D01*
X146087201Y-63610995D01*
X145942047Y-63633985D01*
X145732396Y-63702103D01*
X145732393Y-63702104D01*
X145535974Y-63802187D01*
X145357641Y-63931752D01*
X145357636Y-63931756D01*
X145307075Y-63982317D01*
X145245752Y-64015801D01*
X145176060Y-64010816D01*
X145120127Y-63968945D01*
X145103213Y-63937968D01*
X145073354Y-63857913D01*
X145073350Y-63857906D01*
X144987190Y-63742812D01*
X144987187Y-63742809D01*
X144872093Y-63656649D01*
X144872086Y-63656645D01*
X144737379Y-63606403D01*
X144737372Y-63606401D01*
X144677844Y-63600000D01*
X143980000Y-63600000D01*
X143980000Y-64624722D01*
X143903694Y-64580667D01*
X143789244Y-64550000D01*
X143670756Y-64550000D01*
X143556306Y-64580667D01*
X143480000Y-64624722D01*
X143480000Y-63600000D01*
X142782155Y-63600000D01*
X142722627Y-63606401D01*
X142722620Y-63606403D01*
X142587913Y-63656645D01*
X142587906Y-63656649D01*
X142472812Y-63742809D01*
X142472809Y-63742812D01*
X142386649Y-63857906D01*
X142386645Y-63857913D01*
X142336403Y-63992620D01*
X142336401Y-63992627D01*
X142330000Y-64052155D01*
X140951340Y-64052155D01*
X140847213Y-63948028D01*
X140681613Y-63827715D01*
X140681612Y-63827714D01*
X140681610Y-63827713D01*
X140624653Y-63798691D01*
X140499223Y-63734781D01*
X140304534Y-63671522D01*
X140129995Y-63643878D01*
X140102352Y-63639500D01*
X139897648Y-63639500D01*
X139873329Y-63643351D01*
X139695465Y-63671522D01*
X139500776Y-63734781D01*
X139318386Y-63827715D01*
X139152786Y-63948028D01*
X139008028Y-64092786D01*
X138887715Y-64258386D01*
X138794781Y-64440776D01*
X138731522Y-64635465D01*
X138701296Y-64826306D01*
X138699500Y-64837648D01*
X138699500Y-65042352D01*
X138703878Y-65069995D01*
X138731522Y-65244534D01*
X138794781Y-65439223D01*
X138844909Y-65537603D01*
X138866074Y-65579142D01*
X138887715Y-65621613D01*
X139008028Y-65787213D01*
X139152786Y-65931971D01*
X139307749Y-66044556D01*
X139318390Y-66052287D01*
X139434607Y-66111503D01*
X139500776Y-66145218D01*
X139500778Y-66145218D01*
X139500781Y-66145220D01*
X139605137Y-66179127D01*
X139695465Y-66208477D01*
X139774955Y-66221067D01*
X139897648Y-66240500D01*
X139897649Y-66240500D01*
X140102351Y-66240500D01*
X140102352Y-66240500D01*
X140171371Y-66229568D01*
X140309347Y-66207715D01*
X140309672Y-66209767D01*
X140311351Y-66209851D01*
X140321101Y-66206215D01*
X140345649Y-66211555D01*
X140370743Y-66212802D01*
X140381019Y-66219249D01*
X140389374Y-66221067D01*
X140417628Y-66242218D01*
X140463181Y-66287771D01*
X140496666Y-66349094D01*
X140499500Y-66375452D01*
X140499500Y-71184199D01*
X140479815Y-71251238D01*
X140427011Y-71296993D01*
X140357853Y-71306937D01*
X140337183Y-71302130D01*
X140304542Y-71291524D01*
X140304535Y-71291523D01*
X140203443Y-71275511D01*
X140102352Y-71259500D01*
X139897648Y-71259500D01*
X139873329Y-71263351D01*
X139695465Y-71291522D01*
X139500776Y-71354781D01*
X139318386Y-71447715D01*
X139152786Y-71568028D01*
X139008028Y-71712786D01*
X138887715Y-71878385D01*
X138880883Y-71891795D01*
X138832909Y-71942591D01*
X138770398Y-71959500D01*
X137860098Y-71959500D01*
X137793059Y-71939815D01*
X137772417Y-71923181D01*
X135487590Y-69638355D01*
X135487588Y-69638352D01*
X135368717Y-69519481D01*
X135368716Y-69519480D01*
X135281904Y-69469360D01*
X135281904Y-69469359D01*
X135281900Y-69469358D01*
X135231785Y-69440423D01*
X135079057Y-69399499D01*
X134920943Y-69399499D01*
X134913347Y-69399499D01*
X134913331Y-69399500D01*
X131570097Y-69399500D01*
X131503058Y-69379815D01*
X131482416Y-69363181D01*
X127643438Y-65524203D01*
X127609953Y-65462880D01*
X127613187Y-65398205D01*
X127636015Y-65327951D01*
X127670500Y-65110222D01*
X127670500Y-64889778D01*
X127636015Y-64672049D01*
X127601955Y-64567221D01*
X127567896Y-64462396D01*
X127567895Y-64462393D01*
X127506948Y-64342781D01*
X127467815Y-64265978D01*
X127363018Y-64121736D01*
X127338247Y-64087641D01*
X127338243Y-64087636D01*
X127182363Y-63931756D01*
X127182358Y-63931752D01*
X127004025Y-63802187D01*
X127004024Y-63802186D01*
X127004022Y-63802185D01*
X126941096Y-63770122D01*
X126807606Y-63702104D01*
X126807603Y-63702103D01*
X126597952Y-63633985D01*
X126489086Y-63616742D01*
X126380222Y-63599500D01*
X126159778Y-63599500D01*
X126087201Y-63610995D01*
X125942047Y-63633985D01*
X125732396Y-63702103D01*
X125732393Y-63702104D01*
X125535974Y-63802187D01*
X125357641Y-63931752D01*
X125357636Y-63931756D01*
X125307075Y-63982317D01*
X125245752Y-64015801D01*
X125176060Y-64010816D01*
X125120127Y-63968945D01*
X125103213Y-63937968D01*
X125073354Y-63857913D01*
X125073350Y-63857906D01*
X124987190Y-63742812D01*
X124987187Y-63742809D01*
X124872093Y-63656649D01*
X124872086Y-63656645D01*
X124737379Y-63606403D01*
X124737372Y-63606401D01*
X124677844Y-63600000D01*
X123980000Y-63600000D01*
X123980000Y-64624722D01*
X123903694Y-64580667D01*
X123789244Y-64550000D01*
X123670756Y-64550000D01*
X123556306Y-64580667D01*
X123480000Y-64624722D01*
X123480000Y-63600000D01*
X122782155Y-63600000D01*
X122722627Y-63606401D01*
X122722620Y-63606403D01*
X122587913Y-63656645D01*
X122587906Y-63656649D01*
X122472812Y-63742809D01*
X122472809Y-63742812D01*
X122386649Y-63857906D01*
X122386645Y-63857913D01*
X122336403Y-63992620D01*
X122336401Y-63992627D01*
X122330000Y-64052155D01*
X122330000Y-64750000D01*
X123354722Y-64750000D01*
X123310667Y-64826306D01*
X123280000Y-64940756D01*
X123280000Y-65059244D01*
X123310667Y-65173694D01*
X123354722Y-65250000D01*
X122465953Y-65250000D01*
X122398914Y-65230315D01*
X122378272Y-65213681D01*
X120161819Y-62997228D01*
X120128334Y-62935905D01*
X120125500Y-62909547D01*
X120125500Y-61156114D01*
X120145185Y-61089075D01*
X120178575Y-61056398D01*
X120177668Y-61055150D01*
X120181605Y-61052289D01*
X120181610Y-61052287D01*
X120347219Y-60931966D01*
X120491966Y-60787219D01*
X120491968Y-60787215D01*
X120491971Y-60787213D01*
X120544732Y-60714590D01*
X120612287Y-60621610D01*
X120705220Y-60439219D01*
X120768477Y-60244534D01*
X120800500Y-60042352D01*
X120800500Y-59837648D01*
X120768477Y-59635466D01*
X120705220Y-59440781D01*
X120705218Y-59440778D01*
X120705218Y-59440776D01*
X120671503Y-59374607D01*
X120612287Y-59258390D01*
X120604556Y-59247749D01*
X120491971Y-59092786D01*
X120486366Y-59087181D01*
X120452881Y-59025858D01*
X120457865Y-58956166D01*
X120499737Y-58900233D01*
X120565201Y-58875816D01*
X120574047Y-58875500D01*
X122939548Y-58875500D01*
X123006587Y-58895185D01*
X123027229Y-58911819D01*
X128939493Y-64824083D01*
X128972978Y-64885406D01*
X128974285Y-64931162D01*
X128949500Y-65087648D01*
X128949500Y-65292351D01*
X128981522Y-65494534D01*
X129044781Y-65689223D01*
X129137715Y-65871613D01*
X129258028Y-66037213D01*
X129402786Y-66181971D01*
X129557749Y-66294556D01*
X129568390Y-66302287D01*
X129671413Y-66354780D01*
X129750776Y-66395218D01*
X129750778Y-66395218D01*
X129750781Y-66395220D01*
X129855137Y-66429127D01*
X129945465Y-66458477D01*
X130046557Y-66474488D01*
X130147648Y-66490500D01*
X130147649Y-66490500D01*
X130352351Y-66490500D01*
X130352352Y-66490500D01*
X130554534Y-66458477D01*
X130749219Y-66395220D01*
X130931610Y-66302287D01*
X131056493Y-66211555D01*
X131097213Y-66181971D01*
X131097215Y-66181968D01*
X131097219Y-66181966D01*
X131241966Y-66037219D01*
X131241968Y-66037215D01*
X131241971Y-66037213D01*
X131306900Y-65947844D01*
X131362287Y-65871610D01*
X131455220Y-65689219D01*
X131518477Y-65494534D01*
X131550500Y-65292352D01*
X131550500Y-65087648D01*
X131518477Y-64885466D01*
X131498532Y-64824083D01*
X131455218Y-64690776D01*
X131383488Y-64550000D01*
X131362287Y-64508390D01*
X131328871Y-64462396D01*
X131241971Y-64342786D01*
X131097213Y-64198028D01*
X130931613Y-64077715D01*
X130931612Y-64077714D01*
X130931610Y-64077713D01*
X130874653Y-64048691D01*
X130749223Y-63984781D01*
X130554534Y-63921522D01*
X130379995Y-63893878D01*
X130352352Y-63889500D01*
X130147648Y-63889500D01*
X130080254Y-63900174D01*
X129945464Y-63921523D01*
X129912555Y-63932216D01*
X129842714Y-63934211D01*
X129786556Y-63901966D01*
X123743150Y-57858560D01*
X123735860Y-57851270D01*
X123735858Y-57851267D01*
X123648733Y-57764142D01*
X123597509Y-57729915D01*
X123546286Y-57695688D01*
X123546283Y-57695686D01*
X123546280Y-57695685D01*
X123472603Y-57665168D01*
X123472601Y-57665167D01*
X123465792Y-57662347D01*
X123432452Y-57648537D01*
X123372029Y-57636518D01*
X123367306Y-57635578D01*
X123367304Y-57635578D01*
X123311610Y-57624500D01*
X123311607Y-57624500D01*
X123311606Y-57624500D01*
X115190452Y-57624500D01*
X115123413Y-57604815D01*
X115102771Y-57588181D01*
X113742218Y-56227628D01*
X113708733Y-56166305D01*
X113709241Y-56119588D01*
X113707715Y-56119347D01*
X113740500Y-55912351D01*
X113740500Y-55707648D01*
X113708477Y-55505465D01*
X113648241Y-55320080D01*
X113645220Y-55310781D01*
X113645218Y-55310778D01*
X113645218Y-55310776D01*
X113599021Y-55220110D01*
X113552287Y-55128390D01*
X113520092Y-55084077D01*
X113431971Y-54962786D01*
X113287213Y-54818028D01*
X113121614Y-54697715D01*
X113086689Y-54679920D01*
X113028917Y-54650483D01*
X112978123Y-54602511D01*
X112961328Y-54534690D01*
X112983865Y-54468555D01*
X113028917Y-54429516D01*
X113121610Y-54382287D01*
X113209208Y-54318644D01*
X113287213Y-54261971D01*
X113287215Y-54261968D01*
X113287219Y-54261966D01*
X113431966Y-54117219D01*
X113431968Y-54117215D01*
X113431971Y-54117213D01*
X113530684Y-53981344D01*
X113552287Y-53951610D01*
X113645220Y-53769219D01*
X113708477Y-53574534D01*
X113740500Y-53372352D01*
X113740500Y-53167648D01*
X113708477Y-52965466D01*
X113645220Y-52770781D01*
X113645218Y-52770778D01*
X113645218Y-52770776D01*
X113611503Y-52704607D01*
X113552287Y-52588390D01*
X113491158Y-52504252D01*
X113431971Y-52422786D01*
X113287213Y-52278028D01*
X113121614Y-52157715D01*
X113115006Y-52154348D01*
X113028917Y-52110483D01*
X112978123Y-52062511D01*
X112961328Y-51994690D01*
X112983865Y-51928555D01*
X113028917Y-51889516D01*
X113121610Y-51842287D01*
X113188913Y-51793389D01*
X113287213Y-51721971D01*
X113287215Y-51721968D01*
X113287219Y-51721966D01*
X113431966Y-51577219D01*
X113431968Y-51577215D01*
X113431971Y-51577213D01*
X113519844Y-51456264D01*
X113552287Y-51411610D01*
X113645220Y-51229219D01*
X113708477Y-51034534D01*
X113740500Y-50832352D01*
X113740500Y-50627648D01*
X113735680Y-50597219D01*
X113708477Y-50425465D01*
X113645218Y-50230776D01*
X113611503Y-50164607D01*
X113552287Y-50048390D01*
X113544556Y-50037749D01*
X113431971Y-49882786D01*
X113287213Y-49738028D01*
X113121614Y-49617715D01*
X113068419Y-49590611D01*
X113028917Y-49570483D01*
X112978123Y-49522511D01*
X112961328Y-49454690D01*
X112983865Y-49388555D01*
X113028917Y-49349516D01*
X113121610Y-49302287D01*
X113192503Y-49250781D01*
X113287213Y-49181971D01*
X113287215Y-49181968D01*
X113287219Y-49181966D01*
X113431966Y-49037219D01*
X113431968Y-49037215D01*
X113431971Y-49037213D01*
X113536892Y-48892799D01*
X113552287Y-48871610D01*
X113645220Y-48689219D01*
X113708477Y-48494534D01*
X113740500Y-48292352D01*
X113740500Y-48087648D01*
X113740499Y-48087644D01*
X113740165Y-48083404D01*
X113754519Y-48015024D01*
X113776096Y-47985980D01*
X114425259Y-47336819D01*
X114486582Y-47303334D01*
X114512940Y-47300500D01*
X114611158Y-47300500D01*
X114768843Y-47300500D01*
X118660148Y-47300500D01*
X118727187Y-47320185D01*
X118772942Y-47372989D01*
X118782886Y-47442147D01*
X118777854Y-47463502D01*
X118770002Y-47487197D01*
X118770000Y-47487204D01*
X118759500Y-47589983D01*
X118759500Y-48790001D01*
X118759501Y-48790018D01*
X118770000Y-48892796D01*
X118770001Y-48892799D01*
X118817856Y-49037213D01*
X118825186Y-49059334D01*
X118917288Y-49208656D01*
X119041344Y-49332712D01*
X119190666Y-49424814D01*
X119272570Y-49451954D01*
X119330015Y-49491727D01*
X119356838Y-49556243D01*
X119344523Y-49625018D01*
X119306451Y-49669978D01*
X119212787Y-49738028D01*
X119212782Y-49738032D01*
X119068028Y-49882786D01*
X118947715Y-50048386D01*
X118854781Y-50230776D01*
X118791522Y-50425465D01*
X118759500Y-50627648D01*
X118759500Y-50832351D01*
X118791522Y-51034534D01*
X118854781Y-51229223D01*
X118910021Y-51337635D01*
X118926074Y-51369142D01*
X118947715Y-51411613D01*
X119068028Y-51577213D01*
X119212786Y-51721971D01*
X119367749Y-51834556D01*
X119378390Y-51842287D01*
X119469840Y-51888883D01*
X119471080Y-51889515D01*
X119521876Y-51937490D01*
X119538671Y-52005311D01*
X119516134Y-52071446D01*
X119471080Y-52110485D01*
X119378386Y-52157715D01*
X119212786Y-52278028D01*
X119068028Y-52422786D01*
X118947715Y-52588386D01*
X118854781Y-52770776D01*
X118791522Y-52965465D01*
X118759500Y-53167648D01*
X118759500Y-53372351D01*
X118791522Y-53574534D01*
X118854781Y-53769223D01*
X118899652Y-53857286D01*
X118934924Y-53926511D01*
X118947715Y-53951613D01*
X119068028Y-54117213D01*
X119212786Y-54261971D01*
X119378385Y-54382284D01*
X119378387Y-54382285D01*
X119378390Y-54382287D01*
X119471080Y-54429515D01*
X119471630Y-54429795D01*
X119522426Y-54477770D01*
X119539221Y-54545591D01*
X119516684Y-54611725D01*
X119471630Y-54650765D01*
X119378644Y-54698143D01*
X119334077Y-54730523D01*
X119334077Y-54730524D01*
X120013554Y-55410000D01*
X120007339Y-55410000D01*
X119905606Y-55437259D01*
X119814394Y-55489920D01*
X119739920Y-55564394D01*
X119687259Y-55655606D01*
X119660000Y-55757339D01*
X119660000Y-55763553D01*
X118980524Y-55084077D01*
X118980523Y-55084077D01*
X118948143Y-55128644D01*
X118855244Y-55310968D01*
X118792009Y-55505582D01*
X118760000Y-55707682D01*
X118760000Y-55912317D01*
X118792009Y-56114417D01*
X118855244Y-56309031D01*
X118948141Y-56491350D01*
X118948147Y-56491359D01*
X118980523Y-56535921D01*
X118980524Y-56535922D01*
X119660000Y-55856446D01*
X119660000Y-55862661D01*
X119687259Y-55964394D01*
X119739920Y-56055606D01*
X119814394Y-56130080D01*
X119905606Y-56182741D01*
X120007339Y-56210000D01*
X120013553Y-56210000D01*
X119334076Y-56889474D01*
X119378650Y-56921859D01*
X119560968Y-57014755D01*
X119755582Y-57077990D01*
X119957683Y-57110000D01*
X120162317Y-57110000D01*
X120364417Y-57077990D01*
X120559031Y-57014755D01*
X120741349Y-56921859D01*
X120785921Y-56889474D01*
X120106447Y-56210000D01*
X120112661Y-56210000D01*
X120214394Y-56182741D01*
X120305606Y-56130080D01*
X120380080Y-56055606D01*
X120432741Y-55964394D01*
X120460000Y-55862661D01*
X120460000Y-55856448D01*
X121139474Y-56535922D01*
X121139474Y-56535921D01*
X121171859Y-56491349D01*
X121264755Y-56309031D01*
X121327990Y-56114417D01*
X121360000Y-55912317D01*
X121360000Y-55707682D01*
X121327990Y-55505582D01*
X121264755Y-55310968D01*
X121171859Y-55128650D01*
X121139474Y-55084077D01*
X121139474Y-55084076D01*
X120460000Y-55763551D01*
X120460000Y-55757339D01*
X120432741Y-55655606D01*
X120380080Y-55564394D01*
X120305606Y-55489920D01*
X120214394Y-55437259D01*
X120112661Y-55410000D01*
X120106446Y-55410000D01*
X120785922Y-54730524D01*
X120785921Y-54730523D01*
X120741359Y-54698147D01*
X120741350Y-54698141D01*
X120648369Y-54650765D01*
X120597573Y-54602790D01*
X120580778Y-54534969D01*
X120603315Y-54468835D01*
X120648370Y-54429795D01*
X120648920Y-54429515D01*
X120741610Y-54382287D01*
X120829208Y-54318644D01*
X120907213Y-54261971D01*
X120907215Y-54261968D01*
X120907219Y-54261966D01*
X121051966Y-54117219D01*
X121051968Y-54117215D01*
X121051971Y-54117213D01*
X121175151Y-53947669D01*
X121176823Y-53948884D01*
X121222208Y-53907831D01*
X121258457Y-53896764D01*
X121267242Y-53895500D01*
X121291607Y-53895500D01*
X121352029Y-53883481D01*
X121412452Y-53871463D01*
X121446673Y-53857288D01*
X121526286Y-53824312D01*
X121577509Y-53790084D01*
X121628733Y-53755858D01*
X121715858Y-53668733D01*
X121715858Y-53668731D01*
X121726066Y-53658524D01*
X121726067Y-53658521D01*
X126722772Y-48661819D01*
X126784095Y-48628334D01*
X126810453Y-48625500D01*
X130308670Y-48625500D01*
X130375709Y-48645185D01*
X130419155Y-48693205D01*
X130466657Y-48786433D01*
X130605483Y-48977510D01*
X130772490Y-49144517D01*
X130963567Y-49283343D01*
X131000741Y-49302284D01*
X131174003Y-49390566D01*
X131174005Y-49390566D01*
X131174008Y-49390568D01*
X131279400Y-49424812D01*
X131398631Y-49463553D01*
X131631903Y-49500500D01*
X131631908Y-49500500D01*
X131868097Y-49500500D01*
X132101368Y-49463553D01*
X132137066Y-49451954D01*
X132325992Y-49390568D01*
X132536433Y-49283343D01*
X132727510Y-49144517D01*
X132894517Y-48977510D01*
X133033343Y-48786433D01*
X133080845Y-48693205D01*
X133128820Y-48642409D01*
X133191330Y-48625500D01*
X136808670Y-48625500D01*
X136875709Y-48645185D01*
X136919155Y-48693205D01*
X136966657Y-48786433D01*
X137105483Y-48977510D01*
X137272490Y-49144517D01*
X137463567Y-49283343D01*
X137500741Y-49302284D01*
X137674003Y-49390566D01*
X137674005Y-49390566D01*
X137674008Y-49390568D01*
X137779400Y-49424812D01*
X137898631Y-49463553D01*
X138131903Y-49500500D01*
X138131908Y-49500500D01*
X138368097Y-49500500D01*
X138601368Y-49463553D01*
X138637066Y-49451954D01*
X138825992Y-49390568D01*
X139036433Y-49283343D01*
X139227510Y-49144517D01*
X139394517Y-48977510D01*
X139533343Y-48786433D01*
X139640568Y-48575992D01*
X139713553Y-48351368D01*
X139722900Y-48292352D01*
X139750500Y-48118097D01*
X139750500Y-47881902D01*
X139713553Y-47648631D01*
X139687423Y-47568211D01*
X139653177Y-47462817D01*
X139651183Y-47392978D01*
X139687263Y-47333145D01*
X139749964Y-47302316D01*
X139771109Y-47300500D01*
X144317060Y-47300500D01*
X144384099Y-47320185D01*
X144404741Y-47336819D01*
X149026454Y-51958532D01*
X149059939Y-52019855D01*
X149061246Y-52065611D01*
X149049500Y-52139772D01*
X149049500Y-52360221D01*
X149083985Y-52577952D01*
X149152103Y-52787603D01*
X149152104Y-52787606D01*
X149252187Y-52984025D01*
X149381752Y-53162358D01*
X149381756Y-53162363D01*
X149537636Y-53318243D01*
X149537641Y-53318247D01*
X149674538Y-53417707D01*
X149715978Y-53447815D01*
X149844375Y-53513237D01*
X149912393Y-53547895D01*
X149912396Y-53547896D01*
X149997355Y-53575500D01*
X150122049Y-53616015D01*
X150339778Y-53650500D01*
X150339779Y-53650500D01*
X150560221Y-53650500D01*
X150560222Y-53650500D01*
X150777951Y-53616015D01*
X150987606Y-53547895D01*
X151184022Y-53447815D01*
X151362365Y-53318242D01*
X151518242Y-53162365D01*
X151647815Y-52984022D01*
X151747895Y-52787606D01*
X151816015Y-52577951D01*
X151850500Y-52360222D01*
X151850500Y-52139778D01*
X151816015Y-51922049D01*
X151774213Y-51793394D01*
X151747896Y-51712396D01*
X151747895Y-51712393D01*
X151713237Y-51644375D01*
X151647815Y-51515978D01*
X151604433Y-51456267D01*
X151518247Y-51337641D01*
X151518243Y-51337636D01*
X151362363Y-51181756D01*
X151362358Y-51181752D01*
X151184025Y-51052187D01*
X151184024Y-51052186D01*
X151184022Y-51052185D01*
X151121096Y-51020122D01*
X150987606Y-50952104D01*
X150987603Y-50952103D01*
X150777952Y-50883985D01*
X150634383Y-50861246D01*
X150560222Y-50849500D01*
X150339778Y-50849500D01*
X150339773Y-50849500D01*
X150265611Y-50861246D01*
X150196317Y-50852291D01*
X150158532Y-50826454D01*
X145210292Y-45878213D01*
X145210288Y-45878210D01*
X145079185Y-45790609D01*
X145079172Y-45790602D01*
X144933501Y-45730264D01*
X144933489Y-45730261D01*
X144778845Y-45699500D01*
X144778842Y-45699500D01*
X120590307Y-45699500D01*
X120523268Y-45679815D01*
X120477513Y-45627011D01*
X120467569Y-45557853D01*
X120496594Y-45494297D01*
X120551986Y-45457569D01*
X120559219Y-45455220D01*
X120741610Y-45362287D01*
X120834590Y-45294732D01*
X120907213Y-45241971D01*
X120907215Y-45241968D01*
X120907219Y-45241966D01*
X121051966Y-45097219D01*
X121051968Y-45097215D01*
X121051971Y-45097213D01*
X121122599Y-45000000D01*
X121172287Y-44931610D01*
X121265220Y-44749219D01*
X121328477Y-44554534D01*
X121360500Y-44352352D01*
X121360500Y-44147648D01*
X121328477Y-43945466D01*
X121265220Y-43750781D01*
X121265218Y-43750778D01*
X121265218Y-43750776D01*
X121197591Y-43618052D01*
X121172287Y-43568390D01*
X121122599Y-43500000D01*
X121086246Y-43449963D01*
X121086243Y-43449960D01*
X121069991Y-43427591D01*
X121051966Y-43402781D01*
X121031132Y-43381947D01*
X130250000Y-43381947D01*
X130250000Y-43618052D01*
X130286934Y-43851247D01*
X130359897Y-44075802D01*
X130467087Y-44286174D01*
X130527338Y-44369104D01*
X130527340Y-44369105D01*
X131226212Y-43670233D01*
X131237482Y-43712292D01*
X131309890Y-43837708D01*
X131412292Y-43940110D01*
X131537708Y-44012518D01*
X131579765Y-44023787D01*
X130880893Y-44722658D01*
X130963828Y-44782914D01*
X131174197Y-44890102D01*
X131398752Y-44963065D01*
X131398751Y-44963065D01*
X131631948Y-45000000D01*
X131868052Y-45000000D01*
X132101247Y-44963065D01*
X132325802Y-44890102D01*
X132536163Y-44782918D01*
X132536169Y-44782914D01*
X132619104Y-44722658D01*
X132619105Y-44722658D01*
X131920233Y-44023787D01*
X131962292Y-44012518D01*
X132087708Y-43940110D01*
X132190110Y-43837708D01*
X132262518Y-43712292D01*
X132273787Y-43670233D01*
X132972658Y-44369105D01*
X132972658Y-44369104D01*
X133032914Y-44286169D01*
X133032918Y-44286163D01*
X133140102Y-44075802D01*
X133213065Y-43851247D01*
X133250000Y-43618052D01*
X133250000Y-43381947D01*
X136750000Y-43381947D01*
X136750000Y-43618052D01*
X136786934Y-43851247D01*
X136859897Y-44075802D01*
X136967087Y-44286174D01*
X137027338Y-44369104D01*
X137027340Y-44369105D01*
X137726212Y-43670233D01*
X137737482Y-43712292D01*
X137809890Y-43837708D01*
X137912292Y-43940110D01*
X138037708Y-44012518D01*
X138079765Y-44023787D01*
X137380893Y-44722658D01*
X137463828Y-44782914D01*
X137674197Y-44890102D01*
X137898752Y-44963065D01*
X137898751Y-44963065D01*
X138131948Y-45000000D01*
X138368052Y-45000000D01*
X138601247Y-44963065D01*
X138825802Y-44890102D01*
X139036163Y-44782918D01*
X139036169Y-44782914D01*
X139119104Y-44722658D01*
X139119105Y-44722658D01*
X138420233Y-44023787D01*
X138462292Y-44012518D01*
X138587708Y-43940110D01*
X138690110Y-43837708D01*
X138762518Y-43712292D01*
X138773787Y-43670234D01*
X139472658Y-44369105D01*
X139472658Y-44369104D01*
X139532914Y-44286169D01*
X139532918Y-44286163D01*
X139640102Y-44075802D01*
X139713065Y-43851247D01*
X139750000Y-43618052D01*
X139750000Y-43381947D01*
X139713065Y-43148752D01*
X139641065Y-42927159D01*
X139641064Y-42927157D01*
X139640101Y-42924195D01*
X139624570Y-42893713D01*
X165649500Y-42893713D01*
X165649500Y-43106287D01*
X165654478Y-43137715D01*
X165673534Y-43258034D01*
X165682754Y-43316243D01*
X165742460Y-43499999D01*
X165748444Y-43518414D01*
X165844951Y-43707820D01*
X165969890Y-43879786D01*
X166120213Y-44030109D01*
X166292179Y-44155048D01*
X166292181Y-44155049D01*
X166292184Y-44155051D01*
X166481588Y-44251557D01*
X166683757Y-44317246D01*
X166893713Y-44350500D01*
X166893714Y-44350500D01*
X167106286Y-44350500D01*
X167106287Y-44350500D01*
X167316243Y-44317246D01*
X167518412Y-44251557D01*
X167707816Y-44155051D01*
X167816894Y-44075802D01*
X167879786Y-44030109D01*
X167879788Y-44030106D01*
X167879792Y-44030104D01*
X168030104Y-43879792D01*
X168030106Y-43879788D01*
X168030109Y-43879786D01*
X168155048Y-43707820D01*
X168155047Y-43707820D01*
X168155051Y-43707816D01*
X168251557Y-43518412D01*
X168317246Y-43316243D01*
X168350500Y-43106287D01*
X168350500Y-42893713D01*
X168317246Y-42683757D01*
X168251557Y-42481588D01*
X168155051Y-42292184D01*
X168155049Y-42292181D01*
X168155048Y-42292179D01*
X168030109Y-42120213D01*
X167879786Y-41969890D01*
X167707820Y-41844951D01*
X167518414Y-41748444D01*
X167518413Y-41748443D01*
X167518412Y-41748443D01*
X167316243Y-41682754D01*
X167316241Y-41682753D01*
X167316240Y-41682753D01*
X167154957Y-41657208D01*
X167106287Y-41649500D01*
X166893713Y-41649500D01*
X166845042Y-41657208D01*
X166683760Y-41682753D01*
X166481585Y-41748444D01*
X166292179Y-41844951D01*
X166120213Y-41969890D01*
X165969890Y-42120213D01*
X165844951Y-42292179D01*
X165748444Y-42481585D01*
X165682753Y-42683760D01*
X165649500Y-42893713D01*
X139624570Y-42893713D01*
X139532914Y-42713828D01*
X139472658Y-42630894D01*
X139472658Y-42630893D01*
X138773787Y-43329765D01*
X138762518Y-43287708D01*
X138690110Y-43162292D01*
X138587708Y-43059890D01*
X138462292Y-42987482D01*
X138420234Y-42976212D01*
X139119105Y-42277340D01*
X139119104Y-42277338D01*
X139036174Y-42217087D01*
X138825802Y-42109897D01*
X138601247Y-42036934D01*
X138601248Y-42036934D01*
X138368052Y-42000000D01*
X138131948Y-42000000D01*
X137898752Y-42036934D01*
X137674197Y-42109897D01*
X137463830Y-42217084D01*
X137380894Y-42277340D01*
X138079766Y-42976212D01*
X138037708Y-42987482D01*
X137912292Y-43059890D01*
X137809890Y-43162292D01*
X137737482Y-43287708D01*
X137726212Y-43329766D01*
X137027340Y-42630894D01*
X136967084Y-42713830D01*
X136859897Y-42924197D01*
X136786934Y-43148752D01*
X136750000Y-43381947D01*
X133250000Y-43381947D01*
X133213065Y-43148752D01*
X133140102Y-42924197D01*
X133032914Y-42713828D01*
X132972658Y-42630894D01*
X132972658Y-42630893D01*
X132273787Y-43329765D01*
X132262518Y-43287708D01*
X132190110Y-43162292D01*
X132087708Y-43059890D01*
X131962292Y-42987482D01*
X131920234Y-42976212D01*
X132619105Y-42277340D01*
X132619104Y-42277339D01*
X132536174Y-42217087D01*
X132325802Y-42109897D01*
X132101247Y-42036934D01*
X132101248Y-42036934D01*
X131868052Y-42000000D01*
X131631948Y-42000000D01*
X131398752Y-42036934D01*
X131174197Y-42109897D01*
X130963830Y-42217084D01*
X130880894Y-42277340D01*
X131579766Y-42976212D01*
X131537708Y-42987482D01*
X131412292Y-43059890D01*
X131309890Y-43162292D01*
X131237482Y-43287708D01*
X131226212Y-43329766D01*
X130527340Y-42630894D01*
X130467084Y-42713830D01*
X130359897Y-42924197D01*
X130286934Y-43148752D01*
X130250000Y-43381947D01*
X121031132Y-43381947D01*
X120907219Y-43258034D01*
X120907213Y-43258028D01*
X120741613Y-43137715D01*
X120741612Y-43137714D01*
X120741610Y-43137713D01*
X120679931Y-43106286D01*
X120559223Y-43044781D01*
X120364534Y-42981522D01*
X120189995Y-42953878D01*
X120162352Y-42949500D01*
X119957648Y-42949500D01*
X119933329Y-42953351D01*
X119755465Y-42981522D01*
X119560776Y-43044781D01*
X119378386Y-43137715D01*
X119212786Y-43258028D01*
X119068028Y-43402786D01*
X118947715Y-43568386D01*
X118854781Y-43750776D01*
X118791522Y-43945465D01*
X118774966Y-44050000D01*
X118759500Y-44147648D01*
X118759500Y-44352352D01*
X118763878Y-44379995D01*
X118791522Y-44554534D01*
X118854781Y-44749223D01*
X118947715Y-44931613D01*
X119068028Y-45097213D01*
X119212786Y-45241971D01*
X119367749Y-45354556D01*
X119378390Y-45362287D01*
X119560781Y-45455220D01*
X119568013Y-45457569D01*
X119625687Y-45497008D01*
X119652885Y-45561366D01*
X119640970Y-45630213D01*
X119593725Y-45681688D01*
X119529693Y-45699500D01*
X115072940Y-45699500D01*
X115005901Y-45679815D01*
X114985259Y-45663181D01*
X113776100Y-44454022D01*
X113742615Y-44392699D01*
X113740165Y-44356592D01*
X113740498Y-44352359D01*
X113740500Y-44352352D01*
X113740500Y-44147648D01*
X113708477Y-43945466D01*
X113645220Y-43750781D01*
X113645218Y-43750778D01*
X113645218Y-43750776D01*
X113577591Y-43618052D01*
X113552287Y-43568390D01*
X113515978Y-43518414D01*
X113431971Y-43402786D01*
X113287213Y-43258028D01*
X113121613Y-43137715D01*
X113121612Y-43137714D01*
X113121610Y-43137713D01*
X113059931Y-43106286D01*
X112939223Y-43044781D01*
X112744534Y-42981522D01*
X112569995Y-42953878D01*
X112542352Y-42949500D01*
X112337648Y-42949500D01*
X112313329Y-42953351D01*
X112135465Y-42981522D01*
X111940776Y-43044781D01*
X111758386Y-43137715D01*
X111592786Y-43258028D01*
X111448028Y-43402786D01*
X111327715Y-43568386D01*
X111234781Y-43750776D01*
X111171522Y-43945465D01*
X111154966Y-44050000D01*
X111139500Y-44147648D01*
X111139500Y-44352352D01*
X111143878Y-44379995D01*
X111171522Y-44554534D01*
X111234781Y-44749223D01*
X111327715Y-44931613D01*
X111448028Y-45097213D01*
X111592786Y-45241971D01*
X111747749Y-45354556D01*
X111758390Y-45362287D01*
X111874607Y-45421503D01*
X111940776Y-45455218D01*
X111940778Y-45455218D01*
X111940781Y-45455220D01*
X112045137Y-45489127D01*
X112135465Y-45518477D01*
X112236557Y-45534488D01*
X112337648Y-45550500D01*
X112337649Y-45550500D01*
X112542344Y-45550500D01*
X112542352Y-45550500D01*
X112542359Y-45550498D01*
X112546592Y-45550165D01*
X112614972Y-45564518D01*
X112644022Y-45586100D01*
X113190240Y-46132318D01*
X113223725Y-46193641D01*
X113218741Y-46263333D01*
X113190240Y-46307680D01*
X112644022Y-46853898D01*
X112582699Y-46887383D01*
X112546619Y-46889835D01*
X112542359Y-46889500D01*
X112542352Y-46889500D01*
X112337648Y-46889500D01*
X112313329Y-46893351D01*
X112135465Y-46921522D01*
X111940776Y-46984781D01*
X111758386Y-47077715D01*
X111592786Y-47198028D01*
X111448035Y-47342779D01*
X111445252Y-47346038D01*
X111386742Y-47384227D01*
X111350967Y-47389500D01*
X110231155Y-47389500D01*
X110198192Y-47396057D01*
X110128601Y-47389830D01*
X110073423Y-47346968D01*
X110050178Y-47281078D01*
X110050000Y-47274440D01*
X110050000Y-47147682D01*
X110017990Y-46945582D01*
X109954755Y-46750968D01*
X109861859Y-46568650D01*
X109829474Y-46524077D01*
X109829474Y-46524076D01*
X109150000Y-47203553D01*
X109150000Y-47197339D01*
X109122741Y-47095606D01*
X109070080Y-47004394D01*
X108995606Y-46929920D01*
X108904394Y-46877259D01*
X108802661Y-46850000D01*
X108796446Y-46850000D01*
X109475922Y-46170524D01*
X109475921Y-46170523D01*
X109431359Y-46138147D01*
X109431350Y-46138141D01*
X109249031Y-46045244D01*
X109054417Y-45982009D01*
X108852317Y-45950000D01*
X108647683Y-45950000D01*
X108445582Y-45982009D01*
X108250968Y-46045244D01*
X108068644Y-46138143D01*
X108024077Y-46170523D01*
X108024077Y-46170524D01*
X108703554Y-46850000D01*
X108697339Y-46850000D01*
X108595606Y-46877259D01*
X108504394Y-46929920D01*
X108429920Y-47004394D01*
X108377259Y-47095606D01*
X108350000Y-47197339D01*
X108350000Y-47203553D01*
X107670524Y-46524077D01*
X107670523Y-46524077D01*
X107638143Y-46568644D01*
X107545244Y-46750968D01*
X107482009Y-46945582D01*
X107450000Y-47147682D01*
X107450000Y-47352317D01*
X107482009Y-47554417D01*
X107545244Y-47749031D01*
X107638141Y-47931350D01*
X107638147Y-47931359D01*
X107670523Y-47975921D01*
X107670524Y-47975922D01*
X108350000Y-47296446D01*
X108350000Y-47302661D01*
X108377259Y-47404394D01*
X108429920Y-47495606D01*
X108504394Y-47570080D01*
X108595606Y-47622741D01*
X108697339Y-47650000D01*
X108703553Y-47650000D01*
X108024076Y-48329474D01*
X108068652Y-48361861D01*
X108122376Y-48389234D01*
X108173172Y-48437208D01*
X108189968Y-48505028D01*
X108167431Y-48571164D01*
X108122379Y-48610203D01*
X108068386Y-48637714D01*
X107902786Y-48758028D01*
X107758028Y-48902786D01*
X107637715Y-49068386D01*
X107544781Y-49250776D01*
X107481522Y-49445465D01*
X107449500Y-49647648D01*
X107449500Y-49852351D01*
X107481522Y-50054534D01*
X107544781Y-50249223D01*
X107608691Y-50374653D01*
X107634582Y-50425466D01*
X107637715Y-50431613D01*
X107758028Y-50597213D01*
X107902779Y-50741964D01*
X107906038Y-50744748D01*
X107944227Y-50803258D01*
X107949500Y-50839033D01*
X107949500Y-53575500D01*
X107929815Y-53642539D01*
X107877011Y-53688294D01*
X107825501Y-53699500D01*
X107605112Y-53699500D01*
X107605093Y-53699501D01*
X107502316Y-53710000D01*
X107502313Y-53710001D01*
X107335781Y-53765185D01*
X107335776Y-53765187D01*
X107186458Y-53857287D01*
X107117234Y-53926511D01*
X107055910Y-53959995D01*
X106986219Y-53955010D01*
X106956668Y-53939147D01*
X106886465Y-53888142D01*
X106704144Y-53795244D01*
X106509530Y-53732009D01*
X106307430Y-53700000D01*
X106102796Y-53700000D01*
X105900695Y-53732009D01*
X105706081Y-53795244D01*
X105523757Y-53888143D01*
X105479190Y-53920523D01*
X105479190Y-53920524D01*
X106158666Y-54600000D01*
X106152452Y-54600000D01*
X106050719Y-54627259D01*
X105959507Y-54679920D01*
X105885033Y-54754394D01*
X105832372Y-54845606D01*
X105805113Y-54947339D01*
X105805113Y-54953553D01*
X105125637Y-54274077D01*
X105125636Y-54274077D01*
X105093256Y-54318644D01*
X105000357Y-54500968D01*
X104937122Y-54695582D01*
X104905113Y-54897682D01*
X100500500Y-54897682D01*
X100500500Y-42893713D01*
X101649500Y-42893713D01*
X101649500Y-43106287D01*
X101654478Y-43137715D01*
X101673534Y-43258034D01*
X101682754Y-43316243D01*
X101742460Y-43499999D01*
X101748444Y-43518414D01*
X101844951Y-43707820D01*
X101969890Y-43879786D01*
X102120213Y-44030109D01*
X102292179Y-44155048D01*
X102292181Y-44155049D01*
X102292184Y-44155051D01*
X102481588Y-44251557D01*
X102683757Y-44317246D01*
X102893713Y-44350500D01*
X102893714Y-44350500D01*
X103106286Y-44350500D01*
X103106287Y-44350500D01*
X103316243Y-44317246D01*
X103518412Y-44251557D01*
X103707816Y-44155051D01*
X103816894Y-44075802D01*
X103879786Y-44030109D01*
X103879788Y-44030106D01*
X103879792Y-44030104D01*
X104030104Y-43879792D01*
X104030106Y-43879788D01*
X104030109Y-43879786D01*
X104155048Y-43707820D01*
X104155047Y-43707820D01*
X104155051Y-43707816D01*
X104251557Y-43518412D01*
X104317246Y-43316243D01*
X104350500Y-43106287D01*
X104350500Y-42893713D01*
X104317246Y-42683757D01*
X104251557Y-42481588D01*
X104155051Y-42292184D01*
X104144265Y-42277338D01*
X104030109Y-42120213D01*
X103879786Y-41969890D01*
X103707820Y-41844951D01*
X103518414Y-41748444D01*
X103518413Y-41748443D01*
X103518412Y-41748443D01*
X103316243Y-41682754D01*
X103316241Y-41682753D01*
X103316240Y-41682753D01*
X103154957Y-41657208D01*
X103106287Y-41649500D01*
X102893713Y-41649500D01*
X102845042Y-41657208D01*
X102683760Y-41682753D01*
X102481585Y-41748444D01*
X102292179Y-41844951D01*
X102120213Y-41969890D01*
X101969890Y-42120213D01*
X101844951Y-42292179D01*
X101748444Y-42481585D01*
X101682753Y-42683760D01*
X101649500Y-42893713D01*
X100500500Y-42893713D01*
X100500500Y-40624500D01*
X100520185Y-40557461D01*
X100572989Y-40511706D01*
X100624500Y-40500500D01*
X169375500Y-40500500D01*
X169442539Y-40520185D01*
G37*
%TD.AperFunction*%
%TD*%
M02*
