%TF.GenerationSoftware,KiCad,Pcbnew,10.0.1*%
%TF.CreationDate,2026-09-12T00:47:02+02:00*%
%TF.ProjectId,ArcDice,41726344-6963-4652-9e6b-696361645f70,v2.1*%
%TF.SameCoordinates,Original*%
%TF.FileFunction,Legend,Top*%
%TF.FilePolarity,Positive*%
%FSLAX46Y46*%
G04 Gerber Fmt 4.6, Leading zero omitted, Abs format (unit mm)*
G04 Created by KiCad (PCBNEW 10.0.1) date 2026-09-12 00:47:02*
%MOMM*%
%LPD*%
G01*
G04 APERTURE LIST*
%ADD10C,0.200000*%
%ADD11C,0.000000*%
%ADD12C,0.485167*%
%ADD13C,0.100000*%
%ADD14C,0.150000*%
%ADD15C,0.120000*%
G04 APERTURE END LIST*
D10*
X146060149Y-43867219D02*
X146250625Y-43867219D01*
X146250625Y-43867219D02*
X146345863Y-43914838D01*
X146345863Y-43914838D02*
X146441101Y-44010076D01*
X146441101Y-44010076D02*
X146488720Y-44200552D01*
X146488720Y-44200552D02*
X146488720Y-44533885D01*
X146488720Y-44533885D02*
X146441101Y-44724361D01*
X146441101Y-44724361D02*
X146345863Y-44819600D01*
X146345863Y-44819600D02*
X146250625Y-44867219D01*
X146250625Y-44867219D02*
X146060149Y-44867219D01*
X146060149Y-44867219D02*
X145964911Y-44819600D01*
X145964911Y-44819600D02*
X145869673Y-44724361D01*
X145869673Y-44724361D02*
X145822054Y-44533885D01*
X145822054Y-44533885D02*
X145822054Y-44200552D01*
X145822054Y-44200552D02*
X145869673Y-44010076D01*
X145869673Y-44010076D02*
X145964911Y-43914838D01*
X145964911Y-43914838D02*
X146060149Y-43867219D01*
X146917292Y-44867219D02*
X146917292Y-43867219D01*
X146917292Y-43867219D02*
X147488720Y-44867219D01*
X147488720Y-44867219D02*
X147488720Y-43867219D01*
D11*
G36*
X104377161Y-68275312D02*
G01*
X103528118Y-68275312D01*
X103528118Y-66455935D01*
X104377161Y-66455935D01*
X104377161Y-68275312D01*
G37*
G36*
X104377161Y-83436793D02*
G01*
X103528118Y-83436793D01*
X103528118Y-81617416D01*
X104377161Y-81617416D01*
X104377161Y-83436793D01*
G37*
G36*
X106499772Y-68275312D02*
G01*
X105650724Y-68275312D01*
X105650724Y-66455935D01*
X106499772Y-66455935D01*
X106499772Y-68275312D01*
G37*
G36*
X106499772Y-83436793D02*
G01*
X105650724Y-83436793D01*
X105650724Y-81617416D01*
X106499772Y-81617416D01*
X106499772Y-83436793D01*
G37*
G36*
X108622378Y-68275312D02*
G01*
X107773335Y-68275312D01*
X107773335Y-66455935D01*
X108622378Y-66455935D01*
X108622378Y-68275312D01*
G37*
G36*
X108622378Y-83436793D02*
G01*
X107773335Y-83436793D01*
X107773335Y-81617416D01*
X108622378Y-81617416D01*
X108622378Y-83436793D01*
G37*
G36*
X102576506Y-81981769D02*
G01*
X102594986Y-81983171D01*
X102613198Y-81985485D01*
X102631112Y-81988689D01*
X102648722Y-81992748D01*
X102665988Y-81997651D01*
X102682895Y-82003371D01*
X102699425Y-82009889D01*
X102715539Y-82017170D01*
X102731230Y-82025211D01*
X102746466Y-82033967D01*
X102761234Y-82043438D01*
X102775494Y-82053578D01*
X102789246Y-82064384D01*
X102802441Y-82075820D01*
X102815081Y-82087873D01*
X102827132Y-82100510D01*
X102838568Y-82113707D01*
X102849370Y-82127454D01*
X102859513Y-82141722D01*
X102868980Y-82156484D01*
X102877740Y-82171723D01*
X102885777Y-82187415D01*
X102893064Y-82203535D01*
X102899581Y-82220058D01*
X102905301Y-82236967D01*
X102910204Y-82254231D01*
X102914266Y-82271838D01*
X102917468Y-82289750D01*
X102919781Y-82307964D01*
X102921187Y-82326446D01*
X102921659Y-82345169D01*
X102921187Y-82363893D01*
X102919781Y-82382374D01*
X102917468Y-82400585D01*
X102914266Y-82418500D01*
X102910204Y-82436109D01*
X102905301Y-82453375D01*
X102899581Y-82470279D01*
X102893064Y-82486804D01*
X102885777Y-82502922D01*
X102877740Y-82518611D01*
X102868980Y-82533850D01*
X102859513Y-82548612D01*
X102849370Y-82562882D01*
X102838568Y-82576627D01*
X102827132Y-82589828D01*
X102815081Y-82602470D01*
X102802441Y-82614516D01*
X102789246Y-82625949D01*
X102775494Y-82636758D01*
X102761234Y-82646897D01*
X102746466Y-82656362D01*
X102731230Y-82665126D01*
X102715539Y-82673161D01*
X102699425Y-82680451D01*
X102682895Y-82686962D01*
X102665988Y-82692688D01*
X102648722Y-82697592D01*
X102631112Y-82701653D01*
X102613198Y-82704851D01*
X102594986Y-82707171D01*
X102576506Y-82708572D01*
X102557782Y-82709048D01*
X102539057Y-82708572D01*
X102520583Y-82707171D01*
X102502369Y-82704851D01*
X102484451Y-82701653D01*
X102466844Y-82697592D01*
X102449578Y-82692688D01*
X102432672Y-82686962D01*
X102416148Y-82680451D01*
X102400025Y-82673161D01*
X102384339Y-82665126D01*
X102369101Y-82656362D01*
X102354338Y-82646897D01*
X102340076Y-82636758D01*
X102326324Y-82625949D01*
X102313122Y-82614516D01*
X102300485Y-82602470D01*
X102288441Y-82589828D01*
X102277002Y-82576627D01*
X102266200Y-82562882D01*
X102256054Y-82548612D01*
X102246589Y-82533850D01*
X102237826Y-82518611D01*
X102229792Y-82502922D01*
X102222508Y-82486804D01*
X102215986Y-82470279D01*
X102210267Y-82453375D01*
X102205367Y-82436109D01*
X102201300Y-82418500D01*
X102198101Y-82400585D01*
X102195786Y-82382374D01*
X102194384Y-82363893D01*
X102193908Y-82345169D01*
X102194384Y-82326446D01*
X102195786Y-82307964D01*
X102198101Y-82289750D01*
X102201300Y-82271838D01*
X102205367Y-82254231D01*
X102210267Y-82236967D01*
X102215986Y-82220058D01*
X102222508Y-82203535D01*
X102229792Y-82187415D01*
X102237826Y-82171723D01*
X102246589Y-82156484D01*
X102256054Y-82141722D01*
X102266200Y-82127454D01*
X102277002Y-82113707D01*
X102288441Y-82100510D01*
X102300485Y-82087873D01*
X102313122Y-82075820D01*
X102326324Y-82064384D01*
X102340076Y-82053578D01*
X102354338Y-82043438D01*
X102369101Y-82033967D01*
X102384339Y-82025211D01*
X102400025Y-82017170D01*
X102416148Y-82009889D01*
X102432672Y-82003371D01*
X102449578Y-81997651D01*
X102466844Y-81992748D01*
X102484451Y-81988689D01*
X102502369Y-81985485D01*
X102520583Y-81983171D01*
X102539057Y-81981769D01*
X102557782Y-81981296D01*
X102576506Y-81981769D01*
G37*
G36*
X106465695Y-70864060D02*
G01*
X106488551Y-70865203D01*
X106510736Y-70867113D01*
X106532236Y-70869783D01*
X106553053Y-70873214D01*
X106573191Y-70877410D01*
X106592655Y-70882368D01*
X106611430Y-70888093D01*
X106629536Y-70894571D01*
X106646953Y-70901818D01*
X106663695Y-70909828D01*
X106679752Y-70918602D01*
X106695135Y-70928140D01*
X106709835Y-70938435D01*
X106723861Y-70949498D01*
X106737197Y-70961317D01*
X106749791Y-70973904D01*
X106761579Y-70987253D01*
X106772541Y-71001370D01*
X106782702Y-71016242D01*
X106792050Y-71031880D01*
X106800578Y-71048276D01*
X106808298Y-71065443D01*
X106815205Y-71083367D01*
X106821296Y-71102055D01*
X106826582Y-71121509D01*
X106831047Y-71141722D01*
X106834703Y-71162704D01*
X106837549Y-71184438D01*
X106839582Y-71206948D01*
X106840801Y-71230208D01*
X106841207Y-71254242D01*
X106840801Y-71277255D01*
X106839582Y-71299611D01*
X106837549Y-71321301D01*
X106834703Y-71342326D01*
X106831047Y-71362691D01*
X106826582Y-71382392D01*
X106821296Y-71401429D01*
X106815205Y-71419804D01*
X106808298Y-71437513D01*
X106800578Y-71454560D01*
X106792050Y-71470947D01*
X106782702Y-71486667D01*
X106772541Y-71501718D01*
X106761579Y-71516116D01*
X106749791Y-71529846D01*
X106737197Y-71542917D01*
X106723861Y-71555251D01*
X106709835Y-71566794D01*
X106695135Y-71577538D01*
X106679752Y-71587486D01*
X106663695Y-71596641D01*
X106646953Y-71604998D01*
X106629536Y-71612563D01*
X106611430Y-71619329D01*
X106592655Y-71625297D01*
X106573191Y-71630473D01*
X106553053Y-71634847D01*
X106532236Y-71638429D01*
X106510736Y-71641216D01*
X106488551Y-71643207D01*
X106465695Y-71644401D01*
X106442155Y-71644800D01*
X104170967Y-71644800D01*
X104146922Y-71644401D01*
X104123604Y-71643207D01*
X104101016Y-71641216D01*
X104079164Y-71638429D01*
X104058036Y-71634847D01*
X104037638Y-71630473D01*
X104017975Y-71625297D01*
X103999036Y-71619329D01*
X103980828Y-71612563D01*
X103963348Y-71604998D01*
X103946597Y-71596641D01*
X103930581Y-71587486D01*
X103915290Y-71577538D01*
X103900731Y-71566794D01*
X103886901Y-71555251D01*
X103873799Y-71542917D01*
X103861460Y-71529846D01*
X103849923Y-71516116D01*
X103839178Y-71501718D01*
X103829224Y-71486667D01*
X103820077Y-71470947D01*
X103811714Y-71454560D01*
X103804152Y-71437513D01*
X103797388Y-71419804D01*
X103791415Y-71401429D01*
X103786239Y-71382392D01*
X103781862Y-71362691D01*
X103778283Y-71342326D01*
X103775497Y-71321301D01*
X103773506Y-71299611D01*
X103772314Y-71277255D01*
X103771914Y-71254242D01*
X103772314Y-71230716D01*
X103773506Y-71207908D01*
X103775497Y-71185809D01*
X103778283Y-71164425D01*
X103781862Y-71143759D01*
X103786239Y-71123796D01*
X103791415Y-71104556D01*
X103797388Y-71086023D01*
X103804152Y-71068202D01*
X103811714Y-71051105D01*
X103820077Y-71034709D01*
X103829224Y-71019027D01*
X103839178Y-71004060D01*
X103849923Y-70989813D01*
X103861460Y-70976272D01*
X103873799Y-70963446D01*
X103886901Y-70951362D01*
X103900731Y-70940063D01*
X103915290Y-70929536D01*
X103930581Y-70919796D01*
X103946597Y-70910831D01*
X103963348Y-70902652D01*
X103980828Y-70895244D01*
X103999036Y-70888621D01*
X104017975Y-70882777D01*
X104037638Y-70877707D01*
X104058036Y-70873424D01*
X104079164Y-70869912D01*
X104101016Y-70867188D01*
X104123604Y-70865237D01*
X104146922Y-70864070D01*
X104170967Y-70863680D01*
X106442155Y-70863680D01*
X106465695Y-70864060D01*
G37*
G36*
X108317155Y-71378447D02*
G01*
X108321396Y-71378666D01*
X108325517Y-71379020D01*
X108329510Y-71379515D01*
X108333375Y-71380150D01*
X108337114Y-71380931D01*
X108340728Y-71381855D01*
X108344218Y-71382917D01*
X108347580Y-71384114D01*
X108350810Y-71385465D01*
X108353924Y-71386953D01*
X108356906Y-71388583D01*
X108359763Y-71390351D01*
X108362491Y-71392266D01*
X108365094Y-71394318D01*
X108367572Y-71396512D01*
X108369909Y-71398848D01*
X108372101Y-71401328D01*
X108374143Y-71403951D01*
X108376021Y-71406714D01*
X108377764Y-71409617D01*
X108379346Y-71412669D01*
X108380780Y-71415853D01*
X108382063Y-71419181D01*
X108383194Y-71422654D01*
X108384173Y-71426263D01*
X108385005Y-71430019D01*
X108385683Y-71433914D01*
X108386210Y-71437951D01*
X108386584Y-71442134D01*
X108386815Y-71446453D01*
X108386891Y-71450914D01*
X108386815Y-71455190D01*
X108386584Y-71459337D01*
X108386210Y-71463368D01*
X108385683Y-71467272D01*
X108385005Y-71471058D01*
X108384173Y-71474713D01*
X108383194Y-71478248D01*
X108382063Y-71481661D01*
X108380780Y-71484951D01*
X108379346Y-71488117D01*
X108377764Y-71491159D01*
X108376021Y-71494078D01*
X108374143Y-71496877D01*
X108372101Y-71499550D01*
X108369909Y-71502097D01*
X108367572Y-71504528D01*
X108365094Y-71506813D01*
X108362491Y-71508965D01*
X108359763Y-71510952D01*
X108356906Y-71512803D01*
X108353924Y-71514504D01*
X108350810Y-71516056D01*
X108347580Y-71517456D01*
X108344218Y-71518715D01*
X108340728Y-71519822D01*
X108337114Y-71520783D01*
X108333375Y-71521600D01*
X108329510Y-71522262D01*
X108325517Y-71522783D01*
X108321396Y-71523150D01*
X108317155Y-71523371D01*
X108312779Y-71523443D01*
X107890989Y-71523443D01*
X107886524Y-71523371D01*
X107882187Y-71523150D01*
X107877996Y-71522783D01*
X107873937Y-71522262D01*
X107870012Y-71521600D01*
X107866226Y-71520783D01*
X107862577Y-71519822D01*
X107859057Y-71518715D01*
X107855673Y-71517456D01*
X107852432Y-71516056D01*
X107849316Y-71514504D01*
X107846344Y-71512803D01*
X107843501Y-71510952D01*
X107840796Y-71508965D01*
X107838233Y-71506813D01*
X107835799Y-71504528D01*
X107833508Y-71502097D01*
X107831365Y-71499550D01*
X107829372Y-71496877D01*
X107827524Y-71494078D01*
X107825822Y-71491159D01*
X107824271Y-71488117D01*
X107822868Y-71484951D01*
X107821608Y-71481661D01*
X107820502Y-71478248D01*
X107819541Y-71474713D01*
X107818728Y-71471058D01*
X107818065Y-71467272D01*
X107817546Y-71463368D01*
X107817177Y-71459337D01*
X107816956Y-71455190D01*
X107816879Y-71450914D01*
X107816956Y-71446547D01*
X107817177Y-71442312D01*
X107817546Y-71438206D01*
X107818065Y-71434238D01*
X107818728Y-71430397D01*
X107819541Y-71426690D01*
X107820502Y-71423120D01*
X107821608Y-71419672D01*
X107822868Y-71416367D01*
X107824271Y-71413193D01*
X107825822Y-71410141D01*
X107827524Y-71407229D01*
X107829372Y-71404454D01*
X107831365Y-71401805D01*
X107833508Y-71399292D01*
X107835799Y-71396910D01*
X107838233Y-71394661D01*
X107840796Y-71392565D01*
X107843501Y-71390613D01*
X107846344Y-71388802D01*
X107849316Y-71387134D01*
X107852432Y-71385618D01*
X107855673Y-71384242D01*
X107859057Y-71383011D01*
X107862577Y-71381922D01*
X107866226Y-71380985D01*
X107870012Y-71380191D01*
X107873937Y-71379542D01*
X107877996Y-71379031D01*
X107882187Y-71378669D01*
X107886524Y-71378452D01*
X107890989Y-71378382D01*
X108312779Y-71378382D01*
X108317155Y-71378447D01*
G37*
G36*
X108317155Y-76695280D02*
G01*
X108321396Y-76695494D01*
X108325517Y-76695850D01*
X108329510Y-76696343D01*
X108333375Y-76696983D01*
X108337114Y-76697765D01*
X108340728Y-76698679D01*
X108344218Y-76699744D01*
X108347580Y-76700949D01*
X108350810Y-76702290D01*
X108353924Y-76703783D01*
X108356906Y-76705413D01*
X108359763Y-76707181D01*
X108362491Y-76709095D01*
X108365094Y-76711149D01*
X108367572Y-76713343D01*
X108369909Y-76715684D01*
X108372101Y-76718159D01*
X108374143Y-76720783D01*
X108376021Y-76723544D01*
X108377764Y-76726453D01*
X108379346Y-76729494D01*
X108380780Y-76732683D01*
X108382063Y-76736012D01*
X108383194Y-76739480D01*
X108384173Y-76743096D01*
X108385005Y-76746846D01*
X108385683Y-76750744D01*
X108386210Y-76754784D01*
X108386584Y-76758963D01*
X108386815Y-76763283D01*
X108386891Y-76767743D01*
X108386815Y-76772019D01*
X108386584Y-76776169D01*
X108386210Y-76780197D01*
X108385683Y-76784105D01*
X108385005Y-76787884D01*
X108384173Y-76791543D01*
X108383194Y-76795079D01*
X108382063Y-76798491D01*
X108380780Y-76801780D01*
X108379346Y-76804943D01*
X108377764Y-76807988D01*
X108376021Y-76810909D01*
X108374143Y-76813702D01*
X108372101Y-76816379D01*
X108369909Y-76818926D01*
X108367572Y-76821354D01*
X108365094Y-76823650D01*
X108362491Y-76825792D01*
X108359763Y-76827782D01*
X108356906Y-76829630D01*
X108353924Y-76831334D01*
X108350810Y-76832886D01*
X108347580Y-76834290D01*
X108344218Y-76835546D01*
X108340728Y-76836653D01*
X108337114Y-76837614D01*
X108333375Y-76838427D01*
X108329510Y-76839095D01*
X108325517Y-76839612D01*
X108321396Y-76839978D01*
X108317155Y-76840200D01*
X108312779Y-76840278D01*
X107890989Y-76840278D01*
X107886524Y-76840200D01*
X107882187Y-76839978D01*
X107877996Y-76839612D01*
X107873937Y-76839095D01*
X107870012Y-76838427D01*
X107866226Y-76837614D01*
X107862577Y-76836653D01*
X107859057Y-76835546D01*
X107855673Y-76834290D01*
X107852432Y-76832886D01*
X107849316Y-76831334D01*
X107846344Y-76829630D01*
X107843501Y-76827782D01*
X107840796Y-76825792D01*
X107838233Y-76823650D01*
X107835799Y-76821354D01*
X107833508Y-76818926D01*
X107831365Y-76816379D01*
X107829372Y-76813702D01*
X107827524Y-76810909D01*
X107825822Y-76807988D01*
X107824271Y-76804943D01*
X107822868Y-76801780D01*
X107821608Y-76798491D01*
X107820502Y-76795079D01*
X107819541Y-76791543D01*
X107818728Y-76787884D01*
X107818065Y-76784105D01*
X107817546Y-76780197D01*
X107817177Y-76776169D01*
X107816956Y-76772019D01*
X107816879Y-76767743D01*
X107816956Y-76763376D01*
X107817177Y-76759143D01*
X107817546Y-76755035D01*
X107818065Y-76751066D01*
X107818728Y-76747224D01*
X107819541Y-76743521D01*
X107820502Y-76739948D01*
X107821608Y-76736502D01*
X107822868Y-76733194D01*
X107824271Y-76730017D01*
X107825822Y-76726973D01*
X107827524Y-76724061D01*
X107829372Y-76721282D01*
X107831365Y-76718635D01*
X107833508Y-76716118D01*
X107835799Y-76713736D01*
X107838233Y-76711492D01*
X107840796Y-76709400D01*
X107843501Y-76707439D01*
X107846344Y-76705634D01*
X107849316Y-76703967D01*
X107852432Y-76702447D01*
X107855673Y-76701072D01*
X107859057Y-76699846D01*
X107862577Y-76698757D01*
X107866226Y-76697816D01*
X107870012Y-76697019D01*
X107873937Y-76696372D01*
X107877996Y-76695863D01*
X107882187Y-76695503D01*
X107886524Y-76695281D01*
X107890989Y-76695207D01*
X108312779Y-76695207D01*
X108317155Y-76695280D01*
G37*
D12*
X109515113Y-68276418D02*
X109558229Y-68279696D01*
X109600724Y-68285096D01*
X109642529Y-68292557D01*
X109683608Y-68302045D01*
X109723900Y-68313481D01*
X109763350Y-68326836D01*
X109801907Y-68342029D01*
X109839518Y-68359033D01*
X109876126Y-68377783D01*
X109911678Y-68398231D01*
X109946129Y-68420315D01*
X109979416Y-68443988D01*
X110011489Y-68469191D01*
X110042299Y-68495874D01*
X110071785Y-68523992D01*
X110099897Y-68553476D01*
X110126582Y-68584286D01*
X110151787Y-68616360D01*
X110175460Y-68649643D01*
X110197544Y-68684091D01*
X110217990Y-68719648D01*
X110236739Y-68756256D01*
X110253741Y-68793868D01*
X110268942Y-68832423D01*
X110282290Y-68871876D01*
X110293730Y-68912164D01*
X110303212Y-68953243D01*
X110310680Y-68995055D01*
X110316079Y-69037548D01*
X110319361Y-69080662D01*
X110320463Y-69124349D01*
X110320463Y-80768379D01*
X110319361Y-80812063D01*
X110316079Y-80855180D01*
X110310680Y-80897673D01*
X110303212Y-80939485D01*
X110293730Y-80980563D01*
X110282290Y-81020852D01*
X110268942Y-81060302D01*
X110253741Y-81098859D01*
X110236739Y-81136467D01*
X110217990Y-81173080D01*
X110197544Y-81208634D01*
X110175460Y-81243085D01*
X110151787Y-81276367D01*
X110126582Y-81308442D01*
X110099897Y-81339251D01*
X110071785Y-81368736D01*
X110042299Y-81396853D01*
X110011489Y-81423537D01*
X109979416Y-81448739D01*
X109946129Y-81472412D01*
X109911678Y-81494496D01*
X109876126Y-81514945D01*
X109839518Y-81533695D01*
X109801907Y-81550699D01*
X109763350Y-81565892D01*
X109723900Y-81579247D01*
X109683608Y-81590683D01*
X109642529Y-81600171D01*
X109600724Y-81607632D01*
X109558229Y-81613032D01*
X109515113Y-81616310D01*
X109471421Y-81617416D01*
X102679075Y-81617416D01*
X102635383Y-81616310D01*
X102592268Y-81613032D01*
X102549772Y-81607632D01*
X102507967Y-81600171D01*
X102466888Y-81590683D01*
X102426596Y-81579247D01*
X102387146Y-81565892D01*
X102348589Y-81550699D01*
X102310979Y-81533695D01*
X102274370Y-81514945D01*
X102238818Y-81494496D01*
X102204367Y-81472412D01*
X102171080Y-81448739D01*
X102139007Y-81423537D01*
X102108197Y-81396853D01*
X102078711Y-81368736D01*
X102050599Y-81339251D01*
X102023914Y-81308442D01*
X101998709Y-81276367D01*
X101975036Y-81243085D01*
X101952952Y-81208634D01*
X101932506Y-81173080D01*
X101913757Y-81136467D01*
X101896755Y-81098859D01*
X101881555Y-81060302D01*
X101868206Y-81020852D01*
X101856766Y-80980563D01*
X101847284Y-80939485D01*
X101839816Y-80897673D01*
X101834417Y-80855180D01*
X101831135Y-80812063D01*
X101830033Y-80768379D01*
X101830033Y-69124349D01*
X101831135Y-69080662D01*
X101834417Y-69037548D01*
X101839816Y-68995055D01*
X101847284Y-68953243D01*
X101856766Y-68912164D01*
X101868206Y-68871876D01*
X101881555Y-68832423D01*
X101896755Y-68793868D01*
X101913757Y-68756256D01*
X101932506Y-68719648D01*
X101952952Y-68684091D01*
X101975036Y-68649643D01*
X101998709Y-68616360D01*
X102023914Y-68584286D01*
X102050599Y-68553476D01*
X102078711Y-68523992D01*
X102108197Y-68495874D01*
X102139007Y-68469191D01*
X102171080Y-68443988D01*
X102204367Y-68420315D01*
X102238818Y-68398231D01*
X102274370Y-68377783D01*
X102310979Y-68359033D01*
X102348589Y-68342029D01*
X102387146Y-68326836D01*
X102426596Y-68313481D01*
X102466888Y-68302045D01*
X102507967Y-68292557D01*
X102549772Y-68285096D01*
X102592268Y-68279696D01*
X102635383Y-68276418D01*
X102679075Y-68275312D01*
X109471421Y-68275312D01*
X109515113Y-68276418D01*
D11*
G36*
X107886600Y-72613375D02*
G01*
X107890000Y-72613553D01*
X107893292Y-72613853D01*
X107896481Y-72614277D01*
X107899576Y-72614814D01*
X107902561Y-72615477D01*
X107905449Y-72616255D01*
X107908229Y-72617159D01*
X107910920Y-72618179D01*
X107913502Y-72619316D01*
X107915980Y-72620580D01*
X107918362Y-72621962D01*
X107920639Y-72623464D01*
X107922814Y-72625087D01*
X107924888Y-72626826D01*
X107926855Y-72628688D01*
X107928719Y-72630663D01*
X107930464Y-72632747D01*
X107932083Y-72634942D01*
X107933584Y-72637235D01*
X107934966Y-72639647D01*
X107936230Y-72642161D01*
X107937368Y-72644780D01*
X107938390Y-72647513D01*
X107939294Y-72650351D01*
X107940072Y-72653297D01*
X107940735Y-72656347D01*
X107941274Y-72659510D01*
X107941693Y-72662777D01*
X107941993Y-72666155D01*
X107942176Y-72669641D01*
X107942234Y-72673230D01*
X107942234Y-72797011D01*
X108313570Y-72797011D01*
X108317845Y-72797083D01*
X108322000Y-72797295D01*
X108326035Y-72797653D01*
X108329954Y-72798145D01*
X108333749Y-72798784D01*
X108337425Y-72799561D01*
X108340981Y-72800482D01*
X108344417Y-72801545D01*
X108347731Y-72802750D01*
X108350927Y-72804097D01*
X108353999Y-72805586D01*
X108356953Y-72807211D01*
X108359788Y-72808979D01*
X108362503Y-72810897D01*
X108365098Y-72812950D01*
X108367572Y-72815144D01*
X108369909Y-72817482D01*
X108372101Y-72819958D01*
X108374143Y-72822579D01*
X108376021Y-72825345D01*
X108377764Y-72828249D01*
X108379346Y-72831292D01*
X108380780Y-72834482D01*
X108382063Y-72837812D01*
X108383194Y-72841283D01*
X108384173Y-72844897D01*
X108385005Y-72848646D01*
X108385683Y-72852545D01*
X108386210Y-72856584D01*
X108386584Y-72860760D01*
X108386815Y-72865082D01*
X108386891Y-72869544D01*
X108386815Y-72873821D01*
X108386584Y-72877971D01*
X108386210Y-72881996D01*
X108385683Y-72885903D01*
X108385005Y-72889678D01*
X108384173Y-72893346D01*
X108383194Y-72896880D01*
X108382063Y-72900293D01*
X108380780Y-72903579D01*
X108379346Y-72906746D01*
X108377764Y-72909787D01*
X108376021Y-72912709D01*
X108374143Y-72915505D01*
X108372101Y-72918179D01*
X108369909Y-72920727D01*
X108367572Y-72923155D01*
X108365098Y-72925443D01*
X108362503Y-72927591D01*
X108359788Y-72929584D01*
X108356953Y-72931433D01*
X108353999Y-72933130D01*
X108350927Y-72934688D01*
X108347731Y-72936088D01*
X108344417Y-72937346D01*
X108340981Y-72938453D01*
X108337425Y-72939414D01*
X108333749Y-72940231D01*
X108329954Y-72940893D01*
X108326035Y-72941409D01*
X108322000Y-72941779D01*
X108317845Y-72942001D01*
X108313570Y-72942072D01*
X107942234Y-72942072D01*
X107942234Y-73065856D01*
X107942176Y-73069447D01*
X107941993Y-73072931D01*
X107941693Y-73076310D01*
X107941274Y-73079578D01*
X107940735Y-73082737D01*
X107940072Y-73085793D01*
X107939294Y-73088742D01*
X107938390Y-73091573D01*
X107937368Y-73094306D01*
X107936230Y-73096928D01*
X107934966Y-73099444D01*
X107933584Y-73101852D01*
X107932083Y-73104150D01*
X107930464Y-73106342D01*
X107928719Y-73108425D01*
X107926855Y-73110401D01*
X107924888Y-73112260D01*
X107922814Y-73114001D01*
X107920639Y-73115624D01*
X107918362Y-73117123D01*
X107915980Y-73118507D01*
X107913502Y-73119767D01*
X107910920Y-73120909D01*
X107908229Y-73121931D01*
X107905449Y-73122831D01*
X107902561Y-73123613D01*
X107899576Y-73124272D01*
X107896481Y-73124811D01*
X107893292Y-73125234D01*
X107890000Y-73125532D01*
X107886600Y-73125709D01*
X107883103Y-73125770D01*
X107879517Y-73125709D01*
X107876034Y-73125532D01*
X107872667Y-73125234D01*
X107869403Y-73124811D01*
X107866254Y-73124272D01*
X107863220Y-73123613D01*
X107860293Y-73122831D01*
X107857478Y-73121931D01*
X107854774Y-73120909D01*
X107852183Y-73119767D01*
X107849699Y-73118507D01*
X107847330Y-73117123D01*
X107845066Y-73115624D01*
X107842922Y-73114001D01*
X107840881Y-73112260D01*
X107838952Y-73110401D01*
X107837140Y-73108425D01*
X107835443Y-73106342D01*
X107833866Y-73104150D01*
X107832403Y-73101852D01*
X107831054Y-73099444D01*
X107829829Y-73096928D01*
X107828713Y-73094306D01*
X107827718Y-73091573D01*
X107826840Y-73088742D01*
X107826078Y-73085793D01*
X107825435Y-73082737D01*
X107824908Y-73079578D01*
X107824499Y-73076310D01*
X107824207Y-73072931D01*
X107824028Y-73069447D01*
X107823970Y-73065856D01*
X107823970Y-72673230D01*
X107824028Y-72669641D01*
X107824207Y-72666155D01*
X107824499Y-72662777D01*
X107824908Y-72659510D01*
X107825435Y-72656347D01*
X107826078Y-72653297D01*
X107826840Y-72650351D01*
X107827718Y-72647513D01*
X107828713Y-72644780D01*
X107829829Y-72642161D01*
X107831054Y-72639647D01*
X107832403Y-72637235D01*
X107833866Y-72634942D01*
X107835443Y-72632747D01*
X107837140Y-72630663D01*
X107838952Y-72628688D01*
X107840881Y-72626826D01*
X107842922Y-72625087D01*
X107845066Y-72623464D01*
X107847330Y-72621962D01*
X107849699Y-72620580D01*
X107852183Y-72619316D01*
X107854774Y-72618179D01*
X107857478Y-72617159D01*
X107860293Y-72616255D01*
X107863220Y-72615477D01*
X107866254Y-72614814D01*
X107869403Y-72614277D01*
X107872667Y-72613853D01*
X107876034Y-72613553D01*
X107879517Y-72613375D01*
X107883103Y-72613317D01*
X107886600Y-72613375D01*
G37*
G36*
X108117819Y-74978100D02*
G01*
X108133687Y-74979060D01*
X108141455Y-74979781D01*
X108149106Y-74980662D01*
X108156646Y-74981705D01*
X108164068Y-74982904D01*
X108171380Y-74984263D01*
X108178575Y-74985783D01*
X108185656Y-74987467D01*
X108192623Y-74989308D01*
X108199480Y-74991311D01*
X108206214Y-74993472D01*
X108212842Y-74995796D01*
X108219355Y-74998279D01*
X108225749Y-75000910D01*
X108232017Y-75003684D01*
X108238166Y-75006603D01*
X108244189Y-75009658D01*
X108250092Y-75012859D01*
X108255872Y-75016201D01*
X108261521Y-75019683D01*
X108267052Y-75023306D01*
X108272462Y-75027076D01*
X108277746Y-75030982D01*
X108282907Y-75035033D01*
X108287943Y-75039224D01*
X108292860Y-75043556D01*
X108297649Y-75048030D01*
X108302323Y-75052648D01*
X108306867Y-75057407D01*
X108311282Y-75062305D01*
X108315565Y-75067343D01*
X108319708Y-75072518D01*
X108323721Y-75077834D01*
X108327596Y-75083283D01*
X108331335Y-75088876D01*
X108334936Y-75094603D01*
X108338406Y-75100477D01*
X108341733Y-75106480D01*
X108344930Y-75112625D01*
X108347994Y-75118911D01*
X108350919Y-75125334D01*
X108353709Y-75131891D01*
X108356368Y-75138593D01*
X108358883Y-75145430D01*
X108361268Y-75152409D01*
X108363515Y-75159517D01*
X108365608Y-75166754D01*
X108367564Y-75174114D01*
X108369371Y-75181606D01*
X108371039Y-75189219D01*
X108372559Y-75196962D01*
X108373936Y-75204826D01*
X108375162Y-75212820D01*
X108377189Y-75229184D01*
X108378635Y-75246053D01*
X108379504Y-75263428D01*
X108379797Y-75281311D01*
X108379797Y-75435835D01*
X108379720Y-75440401D01*
X108379490Y-75444823D01*
X108379114Y-75449111D01*
X108378587Y-75453255D01*
X108377908Y-75457266D01*
X108377082Y-75461131D01*
X108376096Y-75464866D01*
X108374966Y-75468458D01*
X108373683Y-75471910D01*
X108372251Y-75475230D01*
X108370663Y-75478403D01*
X108368930Y-75481444D01*
X108367040Y-75484342D01*
X108365006Y-75487102D01*
X108362817Y-75489725D01*
X108360483Y-75492206D01*
X108357996Y-75494542D01*
X108355382Y-75496735D01*
X108352637Y-75498771D01*
X108349761Y-75500659D01*
X108346752Y-75502395D01*
X108343609Y-75503977D01*
X108340336Y-75505412D01*
X108336927Y-75506695D01*
X108333383Y-75507828D01*
X108329715Y-75508806D01*
X108325908Y-75509640D01*
X108321972Y-75510317D01*
X108317900Y-75510845D01*
X108313696Y-75511222D01*
X108309363Y-75511447D01*
X108304895Y-75511522D01*
X108262324Y-75511522D01*
X107898872Y-75511522D01*
X107894402Y-75511447D01*
X107890070Y-75511222D01*
X107885868Y-75510845D01*
X107881797Y-75510317D01*
X107877862Y-75509640D01*
X107874056Y-75508806D01*
X107870381Y-75507828D01*
X107866846Y-75506695D01*
X107863437Y-75505412D01*
X107860157Y-75503977D01*
X107857017Y-75502395D01*
X107854005Y-75500659D01*
X107851136Y-75498771D01*
X107848380Y-75496735D01*
X107845771Y-75494542D01*
X107843290Y-75492206D01*
X107840949Y-75489725D01*
X107838764Y-75487102D01*
X107836724Y-75484342D01*
X107834837Y-75481444D01*
X107833106Y-75478403D01*
X107831519Y-75475230D01*
X107830089Y-75471910D01*
X107828802Y-75468458D01*
X107827669Y-75464866D01*
X107826689Y-75461131D01*
X107825862Y-75457266D01*
X107825184Y-75453255D01*
X107824656Y-75449111D01*
X107824276Y-75444823D01*
X107824050Y-75440401D01*
X107823970Y-75435835D01*
X107823970Y-75290771D01*
X107941443Y-75290771D01*
X107941443Y-75366461D01*
X108262324Y-75366461D01*
X108262324Y-75290771D01*
X108262163Y-75280504D01*
X108261681Y-75270596D01*
X108260879Y-75261039D01*
X108259760Y-75251841D01*
X108258318Y-75243005D01*
X108256560Y-75234525D01*
X108254474Y-75226403D01*
X108252070Y-75218636D01*
X108250757Y-75214884D01*
X108249361Y-75211202D01*
X108247897Y-75207609D01*
X108246357Y-75204100D01*
X108244746Y-75200662D01*
X108243051Y-75197309D01*
X108241295Y-75194039D01*
X108239462Y-75190840D01*
X108237549Y-75187728D01*
X108235565Y-75184695D01*
X108233509Y-75181741D01*
X108231376Y-75178869D01*
X108229172Y-75176076D01*
X108226894Y-75173361D01*
X108224541Y-75170728D01*
X108222114Y-75168175D01*
X108219610Y-75165702D01*
X108217024Y-75163311D01*
X108214364Y-75161000D01*
X108211618Y-75158768D01*
X108208797Y-75156613D01*
X108205895Y-75154539D01*
X108202910Y-75152547D01*
X108199841Y-75150633D01*
X108196697Y-75148800D01*
X108193472Y-75147050D01*
X108190166Y-75145379D01*
X108186787Y-75143785D01*
X108183320Y-75142274D01*
X108179776Y-75140838D01*
X108176151Y-75139492D01*
X108172446Y-75138215D01*
X108168658Y-75137023D01*
X108164784Y-75135909D01*
X108160823Y-75134867D01*
X108156778Y-75133905D01*
X108152645Y-75133021D01*
X108148425Y-75132212D01*
X108144122Y-75131481D01*
X108139729Y-75130826D01*
X108130683Y-75129750D01*
X108121296Y-75128978D01*
X108111567Y-75128516D01*
X108101489Y-75128362D01*
X108091408Y-75128517D01*
X108081664Y-75128987D01*
X108072254Y-75129775D01*
X108063180Y-75130875D01*
X108054438Y-75132288D01*
X108046035Y-75134015D01*
X108037973Y-75136060D01*
X108030238Y-75138415D01*
X108022842Y-75141085D01*
X108015781Y-75144070D01*
X108009063Y-75147368D01*
X108002669Y-75150978D01*
X107996615Y-75154907D01*
X107990900Y-75159146D01*
X107985517Y-75163700D01*
X107980468Y-75168574D01*
X107975746Y-75173757D01*
X107971326Y-75179273D01*
X107967207Y-75185119D01*
X107963398Y-75191287D01*
X107959891Y-75197785D01*
X107956689Y-75204603D01*
X107953795Y-75211749D01*
X107951203Y-75219226D01*
X107948918Y-75227026D01*
X107946934Y-75235156D01*
X107945257Y-75243606D01*
X107943882Y-75252385D01*
X107942818Y-75261493D01*
X107942051Y-75270924D01*
X107941599Y-75280686D01*
X107941443Y-75290771D01*
X107823970Y-75290771D01*
X107823970Y-75281311D01*
X107824254Y-75263437D01*
X107825105Y-75246073D01*
X107826523Y-75229227D01*
X107828511Y-75212891D01*
X107831056Y-75197075D01*
X107834173Y-75181770D01*
X107837859Y-75166981D01*
X107842109Y-75152703D01*
X107846927Y-75138941D01*
X107852307Y-75125699D01*
X107858255Y-75112962D01*
X107864772Y-75100744D01*
X107871860Y-75089040D01*
X107879509Y-75077851D01*
X107887722Y-75067175D01*
X107896507Y-75057010D01*
X107905810Y-75047418D01*
X107915574Y-75038442D01*
X107925812Y-75030087D01*
X107936517Y-75022346D01*
X107947694Y-75015228D01*
X107959334Y-75008731D01*
X107971437Y-75002850D01*
X107984019Y-74997588D01*
X107997064Y-74992942D01*
X108010578Y-74988920D01*
X108024560Y-74985513D01*
X108039013Y-74982728D01*
X108053929Y-74980567D01*
X108069313Y-74979012D01*
X108085160Y-74978088D01*
X108101489Y-74977779D01*
X108117819Y-74978100D01*
G37*
G36*
X108117819Y-77637182D02*
G01*
X108133687Y-77638143D01*
X108141455Y-77638866D01*
X108149106Y-77639742D01*
X108156646Y-77640789D01*
X108164068Y-77641983D01*
X108171380Y-77643349D01*
X108178575Y-77644869D01*
X108185656Y-77646551D01*
X108192623Y-77648393D01*
X108199480Y-77650393D01*
X108206214Y-77652556D01*
X108212842Y-77654877D01*
X108219355Y-77657355D01*
X108225749Y-77659993D01*
X108232017Y-77662767D01*
X108238166Y-77665683D01*
X108244189Y-77668741D01*
X108250092Y-77671939D01*
X108255872Y-77675282D01*
X108261521Y-77678768D01*
X108267052Y-77682389D01*
X108272462Y-77686153D01*
X108277746Y-77690065D01*
X108282907Y-77694110D01*
X108287943Y-77698304D01*
X108292860Y-77702638D01*
X108297649Y-77707114D01*
X108302323Y-77711733D01*
X108306867Y-77716491D01*
X108311282Y-77721384D01*
X108315565Y-77726426D01*
X108319708Y-77731599D01*
X108323721Y-77736911D01*
X108327596Y-77742367D01*
X108331335Y-77747962D01*
X108334936Y-77753685D01*
X108338406Y-77759555D01*
X108341733Y-77765561D01*
X108344930Y-77771708D01*
X108347994Y-77777991D01*
X108350919Y-77784414D01*
X108353709Y-77790971D01*
X108356368Y-77797675D01*
X108358883Y-77804514D01*
X108361268Y-77811493D01*
X108363515Y-77818602D01*
X108365608Y-77825833D01*
X108367564Y-77833201D01*
X108369371Y-77840687D01*
X108371039Y-77848298D01*
X108372559Y-77856039D01*
X108373936Y-77863909D01*
X108375162Y-77871903D01*
X108377189Y-77888265D01*
X108378635Y-77905134D01*
X108379504Y-77922516D01*
X108379797Y-77940392D01*
X108379797Y-78094924D01*
X108379720Y-78099482D01*
X108379490Y-78103902D01*
X108379114Y-78108191D01*
X108378587Y-78112341D01*
X108377908Y-78116344D01*
X108377082Y-78120216D01*
X108376096Y-78123945D01*
X108374966Y-78127541D01*
X108373683Y-78130995D01*
X108372251Y-78134310D01*
X108370663Y-78137482D01*
X108368930Y-78140523D01*
X108367040Y-78143423D01*
X108365006Y-78146184D01*
X108362817Y-78148805D01*
X108360483Y-78151293D01*
X108357996Y-78153631D01*
X108355382Y-78155817D01*
X108352637Y-78157855D01*
X108349761Y-78159742D01*
X108346752Y-78161475D01*
X108343609Y-78163061D01*
X108340336Y-78164496D01*
X108336927Y-78165776D01*
X108333383Y-78166907D01*
X108329715Y-78167890D01*
X108325908Y-78168719D01*
X108321972Y-78169396D01*
X108317900Y-78169925D01*
X108313696Y-78170304D01*
X108309363Y-78170528D01*
X108304895Y-78170608D01*
X108262324Y-78170608D01*
X107898872Y-78170608D01*
X107894402Y-78170528D01*
X107890070Y-78170304D01*
X107885868Y-78169925D01*
X107881797Y-78169396D01*
X107877862Y-78168719D01*
X107874056Y-78167890D01*
X107870381Y-78166907D01*
X107866846Y-78165776D01*
X107863437Y-78164496D01*
X107860157Y-78163061D01*
X107857017Y-78161475D01*
X107854005Y-78159742D01*
X107851136Y-78157855D01*
X107848380Y-78155817D01*
X107845771Y-78153631D01*
X107843290Y-78151293D01*
X107840949Y-78148805D01*
X107838764Y-78146184D01*
X107836724Y-78143423D01*
X107834837Y-78140523D01*
X107833106Y-78137482D01*
X107831519Y-78134310D01*
X107830089Y-78130995D01*
X107828802Y-78127541D01*
X107827669Y-78123945D01*
X107826689Y-78120216D01*
X107825862Y-78116344D01*
X107825184Y-78112341D01*
X107824656Y-78108191D01*
X107824276Y-78103902D01*
X107824050Y-78099482D01*
X107823970Y-78094924D01*
X107823970Y-77949858D01*
X107941443Y-77949858D01*
X107941443Y-78025540D01*
X108262324Y-78025540D01*
X108262324Y-77949858D01*
X108262163Y-77939585D01*
X108261681Y-77929677D01*
X108260879Y-77920124D01*
X108259760Y-77910928D01*
X108258318Y-77902091D01*
X108256560Y-77893607D01*
X108254474Y-77885483D01*
X108252070Y-77877713D01*
X108250757Y-77873959D01*
X108249361Y-77870287D01*
X108247897Y-77866693D01*
X108246357Y-77863179D01*
X108244746Y-77859751D01*
X108243051Y-77856394D01*
X108241295Y-77853116D01*
X108239462Y-77849924D01*
X108237549Y-77846807D01*
X108235565Y-77843777D01*
X108233509Y-77840822D01*
X108231376Y-77837951D01*
X108229172Y-77835156D01*
X108226894Y-77832446D01*
X108224541Y-77829807D01*
X108222114Y-77827259D01*
X108219610Y-77824783D01*
X108217024Y-77822390D01*
X108214364Y-77820081D01*
X108211618Y-77817849D01*
X108208797Y-77815696D01*
X108205895Y-77813620D01*
X108202910Y-77811630D01*
X108199841Y-77809718D01*
X108196697Y-77807882D01*
X108193472Y-77806128D01*
X108190166Y-77804459D01*
X108186787Y-77802867D01*
X108183320Y-77801353D01*
X108179776Y-77799923D01*
X108176151Y-77798569D01*
X108172446Y-77797301D01*
X108168658Y-77796109D01*
X108164784Y-77794994D01*
X108160823Y-77793951D01*
X108156778Y-77792987D01*
X108152645Y-77792101D01*
X108148425Y-77791296D01*
X108144122Y-77790560D01*
X108139729Y-77789908D01*
X108130683Y-77788832D01*
X108121296Y-77788063D01*
X108111567Y-77787599D01*
X108101489Y-77787440D01*
X108091408Y-77787603D01*
X108081664Y-77788074D01*
X108072254Y-77788857D01*
X108063180Y-77789956D01*
X108054438Y-77791374D01*
X108046035Y-77793099D01*
X108037973Y-77795139D01*
X108030238Y-77797494D01*
X108022842Y-77800166D01*
X108015781Y-77803152D01*
X108009063Y-77806442D01*
X108002669Y-77810055D01*
X107996615Y-77813987D01*
X107990900Y-77818227D01*
X107985517Y-77822781D01*
X107980468Y-77827653D01*
X107975746Y-77832842D01*
X107971326Y-77838358D01*
X107967207Y-77844199D01*
X107963398Y-77850369D01*
X107959891Y-77856863D01*
X107956689Y-77863682D01*
X107953795Y-77870832D01*
X107951203Y-77878310D01*
X107948918Y-77886107D01*
X107946934Y-77894235D01*
X107945257Y-77902687D01*
X107943882Y-77911473D01*
X107942818Y-77920573D01*
X107942051Y-77930006D01*
X107941599Y-77939767D01*
X107941443Y-77949858D01*
X107823970Y-77949858D01*
X107823970Y-77940392D01*
X107824254Y-77922519D01*
X107825105Y-77905157D01*
X107826523Y-77888307D01*
X107828511Y-77871974D01*
X107831056Y-77856154D01*
X107834173Y-77840852D01*
X107837859Y-77826062D01*
X107842109Y-77811792D01*
X107846927Y-77798023D01*
X107852307Y-77784774D01*
X107858255Y-77772045D01*
X107864772Y-77759826D01*
X107871860Y-77748120D01*
X107879509Y-77736933D01*
X107887722Y-77726255D01*
X107896507Y-77716095D01*
X107905810Y-77706501D01*
X107915574Y-77697519D01*
X107925812Y-77689169D01*
X107936517Y-77681428D01*
X107947694Y-77674312D01*
X107959334Y-77667810D01*
X107971437Y-77661930D01*
X107984019Y-77656668D01*
X107997064Y-77652028D01*
X108010578Y-77648002D01*
X108024560Y-77644601D01*
X108039013Y-77641813D01*
X108053929Y-77639647D01*
X108069313Y-77638096D01*
X108085160Y-77637169D01*
X108101489Y-77636862D01*
X108117819Y-77637182D01*
G37*
G36*
X108325148Y-75855871D02*
G01*
X108328752Y-75856055D01*
X108332257Y-75856369D01*
X108335668Y-75856795D01*
X108338985Y-75857350D01*
X108342204Y-75858031D01*
X108345327Y-75858827D01*
X108348356Y-75859753D01*
X108351289Y-75860799D01*
X108354123Y-75861969D01*
X108356871Y-75863264D01*
X108359519Y-75864676D01*
X108362072Y-75866219D01*
X108364526Y-75867883D01*
X108366883Y-75869673D01*
X108369153Y-75871578D01*
X108371300Y-75873592D01*
X108373307Y-75875693D01*
X108375178Y-75877878D01*
X108376909Y-75880152D01*
X108378506Y-75882511D01*
X108379960Y-75884958D01*
X108381281Y-75887488D01*
X108382456Y-75890104D01*
X108383495Y-75892810D01*
X108384392Y-75895600D01*
X108385158Y-75898473D01*
X108385784Y-75901438D01*
X108386269Y-75904486D01*
X108386613Y-75907619D01*
X108386822Y-75910844D01*
X108386891Y-75914152D01*
X108386847Y-75917458D01*
X108386735Y-75920675D01*
X108386541Y-75923800D01*
X108386275Y-75926838D01*
X108385931Y-75929787D01*
X108385505Y-75932650D01*
X108385005Y-75935415D01*
X108384427Y-75938098D01*
X108383773Y-75940691D01*
X108383042Y-75943191D01*
X108382232Y-75945605D01*
X108381346Y-75947927D01*
X108380382Y-75950166D01*
X108379346Y-75952310D01*
X108378226Y-75954363D01*
X108377037Y-75956334D01*
X108375755Y-75958260D01*
X108374392Y-75960204D01*
X108372935Y-75962164D01*
X108371393Y-75964144D01*
X108369758Y-75966132D01*
X108368036Y-75968137D01*
X108366222Y-75970159D01*
X108364326Y-75972197D01*
X108362332Y-75974249D01*
X108360251Y-75976321D01*
X108358082Y-75978402D01*
X108355823Y-75980501D01*
X108353472Y-75982615D01*
X108351037Y-75984745D01*
X108348509Y-75986889D01*
X108345892Y-75989049D01*
X108060548Y-76216894D01*
X108318298Y-76216894D01*
X108322469Y-76216965D01*
X108326514Y-76217158D01*
X108330425Y-76217493D01*
X108334216Y-76217954D01*
X108337870Y-76218550D01*
X108341397Y-76219277D01*
X108344793Y-76220141D01*
X108348061Y-76221136D01*
X108351200Y-76222258D01*
X108354207Y-76223516D01*
X108357089Y-76224909D01*
X108359834Y-76226430D01*
X108362456Y-76228086D01*
X108364950Y-76229874D01*
X108367311Y-76231796D01*
X108369543Y-76233845D01*
X108371642Y-76236028D01*
X108373611Y-76238335D01*
X108375440Y-76240768D01*
X108377127Y-76243335D01*
X108378692Y-76246019D01*
X108380115Y-76248831D01*
X108381400Y-76251768D01*
X108382556Y-76254840D01*
X108383570Y-76258030D01*
X108384451Y-76261348D01*
X108385197Y-76264790D01*
X108385805Y-76268366D01*
X108386281Y-76272066D01*
X108386621Y-76275885D01*
X108386822Y-76279836D01*
X108386891Y-76283908D01*
X108386822Y-76287988D01*
X108386621Y-76291941D01*
X108386281Y-76295775D01*
X108385805Y-76299480D01*
X108385197Y-76303064D01*
X108384451Y-76306523D01*
X108383570Y-76309866D01*
X108382556Y-76313080D01*
X108381400Y-76316172D01*
X108380115Y-76319142D01*
X108378692Y-76321984D01*
X108377127Y-76324707D01*
X108375440Y-76327308D01*
X108373611Y-76329782D01*
X108371642Y-76332135D01*
X108369543Y-76334366D01*
X108367311Y-76336467D01*
X108364950Y-76338431D01*
X108362456Y-76340261D01*
X108359834Y-76341955D01*
X108357089Y-76343512D01*
X108354207Y-76344934D01*
X108351200Y-76346223D01*
X108348061Y-76347374D01*
X108344793Y-76348395D01*
X108341397Y-76349272D01*
X108337870Y-76350021D01*
X108334216Y-76350631D01*
X108330425Y-76351103D01*
X108326514Y-76351441D01*
X108322469Y-76351644D01*
X108318298Y-76351714D01*
X107888624Y-76351714D01*
X107884352Y-76351644D01*
X107880205Y-76351441D01*
X107876181Y-76351103D01*
X107872292Y-76350631D01*
X107868520Y-76350021D01*
X107864878Y-76349272D01*
X107861365Y-76348395D01*
X107857975Y-76347374D01*
X107854710Y-76346223D01*
X107851574Y-76344934D01*
X107848564Y-76343512D01*
X107845678Y-76341955D01*
X107842923Y-76340261D01*
X107840291Y-76338431D01*
X107837786Y-76336467D01*
X107835407Y-76334366D01*
X107833163Y-76332155D01*
X107831064Y-76329858D01*
X107829107Y-76327473D01*
X107827298Y-76325004D01*
X107825633Y-76322447D01*
X107824114Y-76319807D01*
X107822744Y-76317079D01*
X107821512Y-76314264D01*
X107820427Y-76311363D01*
X107819484Y-76308377D01*
X107818687Y-76305303D01*
X107818038Y-76302145D01*
X107817532Y-76298895D01*
X107817169Y-76295560D01*
X107816953Y-76292141D01*
X107816879Y-76288642D01*
X107816913Y-76285529D01*
X107817025Y-76282508D01*
X107817211Y-76279565D01*
X107817470Y-76276716D01*
X107817803Y-76273951D01*
X107818208Y-76271269D01*
X107818688Y-76268677D01*
X107819241Y-76266168D01*
X107819870Y-76263752D01*
X107820577Y-76261413D01*
X107821349Y-76259170D01*
X107822201Y-76257004D01*
X107823122Y-76254931D01*
X107824122Y-76252937D01*
X107825192Y-76251037D01*
X107826339Y-76249219D01*
X107827569Y-76247434D01*
X107828903Y-76245622D01*
X107830329Y-76243791D01*
X107831856Y-76241927D01*
X107833485Y-76240044D01*
X107835207Y-76238132D01*
X107837031Y-76236197D01*
X107838952Y-76234237D01*
X107840972Y-76232257D01*
X107843091Y-76230251D01*
X107845313Y-76228216D01*
X107847628Y-76226157D01*
X107850040Y-76224079D01*
X107852555Y-76221969D01*
X107855163Y-76219840D01*
X107857875Y-76217682D01*
X108142506Y-75989835D01*
X107884683Y-75989835D01*
X107880606Y-75989769D01*
X107876648Y-75989574D01*
X107872820Y-75989241D01*
X107869107Y-75988778D01*
X107865524Y-75988185D01*
X107862062Y-75987455D01*
X107858725Y-75986592D01*
X107855507Y-75985600D01*
X107852418Y-75984472D01*
X107849447Y-75983218D01*
X107846606Y-75981825D01*
X107843884Y-75980304D01*
X107841279Y-75978648D01*
X107838808Y-75976858D01*
X107836454Y-75974939D01*
X107834223Y-75972889D01*
X107832122Y-75970707D01*
X107830161Y-75968395D01*
X107828331Y-75965961D01*
X107826635Y-75963400D01*
X107825078Y-75960714D01*
X107823653Y-75957905D01*
X107822366Y-75954961D01*
X107821216Y-75951899D01*
X107820201Y-75948702D01*
X107819317Y-75945387D01*
X107818573Y-75941944D01*
X107817959Y-75938372D01*
X107817492Y-75934676D01*
X107817147Y-75930850D01*
X107816946Y-75926903D01*
X107816879Y-75922825D01*
X107816946Y-75918746D01*
X107817147Y-75914801D01*
X107817492Y-75910972D01*
X107817959Y-75907278D01*
X107818573Y-75903704D01*
X107819317Y-75900262D01*
X107820201Y-75896948D01*
X107821216Y-75893749D01*
X107822366Y-75890684D01*
X107823653Y-75887746D01*
X107825078Y-75884932D01*
X107826635Y-75882244D01*
X107828331Y-75879686D01*
X107830161Y-75877252D01*
X107832122Y-75874942D01*
X107834223Y-75872760D01*
X107836454Y-75870708D01*
X107838808Y-75868787D01*
X107841279Y-75867001D01*
X107843884Y-75865341D01*
X107846606Y-75863821D01*
X107849447Y-75862433D01*
X107852418Y-75861176D01*
X107855507Y-75860044D01*
X107858725Y-75859056D01*
X107862062Y-75858193D01*
X107865524Y-75857468D01*
X107869107Y-75856870D01*
X107872820Y-75856406D01*
X107876648Y-75856073D01*
X107880606Y-75855877D01*
X107884683Y-75855812D01*
X108321456Y-75855812D01*
X108325148Y-75855871D01*
G37*
G36*
X108327214Y-70635222D02*
G01*
X108330507Y-70635389D01*
X108333695Y-70635663D01*
X108336775Y-70636052D01*
X108339756Y-70636551D01*
X108342629Y-70637157D01*
X108345396Y-70637882D01*
X108348061Y-70638710D01*
X108350621Y-70639656D01*
X108353073Y-70640708D01*
X108355426Y-70641869D01*
X108357669Y-70643151D01*
X108359804Y-70644530D01*
X108361844Y-70646030D01*
X108363776Y-70647636D01*
X108365602Y-70649355D01*
X108367324Y-70651187D01*
X108368930Y-70653128D01*
X108370422Y-70655176D01*
X108371812Y-70657339D01*
X108373086Y-70659614D01*
X108374250Y-70661997D01*
X108375303Y-70664488D01*
X108376244Y-70667093D01*
X108377080Y-70669812D01*
X108377799Y-70672641D01*
X108378406Y-70675578D01*
X108378905Y-70678622D01*
X108379298Y-70681786D01*
X108379573Y-70685056D01*
X108379740Y-70688437D01*
X108379797Y-70691929D01*
X108379797Y-70959200D01*
X108379720Y-70963758D01*
X108379490Y-70968185D01*
X108379114Y-70972466D01*
X108378587Y-70976613D01*
X108377908Y-70980625D01*
X108377082Y-70984488D01*
X108376096Y-70988221D01*
X108374966Y-70991818D01*
X108373683Y-70995270D01*
X108372251Y-70998585D01*
X108370663Y-71001760D01*
X108368930Y-71004800D01*
X108367040Y-71007701D01*
X108365006Y-71010461D01*
X108362817Y-71013082D01*
X108360483Y-71015567D01*
X108357996Y-71017906D01*
X108355382Y-71020095D01*
X108352637Y-71022133D01*
X108349761Y-71024019D01*
X108346752Y-71025750D01*
X108343609Y-71027341D01*
X108340336Y-71028772D01*
X108336927Y-71030053D01*
X108333383Y-71031185D01*
X108329715Y-71032167D01*
X108325908Y-71032995D01*
X108321972Y-71033674D01*
X108317900Y-71034206D01*
X108313696Y-71034579D01*
X108309363Y-71034810D01*
X108304895Y-71034880D01*
X107898872Y-71034880D01*
X107894402Y-71034810D01*
X107890070Y-71034579D01*
X107885868Y-71034206D01*
X107881797Y-71033674D01*
X107877862Y-71032995D01*
X107874056Y-71032167D01*
X107870381Y-71031185D01*
X107866846Y-71030053D01*
X107863437Y-71028772D01*
X107860157Y-71027341D01*
X107857017Y-71025750D01*
X107854005Y-71024019D01*
X107851136Y-71022133D01*
X107848380Y-71020095D01*
X107845771Y-71017906D01*
X107843290Y-71015567D01*
X107840949Y-71013082D01*
X107838764Y-71010461D01*
X107836724Y-71007701D01*
X107834837Y-71004800D01*
X107833106Y-71001760D01*
X107831519Y-70998585D01*
X107830089Y-70995270D01*
X107828802Y-70991818D01*
X107827669Y-70988221D01*
X107826689Y-70984488D01*
X107825862Y-70980625D01*
X107825184Y-70976613D01*
X107824656Y-70972466D01*
X107824276Y-70968185D01*
X107824050Y-70963758D01*
X107823970Y-70959200D01*
X107823970Y-70691929D01*
X107824027Y-70688437D01*
X107824196Y-70685056D01*
X107824470Y-70681786D01*
X107824862Y-70678622D01*
X107825362Y-70675578D01*
X107825970Y-70672641D01*
X107826689Y-70669812D01*
X107827524Y-70667093D01*
X107828465Y-70664488D01*
X107829517Y-70661997D01*
X107830679Y-70659614D01*
X107831957Y-70657339D01*
X107833341Y-70655176D01*
X107834837Y-70653128D01*
X107836446Y-70651187D01*
X107838167Y-70649355D01*
X107839989Y-70647636D01*
X107841910Y-70646030D01*
X107843931Y-70644530D01*
X107846046Y-70643151D01*
X107848264Y-70641869D01*
X107850581Y-70640708D01*
X107852996Y-70639656D01*
X107855507Y-70638710D01*
X107858118Y-70637882D01*
X107860832Y-70637157D01*
X107863641Y-70636551D01*
X107866544Y-70636052D01*
X107869554Y-70635663D01*
X107872656Y-70635389D01*
X107875859Y-70635222D01*
X107879161Y-70635164D01*
X107882558Y-70635222D01*
X107885858Y-70635389D01*
X107889054Y-70635663D01*
X107892146Y-70636052D01*
X107895136Y-70636551D01*
X107898028Y-70637157D01*
X107900813Y-70637882D01*
X107903504Y-70638710D01*
X107906090Y-70639656D01*
X107908573Y-70640708D01*
X107910956Y-70641869D01*
X107913238Y-70643151D01*
X107915415Y-70644530D01*
X107917492Y-70646030D01*
X107919466Y-70647636D01*
X107921340Y-70649355D01*
X107923108Y-70651187D01*
X107924760Y-70653128D01*
X107926296Y-70655176D01*
X107927721Y-70657339D01*
X107929032Y-70659614D01*
X107930227Y-70661997D01*
X107931308Y-70664488D01*
X107932280Y-70667093D01*
X107933136Y-70669812D01*
X107933873Y-70672641D01*
X107934502Y-70675578D01*
X107935013Y-70678622D01*
X107935410Y-70681786D01*
X107935698Y-70685056D01*
X107935869Y-70688437D01*
X107935926Y-70691929D01*
X107935926Y-70896124D01*
X108041572Y-70896124D01*
X108041572Y-70709278D01*
X108041630Y-70705879D01*
X108041794Y-70702583D01*
X108042070Y-70699386D01*
X108042458Y-70696290D01*
X108042955Y-70693302D01*
X108043567Y-70690408D01*
X108044287Y-70687620D01*
X108045119Y-70684930D01*
X108046061Y-70682348D01*
X108047117Y-70679868D01*
X108048277Y-70677479D01*
X108049555Y-70675199D01*
X108050937Y-70673022D01*
X108052437Y-70670946D01*
X108054043Y-70668969D01*
X108055762Y-70667093D01*
X108057587Y-70665332D01*
X108059518Y-70663678D01*
X108061557Y-70662135D01*
X108063695Y-70660714D01*
X108065939Y-70659406D01*
X108068290Y-70658208D01*
X108070747Y-70657123D01*
X108073304Y-70656155D01*
X108075967Y-70655301D01*
X108078737Y-70654561D01*
X108081612Y-70653929D01*
X108084588Y-70653419D01*
X108087672Y-70653019D01*
X108090856Y-70652738D01*
X108094154Y-70652568D01*
X108097545Y-70652509D01*
X108100946Y-70652568D01*
X108104237Y-70652738D01*
X108107424Y-70653019D01*
X108110510Y-70653419D01*
X108113487Y-70653929D01*
X108116357Y-70654561D01*
X108119128Y-70655301D01*
X108121793Y-70656155D01*
X108124349Y-70657123D01*
X108126803Y-70658208D01*
X108129157Y-70659406D01*
X108131402Y-70660714D01*
X108133540Y-70662135D01*
X108135571Y-70663678D01*
X108137509Y-70665332D01*
X108139329Y-70667093D01*
X108141052Y-70668969D01*
X108142659Y-70670946D01*
X108144155Y-70673022D01*
X108145540Y-70675199D01*
X108146816Y-70677479D01*
X108147979Y-70679868D01*
X108149034Y-70682348D01*
X108149974Y-70684930D01*
X108150808Y-70687620D01*
X108151528Y-70690408D01*
X108152138Y-70693302D01*
X108152635Y-70696290D01*
X108153027Y-70699386D01*
X108153303Y-70702583D01*
X108153469Y-70705879D01*
X108153523Y-70709278D01*
X108153523Y-70896124D01*
X108267844Y-70896124D01*
X108267844Y-70691929D01*
X108267898Y-70688437D01*
X108268072Y-70685056D01*
X108268357Y-70681786D01*
X108268753Y-70678622D01*
X108269264Y-70675578D01*
X108269894Y-70672641D01*
X108270632Y-70669812D01*
X108271486Y-70667093D01*
X108272458Y-70664488D01*
X108273538Y-70661997D01*
X108274736Y-70659614D01*
X108276047Y-70657339D01*
X108277469Y-70655176D01*
X108279009Y-70653128D01*
X108280663Y-70651187D01*
X108282423Y-70649355D01*
X108284295Y-70647636D01*
X108286263Y-70646030D01*
X108288327Y-70644530D01*
X108290483Y-70643151D01*
X108292737Y-70641869D01*
X108295084Y-70640708D01*
X108297528Y-70639656D01*
X108300066Y-70638710D01*
X108302700Y-70637882D01*
X108305430Y-70637157D01*
X108308258Y-70636551D01*
X108311179Y-70636052D01*
X108314195Y-70635663D01*
X108317307Y-70635389D01*
X108320514Y-70635222D01*
X108323814Y-70635164D01*
X108327214Y-70635222D01*
G37*
G36*
X108153320Y-74156620D02*
G01*
X108163163Y-74156951D01*
X108172801Y-74157497D01*
X108182225Y-74158261D01*
X108191449Y-74159243D01*
X108200461Y-74160449D01*
X108209271Y-74161870D01*
X108217876Y-74163505D01*
X108226273Y-74165367D01*
X108234465Y-74167444D01*
X108242447Y-74169741D01*
X108250225Y-74172255D01*
X108257797Y-74174993D01*
X108265165Y-74177940D01*
X108272323Y-74181107D01*
X108279274Y-74184503D01*
X108286012Y-74188104D01*
X108292539Y-74191921D01*
X108298851Y-74195951D01*
X108304948Y-74200197D01*
X108310826Y-74204648D01*
X108316487Y-74209318D01*
X108321937Y-74214194D01*
X108327166Y-74219288D01*
X108332188Y-74224590D01*
X108336984Y-74230106D01*
X108341574Y-74235841D01*
X108345946Y-74241781D01*
X108350100Y-74247933D01*
X108354037Y-74254304D01*
X108357761Y-74260884D01*
X108361268Y-74267677D01*
X108364558Y-74274670D01*
X108367639Y-74281867D01*
X108370507Y-74289261D01*
X108373167Y-74296844D01*
X108375614Y-74304632D01*
X108377839Y-74312615D01*
X108379861Y-74320796D01*
X108381669Y-74329170D01*
X108383260Y-74337745D01*
X108384643Y-74346514D01*
X108385808Y-74355483D01*
X108386762Y-74364648D01*
X108387510Y-74374009D01*
X108388041Y-74383570D01*
X108388363Y-74393326D01*
X108388465Y-74403280D01*
X108388227Y-74418232D01*
X108387506Y-74432747D01*
X108386308Y-74446814D01*
X108384625Y-74460439D01*
X108382460Y-74473619D01*
X108379820Y-74486360D01*
X108376694Y-74498652D01*
X108373094Y-74510502D01*
X108371108Y-74516257D01*
X108369008Y-74521903D01*
X108366786Y-74527431D01*
X108364447Y-74532850D01*
X108361981Y-74538151D01*
X108359398Y-74543337D01*
X108356694Y-74548410D01*
X108353873Y-74553370D01*
X108350934Y-74558219D01*
X108347872Y-74562949D01*
X108344689Y-74567565D01*
X108341381Y-74572071D01*
X108337964Y-74576459D01*
X108334416Y-74580736D01*
X108330754Y-74584900D01*
X108326972Y-74588949D01*
X108323068Y-74592877D01*
X108319047Y-74596683D01*
X108314900Y-74600368D01*
X108310639Y-74603932D01*
X108306254Y-74607367D01*
X108301752Y-74610675D01*
X108297126Y-74613864D01*
X108292378Y-74616938D01*
X108287518Y-74619882D01*
X108282534Y-74622698D01*
X108277427Y-74625397D01*
X108272204Y-74627971D01*
X108266862Y-74630424D01*
X108261387Y-74632753D01*
X108255810Y-74634957D01*
X108250101Y-74637037D01*
X108244280Y-74638999D01*
X108238342Y-74640831D01*
X108232294Y-74642535D01*
X108226132Y-74644111D01*
X108219851Y-74645561D01*
X108213459Y-74646888D01*
X108206955Y-74648086D01*
X108200334Y-74649160D01*
X108193601Y-74650109D01*
X108186756Y-74650925D01*
X108179794Y-74651623D01*
X108172715Y-74652191D01*
X108158226Y-74652946D01*
X108143275Y-74653200D01*
X107890201Y-74653200D01*
X107885736Y-74653129D01*
X107881411Y-74652907D01*
X107877223Y-74652536D01*
X107873176Y-74652019D01*
X107869264Y-74651353D01*
X107865493Y-74650539D01*
X107861863Y-74649580D01*
X107858369Y-74648471D01*
X107855010Y-74647215D01*
X107851796Y-74645809D01*
X107848717Y-74644259D01*
X107845777Y-74642558D01*
X107842978Y-74640713D01*
X107840316Y-74638716D01*
X107837791Y-74636569D01*
X107835407Y-74634282D01*
X107833163Y-74631850D01*
X107831064Y-74629304D01*
X107829107Y-74626631D01*
X107827298Y-74623835D01*
X107825633Y-74620915D01*
X107824114Y-74617872D01*
X107822744Y-74614702D01*
X107821512Y-74611417D01*
X107820427Y-74608006D01*
X107819484Y-74604468D01*
X107818687Y-74600813D01*
X107818038Y-74597029D01*
X107817532Y-74593123D01*
X107817169Y-74589095D01*
X107816953Y-74584942D01*
X107816879Y-74580669D01*
X107816953Y-74576302D01*
X107817169Y-74572063D01*
X107817532Y-74567962D01*
X107818038Y-74563987D01*
X107818687Y-74560148D01*
X107819484Y-74556445D01*
X107820427Y-74552870D01*
X107821512Y-74549426D01*
X107822744Y-74546119D01*
X107824114Y-74542942D01*
X107825633Y-74539897D01*
X107827298Y-74536988D01*
X107829107Y-74534207D01*
X107831064Y-74531560D01*
X107833163Y-74529045D01*
X107835407Y-74526663D01*
X107837791Y-74524418D01*
X107840316Y-74522319D01*
X107842978Y-74520370D01*
X107845777Y-74518555D01*
X107848717Y-74516892D01*
X107851796Y-74515373D01*
X107855010Y-74513999D01*
X107858369Y-74512767D01*
X107861863Y-74511686D01*
X107865493Y-74510744D01*
X107869264Y-74509945D01*
X107873176Y-74509296D01*
X107877223Y-74508786D01*
X107881411Y-74508428D01*
X107885736Y-74508211D01*
X107890201Y-74508139D01*
X108144852Y-74508139D01*
X108152325Y-74508032D01*
X108159561Y-74507716D01*
X108166564Y-74507195D01*
X108173333Y-74506462D01*
X108179867Y-74505517D01*
X108186169Y-74504367D01*
X108192235Y-74503006D01*
X108198067Y-74501435D01*
X108203670Y-74499654D01*
X108209035Y-74497663D01*
X108214163Y-74495467D01*
X108219058Y-74493060D01*
X108223725Y-74490443D01*
X108228152Y-74487614D01*
X108232346Y-74484575D01*
X108236305Y-74481333D01*
X108240027Y-74477884D01*
X108243513Y-74474248D01*
X108246755Y-74470418D01*
X108249760Y-74466399D01*
X108252519Y-74462188D01*
X108255042Y-74457790D01*
X108257326Y-74453199D01*
X108259364Y-74448416D01*
X108261166Y-74443442D01*
X108262732Y-74438279D01*
X108264050Y-74432923D01*
X108265133Y-74427373D01*
X108265972Y-74421638D01*
X108266574Y-74415709D01*
X108266932Y-74409585D01*
X108267052Y-74403280D01*
X108266932Y-74397064D01*
X108266574Y-74391034D01*
X108265972Y-74385189D01*
X108265133Y-74379531D01*
X108264050Y-74374053D01*
X108262732Y-74368764D01*
X108261166Y-74363657D01*
X108259364Y-74358730D01*
X108257326Y-74353999D01*
X108255042Y-74349448D01*
X108252519Y-74345077D01*
X108249760Y-74340898D01*
X108246755Y-74336898D01*
X108243513Y-74333088D01*
X108240027Y-74329460D01*
X108236305Y-74326014D01*
X108232346Y-74322770D01*
X108228152Y-74319731D01*
X108223725Y-74316905D01*
X108219058Y-74314287D01*
X108214163Y-74311880D01*
X108209035Y-74309683D01*
X108203670Y-74307694D01*
X108198067Y-74305913D01*
X108192235Y-74304340D01*
X108186169Y-74302979D01*
X108179867Y-74301831D01*
X108173333Y-74300887D01*
X108166564Y-74300152D01*
X108159561Y-74299632D01*
X108152325Y-74299315D01*
X108144852Y-74299211D01*
X107890201Y-74299211D01*
X107885736Y-74299139D01*
X107881411Y-74298923D01*
X107877223Y-74298561D01*
X107873176Y-74298052D01*
X107869264Y-74297403D01*
X107865493Y-74296605D01*
X107861863Y-74295664D01*
X107858369Y-74294575D01*
X107855010Y-74293347D01*
X107851796Y-74291971D01*
X107848717Y-74290453D01*
X107845777Y-74288791D01*
X107842978Y-74286978D01*
X107840316Y-74285031D01*
X107837791Y-74282929D01*
X107835407Y-74280683D01*
X107833163Y-74278307D01*
X107831064Y-74275800D01*
X107829107Y-74273167D01*
X107827298Y-74270411D01*
X107825633Y-74267525D01*
X107824114Y-74264515D01*
X107822744Y-74261379D01*
X107821512Y-74258117D01*
X107820427Y-74254730D01*
X107819484Y-74251213D01*
X107818687Y-74247570D01*
X107818038Y-74243802D01*
X107817532Y-74239906D01*
X107817169Y-74235885D01*
X107816953Y-74231740D01*
X107816879Y-74227467D01*
X107816953Y-74223193D01*
X107817169Y-74219053D01*
X107817532Y-74215041D01*
X107818038Y-74211157D01*
X107818687Y-74207401D01*
X107819484Y-74203777D01*
X107820427Y-74200283D01*
X107821512Y-74196915D01*
X107822744Y-74193677D01*
X107824114Y-74190574D01*
X107825633Y-74187596D01*
X107827298Y-74184743D01*
X107829107Y-74182026D01*
X107831064Y-74179436D01*
X107833163Y-74176972D01*
X107835407Y-74174644D01*
X107837791Y-74172447D01*
X107840316Y-74170393D01*
X107842978Y-74168485D01*
X107845777Y-74166708D01*
X107848717Y-74165079D01*
X107851796Y-74163591D01*
X107855010Y-74162247D01*
X107858369Y-74161047D01*
X107861863Y-74159980D01*
X107865493Y-74159060D01*
X107869264Y-74158282D01*
X107873176Y-74157642D01*
X107877223Y-74157148D01*
X107881411Y-74156797D01*
X107885736Y-74156582D01*
X107890201Y-74156510D01*
X108143275Y-74156510D01*
X108153320Y-74156620D01*
G37*
G36*
X106505538Y-72136381D02*
G01*
X106525867Y-72137426D01*
X106545596Y-72139163D01*
X106564736Y-72141606D01*
X106583277Y-72144737D01*
X106601219Y-72148567D01*
X106618564Y-72153097D01*
X106635313Y-72158319D01*
X106651466Y-72164240D01*
X106667023Y-72170858D01*
X106681977Y-72178170D01*
X106696339Y-72186177D01*
X106710105Y-72194881D01*
X106723272Y-72204288D01*
X106735843Y-72214385D01*
X106747813Y-72225181D01*
X106759122Y-72236656D01*
X106769699Y-72248797D01*
X106779550Y-72261597D01*
X106788671Y-72275060D01*
X106797062Y-72289195D01*
X106804723Y-72303979D01*
X106811654Y-72319438D01*
X106817858Y-72335556D01*
X106823329Y-72352337D01*
X106828075Y-72369786D01*
X106832084Y-72387891D01*
X106835370Y-72406666D01*
X106837918Y-72426100D01*
X106839745Y-72446197D01*
X106840844Y-72466961D01*
X106841207Y-72488387D01*
X106840844Y-72509305D01*
X106839745Y-72529609D01*
X106837918Y-72549303D01*
X106835370Y-72568382D01*
X106832084Y-72586846D01*
X106828075Y-72604696D01*
X106823329Y-72621935D01*
X106817858Y-72638557D01*
X106811654Y-72654572D01*
X106804723Y-72669967D01*
X106797062Y-72684750D01*
X106788671Y-72698920D01*
X106779550Y-72712480D01*
X106769699Y-72725418D01*
X106759122Y-72737746D01*
X106747813Y-72749463D01*
X106735843Y-72760516D01*
X106723272Y-72770855D01*
X106710105Y-72780481D01*
X106696339Y-72789395D01*
X106681977Y-72797597D01*
X106667023Y-72805083D01*
X106651466Y-72811859D01*
X106635313Y-72817917D01*
X106618564Y-72823269D01*
X106601219Y-72827905D01*
X106583277Y-72831825D01*
X106564736Y-72835035D01*
X106545596Y-72837525D01*
X106525867Y-72839312D01*
X106505538Y-72840382D01*
X106484607Y-72840737D01*
X105179298Y-72840737D01*
X106212917Y-73435067D01*
X106224404Y-73442523D01*
X106235535Y-73450029D01*
X106246295Y-73457579D01*
X106256693Y-73465185D01*
X106266725Y-73472832D01*
X106276394Y-73480537D01*
X106285696Y-73488291D01*
X106294634Y-73496095D01*
X106303207Y-73503946D01*
X106311420Y-73511844D01*
X106319257Y-73519795D01*
X106326739Y-73527797D01*
X106333853Y-73535848D01*
X106340602Y-73543953D01*
X106346989Y-73552101D01*
X106353007Y-73560302D01*
X106358662Y-73568700D01*
X106363951Y-73577449D01*
X106368878Y-73586545D01*
X106373438Y-73595989D01*
X106377632Y-73605781D01*
X106381465Y-73615919D01*
X106384927Y-73626405D01*
X106388030Y-73637242D01*
X106390765Y-73648432D01*
X106393136Y-73659964D01*
X106395147Y-73671846D01*
X106396782Y-73684074D01*
X106398061Y-73696652D01*
X106398974Y-73709581D01*
X106399520Y-73722859D01*
X106399703Y-73736479D01*
X106399520Y-73749594D01*
X106398974Y-73762416D01*
X106398061Y-73774932D01*
X106396782Y-73787153D01*
X106395147Y-73799077D01*
X106393136Y-73810697D01*
X106390765Y-73822029D01*
X106388030Y-73833057D01*
X106384927Y-73843789D01*
X106381465Y-73854218D01*
X106377632Y-73864347D01*
X106373438Y-73874182D01*
X106368878Y-73883717D01*
X106363951Y-73892954D01*
X106358662Y-73901891D01*
X106353007Y-73910530D01*
X106346989Y-73918969D01*
X106340602Y-73927314D01*
X106333853Y-73935555D01*
X106326739Y-73943698D01*
X106319257Y-73951738D01*
X106311420Y-73959681D01*
X106303207Y-73967525D01*
X106294634Y-73975269D01*
X106285696Y-73982912D01*
X106276394Y-73990458D01*
X106266725Y-73997909D01*
X106256693Y-74005248D01*
X106246295Y-74012496D01*
X106235535Y-74019647D01*
X106224404Y-74026693D01*
X106212917Y-74033644D01*
X105189370Y-74623726D01*
X106484607Y-74623726D01*
X106505538Y-74624072D01*
X106525867Y-74625120D01*
X106545596Y-74626862D01*
X106564736Y-74629300D01*
X106583277Y-74632433D01*
X106601219Y-74636262D01*
X106618564Y-74640792D01*
X106635313Y-74646016D01*
X106651466Y-74651934D01*
X106667023Y-74658554D01*
X106681977Y-74665861D01*
X106696339Y-74673872D01*
X106710105Y-74682578D01*
X106723272Y-74691986D01*
X106735843Y-74702081D01*
X106747813Y-74712876D01*
X106759122Y-74724348D01*
X106769699Y-74736490D01*
X106779550Y-74749293D01*
X106788671Y-74762757D01*
X106797062Y-74776886D01*
X106804723Y-74791678D01*
X106811654Y-74807134D01*
X106817858Y-74823252D01*
X106823329Y-74840036D01*
X106828075Y-74857480D01*
X106832084Y-74875587D01*
X106835370Y-74894362D01*
X106837918Y-74913791D01*
X106839745Y-74933895D01*
X106840844Y-74954657D01*
X106841207Y-74976083D01*
X106840844Y-74996998D01*
X106839745Y-75017309D01*
X106837918Y-75036998D01*
X106835370Y-75056078D01*
X106832084Y-75074539D01*
X106828075Y-75092390D01*
X106823329Y-75109628D01*
X106817858Y-75126255D01*
X106811654Y-75142267D01*
X106804723Y-75157661D01*
X106797062Y-75172445D01*
X106788671Y-75186616D01*
X106779550Y-75200172D01*
X106769699Y-75213118D01*
X106759122Y-75225445D01*
X106747813Y-75237161D01*
X106735843Y-75248214D01*
X106723272Y-75258554D01*
X106710105Y-75268179D01*
X106696339Y-75277092D01*
X106681977Y-75285294D01*
X106667023Y-75292782D01*
X106651466Y-75299553D01*
X106635313Y-75305612D01*
X106618564Y-75310962D01*
X106601219Y-75315601D01*
X106583277Y-75319522D01*
X106564736Y-75322731D01*
X106545596Y-75325226D01*
X106525867Y-75327007D01*
X106505538Y-75328078D01*
X106484607Y-75328435D01*
X104128512Y-75328435D01*
X104107079Y-75328053D01*
X104086295Y-75326906D01*
X104066154Y-75325000D01*
X104046659Y-75322331D01*
X104027816Y-75318899D01*
X104009613Y-75314700D01*
X103992058Y-75309748D01*
X103975151Y-75304020D01*
X103958897Y-75297542D01*
X103943286Y-75290292D01*
X103928314Y-75282281D01*
X103913997Y-75273511D01*
X103900325Y-75263977D01*
X103887297Y-75253677D01*
X103874917Y-75242617D01*
X103863189Y-75230790D01*
X103852137Y-75218275D01*
X103841795Y-75205125D01*
X103832167Y-75191342D01*
X103823256Y-75176929D01*
X103815053Y-75161893D01*
X103807567Y-75146218D01*
X103800795Y-75129920D01*
X103794733Y-75112988D01*
X103789386Y-75095426D01*
X103784751Y-75077233D01*
X103780827Y-75058413D01*
X103777617Y-75038965D01*
X103775123Y-75018880D01*
X103773343Y-74998168D01*
X103772272Y-74976827D01*
X103771914Y-74954852D01*
X103772137Y-74936523D01*
X103772812Y-74918668D01*
X103773930Y-74901300D01*
X103775497Y-74884409D01*
X103777511Y-74868000D01*
X103779975Y-74852073D01*
X103782883Y-74836627D01*
X103786239Y-74821658D01*
X103790047Y-74807173D01*
X103794303Y-74793169D01*
X103799007Y-74779649D01*
X103804152Y-74766606D01*
X103809751Y-74754042D01*
X103815794Y-74741963D01*
X103822287Y-74730362D01*
X103829224Y-74719242D01*
X103836681Y-74708423D01*
X103844714Y-74697721D01*
X103853326Y-74687131D01*
X103862527Y-74676659D01*
X103872303Y-74666302D01*
X103882653Y-74656063D01*
X103893595Y-74645942D01*
X103905106Y-74635929D01*
X103917205Y-74626040D01*
X103929883Y-74616264D01*
X103943144Y-74606603D01*
X103956986Y-74597064D01*
X103971398Y-74587632D01*
X103986400Y-74578325D01*
X104001980Y-74569128D01*
X104018139Y-74560053D01*
X105523100Y-73721791D01*
X104018139Y-72887437D01*
X104001980Y-72877841D01*
X103986400Y-72868166D01*
X103971398Y-72858406D01*
X103956986Y-72848566D01*
X103943144Y-72838640D01*
X103929883Y-72828630D01*
X103917205Y-72818542D01*
X103905106Y-72808366D01*
X103893595Y-72798112D01*
X103882653Y-72787771D01*
X103872303Y-72777349D01*
X103862527Y-72766844D01*
X103853326Y-72756259D01*
X103844714Y-72745583D01*
X103836681Y-72734831D01*
X103829224Y-72723995D01*
X103822287Y-72712877D01*
X103815794Y-72701276D01*
X103809751Y-72689198D01*
X103804152Y-72676635D01*
X103799007Y-72663592D01*
X103794303Y-72650070D01*
X103790047Y-72636058D01*
X103786239Y-72621575D01*
X103782883Y-72606611D01*
X103779975Y-72591166D01*
X103777511Y-72575236D01*
X103775497Y-72558827D01*
X103773930Y-72541941D01*
X103772812Y-72524566D01*
X103772137Y-72506717D01*
X103771914Y-72488387D01*
X103772272Y-72467465D01*
X103773343Y-72447156D01*
X103775123Y-72427470D01*
X103777617Y-72408389D01*
X103780827Y-72389924D01*
X103784751Y-72372073D01*
X103789386Y-72354833D01*
X103794733Y-72338208D01*
X103800795Y-72322200D01*
X103807567Y-72306800D01*
X103815053Y-72292019D01*
X103823256Y-72277848D01*
X103832167Y-72264292D01*
X103841795Y-72251348D01*
X103852137Y-72239020D01*
X103863189Y-72227302D01*
X103874917Y-72216250D01*
X103887297Y-72205910D01*
X103900325Y-72196284D01*
X103913997Y-72187371D01*
X103928314Y-72179173D01*
X103943286Y-72171684D01*
X103958897Y-72164908D01*
X103975151Y-72158850D01*
X103992058Y-72153501D01*
X104009613Y-72148864D01*
X104027816Y-72144946D01*
X104046659Y-72141737D01*
X104066154Y-72139238D01*
X104086295Y-72137461D01*
X104107079Y-72136388D01*
X104128512Y-72136031D01*
X106484607Y-72136031D01*
X106505538Y-72136381D01*
G37*
G36*
X106505538Y-75828504D02*
G01*
X106525867Y-75829548D01*
X106545596Y-75831289D01*
X106564736Y-75833725D01*
X106583277Y-75836864D01*
X106601219Y-75840691D01*
X106618564Y-75845219D01*
X106635313Y-75850442D01*
X106651466Y-75856363D01*
X106667023Y-75862978D01*
X106681977Y-75870293D01*
X106696339Y-75878304D01*
X106710105Y-75887005D01*
X106723272Y-75896411D01*
X106735843Y-75906508D01*
X106747813Y-75917306D01*
X106759122Y-75928780D01*
X106769699Y-75940919D01*
X106779550Y-75953721D01*
X106788671Y-75967184D01*
X106797062Y-75981316D01*
X106804723Y-75996106D01*
X106811654Y-76011562D01*
X106817858Y-76027679D01*
X106823329Y-76044461D01*
X106828075Y-76061911D01*
X106832084Y-76080017D01*
X106835370Y-76098789D01*
X106837918Y-76118224D01*
X106839745Y-76138322D01*
X106840844Y-76159085D01*
X106841207Y-76180508D01*
X106840844Y-76201430D01*
X106839745Y-76221733D01*
X106837918Y-76241424D01*
X106835370Y-76260506D01*
X106832084Y-76278975D01*
X106828075Y-76296822D01*
X106823329Y-76314061D01*
X106817858Y-76330686D01*
X106811654Y-76346692D01*
X106804723Y-76362088D01*
X106797062Y-76376877D01*
X106788671Y-76391042D01*
X106779550Y-76404600D01*
X106769699Y-76417544D01*
X106759122Y-76429872D01*
X106747813Y-76441585D01*
X106735843Y-76452645D01*
X106723272Y-76462979D01*
X106710105Y-76472609D01*
X106696339Y-76481521D01*
X106681977Y-76489721D01*
X106667023Y-76497207D01*
X106651466Y-76503986D01*
X106635313Y-76510045D01*
X106618564Y-76515393D01*
X106601219Y-76520026D01*
X106583277Y-76523950D01*
X106564736Y-76527159D01*
X106545596Y-76529654D01*
X106525867Y-76531432D01*
X106505538Y-76532506D01*
X106484607Y-76532864D01*
X105179298Y-76532864D01*
X106212917Y-77127194D01*
X106224404Y-77134644D01*
X106235535Y-77142153D01*
X106246295Y-77149701D01*
X106256693Y-77157303D01*
X106266725Y-77164959D01*
X106276394Y-77172660D01*
X106285696Y-77180417D01*
X106294634Y-77188215D01*
X106303207Y-77196072D01*
X106311420Y-77203973D01*
X106319257Y-77211923D01*
X106326739Y-77219924D01*
X106333853Y-77227976D01*
X106340602Y-77236075D01*
X106346989Y-77244222D01*
X106353007Y-77252427D01*
X106358662Y-77260822D01*
X106363951Y-77269571D01*
X106368878Y-77278671D01*
X106373438Y-77288108D01*
X106377632Y-77297905D01*
X106381465Y-77308047D01*
X106384927Y-77318533D01*
X106388030Y-77329369D01*
X106390765Y-77340554D01*
X106393136Y-77352087D01*
X106395147Y-77363968D01*
X106396782Y-77376199D01*
X106398061Y-77388779D01*
X106398974Y-77401703D01*
X106399520Y-77414980D01*
X106399703Y-77428604D01*
X106399520Y-77441721D01*
X106398974Y-77454542D01*
X106398061Y-77467059D01*
X106396782Y-77479282D01*
X106395147Y-77491201D01*
X106393136Y-77502827D01*
X106390765Y-77514156D01*
X106388030Y-77525184D01*
X106384927Y-77535912D01*
X106381465Y-77546344D01*
X106377632Y-77556474D01*
X106373438Y-77566305D01*
X106368878Y-77575845D01*
X106363951Y-77585080D01*
X106358662Y-77594015D01*
X106353007Y-77602655D01*
X106346989Y-77611097D01*
X106340602Y-77619437D01*
X106333853Y-77627680D01*
X106326739Y-77635821D01*
X106319257Y-77643864D01*
X106311420Y-77651810D01*
X106303207Y-77659652D01*
X106294634Y-77667392D01*
X106285696Y-77675039D01*
X106276394Y-77682584D01*
X106266725Y-77690031D01*
X106256693Y-77697378D01*
X106246295Y-77704621D01*
X106235535Y-77711774D01*
X106224404Y-77718820D01*
X106212917Y-77725767D01*
X105189370Y-78315850D01*
X106484607Y-78315850D01*
X106505538Y-78316195D01*
X106525867Y-78317246D01*
X106545596Y-78318983D01*
X106564736Y-78321425D01*
X106583277Y-78324561D01*
X106601219Y-78328389D01*
X106618564Y-78332916D01*
X106635313Y-78338138D01*
X106651466Y-78344061D01*
X106667023Y-78350676D01*
X106681977Y-78357989D01*
X106696339Y-78366000D01*
X106710105Y-78374704D01*
X106723272Y-78384108D01*
X106735843Y-78394205D01*
X106747813Y-78405002D01*
X106759122Y-78416477D01*
X106769699Y-78428616D01*
X106779550Y-78441419D01*
X106788671Y-78454883D01*
X106797062Y-78469010D01*
X106804723Y-78483803D01*
X106811654Y-78499258D01*
X106817858Y-78515379D01*
X106823329Y-78532158D01*
X106828075Y-78549605D01*
X106832084Y-78567711D01*
X106835370Y-78586486D01*
X106837918Y-78605919D01*
X106839745Y-78626017D01*
X106840844Y-78646785D01*
X106841207Y-78668203D01*
X106840844Y-78689125D01*
X106839745Y-78709426D01*
X106837918Y-78729119D01*
X106835370Y-78748201D01*
X106832084Y-78766664D01*
X106828075Y-78784518D01*
X106823329Y-78801756D01*
X106817858Y-78818379D01*
X106811654Y-78834388D01*
X106804723Y-78849787D01*
X106797062Y-78864574D01*
X106788671Y-78878739D01*
X106779550Y-78892297D01*
X106769699Y-78905239D01*
X106759122Y-78917570D01*
X106747813Y-78929285D01*
X106735843Y-78940336D01*
X106723272Y-78950678D01*
X106710105Y-78960305D01*
X106696339Y-78969217D01*
X106681977Y-78977420D01*
X106667023Y-78984900D01*
X106651466Y-78991676D01*
X106635313Y-78997740D01*
X106618564Y-79003089D01*
X106601219Y-79007725D01*
X106583277Y-79011646D01*
X106564736Y-79014853D01*
X106545596Y-79017351D01*
X106525867Y-79019130D01*
X106505538Y-79020201D01*
X106484607Y-79020559D01*
X104128512Y-79020559D01*
X104107079Y-79020177D01*
X104086295Y-79019027D01*
X104066154Y-79017124D01*
X104046659Y-79014459D01*
X104027816Y-79011023D01*
X104009613Y-79006825D01*
X103992058Y-79001868D01*
X103975151Y-78996149D01*
X103958897Y-78989662D01*
X103943286Y-78982422D01*
X103928314Y-78974407D01*
X103913997Y-78965638D01*
X103900325Y-78956100D01*
X103887297Y-78945803D01*
X103874917Y-78934741D01*
X103863189Y-78922914D01*
X103852137Y-78910401D01*
X103841795Y-78897247D01*
X103832167Y-78883467D01*
X103823256Y-78869057D01*
X103815053Y-78854016D01*
X103807567Y-78838344D01*
X103800795Y-78822045D01*
X103794733Y-78805111D01*
X103789386Y-78787554D01*
X103784751Y-78769360D01*
X103780827Y-78750543D01*
X103777617Y-78731091D01*
X103775123Y-78711006D01*
X103773343Y-78690292D01*
X103772272Y-78668953D01*
X103771914Y-78646979D01*
X103772137Y-78628644D01*
X103772812Y-78610798D01*
X103773930Y-78593423D01*
X103775497Y-78576533D01*
X103777511Y-78560128D01*
X103779975Y-78544203D01*
X103782883Y-78528752D01*
X103786239Y-78513787D01*
X103790047Y-78499299D01*
X103794303Y-78485297D01*
X103799007Y-78471775D01*
X103804152Y-78458733D01*
X103809751Y-78446166D01*
X103815794Y-78434087D01*
X103822287Y-78422490D01*
X103829224Y-78411372D01*
X103836681Y-78400547D01*
X103844714Y-78389848D01*
X103853326Y-78379255D01*
X103862527Y-78368785D01*
X103872303Y-78358428D01*
X103882653Y-78348188D01*
X103893595Y-78338067D01*
X103905106Y-78328055D01*
X103917205Y-78318166D01*
X103929883Y-78308392D01*
X103943144Y-78298728D01*
X103956986Y-78289186D01*
X103971398Y-78279766D01*
X103986400Y-78270448D01*
X104001980Y-78261252D01*
X104018139Y-78252170D01*
X105523100Y-77413920D01*
X104018139Y-76579560D01*
X104001980Y-76569963D01*
X103986400Y-76560289D01*
X103971398Y-76550532D01*
X103956986Y-76540689D01*
X103943144Y-76530765D01*
X103929883Y-76520756D01*
X103917205Y-76510664D01*
X103905106Y-76500492D01*
X103893595Y-76490234D01*
X103882653Y-76479898D01*
X103872303Y-76469475D01*
X103862527Y-76458972D01*
X103853326Y-76448382D01*
X103844714Y-76437707D01*
X103836681Y-76426954D01*
X103829224Y-76416118D01*
X103822287Y-76404999D01*
X103815794Y-76393398D01*
X103809751Y-76381321D01*
X103804152Y-76368759D01*
X103799007Y-76355714D01*
X103794303Y-76342193D01*
X103790047Y-76328187D01*
X103786239Y-76313707D01*
X103782883Y-76298739D01*
X103779975Y-76283288D01*
X103777511Y-76267360D01*
X103775497Y-76250954D01*
X103773930Y-76234063D01*
X103772812Y-76216690D01*
X103772137Y-76198844D01*
X103771914Y-76180508D01*
X103772272Y-76159589D01*
X103773343Y-76139281D01*
X103775123Y-76119592D01*
X103777617Y-76100509D01*
X103780827Y-76082050D01*
X103784751Y-76064194D01*
X103789386Y-76046956D01*
X103794733Y-76030335D01*
X103800795Y-76014324D01*
X103807567Y-75998926D01*
X103815053Y-75984145D01*
X103823256Y-75969972D01*
X103832167Y-75956420D01*
X103841795Y-75943473D01*
X103852137Y-75931145D01*
X103863189Y-75919426D01*
X103874917Y-75908374D01*
X103887297Y-75898034D01*
X103900325Y-75888410D01*
X103913997Y-75879497D01*
X103928314Y-75871296D01*
X103943286Y-75863808D01*
X103958897Y-75857035D01*
X103975151Y-75850975D01*
X103992058Y-75845624D01*
X104009613Y-75840987D01*
X104027816Y-75837070D01*
X104046659Y-75833863D01*
X104066154Y-75831364D01*
X104086295Y-75829583D01*
X104107079Y-75828508D01*
X104128512Y-75828156D01*
X106484607Y-75828156D01*
X106505538Y-75828504D01*
G37*
G36*
X108324547Y-79394563D02*
G01*
X108328324Y-79394760D01*
X108331990Y-79395081D01*
X108335543Y-79395535D01*
X108338990Y-79396120D01*
X108342321Y-79396831D01*
X108345538Y-79397668D01*
X108348653Y-79398637D01*
X108351649Y-79399741D01*
X108354540Y-79400969D01*
X108357319Y-79402327D01*
X108359987Y-79403815D01*
X108362541Y-79405435D01*
X108364987Y-79407177D01*
X108367324Y-79409053D01*
X108369543Y-79411061D01*
X108371642Y-79413187D01*
X108373611Y-79415446D01*
X108375440Y-79417826D01*
X108377127Y-79420324D01*
X108378692Y-79422948D01*
X108380115Y-79425690D01*
X108381400Y-79428560D01*
X108382556Y-79431555D01*
X108383570Y-79434675D01*
X108384451Y-79437909D01*
X108385197Y-79441273D01*
X108385805Y-79444762D01*
X108386281Y-79448372D01*
X108386621Y-79452100D01*
X108386822Y-79455956D01*
X108386891Y-79459940D01*
X108386822Y-79463823D01*
X108386621Y-79467593D01*
X108386281Y-79471255D01*
X108385805Y-79474795D01*
X108385197Y-79478223D01*
X108384451Y-79481541D01*
X108383570Y-79484738D01*
X108382556Y-79487825D01*
X108381400Y-79490800D01*
X108380115Y-79493660D01*
X108378692Y-79496403D01*
X108377127Y-79499038D01*
X108375440Y-79501555D01*
X108373611Y-79503961D01*
X108371642Y-79506249D01*
X108369543Y-79508425D01*
X108367324Y-79510479D01*
X108364987Y-79512397D01*
X108362541Y-79514186D01*
X108359987Y-79515843D01*
X108357319Y-79517366D01*
X108354540Y-79518753D01*
X108351649Y-79520008D01*
X108348653Y-79521141D01*
X108345538Y-79522131D01*
X108342321Y-79522995D01*
X108338990Y-79523718D01*
X108335543Y-79524313D01*
X108331990Y-79524780D01*
X108328324Y-79525112D01*
X108324547Y-79525311D01*
X108320663Y-79525374D01*
X108078246Y-79525374D01*
X108270208Y-79635753D01*
X108272340Y-79637138D01*
X108274407Y-79638527D01*
X108276403Y-79639930D01*
X108278338Y-79641342D01*
X108280201Y-79642761D01*
X108281993Y-79644196D01*
X108283726Y-79645638D01*
X108285387Y-79647086D01*
X108286977Y-79648543D01*
X108288500Y-79650004D01*
X108289957Y-79651486D01*
X108291347Y-79652972D01*
X108292665Y-79654467D01*
X108293921Y-79655974D01*
X108295107Y-79657484D01*
X108296226Y-79659009D01*
X108297274Y-79660568D01*
X108298260Y-79662192D01*
X108299173Y-79663881D01*
X108300015Y-79665637D01*
X108300792Y-79667451D01*
X108301509Y-79669334D01*
X108302151Y-79671282D01*
X108302726Y-79673296D01*
X108303237Y-79675373D01*
X108303677Y-79677517D01*
X108304051Y-79679724D01*
X108304354Y-79681998D01*
X108304594Y-79684333D01*
X108304762Y-79686733D01*
X108304860Y-79689197D01*
X108304895Y-79691729D01*
X108304860Y-79694164D01*
X108304762Y-79696540D01*
X108304594Y-79698867D01*
X108304354Y-79701138D01*
X108304051Y-79703354D01*
X108303677Y-79705511D01*
X108303237Y-79707616D01*
X108302726Y-79709663D01*
X108302151Y-79711655D01*
X108301509Y-79713592D01*
X108300792Y-79715474D01*
X108300015Y-79717301D01*
X108299173Y-79719075D01*
X108298260Y-79720785D01*
X108297274Y-79722447D01*
X108296226Y-79724049D01*
X108295107Y-79725618D01*
X108293921Y-79727170D01*
X108292665Y-79728703D01*
X108291347Y-79730209D01*
X108289957Y-79731707D01*
X108288500Y-79733178D01*
X108286977Y-79734635D01*
X108285387Y-79736079D01*
X108283726Y-79737493D01*
X108281993Y-79738898D01*
X108280201Y-79740278D01*
X108278338Y-79741645D01*
X108276403Y-79742984D01*
X108274407Y-79744318D01*
X108272340Y-79745628D01*
X108270208Y-79746914D01*
X108080120Y-79856501D01*
X108320663Y-79856501D01*
X108324547Y-79856562D01*
X108328324Y-79856761D01*
X108331990Y-79857080D01*
X108335543Y-79857539D01*
X108338990Y-79858119D01*
X108342321Y-79858827D01*
X108345538Y-79859672D01*
X108348653Y-79860644D01*
X108351649Y-79861740D01*
X108354540Y-79862968D01*
X108357319Y-79864328D01*
X108359987Y-79865814D01*
X108362541Y-79867431D01*
X108364987Y-79869178D01*
X108367324Y-79871052D01*
X108369543Y-79873057D01*
X108371642Y-79875187D01*
X108373611Y-79877444D01*
X108375440Y-79879819D01*
X108377127Y-79882318D01*
X108378692Y-79884946D01*
X108380115Y-79887695D01*
X108381400Y-79890564D01*
X108382556Y-79893556D01*
X108383570Y-79896673D01*
X108384451Y-79899917D01*
X108385197Y-79903277D01*
X108385805Y-79906760D01*
X108386281Y-79910371D01*
X108386621Y-79914101D01*
X108386822Y-79917958D01*
X108386891Y-79921939D01*
X108386822Y-79925824D01*
X108386621Y-79929596D01*
X108386281Y-79933249D01*
X108385805Y-79936792D01*
X108385197Y-79940225D01*
X108384451Y-79943538D01*
X108383570Y-79946742D01*
X108382556Y-79949829D01*
X108381400Y-79952805D01*
X108380115Y-79955662D01*
X108378692Y-79958409D01*
X108377127Y-79961037D01*
X108375440Y-79963553D01*
X108373611Y-79965957D01*
X108371642Y-79968253D01*
X108369543Y-79970423D01*
X108367324Y-79972480D01*
X108364987Y-79974395D01*
X108362541Y-79976187D01*
X108359987Y-79977842D01*
X108357319Y-79979365D01*
X108354540Y-79980749D01*
X108351649Y-79982012D01*
X108348653Y-79983134D01*
X108345538Y-79984134D01*
X108342321Y-79984990D01*
X108338990Y-79985723D01*
X108335543Y-79986317D01*
X108331990Y-79986780D01*
X108328324Y-79987110D01*
X108324547Y-79987305D01*
X108320663Y-79987373D01*
X107883103Y-79987373D01*
X107879121Y-79987304D01*
X107875262Y-79987089D01*
X107871523Y-79986736D01*
X107867902Y-79986241D01*
X107864401Y-79985607D01*
X107861021Y-79984822D01*
X107857761Y-79983903D01*
X107854625Y-79982840D01*
X107851601Y-79981641D01*
X107848704Y-79980293D01*
X107845925Y-79978805D01*
X107843265Y-79977177D01*
X107840728Y-79975403D01*
X107838310Y-79973487D01*
X107836008Y-79971440D01*
X107833825Y-79969240D01*
X107831773Y-79966915D01*
X107829854Y-79964472D01*
X107828071Y-79961914D01*
X107826416Y-79959242D01*
X107824889Y-79956445D01*
X107823500Y-79953539D01*
X107822240Y-79950511D01*
X107821119Y-79947364D01*
X107820123Y-79944102D01*
X107819259Y-79940724D01*
X107818536Y-79937227D01*
X107817939Y-79933615D01*
X107817477Y-79929886D01*
X107817143Y-79926038D01*
X107816944Y-79922077D01*
X107816879Y-79917999D01*
X107816918Y-79914591D01*
X107817044Y-79911278D01*
X107817249Y-79908051D01*
X107817546Y-79904910D01*
X107817918Y-79901868D01*
X107818374Y-79898907D01*
X107818912Y-79896045D01*
X107819541Y-79893261D01*
X107820248Y-79890570D01*
X107821038Y-79887973D01*
X107821907Y-79885457D01*
X107822868Y-79883038D01*
X107823903Y-79880704D01*
X107825023Y-79878458D01*
X107826234Y-79876306D01*
X107827523Y-79874241D01*
X107828905Y-79872232D01*
X107830398Y-79870246D01*
X107831999Y-79868276D01*
X107833704Y-79866332D01*
X107835523Y-79864410D01*
X107837443Y-79862503D01*
X107839474Y-79860626D01*
X107841617Y-79858770D01*
X107843861Y-79856930D01*
X107846216Y-79855117D01*
X107848680Y-79853316D01*
X107851248Y-79851549D01*
X107853922Y-79849801D01*
X107856712Y-79848070D01*
X107859606Y-79846361D01*
X107862607Y-79844675D01*
X108142099Y-79688997D01*
X107862607Y-79534050D01*
X107859606Y-79532267D01*
X107856712Y-79530471D01*
X107853922Y-79528656D01*
X107851248Y-79526829D01*
X107848680Y-79524983D01*
X107846216Y-79523125D01*
X107843861Y-79521248D01*
X107841617Y-79519361D01*
X107839474Y-79517458D01*
X107837443Y-79515537D01*
X107835523Y-79513597D01*
X107833704Y-79511654D01*
X107831999Y-79509686D01*
X107830398Y-79507705D01*
X107828905Y-79505710D01*
X107827523Y-79503697D01*
X107826234Y-79501626D01*
X107825023Y-79499477D01*
X107823903Y-79497231D01*
X107822868Y-79494896D01*
X107821907Y-79492474D01*
X107821038Y-79489965D01*
X107820248Y-79487367D01*
X107819541Y-79484673D01*
X107818912Y-79481894D01*
X107818374Y-79479025D01*
X107817918Y-79476068D01*
X107817546Y-79473017D01*
X107817249Y-79469883D01*
X107817044Y-79466661D01*
X107816918Y-79463341D01*
X107816879Y-79459940D01*
X107816944Y-79456051D01*
X107817143Y-79452279D01*
X107817477Y-79448625D01*
X107817939Y-79445083D01*
X107818536Y-79441649D01*
X107819259Y-79438339D01*
X107820123Y-79435135D01*
X107821119Y-79432046D01*
X107822240Y-79429073D01*
X107823500Y-79426214D01*
X107824889Y-79423474D01*
X107826416Y-79420841D01*
X107828071Y-79418318D01*
X107829854Y-79415914D01*
X107831773Y-79413631D01*
X107833825Y-79411457D01*
X107836008Y-79409400D01*
X107838310Y-79407477D01*
X107840728Y-79405692D01*
X107843265Y-79404034D01*
X107845925Y-79402510D01*
X107848704Y-79401122D01*
X107851601Y-79399865D01*
X107854625Y-79398740D01*
X107857761Y-79397748D01*
X107861021Y-79396887D01*
X107864401Y-79396154D01*
X107867902Y-79395557D01*
X107871523Y-79395096D01*
X107875262Y-79394767D01*
X107879121Y-79394567D01*
X107883103Y-79394505D01*
X108320663Y-79394505D01*
X108324547Y-79394563D01*
G37*
G36*
X108337614Y-71856697D02*
G01*
X108340295Y-71856853D01*
X108342914Y-71857135D01*
X108345467Y-71857536D01*
X108347966Y-71858051D01*
X108350396Y-71858688D01*
X108352766Y-71859450D01*
X108355078Y-71860328D01*
X108357327Y-71861328D01*
X108359513Y-71862446D01*
X108361637Y-71863687D01*
X108363700Y-71865046D01*
X108365701Y-71866528D01*
X108367639Y-71868124D01*
X108369519Y-71869846D01*
X108371336Y-71871684D01*
X108373094Y-71873644D01*
X108374764Y-71875725D01*
X108376328Y-71877917D01*
X108377781Y-71880221D01*
X108379130Y-71882636D01*
X108380369Y-71885171D01*
X108381500Y-71887820D01*
X108382523Y-71890582D01*
X108383439Y-71893457D01*
X108384248Y-71896448D01*
X108384948Y-71899549D01*
X108385542Y-71902759D01*
X108386027Y-71906092D01*
X108386407Y-71909540D01*
X108386671Y-71913097D01*
X108386836Y-71916771D01*
X108386891Y-71920556D01*
X108386839Y-71924358D01*
X108386691Y-71928064D01*
X108386447Y-71931687D01*
X108386104Y-71935219D01*
X108385662Y-71938657D01*
X108385116Y-71942009D01*
X108384476Y-71945269D01*
X108383735Y-71948443D01*
X108382897Y-71951529D01*
X108381959Y-71954524D01*
X108380925Y-71957431D01*
X108379797Y-71960247D01*
X108378564Y-71962973D01*
X108377234Y-71965609D01*
X108375804Y-71968162D01*
X108374274Y-71970618D01*
X108372643Y-71973018D01*
X108370900Y-71975380D01*
X108369048Y-71977715D01*
X108367080Y-71980007D01*
X108365006Y-71982267D01*
X108362818Y-71984496D01*
X108360522Y-71986691D01*
X108358114Y-71988852D01*
X108355592Y-71990977D01*
X108352969Y-71993072D01*
X108350225Y-71995130D01*
X108347370Y-71997154D01*
X108344412Y-71999146D01*
X108341333Y-72001106D01*
X108338151Y-72003028D01*
X108334854Y-72004915D01*
X108203193Y-72076655D01*
X108201068Y-72077861D01*
X108199022Y-72079104D01*
X108197063Y-72080387D01*
X108195185Y-72081709D01*
X108193396Y-72083074D01*
X108191681Y-72084472D01*
X108190050Y-72085915D01*
X108188509Y-72087400D01*
X108187049Y-72088925D01*
X108185670Y-72090488D01*
X108184374Y-72092090D01*
X108183159Y-72093731D01*
X108182035Y-72095417D01*
X108180987Y-72097141D01*
X108180025Y-72098900D01*
X108179149Y-72100706D01*
X108178332Y-72102547D01*
X108177578Y-72104415D01*
X108176867Y-72106326D01*
X108176215Y-72108265D01*
X108175611Y-72110242D01*
X108175062Y-72112255D01*
X108174566Y-72114299D01*
X108174124Y-72116374D01*
X108173726Y-72118487D01*
X108173390Y-72120632D01*
X108173097Y-72122812D01*
X108172863Y-72125022D01*
X108172677Y-72127266D01*
X108172550Y-72129548D01*
X108172470Y-72131860D01*
X108172446Y-72134214D01*
X108172446Y-72177575D01*
X108313570Y-72177575D01*
X108317845Y-72177643D01*
X108322000Y-72177855D01*
X108326035Y-72178214D01*
X108329954Y-72178709D01*
X108333749Y-72179343D01*
X108337425Y-72180122D01*
X108340981Y-72181045D01*
X108344417Y-72182107D01*
X108347731Y-72183313D01*
X108350927Y-72184657D01*
X108353999Y-72186141D01*
X108356953Y-72187773D01*
X108359788Y-72189544D01*
X108362503Y-72191454D01*
X108365098Y-72193513D01*
X108367572Y-72195706D01*
X108369909Y-72198044D01*
X108372101Y-72200522D01*
X108374143Y-72203141D01*
X108376021Y-72205905D01*
X108377764Y-72208809D01*
X108379346Y-72211856D01*
X108380780Y-72215042D01*
X108382063Y-72218372D01*
X108383194Y-72221843D01*
X108384173Y-72225457D01*
X108385005Y-72229209D01*
X108385683Y-72233105D01*
X108386210Y-72237142D01*
X108386584Y-72241321D01*
X108386815Y-72245646D01*
X108386891Y-72250107D01*
X108386815Y-72254381D01*
X108386584Y-72258535D01*
X108386210Y-72262562D01*
X108385683Y-72266461D01*
X108385005Y-72270247D01*
X108384173Y-72273909D01*
X108383194Y-72277442D01*
X108382063Y-72280855D01*
X108380780Y-72284144D01*
X108379346Y-72287311D01*
X108377764Y-72290352D01*
X108376021Y-72293269D01*
X108374143Y-72296065D01*
X108372101Y-72298742D01*
X108369909Y-72301290D01*
X108367572Y-72303712D01*
X108365098Y-72306008D01*
X108362503Y-72308152D01*
X108359788Y-72310148D01*
X108356953Y-72311999D01*
X108353999Y-72313693D01*
X108350927Y-72315252D01*
X108347731Y-72316652D01*
X108344417Y-72317908D01*
X108340981Y-72319015D01*
X108337425Y-72319978D01*
X108333749Y-72320792D01*
X108329954Y-72321453D01*
X108326035Y-72321975D01*
X108322000Y-72322343D01*
X108317845Y-72322564D01*
X108313570Y-72322638D01*
X108069953Y-72322638D01*
X107897297Y-72322638D01*
X107892926Y-72322563D01*
X107888687Y-72322336D01*
X107884572Y-72321961D01*
X107880593Y-72321430D01*
X107876738Y-72320750D01*
X107873012Y-72319922D01*
X107869419Y-72318937D01*
X107865955Y-72317808D01*
X107862623Y-72316529D01*
X107859416Y-72315094D01*
X107856343Y-72313506D01*
X107853391Y-72311774D01*
X107850575Y-72309885D01*
X107847888Y-72307850D01*
X107845324Y-72305662D01*
X107842894Y-72303323D01*
X107840604Y-72300852D01*
X107838461Y-72298254D01*
X107836463Y-72295538D01*
X107834621Y-72292705D01*
X107832915Y-72289749D01*
X107831365Y-72286673D01*
X107829964Y-72283481D01*
X107828707Y-72280163D01*
X107827593Y-72276727D01*
X107826635Y-72273170D01*
X107825822Y-72269497D01*
X107825157Y-72265698D01*
X107824639Y-72261785D01*
X107824271Y-72257749D01*
X107824048Y-72253595D01*
X107823970Y-72249315D01*
X107823970Y-72081391D01*
X107935136Y-72081391D01*
X107935136Y-72177575D01*
X108069953Y-72177575D01*
X108069953Y-72081391D01*
X108069891Y-72076244D01*
X108069696Y-72071252D01*
X108069371Y-72066418D01*
X108068919Y-72061727D01*
X108068338Y-72057197D01*
X108067626Y-72052824D01*
X108066782Y-72048603D01*
X108065814Y-72044532D01*
X108064717Y-72040620D01*
X108063490Y-72036854D01*
X108062125Y-72033252D01*
X108060644Y-72029802D01*
X108059025Y-72026500D01*
X108057281Y-72023357D01*
X108055400Y-72020361D01*
X108053400Y-72017532D01*
X108051260Y-72014853D01*
X108048973Y-72012351D01*
X108046551Y-72010026D01*
X108043984Y-72007869D01*
X108041282Y-72005889D01*
X108038432Y-72004073D01*
X108035442Y-72002435D01*
X108032307Y-72000972D01*
X108029033Y-71999681D01*
X108025616Y-71998553D01*
X108022059Y-71997609D01*
X108018367Y-71996828D01*
X108014524Y-71996228D01*
X108010544Y-71995795D01*
X108006417Y-71995540D01*
X108002148Y-71995454D01*
X107998075Y-71995540D01*
X107994125Y-71995795D01*
X107990302Y-71996228D01*
X107986607Y-71996828D01*
X107983033Y-71997609D01*
X107979587Y-71998553D01*
X107976274Y-71999681D01*
X107973076Y-72000972D01*
X107970016Y-72002435D01*
X107967075Y-72004073D01*
X107964260Y-72005889D01*
X107961574Y-72007869D01*
X107959011Y-72010026D01*
X107956576Y-72012351D01*
X107954271Y-72014853D01*
X107952089Y-72017532D01*
X107950035Y-72020361D01*
X107948116Y-72023357D01*
X107946329Y-72026500D01*
X107944675Y-72029802D01*
X107943149Y-72033252D01*
X107941757Y-72036854D01*
X107940502Y-72040620D01*
X107939379Y-72044532D01*
X107938381Y-72048603D01*
X107937523Y-72052824D01*
X107936793Y-72057197D01*
X107936198Y-72061727D01*
X107935735Y-72066418D01*
X107935401Y-72071252D01*
X107935206Y-72076244D01*
X107935136Y-72081391D01*
X107823970Y-72081391D01*
X107823970Y-72055375D01*
X107824155Y-72043715D01*
X107824694Y-72032393D01*
X107825597Y-72021407D01*
X107826857Y-72010761D01*
X107828479Y-72000438D01*
X107830459Y-71990457D01*
X107832800Y-71980814D01*
X107835505Y-71971508D01*
X107838568Y-71962532D01*
X107841993Y-71953894D01*
X107845774Y-71945598D01*
X107849917Y-71937633D01*
X107854422Y-71930005D01*
X107859288Y-71922707D01*
X107864511Y-71915750D01*
X107870100Y-71909123D01*
X107876005Y-71902871D01*
X107882184Y-71897023D01*
X107888653Y-71891575D01*
X107895398Y-71886529D01*
X107902423Y-71881891D01*
X107909734Y-71877651D01*
X107917315Y-71873824D01*
X107925184Y-71870393D01*
X107933332Y-71867368D01*
X107941757Y-71864746D01*
X107950465Y-71862526D01*
X107959455Y-71860710D01*
X107968725Y-71859300D01*
X107978277Y-71858291D01*
X107988100Y-71857686D01*
X107998211Y-71857486D01*
X108004756Y-71857577D01*
X108011200Y-71857849D01*
X108017531Y-71858301D01*
X108023762Y-71858940D01*
X108029874Y-71859755D01*
X108035887Y-71860753D01*
X108041788Y-71861939D01*
X108047585Y-71863301D01*
X108053272Y-71864842D01*
X108058849Y-71866572D01*
X108064322Y-71868477D01*
X108069683Y-71870566D01*
X108074944Y-71872840D01*
X108080085Y-71875292D01*
X108085127Y-71877927D01*
X108090058Y-71880744D01*
X108094864Y-71883731D01*
X108099532Y-71886879D01*
X108104054Y-71890186D01*
X108108439Y-71893654D01*
X108112680Y-71897281D01*
X108116779Y-71901066D01*
X108120734Y-71905020D01*
X108124548Y-71909120D01*
X108128223Y-71913394D01*
X108131758Y-71917818D01*
X108135146Y-71922413D01*
X108138398Y-71927161D01*
X108141503Y-71932068D01*
X108144468Y-71937135D01*
X108147294Y-71942365D01*
X108149974Y-71947754D01*
X108152502Y-71953303D01*
X108154872Y-71959009D01*
X108157077Y-71964872D01*
X108159115Y-71970894D01*
X108160998Y-71977067D01*
X108161173Y-71977725D01*
X108161791Y-71975579D01*
X108162990Y-71971925D01*
X108164318Y-71968333D01*
X108165768Y-71964807D01*
X108167347Y-71961337D01*
X108169055Y-71957931D01*
X108170883Y-71954585D01*
X108172841Y-71951303D01*
X108174924Y-71948088D01*
X108177142Y-71944932D01*
X108179498Y-71941852D01*
X108181981Y-71938837D01*
X108184596Y-71935889D01*
X108187343Y-71933010D01*
X108190226Y-71930198D01*
X108193241Y-71927455D01*
X108196387Y-71924780D01*
X108199663Y-71922169D01*
X108203075Y-71919629D01*
X108206618Y-71917156D01*
X108210293Y-71914749D01*
X108214103Y-71912413D01*
X108218041Y-71910143D01*
X108222114Y-71907943D01*
X108293071Y-71868520D01*
X108295925Y-71866996D01*
X108298773Y-71865575D01*
X108301602Y-71864263D01*
X108304433Y-71863051D01*
X108307242Y-71861945D01*
X108310052Y-71860945D01*
X108312848Y-71860050D01*
X108315639Y-71859257D01*
X108318418Y-71858570D01*
X108321190Y-71857988D01*
X108323948Y-71857514D01*
X108326703Y-71857140D01*
X108329447Y-71856869D01*
X108332178Y-71856708D01*
X108334903Y-71856647D01*
X108337614Y-71856697D01*
G37*
G36*
X108117466Y-78499440D02*
G01*
X108133074Y-78500385D01*
X108140741Y-78501088D01*
X108148311Y-78501955D01*
X108155793Y-78502972D01*
X108163182Y-78504151D01*
X108170477Y-78505484D01*
X108177682Y-78506977D01*
X108184794Y-78508631D01*
X108191811Y-78510433D01*
X108198737Y-78512399D01*
X108205569Y-78514519D01*
X108212312Y-78516794D01*
X108218958Y-78519227D01*
X108225505Y-78521803D01*
X108231935Y-78524527D01*
X108238257Y-78527377D01*
X108244462Y-78530363D01*
X108250553Y-78533491D01*
X108256526Y-78536743D01*
X108262387Y-78540139D01*
X108268139Y-78543668D01*
X108273768Y-78547332D01*
X108279290Y-78551131D01*
X108284694Y-78555069D01*
X108289995Y-78559142D01*
X108295169Y-78563348D01*
X108300233Y-78567689D01*
X108305181Y-78572168D01*
X108310017Y-78576780D01*
X108314728Y-78581518D01*
X108319298Y-78586370D01*
X108323723Y-78591339D01*
X108328007Y-78596416D01*
X108332149Y-78601609D01*
X108336152Y-78606917D01*
X108340009Y-78612339D01*
X108343725Y-78617878D01*
X108347298Y-78623527D01*
X108350736Y-78629290D01*
X108354027Y-78635168D01*
X108357177Y-78641159D01*
X108360186Y-78647268D01*
X108363052Y-78653483D01*
X108365777Y-78659818D01*
X108368362Y-78666268D01*
X108370798Y-78672807D01*
X108373073Y-78679445D01*
X108375196Y-78686163D01*
X108377158Y-78692974D01*
X108378961Y-78699867D01*
X108380613Y-78706838D01*
X108382107Y-78713909D01*
X108383439Y-78721062D01*
X108384619Y-78728298D01*
X108385638Y-78735618D01*
X108386503Y-78743028D01*
X108387209Y-78750527D01*
X108387761Y-78758107D01*
X108388150Y-78765775D01*
X108388388Y-78773527D01*
X108388465Y-78781370D01*
X108388324Y-78791836D01*
X108387905Y-78802139D01*
X108387204Y-78812281D01*
X108386226Y-78822266D01*
X108384964Y-78832091D01*
X108383421Y-78841758D01*
X108381599Y-78851258D01*
X108379497Y-78860603D01*
X108377116Y-78869789D01*
X108374454Y-78878809D01*
X108371512Y-78887674D01*
X108368288Y-78896375D01*
X108364785Y-78904918D01*
X108361005Y-78913303D01*
X108356938Y-78921526D01*
X108352596Y-78929584D01*
X108347999Y-78937456D01*
X108343176Y-78945106D01*
X108338129Y-78952526D01*
X108332858Y-78959720D01*
X108327364Y-78966693D01*
X108321643Y-78973438D01*
X108315692Y-78979958D01*
X108309526Y-78986253D01*
X108303128Y-78992325D01*
X108296512Y-78998173D01*
X108289670Y-79003794D01*
X108282597Y-79009193D01*
X108275306Y-79014367D01*
X108267786Y-79019310D01*
X108260044Y-79024031D01*
X108252070Y-79028531D01*
X108243907Y-79032783D01*
X108235577Y-79036757D01*
X108227086Y-79040451D01*
X108218421Y-79043884D01*
X108209591Y-79047035D01*
X108200593Y-79049908D01*
X108191434Y-79052517D01*
X108182105Y-79054847D01*
X108172608Y-79056901D01*
X108162949Y-79058684D01*
X108153121Y-79060190D01*
X108143128Y-79061427D01*
X108132966Y-79062388D01*
X108122640Y-79063070D01*
X108112148Y-79063484D01*
X108101489Y-79063614D01*
X108085511Y-79063296D01*
X108069905Y-79062358D01*
X108062242Y-79061658D01*
X108054667Y-79060789D01*
X108047188Y-79059772D01*
X108039799Y-79058590D01*
X108032500Y-79057253D01*
X108025301Y-79055767D01*
X108018186Y-79054113D01*
X108011169Y-79052308D01*
X108004241Y-79050344D01*
X107997413Y-79048223D01*
X107990670Y-79045944D01*
X107984018Y-79043512D01*
X107977476Y-79040934D01*
X107971049Y-79038215D01*
X107964741Y-79035362D01*
X107958543Y-79032374D01*
X107952465Y-79029253D01*
X107946509Y-79025996D01*
X107940665Y-79022603D01*
X107934941Y-79019067D01*
X107929332Y-79015403D01*
X107923841Y-79011611D01*
X107918469Y-79007672D01*
X107913214Y-79003602D01*
X107908066Y-78999394D01*
X107903049Y-78995047D01*
X107898141Y-78990576D01*
X107893351Y-78985954D01*
X107888692Y-78981225D01*
X107884170Y-78976372D01*
X107879787Y-78971407D01*
X107875541Y-78966325D01*
X107871435Y-78961131D01*
X107867464Y-78955821D01*
X107863637Y-78950401D01*
X107859942Y-78944864D01*
X107856392Y-78939215D01*
X107852979Y-78933452D01*
X107849702Y-78927574D01*
X107846563Y-78921583D01*
X107843567Y-78915478D01*
X107840712Y-78909258D01*
X107837986Y-78902924D01*
X107835407Y-78896480D01*
X107832972Y-78889929D01*
X107830691Y-78883298D01*
X107828575Y-78876578D01*
X107826611Y-78869769D01*
X107824804Y-78862876D01*
X107823154Y-78855896D01*
X107821661Y-78848836D01*
X107820328Y-78841682D01*
X107819147Y-78834444D01*
X107818129Y-78827123D01*
X107817264Y-78819714D01*
X107816553Y-78812217D01*
X107816009Y-78804635D01*
X107815615Y-78796968D01*
X107815381Y-78789215D01*
X107815305Y-78781370D01*
X107936712Y-78781370D01*
X107936790Y-78786450D01*
X107937017Y-78791441D01*
X107937393Y-78796342D01*
X107937924Y-78801157D01*
X107938599Y-78805875D01*
X107939429Y-78810510D01*
X107940410Y-78815056D01*
X107941544Y-78819509D01*
X107942828Y-78823873D01*
X107944256Y-78828147D01*
X107945844Y-78832339D01*
X107947581Y-78836430D01*
X107949470Y-78840440D01*
X107951505Y-78844362D01*
X107953690Y-78848189D01*
X107956031Y-78851933D01*
X107958511Y-78855572D01*
X107961131Y-78859109D01*
X107963886Y-78862530D01*
X107966774Y-78865851D01*
X107969797Y-78869062D01*
X107972959Y-78872163D01*
X107976252Y-78875158D01*
X107979684Y-78878049D01*
X107983250Y-78880826D01*
X107986949Y-78883500D01*
X107990790Y-78886063D01*
X107994760Y-78888515D01*
X107998868Y-78890865D01*
X108003112Y-78893106D01*
X108007492Y-78895241D01*
X108012005Y-78897264D01*
X108016652Y-78899174D01*
X108021420Y-78900957D01*
X108026324Y-78902625D01*
X108031344Y-78904167D01*
X108036497Y-78905579D01*
X108041774Y-78906872D01*
X108047179Y-78908041D01*
X108052709Y-78909091D01*
X108058360Y-78910014D01*
X108064149Y-78910813D01*
X108070055Y-78911493D01*
X108076088Y-78912044D01*
X108082249Y-78912477D01*
X108088535Y-78912786D01*
X108094951Y-78912974D01*
X108101489Y-78913034D01*
X108111110Y-78912900D01*
X108120469Y-78912489D01*
X108129553Y-78911816D01*
X108138370Y-78910865D01*
X108146923Y-78909642D01*
X108155208Y-78908154D01*
X108163217Y-78906392D01*
X108170967Y-78904362D01*
X108178447Y-78902058D01*
X108185657Y-78899483D01*
X108192601Y-78896641D01*
X108199275Y-78893523D01*
X108205683Y-78890133D01*
X108211820Y-78886475D01*
X108217694Y-78882547D01*
X108223301Y-78878345D01*
X108228598Y-78873901D01*
X108233554Y-78869237D01*
X108238167Y-78864367D01*
X108242440Y-78859278D01*
X108246373Y-78853969D01*
X108249964Y-78848446D01*
X108253206Y-78842711D01*
X108256113Y-78836757D01*
X108258679Y-78830587D01*
X108260893Y-78824201D01*
X108262781Y-78817603D01*
X108264318Y-78810790D01*
X108265516Y-78803755D01*
X108266372Y-78796510D01*
X108266885Y-78789050D01*
X108267052Y-78781370D01*
X108266977Y-78776198D01*
X108266746Y-78771121D01*
X108266363Y-78766145D01*
X108265825Y-78761267D01*
X108265127Y-78756486D01*
X108264282Y-78751803D01*
X108263281Y-78747225D01*
X108262124Y-78742737D01*
X108260815Y-78738350D01*
X108259348Y-78734064D01*
X108257739Y-78729879D01*
X108255966Y-78725791D01*
X108254042Y-78721794D01*
X108251964Y-78717908D01*
X108249730Y-78714108D01*
X108247344Y-78710417D01*
X108244813Y-78706821D01*
X108242145Y-78703327D01*
X108239343Y-78699951D01*
X108236405Y-78696668D01*
X108233332Y-78693494D01*
X108230122Y-78690422D01*
X108226778Y-78687458D01*
X108223301Y-78684592D01*
X108219682Y-78681837D01*
X108215931Y-78679185D01*
X108212044Y-78676642D01*
X108208025Y-78674196D01*
X108203868Y-78671862D01*
X108199572Y-78669623D01*
X108195141Y-78667500D01*
X108190577Y-78665478D01*
X108185890Y-78663569D01*
X108181079Y-78661781D01*
X108176158Y-78660117D01*
X108171112Y-78658582D01*
X108165955Y-78657160D01*
X108160682Y-78655867D01*
X108155288Y-78654697D01*
X108149779Y-78653653D01*
X108144154Y-78652726D01*
X108138408Y-78651921D01*
X108132547Y-78651249D01*
X108126568Y-78650694D01*
X108120477Y-78650259D01*
X108114264Y-78649955D01*
X108107935Y-78649768D01*
X108101489Y-78649711D01*
X108091872Y-78649843D01*
X108082517Y-78650250D01*
X108073442Y-78650929D01*
X108064631Y-78651874D01*
X108056094Y-78653096D01*
X108047829Y-78654584D01*
X108039835Y-78656349D01*
X108032112Y-78658382D01*
X108024659Y-78660685D01*
X108017476Y-78663259D01*
X108010562Y-78666102D01*
X108003923Y-78669218D01*
X107997560Y-78672609D01*
X107991462Y-78676269D01*
X107985635Y-78680200D01*
X107980080Y-78684396D01*
X107974827Y-78688844D01*
X107969908Y-78693504D01*
X107965339Y-78698377D01*
X107961107Y-78703469D01*
X107957207Y-78708771D01*
X107953652Y-78714295D01*
X107950435Y-78720034D01*
X107947558Y-78725985D01*
X107945013Y-78732153D01*
X107942811Y-78738534D01*
X107940948Y-78745142D01*
X107939423Y-78751951D01*
X107938237Y-78758985D01*
X107937392Y-78766230D01*
X107936883Y-78773692D01*
X107936712Y-78781370D01*
X107815305Y-78781370D01*
X107815442Y-78770908D01*
X107815855Y-78760608D01*
X107816548Y-78750473D01*
X107817521Y-78740496D01*
X107818766Y-78730687D01*
X107820290Y-78721042D01*
X107822090Y-78711553D01*
X107824172Y-78702232D01*
X107826526Y-78693080D01*
X107829162Y-78684080D01*
X107832074Y-78675251D01*
X107835258Y-78666582D01*
X107838723Y-78658082D01*
X107842460Y-78649742D01*
X107846483Y-78641558D01*
X107850777Y-78633545D01*
X107855327Y-78625720D01*
X107860097Y-78618116D01*
X107865094Y-78610731D01*
X107870318Y-78603559D01*
X107875762Y-78596616D01*
X107881436Y-78589879D01*
X107887328Y-78583373D01*
X107893453Y-78577079D01*
X107899793Y-78571004D01*
X107906368Y-78565147D01*
X107913166Y-78559509D01*
X107920181Y-78554091D01*
X107927429Y-78548892D01*
X107934894Y-78543906D01*
X107942592Y-78539148D01*
X107950512Y-78534598D01*
X107958631Y-78530304D01*
X107966927Y-78526290D01*
X107975395Y-78522543D01*
X107984043Y-78519084D01*
X107992862Y-78515895D01*
X108001865Y-78512984D01*
X108011035Y-78510348D01*
X108020385Y-78507992D01*
X108029906Y-78505915D01*
X108039609Y-78504110D01*
X108049485Y-78502591D01*
X108059528Y-78501339D01*
X108069759Y-78500374D01*
X108080161Y-78499681D01*
X108090738Y-78499265D01*
X108101489Y-78499126D01*
X108117466Y-78499440D01*
G37*
G36*
X108214593Y-69873881D02*
G01*
X108219625Y-69874077D01*
X108224600Y-69874398D01*
X108229504Y-69874847D01*
X108234357Y-69875433D01*
X108239140Y-69876144D01*
X108243861Y-69876985D01*
X108248525Y-69877952D01*
X108253126Y-69879055D01*
X108257664Y-69880281D01*
X108262146Y-69881640D01*
X108266563Y-69883128D01*
X108270920Y-69884748D01*
X108275210Y-69886497D01*
X108279443Y-69888369D01*
X108283612Y-69890376D01*
X108287710Y-69892498D01*
X108291731Y-69894736D01*
X108295682Y-69897081D01*
X108299553Y-69899540D01*
X108303342Y-69902109D01*
X108307057Y-69904787D01*
X108310698Y-69907575D01*
X108314258Y-69910479D01*
X108317744Y-69913487D01*
X108321153Y-69916611D01*
X108324485Y-69919844D01*
X108327739Y-69923188D01*
X108330912Y-69926647D01*
X108334009Y-69930210D01*
X108337035Y-69933884D01*
X108339982Y-69937678D01*
X108342848Y-69941571D01*
X108345628Y-69945560D01*
X108348326Y-69949651D01*
X108350944Y-69953838D01*
X108353476Y-69958127D01*
X108355926Y-69962510D01*
X108358291Y-69966994D01*
X108360579Y-69971576D01*
X108362777Y-69976260D01*
X108364898Y-69981038D01*
X108366929Y-69985921D01*
X108368880Y-69990890D01*
X108370747Y-69995970D01*
X108372531Y-70001139D01*
X108374232Y-70006420D01*
X108375852Y-70011784D01*
X108378807Y-70022800D01*
X108381373Y-70034158D01*
X108383538Y-70045858D01*
X108385315Y-70057907D01*
X108386691Y-70070294D01*
X108387679Y-70083032D01*
X108388267Y-70096122D01*
X108388465Y-70109545D01*
X108388399Y-70117476D01*
X108388195Y-70125481D01*
X108387857Y-70133586D01*
X108387382Y-70141778D01*
X108386770Y-70150047D01*
X108386027Y-70158404D01*
X108385148Y-70166850D01*
X108384130Y-70175381D01*
X108382979Y-70183895D01*
X108381693Y-70192309D01*
X108380269Y-70200601D01*
X108378712Y-70208787D01*
X108377020Y-70216863D01*
X108375185Y-70224825D01*
X108373219Y-70232678D01*
X108371119Y-70240423D01*
X108368905Y-70248008D01*
X108366590Y-70255398D01*
X108364172Y-70262596D01*
X108361657Y-70269592D01*
X108359047Y-70276393D01*
X108356343Y-70282995D01*
X108353532Y-70289402D01*
X108350624Y-70295609D01*
X108349316Y-70298221D01*
X108347955Y-70300732D01*
X108346545Y-70303150D01*
X108345081Y-70305464D01*
X108343564Y-70307680D01*
X108341992Y-70309803D01*
X108340371Y-70311824D01*
X108338696Y-70313744D01*
X108336975Y-70315565D01*
X108335194Y-70317291D01*
X108333363Y-70318916D01*
X108331480Y-70320445D01*
X108329544Y-70321872D01*
X108327557Y-70323204D01*
X108325517Y-70324439D01*
X108323426Y-70325568D01*
X108321295Y-70326606D01*
X108319154Y-70327565D01*
X108317000Y-70328434D01*
X108314825Y-70329215D01*
X108312635Y-70329913D01*
X108310434Y-70330523D01*
X108308213Y-70331046D01*
X108305982Y-70331481D01*
X108303726Y-70331836D01*
X108301468Y-70332101D01*
X108299186Y-70332274D01*
X108296887Y-70332367D01*
X108294575Y-70332370D01*
X108292250Y-70332296D01*
X108289907Y-70332128D01*
X108287552Y-70331873D01*
X108285203Y-70331547D01*
X108282888Y-70331150D01*
X108280611Y-70330684D01*
X108278362Y-70330152D01*
X108276145Y-70329551D01*
X108273972Y-70328884D01*
X108271827Y-70328141D01*
X108269715Y-70327343D01*
X108267634Y-70326470D01*
X108265591Y-70325532D01*
X108263582Y-70324521D01*
X108261607Y-70323450D01*
X108259669Y-70322306D01*
X108257757Y-70321095D01*
X108255885Y-70319814D01*
X108254047Y-70318471D01*
X108252257Y-70317067D01*
X108250548Y-70315600D01*
X108248904Y-70314081D01*
X108247346Y-70312505D01*
X108245849Y-70310880D01*
X108244439Y-70309197D01*
X108243094Y-70307454D01*
X108241825Y-70305662D01*
X108240631Y-70303811D01*
X108239513Y-70301904D01*
X108238464Y-70299943D01*
X108237490Y-70297928D01*
X108236587Y-70295851D01*
X108235763Y-70293726D01*
X108235012Y-70291539D01*
X108234335Y-70289300D01*
X108233757Y-70287017D01*
X108233296Y-70284694D01*
X108232955Y-70282339D01*
X108232735Y-70279943D01*
X108232632Y-70277511D01*
X108232652Y-70275036D01*
X108232793Y-70272532D01*
X108233050Y-70269987D01*
X108233433Y-70267402D01*
X108233936Y-70264789D01*
X108234556Y-70262129D01*
X108235300Y-70259441D01*
X108236154Y-70256710D01*
X108237138Y-70253945D01*
X108238238Y-70251143D01*
X108239462Y-70248307D01*
X108242907Y-70240692D01*
X108246160Y-70232831D01*
X108249215Y-70224727D01*
X108252071Y-70216373D01*
X108254736Y-70207776D01*
X108257197Y-70198930D01*
X108259465Y-70189839D01*
X108261536Y-70180507D01*
X108263382Y-70171112D01*
X108264982Y-70161877D01*
X108266340Y-70152783D01*
X108267447Y-70143842D01*
X108268311Y-70135046D01*
X108268927Y-70126402D01*
X108269295Y-70117899D01*
X108269415Y-70109545D01*
X108269202Y-70097023D01*
X108268933Y-70091130D01*
X108268558Y-70085471D01*
X108268072Y-70080067D01*
X108267475Y-70074905D01*
X108266776Y-70069979D01*
X108265969Y-70065300D01*
X108265051Y-70060862D01*
X108264030Y-70056670D01*
X108262893Y-70052721D01*
X108261658Y-70049015D01*
X108260312Y-70045547D01*
X108258854Y-70042330D01*
X108257292Y-70039356D01*
X108255620Y-70036622D01*
X108253872Y-70034093D01*
X108252069Y-70031722D01*
X108250212Y-70029522D01*
X108248301Y-70027482D01*
X108246343Y-70025602D01*
X108244329Y-70023889D01*
X108242268Y-70022337D01*
X108240147Y-70020955D01*
X108239074Y-70020319D01*
X108237978Y-70019726D01*
X108236877Y-70019177D01*
X108235758Y-70018667D01*
X108234624Y-70018194D01*
X108233477Y-70017767D01*
X108232326Y-70017381D01*
X108231156Y-70017033D01*
X108229974Y-70016728D01*
X108228778Y-70016460D01*
X108227565Y-70016238D01*
X108226343Y-70016054D01*
X108225109Y-70015914D01*
X108223867Y-70015807D01*
X108221326Y-70015727D01*
X108219086Y-70015787D01*
X108216904Y-70015956D01*
X108214775Y-70016239D01*
X108212705Y-70016639D01*
X108210687Y-70017153D01*
X108208725Y-70017776D01*
X108206817Y-70018522D01*
X108204970Y-70019376D01*
X108203173Y-70020342D01*
X108201431Y-70021425D01*
X108199750Y-70022624D01*
X108198116Y-70023932D01*
X108196544Y-70025353D01*
X108195026Y-70026900D01*
X108193564Y-70028551D01*
X108192154Y-70030314D01*
X108190784Y-70032225D01*
X108189442Y-70034310D01*
X108188128Y-70036572D01*
X108186834Y-70039009D01*
X108185565Y-70041623D01*
X108184322Y-70044413D01*
X108183097Y-70047377D01*
X108181906Y-70050516D01*
X108180736Y-70053831D01*
X108179593Y-70057323D01*
X108178472Y-70060992D01*
X108177371Y-70064829D01*
X108176302Y-70068847D01*
X108175254Y-70073043D01*
X108174233Y-70077410D01*
X108173236Y-70081956D01*
X108153523Y-70174198D01*
X108151460Y-70183511D01*
X108149216Y-70192510D01*
X108146781Y-70201219D01*
X108144160Y-70209623D01*
X108141359Y-70217727D01*
X108138372Y-70225529D01*
X108135200Y-70233028D01*
X108131841Y-70240220D01*
X108128302Y-70247121D01*
X108124577Y-70253708D01*
X108120664Y-70260004D01*
X108116566Y-70265994D01*
X108112285Y-70271683D01*
X108107819Y-70277070D01*
X108103171Y-70282158D01*
X108098338Y-70286938D01*
X108093319Y-70291423D01*
X108088122Y-70295621D01*
X108082751Y-70299532D01*
X108077196Y-70303150D01*
X108071465Y-70306477D01*
X108065555Y-70309517D01*
X108059468Y-70312264D01*
X108053204Y-70314729D01*
X108046751Y-70316896D01*
X108040132Y-70318779D01*
X108033327Y-70320375D01*
X108026344Y-70321681D01*
X108019187Y-70322685D01*
X108011850Y-70323414D01*
X108004328Y-70323846D01*
X107996631Y-70323986D01*
X107991539Y-70323925D01*
X107986503Y-70323724D01*
X107981522Y-70323396D01*
X107976606Y-70322931D01*
X107971743Y-70322337D01*
X107966939Y-70321610D01*
X107962189Y-70320749D01*
X107957506Y-70319752D01*
X107952886Y-70318628D01*
X107948312Y-70317374D01*
X107943805Y-70315980D01*
X107939350Y-70314459D01*
X107934957Y-70312801D01*
X107930624Y-70311015D01*
X107926348Y-70309095D01*
X107922132Y-70307039D01*
X107917981Y-70304866D01*
X107913907Y-70302583D01*
X107909912Y-70300184D01*
X107905991Y-70297677D01*
X107902151Y-70295059D01*
X107898387Y-70292327D01*
X107894698Y-70289492D01*
X107891086Y-70286539D01*
X107887555Y-70283481D01*
X107884097Y-70280307D01*
X107880716Y-70277025D01*
X107877411Y-70273634D01*
X107874187Y-70270127D01*
X107871036Y-70266512D01*
X107867968Y-70262789D01*
X107864969Y-70258949D01*
X107862054Y-70255010D01*
X107859225Y-70250980D01*
X107856477Y-70246857D01*
X107853808Y-70242637D01*
X107851227Y-70238332D01*
X107848731Y-70233934D01*
X107846314Y-70229439D01*
X107843981Y-70224849D01*
X107841731Y-70220171D01*
X107839560Y-70215403D01*
X107837481Y-70210538D01*
X107835478Y-70205584D01*
X107833561Y-70200536D01*
X107831728Y-70195398D01*
X107829978Y-70190161D01*
X107828311Y-70184841D01*
X107825262Y-70173943D01*
X107822621Y-70162739D01*
X107820382Y-70151231D01*
X107818556Y-70139405D01*
X107817134Y-70127283D01*
X107816112Y-70114848D01*
X107815506Y-70102100D01*
X107815305Y-70089051D01*
X107815444Y-70078779D01*
X107815865Y-70068474D01*
X107816580Y-70058138D01*
X107817572Y-70047756D01*
X107818841Y-70037342D01*
X107820402Y-70026889D01*
X107822243Y-70016400D01*
X107824370Y-70005873D01*
X107826778Y-69995504D01*
X107829471Y-69985499D01*
X107832447Y-69975842D01*
X107835702Y-69966556D01*
X107839248Y-69957615D01*
X107843064Y-69949033D01*
X107847176Y-69940811D01*
X107849340Y-69936835D01*
X107851569Y-69932947D01*
X107852777Y-69930722D01*
X107854041Y-69928576D01*
X107855368Y-69926506D01*
X107856740Y-69924522D01*
X107858173Y-69922618D01*
X107859662Y-69920785D01*
X107861202Y-69919038D01*
X107862804Y-69917376D01*
X107864455Y-69915789D01*
X107866164Y-69914284D01*
X107867929Y-69912856D01*
X107869750Y-69911518D01*
X107871629Y-69910244D01*
X107873555Y-69909060D01*
X107875541Y-69907958D01*
X107877585Y-69906929D01*
X107879657Y-69905982D01*
X107881742Y-69905105D01*
X107883834Y-69904307D01*
X107885938Y-69903577D01*
X107888051Y-69902920D01*
X107890167Y-69902349D01*
X107892301Y-69901842D01*
X107894437Y-69901411D01*
X107896584Y-69901049D01*
X107898742Y-69900765D01*
X107900909Y-69900558D01*
X107903086Y-69900429D01*
X107905269Y-69900363D01*
X107907466Y-69900375D01*
X107909666Y-69900461D01*
X107911880Y-69900623D01*
X107914081Y-69900851D01*
X107916249Y-69901157D01*
X107918383Y-69901531D01*
X107920479Y-69901975D01*
X107922541Y-69902497D01*
X107924575Y-69903079D01*
X107926571Y-69903738D01*
X107928535Y-69904461D01*
X107930465Y-69905265D01*
X107932362Y-69906133D01*
X107934225Y-69907074D01*
X107936048Y-69908086D01*
X107937843Y-69909166D01*
X107939606Y-69910322D01*
X107941332Y-69911548D01*
X107943020Y-69912838D01*
X107944663Y-69914201D01*
X107946230Y-69915612D01*
X107947730Y-69917078D01*
X107949156Y-69918607D01*
X107950512Y-69920188D01*
X107951799Y-69921820D01*
X107953015Y-69923513D01*
X107954158Y-69925256D01*
X107955232Y-69927059D01*
X107956232Y-69928920D01*
X107957167Y-69930833D01*
X107958026Y-69932801D01*
X107958815Y-69934826D01*
X107959535Y-69936904D01*
X107960183Y-69939038D01*
X107960760Y-69941228D01*
X107961249Y-69943469D01*
X107961618Y-69945765D01*
X107961873Y-69948112D01*
X107962016Y-69950511D01*
X107962046Y-69952963D01*
X107961963Y-69955472D01*
X107961763Y-69958030D01*
X107961452Y-69960638D01*
X107961026Y-69963298D01*
X107960484Y-69966017D01*
X107959829Y-69968784D01*
X107959060Y-69971602D01*
X107958180Y-69974469D01*
X107957182Y-69977400D01*
X107956073Y-69980375D01*
X107954850Y-69983406D01*
X107952368Y-69989207D01*
X107950042Y-69995203D01*
X107947880Y-70001381D01*
X107945883Y-70007744D01*
X107944039Y-70014297D01*
X107942355Y-70021028D01*
X107940837Y-70027942D01*
X107939474Y-70035043D01*
X107938273Y-70042211D01*
X107937232Y-70049309D01*
X107936354Y-70056347D01*
X107935628Y-70063331D01*
X107935071Y-70070245D01*
X107934675Y-70077098D01*
X107934427Y-70083895D01*
X107934352Y-70090629D01*
X107934454Y-70097783D01*
X107934769Y-70104671D01*
X107935293Y-70111283D01*
X107936022Y-70117628D01*
X107936970Y-70123703D01*
X107938120Y-70129504D01*
X107939479Y-70135035D01*
X107941050Y-70140296D01*
X107941914Y-70142819D01*
X107942820Y-70145262D01*
X107943775Y-70147632D01*
X107944771Y-70149930D01*
X107945816Y-70152143D01*
X107946907Y-70154285D01*
X107948048Y-70156344D01*
X107949231Y-70158327D01*
X107950459Y-70160237D01*
X107951735Y-70162065D01*
X107953061Y-70163822D01*
X107954429Y-70165497D01*
X107955844Y-70167098D01*
X107957307Y-70168620D01*
X107958812Y-70170068D01*
X107960367Y-70171440D01*
X107961958Y-70172726D01*
X107963585Y-70173932D01*
X107965237Y-70175050D01*
X107966923Y-70176093D01*
X107968638Y-70177048D01*
X107970382Y-70177918D01*
X107972162Y-70178709D01*
X107973968Y-70179421D01*
X107975808Y-70180043D01*
X107977672Y-70180586D01*
X107979577Y-70181039D01*
X107981507Y-70181414D01*
X107983465Y-70181707D01*
X107985462Y-70181911D01*
X107987480Y-70182035D01*
X107989539Y-70182079D01*
X107991585Y-70182024D01*
X107993594Y-70181861D01*
X107995567Y-70181592D01*
X107997496Y-70181216D01*
X107999383Y-70180730D01*
X108001234Y-70180139D01*
X108003044Y-70179441D01*
X108004813Y-70178633D01*
X108006539Y-70177714D01*
X108008227Y-70176693D01*
X108009880Y-70175556D01*
X108011489Y-70174322D01*
X108013057Y-70172971D01*
X108014589Y-70171517D01*
X108016077Y-70169954D01*
X108017526Y-70168282D01*
X108018938Y-70166464D01*
X108020329Y-70164470D01*
X108021685Y-70162293D01*
X108023020Y-70159934D01*
X108024324Y-70157389D01*
X108025598Y-70154663D01*
X108026852Y-70151759D01*
X108028070Y-70148668D01*
X108029264Y-70145399D01*
X108030432Y-70141951D01*
X108031567Y-70138318D01*
X108032681Y-70134502D01*
X108033765Y-70130507D01*
X108034815Y-70126332D01*
X108035841Y-70121971D01*
X108036840Y-70117432D01*
X108056551Y-70025978D01*
X108058705Y-70016567D01*
X108061021Y-70007462D01*
X108063507Y-69998656D01*
X108066158Y-69990157D01*
X108068978Y-69981947D01*
X108071960Y-69974056D01*
X108075111Y-69966452D01*
X108078425Y-69959157D01*
X108081913Y-69952163D01*
X108085559Y-69945469D01*
X108089376Y-69939083D01*
X108093356Y-69932996D01*
X108097508Y-69927207D01*
X108101823Y-69921717D01*
X108106303Y-69916540D01*
X108110955Y-69911662D01*
X108115774Y-69907076D01*
X108120769Y-69902789D01*
X108125947Y-69898798D01*
X108131301Y-69895104D01*
X108136836Y-69891702D01*
X108142547Y-69888600D01*
X108148441Y-69885789D01*
X108154513Y-69883276D01*
X108160758Y-69881056D01*
X108167188Y-69879138D01*
X108173793Y-69877510D01*
X108180576Y-69876183D01*
X108187538Y-69875148D01*
X108194680Y-69874407D01*
X108202000Y-69873963D01*
X108209499Y-69873817D01*
X108214593Y-69873881D01*
G37*
G36*
X108214593Y-73374730D02*
G01*
X108219625Y-73374922D01*
X108224600Y-73375249D01*
X108229504Y-73375699D01*
X108234357Y-73376284D01*
X108239140Y-73376991D01*
X108243861Y-73377831D01*
X108248525Y-73378801D01*
X108253126Y-73379901D01*
X108257664Y-73381129D01*
X108262146Y-73382489D01*
X108266563Y-73383978D01*
X108270920Y-73385594D01*
X108275210Y-73387339D01*
X108279443Y-73389217D01*
X108283612Y-73391217D01*
X108287710Y-73393346D01*
X108291731Y-73395582D01*
X108295682Y-73397926D01*
X108299553Y-73400384D01*
X108303342Y-73402951D01*
X108307057Y-73405631D01*
X108310698Y-73408423D01*
X108314258Y-73411328D01*
X108317744Y-73414335D01*
X108321153Y-73417459D01*
X108324485Y-73420696D01*
X108327739Y-73424037D01*
X108330912Y-73427491D01*
X108334009Y-73431055D01*
X108337035Y-73434737D01*
X108339982Y-73438523D01*
X108342848Y-73442417D01*
X108345628Y-73446408D01*
X108348326Y-73450499D01*
X108350944Y-73454687D01*
X108353476Y-73458973D01*
X108355926Y-73463360D01*
X108358291Y-73467842D01*
X108360579Y-73472427D01*
X108362777Y-73477105D01*
X108364898Y-73481884D01*
X108366929Y-73486762D01*
X108368880Y-73491738D01*
X108370747Y-73496814D01*
X108372531Y-73501990D01*
X108374232Y-73507262D01*
X108375852Y-73512632D01*
X108378807Y-73523646D01*
X108381373Y-73535001D01*
X108383538Y-73546706D01*
X108385315Y-73558756D01*
X108386691Y-73571148D01*
X108387679Y-73583885D01*
X108388267Y-73596964D01*
X108388465Y-73610393D01*
X108388399Y-73618323D01*
X108388195Y-73626331D01*
X108387857Y-73634431D01*
X108387382Y-73642619D01*
X108386770Y-73650894D01*
X108386027Y-73659250D01*
X108385148Y-73667700D01*
X108384130Y-73676226D01*
X108382979Y-73684741D01*
X108381693Y-73693155D01*
X108380269Y-73701450D01*
X108378712Y-73709635D01*
X108377020Y-73717707D01*
X108375185Y-73725672D01*
X108373219Y-73733528D01*
X108371119Y-73741271D01*
X108368905Y-73748859D01*
X108366590Y-73756246D01*
X108364172Y-73763440D01*
X108361657Y-73770441D01*
X108359047Y-73777240D01*
X108356343Y-73783842D01*
X108353532Y-73790247D01*
X108350624Y-73796460D01*
X108349316Y-73799065D01*
X108347955Y-73801580D01*
X108346545Y-73803998D01*
X108345081Y-73806307D01*
X108343564Y-73808529D01*
X108341992Y-73810648D01*
X108340371Y-73812669D01*
X108338696Y-73814592D01*
X108336975Y-73816414D01*
X108335194Y-73818135D01*
X108333363Y-73819763D01*
X108331480Y-73821291D01*
X108329544Y-73822719D01*
X108327557Y-73824051D01*
X108325517Y-73825283D01*
X108323426Y-73826414D01*
X108321295Y-73827453D01*
X108319154Y-73828407D01*
X108317000Y-73829283D01*
X108314825Y-73830064D01*
X108312635Y-73830755D01*
X108310434Y-73831368D01*
X108308213Y-73831893D01*
X108305982Y-73832330D01*
X108303726Y-73832677D01*
X108301468Y-73832945D01*
X108299186Y-73833118D01*
X108296887Y-73833220D01*
X108294575Y-73833225D01*
X108292250Y-73833141D01*
X108289907Y-73832975D01*
X108287552Y-73832720D01*
X108285203Y-73832393D01*
X108282888Y-73831997D01*
X108280611Y-73831528D01*
X108278362Y-73830996D01*
X108276145Y-73830399D01*
X108273972Y-73829729D01*
X108271827Y-73828995D01*
X108269715Y-73828189D01*
X108267634Y-73827319D01*
X108265591Y-73826377D01*
X108263582Y-73825370D01*
X108261607Y-73824294D01*
X108259669Y-73823154D01*
X108257757Y-73821945D01*
X108255885Y-73820665D01*
X108254047Y-73819319D01*
X108252257Y-73817912D01*
X108250548Y-73816450D01*
X108248904Y-73814930D01*
X108247346Y-73813356D01*
X108245849Y-73811724D01*
X108244439Y-73810042D01*
X108243094Y-73808304D01*
X108241825Y-73806510D01*
X108240631Y-73804657D01*
X108239513Y-73802750D01*
X108238464Y-73800793D01*
X108237490Y-73798773D01*
X108236587Y-73796701D01*
X108235763Y-73794570D01*
X108235012Y-73792384D01*
X108234335Y-73790148D01*
X108233757Y-73787864D01*
X108233296Y-73785541D01*
X108232955Y-73783181D01*
X108232735Y-73780785D01*
X108232632Y-73778353D01*
X108232652Y-73775884D01*
X108232793Y-73773378D01*
X108233050Y-73770831D01*
X108233433Y-73768251D01*
X108233936Y-73765637D01*
X108234556Y-73762980D01*
X108235300Y-73760288D01*
X108236154Y-73757562D01*
X108237138Y-73754796D01*
X108238238Y-73751988D01*
X108239462Y-73749154D01*
X108242907Y-73741539D01*
X108246160Y-73733676D01*
X108249215Y-73725577D01*
X108252071Y-73717220D01*
X108254736Y-73708628D01*
X108257197Y-73699781D01*
X108259465Y-73690690D01*
X108261536Y-73681351D01*
X108263382Y-73671965D01*
X108264982Y-73662726D01*
X108266340Y-73653635D01*
X108267447Y-73644694D01*
X108268311Y-73635893D01*
X108268927Y-73627244D01*
X108269295Y-73618746D01*
X108269415Y-73610393D01*
X108269202Y-73597871D01*
X108268933Y-73591977D01*
X108268558Y-73586327D01*
X108268072Y-73580913D01*
X108267475Y-73575748D01*
X108266776Y-73570825D01*
X108265969Y-73566147D01*
X108265051Y-73561708D01*
X108264030Y-73557519D01*
X108262893Y-73553565D01*
X108261658Y-73549860D01*
X108260312Y-73546401D01*
X108258854Y-73543178D01*
X108257292Y-73540200D01*
X108255620Y-73537468D01*
X108253872Y-73534939D01*
X108252069Y-73532570D01*
X108250212Y-73530368D01*
X108248301Y-73528328D01*
X108246343Y-73526451D01*
X108244329Y-73524737D01*
X108242268Y-73523185D01*
X108240147Y-73521801D01*
X108239074Y-73521164D01*
X108237978Y-73520574D01*
X108236877Y-73520022D01*
X108235758Y-73519513D01*
X108234624Y-73519042D01*
X108233477Y-73518620D01*
X108232326Y-73518227D01*
X108231156Y-73517881D01*
X108229974Y-73517573D01*
X108228778Y-73517309D01*
X108227565Y-73517087D01*
X108226343Y-73516898D01*
X108225109Y-73516758D01*
X108223867Y-73516656D01*
X108221326Y-73516575D01*
X108219086Y-73516633D01*
X108216904Y-73516806D01*
X108214775Y-73517088D01*
X108212705Y-73517489D01*
X108210687Y-73518002D01*
X108208725Y-73518626D01*
X108206817Y-73519368D01*
X108204970Y-73520221D01*
X108203173Y-73521186D01*
X108201431Y-73522274D01*
X108199750Y-73523466D01*
X108198116Y-73524779D01*
X108196544Y-73526204D01*
X108195026Y-73527742D01*
X108193564Y-73529391D01*
X108192154Y-73531163D01*
X108190784Y-73533068D01*
X108189442Y-73535160D01*
X108188128Y-73537421D01*
X108186834Y-73539861D01*
X108185565Y-73542470D01*
X108184322Y-73545257D01*
X108183097Y-73548223D01*
X108181906Y-73551363D01*
X108180736Y-73554677D01*
X108179593Y-73558168D01*
X108178472Y-73561833D01*
X108177371Y-73565677D01*
X108176302Y-73569696D01*
X108175254Y-73573890D01*
X108174233Y-73578255D01*
X108173236Y-73582802D01*
X108153523Y-73675046D01*
X108151460Y-73684355D01*
X108149216Y-73693361D01*
X108146781Y-73702065D01*
X108144160Y-73710473D01*
X108141359Y-73718570D01*
X108138372Y-73726374D01*
X108135200Y-73733872D01*
X108131841Y-73741069D01*
X108128302Y-73747966D01*
X108124577Y-73754561D01*
X108120664Y-73760850D01*
X108116566Y-73766842D01*
X108112285Y-73772529D01*
X108107819Y-73777913D01*
X108103171Y-73783002D01*
X108098338Y-73787784D01*
X108093319Y-73792273D01*
X108088122Y-73796467D01*
X108082751Y-73800377D01*
X108077196Y-73803998D01*
X108071465Y-73807322D01*
X108065555Y-73810365D01*
X108059468Y-73813117D01*
X108053204Y-73815574D01*
X108046751Y-73817745D01*
X108040132Y-73819625D01*
X108033327Y-73821217D01*
X108026344Y-73822527D01*
X108019187Y-73823536D01*
X108011850Y-73824259D01*
X108004328Y-73824696D01*
X107996631Y-73824841D01*
X107991539Y-73824774D01*
X107986503Y-73824575D01*
X107981522Y-73824239D01*
X107976606Y-73823778D01*
X107971743Y-73823182D01*
X107966939Y-73822456D01*
X107962189Y-73821593D01*
X107957506Y-73820602D01*
X107952886Y-73819474D01*
X107948312Y-73818216D01*
X107943805Y-73816827D01*
X107939350Y-73815304D01*
X107934957Y-73813646D01*
X107930624Y-73811859D01*
X107926348Y-73809944D01*
X107922132Y-73807884D01*
X107917981Y-73805710D01*
X107913907Y-73803429D01*
X107909912Y-73801034D01*
X107905991Y-73798525D01*
X107902151Y-73795908D01*
X107898387Y-73793179D01*
X107894698Y-73790339D01*
X107891086Y-73787387D01*
X107887555Y-73784328D01*
X107884097Y-73781157D01*
X107880716Y-73777871D01*
X107877411Y-73774479D01*
X107874187Y-73770977D01*
X107871036Y-73767358D01*
X107867968Y-73763632D01*
X107864969Y-73759794D01*
X107862054Y-73755855D01*
X107859225Y-73751825D01*
X107856477Y-73747700D01*
X107853808Y-73743487D01*
X107851227Y-73739178D01*
X107848731Y-73734775D01*
X107846314Y-73730282D01*
X107843981Y-73725699D01*
X107841731Y-73721021D01*
X107839560Y-73716246D01*
X107837481Y-73711388D01*
X107835478Y-73706428D01*
X107833561Y-73701383D01*
X107831728Y-73696242D01*
X107829978Y-73691012D01*
X107828311Y-73685686D01*
X107825262Y-73674788D01*
X107822621Y-73663587D01*
X107820382Y-73652072D01*
X107818556Y-73640254D01*
X107817134Y-73628124D01*
X107816112Y-73615690D01*
X107815506Y-73602950D01*
X107815305Y-73589898D01*
X107815444Y-73579630D01*
X107815865Y-73569324D01*
X107816580Y-73558981D01*
X107817572Y-73548602D01*
X107818841Y-73538189D01*
X107820402Y-73527734D01*
X107822243Y-73517247D01*
X107824370Y-73506718D01*
X107826778Y-73496353D01*
X107829471Y-73486343D01*
X107832447Y-73476693D01*
X107835702Y-73467399D01*
X107839248Y-73458460D01*
X107843064Y-73449883D01*
X107847176Y-73441661D01*
X107849340Y-73437682D01*
X107851569Y-73433791D01*
X107852777Y-73431566D01*
X107854041Y-73429419D01*
X107855368Y-73427354D01*
X107856740Y-73425369D01*
X107858173Y-73423462D01*
X107859662Y-73421637D01*
X107861202Y-73419890D01*
X107862804Y-73418223D01*
X107864455Y-73416638D01*
X107866164Y-73415131D01*
X107867929Y-73413705D01*
X107869750Y-73412356D01*
X107871629Y-73411092D01*
X107873555Y-73409909D01*
X107875541Y-73408803D01*
X107877585Y-73407777D01*
X107879657Y-73406828D01*
X107881742Y-73405954D01*
X107883834Y-73405153D01*
X107885938Y-73404424D01*
X107888051Y-73403772D01*
X107890167Y-73403195D01*
X107892301Y-73402689D01*
X107894437Y-73402256D01*
X107896584Y-73401901D01*
X107898742Y-73401614D01*
X107900909Y-73401406D01*
X107903086Y-73401271D01*
X107905269Y-73401213D01*
X107907466Y-73401223D01*
X107909666Y-73401309D01*
X107911880Y-73401468D01*
X107914081Y-73401700D01*
X107916249Y-73402004D01*
X107918383Y-73402378D01*
X107920479Y-73402825D01*
X107922541Y-73403344D01*
X107924575Y-73403931D01*
X107926571Y-73404583D01*
X107928535Y-73405313D01*
X107930465Y-73406109D01*
X107932362Y-73406986D01*
X107934225Y-73407922D01*
X107936048Y-73408936D01*
X107937843Y-73410015D01*
X107939606Y-73411169D01*
X107941332Y-73412393D01*
X107943020Y-73413693D01*
X107944663Y-73415047D01*
X107946230Y-73416461D01*
X107947730Y-73417929D01*
X107949156Y-73419455D01*
X107950512Y-73421034D01*
X107951799Y-73422669D01*
X107953015Y-73424361D01*
X107954158Y-73426106D01*
X107955232Y-73427910D01*
X107956232Y-73429766D01*
X107957167Y-73431679D01*
X107958026Y-73433644D01*
X107958815Y-73435668D01*
X107959535Y-73437750D01*
X107960183Y-73439882D01*
X107960760Y-73442073D01*
X107961249Y-73444313D01*
X107961618Y-73446609D01*
X107961873Y-73448960D01*
X107962016Y-73451364D01*
X107962046Y-73453811D01*
X107961963Y-73456320D01*
X107961763Y-73458875D01*
X107961452Y-73461485D01*
X107961026Y-73464147D01*
X107960484Y-73466865D01*
X107959829Y-73469630D01*
X107959060Y-73472450D01*
X107958180Y-73475321D01*
X107957182Y-73478246D01*
X107956073Y-73481225D01*
X107954850Y-73484252D01*
X107952368Y-73490059D01*
X107950042Y-73496053D01*
X107947880Y-73502228D01*
X107945883Y-73508594D01*
X107944039Y-73515141D01*
X107942355Y-73521871D01*
X107940837Y-73528788D01*
X107939474Y-73535892D01*
X107938273Y-73543054D01*
X107937232Y-73550155D01*
X107936354Y-73557196D01*
X107935628Y-73564173D01*
X107935071Y-73571096D01*
X107934675Y-73577947D01*
X107934427Y-73584740D01*
X107934352Y-73591474D01*
X107934454Y-73598631D01*
X107934769Y-73605519D01*
X107935293Y-73612134D01*
X107936022Y-73618477D01*
X107936970Y-73624546D01*
X107938120Y-73630351D01*
X107939479Y-73635885D01*
X107941050Y-73641142D01*
X107941914Y-73643665D01*
X107942820Y-73646111D01*
X107943775Y-73648484D01*
X107944771Y-73650776D01*
X107945816Y-73652990D01*
X107946907Y-73655129D01*
X107948048Y-73657191D01*
X107949231Y-73659178D01*
X107950459Y-73661083D01*
X107951735Y-73662915D01*
X107953061Y-73664669D01*
X107954429Y-73666346D01*
X107955844Y-73667946D01*
X107957307Y-73669469D01*
X107958812Y-73670913D01*
X107960367Y-73672286D01*
X107961958Y-73673572D01*
X107963585Y-73674777D01*
X107965237Y-73675901D01*
X107966923Y-73676936D01*
X107968638Y-73677897D01*
X107970382Y-73678768D01*
X107972162Y-73679557D01*
X107973968Y-73680266D01*
X107975808Y-73680894D01*
X107977672Y-73681427D01*
X107979577Y-73681889D01*
X107981507Y-73682266D01*
X107983465Y-73682555D01*
X107985462Y-73682763D01*
X107987480Y-73682884D01*
X107989539Y-73682928D01*
X107991585Y-73682874D01*
X107993594Y-73682710D01*
X107995567Y-73682442D01*
X107997496Y-73682067D01*
X107999383Y-73681578D01*
X108001234Y-73680988D01*
X108003044Y-73680289D01*
X108004813Y-73679475D01*
X108006539Y-73678561D01*
X108008227Y-73677537D01*
X108009880Y-73676404D01*
X108011489Y-73675165D01*
X108013057Y-73673821D01*
X108014589Y-73672366D01*
X108016077Y-73670798D01*
X108017526Y-73669131D01*
X108018938Y-73667311D01*
X108020329Y-73665316D01*
X108021685Y-73663139D01*
X108023020Y-73660779D01*
X108024324Y-73658232D01*
X108025598Y-73655510D01*
X108026852Y-73652603D01*
X108028070Y-73649517D01*
X108029264Y-73646249D01*
X108030432Y-73642800D01*
X108031567Y-73639167D01*
X108032681Y-73635355D01*
X108033765Y-73631354D01*
X108034815Y-73627177D01*
X108035841Y-73622819D01*
X108036840Y-73618279D01*
X108056551Y-73526825D01*
X108058705Y-73517417D01*
X108061021Y-73508310D01*
X108063507Y-73499505D01*
X108066158Y-73491005D01*
X108068978Y-73482803D01*
X108071960Y-73474904D01*
X108075111Y-73467306D01*
X108078425Y-73460006D01*
X108081913Y-73453014D01*
X108085559Y-73446321D01*
X108089376Y-73439929D01*
X108093356Y-73433840D01*
X108097508Y-73428057D01*
X108101823Y-73422570D01*
X108106303Y-73417391D01*
X108110955Y-73412508D01*
X108115774Y-73407924D01*
X108120769Y-73403638D01*
X108125947Y-73399642D01*
X108131301Y-73395949D01*
X108136836Y-73392551D01*
X108142547Y-73389444D01*
X108148441Y-73386635D01*
X108154513Y-73384127D01*
X108160758Y-73381907D01*
X108167188Y-73379986D01*
X108173793Y-73378358D01*
X108180576Y-73377028D01*
X108187538Y-73375996D01*
X108194680Y-73375256D01*
X108202000Y-73374813D01*
X108209499Y-73374662D01*
X108214593Y-73374730D01*
G37*
D13*
X151803884Y-107622419D02*
X151803884Y-106622419D01*
X151803884Y-106622419D02*
X152184836Y-106622419D01*
X152184836Y-106622419D02*
X152280074Y-106670038D01*
X152280074Y-106670038D02*
X152327693Y-106717657D01*
X152327693Y-106717657D02*
X152375312Y-106812895D01*
X152375312Y-106812895D02*
X152375312Y-106955752D01*
X152375312Y-106955752D02*
X152327693Y-107050990D01*
X152327693Y-107050990D02*
X152280074Y-107098609D01*
X152280074Y-107098609D02*
X152184836Y-107146228D01*
X152184836Y-107146228D02*
X151803884Y-107146228D01*
X153375312Y-107527180D02*
X153327693Y-107574800D01*
X153327693Y-107574800D02*
X153184836Y-107622419D01*
X153184836Y-107622419D02*
X153089598Y-107622419D01*
X153089598Y-107622419D02*
X152946741Y-107574800D01*
X152946741Y-107574800D02*
X152851503Y-107479561D01*
X152851503Y-107479561D02*
X152803884Y-107384323D01*
X152803884Y-107384323D02*
X152756265Y-107193847D01*
X152756265Y-107193847D02*
X152756265Y-107050990D01*
X152756265Y-107050990D02*
X152803884Y-106860514D01*
X152803884Y-106860514D02*
X152851503Y-106765276D01*
X152851503Y-106765276D02*
X152946741Y-106670038D01*
X152946741Y-106670038D02*
X153089598Y-106622419D01*
X153089598Y-106622419D02*
X153184836Y-106622419D01*
X153184836Y-106622419D02*
X153327693Y-106670038D01*
X153327693Y-106670038D02*
X153375312Y-106717657D01*
X154137217Y-107098609D02*
X154280074Y-107146228D01*
X154280074Y-107146228D02*
X154327693Y-107193847D01*
X154327693Y-107193847D02*
X154375312Y-107289085D01*
X154375312Y-107289085D02*
X154375312Y-107431942D01*
X154375312Y-107431942D02*
X154327693Y-107527180D01*
X154327693Y-107527180D02*
X154280074Y-107574800D01*
X154280074Y-107574800D02*
X154184836Y-107622419D01*
X154184836Y-107622419D02*
X153803884Y-107622419D01*
X153803884Y-107622419D02*
X153803884Y-106622419D01*
X153803884Y-106622419D02*
X154137217Y-106622419D01*
X154137217Y-106622419D02*
X154232455Y-106670038D01*
X154232455Y-106670038D02*
X154280074Y-106717657D01*
X154280074Y-106717657D02*
X154327693Y-106812895D01*
X154327693Y-106812895D02*
X154327693Y-106908133D01*
X154327693Y-106908133D02*
X154280074Y-107003371D01*
X154280074Y-107003371D02*
X154232455Y-107050990D01*
X154232455Y-107050990D02*
X154137217Y-107098609D01*
X154137217Y-107098609D02*
X153803884Y-107098609D01*
X155470551Y-106955752D02*
X155708646Y-107622419D01*
X155708646Y-107622419D02*
X155946741Y-106955752D01*
X156708646Y-107574800D02*
X156613408Y-107622419D01*
X156613408Y-107622419D02*
X156422932Y-107622419D01*
X156422932Y-107622419D02*
X156327694Y-107574800D01*
X156327694Y-107574800D02*
X156280075Y-107479561D01*
X156280075Y-107479561D02*
X156280075Y-107098609D01*
X156280075Y-107098609D02*
X156327694Y-107003371D01*
X156327694Y-107003371D02*
X156422932Y-106955752D01*
X156422932Y-106955752D02*
X156613408Y-106955752D01*
X156613408Y-106955752D02*
X156708646Y-107003371D01*
X156708646Y-107003371D02*
X156756265Y-107098609D01*
X156756265Y-107098609D02*
X156756265Y-107193847D01*
X156756265Y-107193847D02*
X156280075Y-107289085D01*
X157184837Y-107622419D02*
X157184837Y-106955752D01*
X157184837Y-107146228D02*
X157232456Y-107050990D01*
X157232456Y-107050990D02*
X157280075Y-107003371D01*
X157280075Y-107003371D02*
X157375313Y-106955752D01*
X157375313Y-106955752D02*
X157470551Y-106955752D01*
X157803885Y-107527180D02*
X157851504Y-107574800D01*
X157851504Y-107574800D02*
X157803885Y-107622419D01*
X157803885Y-107622419D02*
X157756266Y-107574800D01*
X157756266Y-107574800D02*
X157803885Y-107527180D01*
X157803885Y-107527180D02*
X157803885Y-107622419D01*
X158946742Y-106955752D02*
X159184837Y-107622419D01*
X159184837Y-107622419D02*
X159422932Y-106955752D01*
X159756266Y-106717657D02*
X159803885Y-106670038D01*
X159803885Y-106670038D02*
X159899123Y-106622419D01*
X159899123Y-106622419D02*
X160137218Y-106622419D01*
X160137218Y-106622419D02*
X160232456Y-106670038D01*
X160232456Y-106670038D02*
X160280075Y-106717657D01*
X160280075Y-106717657D02*
X160327694Y-106812895D01*
X160327694Y-106812895D02*
X160327694Y-106908133D01*
X160327694Y-106908133D02*
X160280075Y-107050990D01*
X160280075Y-107050990D02*
X159708647Y-107622419D01*
X159708647Y-107622419D02*
X160327694Y-107622419D01*
X160756266Y-107527180D02*
X160803885Y-107574800D01*
X160803885Y-107574800D02*
X160756266Y-107622419D01*
X160756266Y-107622419D02*
X160708647Y-107574800D01*
X160708647Y-107574800D02*
X160756266Y-107527180D01*
X160756266Y-107527180D02*
X160756266Y-107622419D01*
X161756265Y-107622419D02*
X161184837Y-107622419D01*
X161470551Y-107622419D02*
X161470551Y-106622419D01*
X161470551Y-106622419D02*
X161375313Y-106765276D01*
X161375313Y-106765276D02*
X161280075Y-106860514D01*
X161280075Y-106860514D02*
X161184837Y-106908133D01*
D14*
X134261905Y-71494819D02*
X134261905Y-70494819D01*
X134261905Y-70494819D02*
X134500000Y-70494819D01*
X134500000Y-70494819D02*
X134642857Y-70542438D01*
X134642857Y-70542438D02*
X134738095Y-70637676D01*
X134738095Y-70637676D02*
X134785714Y-70732914D01*
X134785714Y-70732914D02*
X134833333Y-70923390D01*
X134833333Y-70923390D02*
X134833333Y-71066247D01*
X134833333Y-71066247D02*
X134785714Y-71256723D01*
X134785714Y-71256723D02*
X134738095Y-71351961D01*
X134738095Y-71351961D02*
X134642857Y-71447200D01*
X134642857Y-71447200D02*
X134500000Y-71494819D01*
X134500000Y-71494819D02*
X134261905Y-71494819D01*
X135690476Y-70828152D02*
X135690476Y-71494819D01*
X135452381Y-70447200D02*
X135214286Y-71161485D01*
X135214286Y-71161485D02*
X135833333Y-71161485D01*
X144261905Y-81494819D02*
X144261905Y-80494819D01*
X144261905Y-80494819D02*
X144500000Y-80494819D01*
X144500000Y-80494819D02*
X144642857Y-80542438D01*
X144642857Y-80542438D02*
X144738095Y-80637676D01*
X144738095Y-80637676D02*
X144785714Y-80732914D01*
X144785714Y-80732914D02*
X144833333Y-80923390D01*
X144833333Y-80923390D02*
X144833333Y-81066247D01*
X144833333Y-81066247D02*
X144785714Y-81256723D01*
X144785714Y-81256723D02*
X144738095Y-81351961D01*
X144738095Y-81351961D02*
X144642857Y-81447200D01*
X144642857Y-81447200D02*
X144500000Y-81494819D01*
X144500000Y-81494819D02*
X144261905Y-81494819D01*
X145166667Y-80494819D02*
X145833333Y-80494819D01*
X145833333Y-80494819D02*
X145404762Y-81494819D01*
X143083333Y-93324819D02*
X142750000Y-92848628D01*
X142511905Y-93324819D02*
X142511905Y-92324819D01*
X142511905Y-92324819D02*
X142892857Y-92324819D01*
X142892857Y-92324819D02*
X142988095Y-92372438D01*
X142988095Y-92372438D02*
X143035714Y-92420057D01*
X143035714Y-92420057D02*
X143083333Y-92515295D01*
X143083333Y-92515295D02*
X143083333Y-92658152D01*
X143083333Y-92658152D02*
X143035714Y-92753390D01*
X143035714Y-92753390D02*
X142988095Y-92801009D01*
X142988095Y-92801009D02*
X142892857Y-92848628D01*
X142892857Y-92848628D02*
X142511905Y-92848628D01*
X143416667Y-92324819D02*
X144083333Y-92324819D01*
X144083333Y-92324819D02*
X143654762Y-93324819D01*
X124261905Y-81494819D02*
X124261905Y-80494819D01*
X124261905Y-80494819D02*
X124500000Y-80494819D01*
X124500000Y-80494819D02*
X124642857Y-80542438D01*
X124642857Y-80542438D02*
X124738095Y-80637676D01*
X124738095Y-80637676D02*
X124785714Y-80732914D01*
X124785714Y-80732914D02*
X124833333Y-80923390D01*
X124833333Y-80923390D02*
X124833333Y-81066247D01*
X124833333Y-81066247D02*
X124785714Y-81256723D01*
X124785714Y-81256723D02*
X124738095Y-81351961D01*
X124738095Y-81351961D02*
X124642857Y-81447200D01*
X124642857Y-81447200D02*
X124500000Y-81494819D01*
X124500000Y-81494819D02*
X124261905Y-81494819D01*
X125690476Y-80494819D02*
X125500000Y-80494819D01*
X125500000Y-80494819D02*
X125404762Y-80542438D01*
X125404762Y-80542438D02*
X125357143Y-80590057D01*
X125357143Y-80590057D02*
X125261905Y-80732914D01*
X125261905Y-80732914D02*
X125214286Y-80923390D01*
X125214286Y-80923390D02*
X125214286Y-81304342D01*
X125214286Y-81304342D02*
X125261905Y-81399580D01*
X125261905Y-81399580D02*
X125309524Y-81447200D01*
X125309524Y-81447200D02*
X125404762Y-81494819D01*
X125404762Y-81494819D02*
X125595238Y-81494819D01*
X125595238Y-81494819D02*
X125690476Y-81447200D01*
X125690476Y-81447200D02*
X125738095Y-81399580D01*
X125738095Y-81399580D02*
X125785714Y-81304342D01*
X125785714Y-81304342D02*
X125785714Y-81066247D01*
X125785714Y-81066247D02*
X125738095Y-80971009D01*
X125738095Y-80971009D02*
X125690476Y-80923390D01*
X125690476Y-80923390D02*
X125595238Y-80875771D01*
X125595238Y-80875771D02*
X125404762Y-80875771D01*
X125404762Y-80875771D02*
X125309524Y-80923390D01*
X125309524Y-80923390D02*
X125261905Y-80971009D01*
X125261905Y-80971009D02*
X125214286Y-81066247D01*
X150954819Y-59166666D02*
X150478628Y-59499999D01*
X150954819Y-59738094D02*
X149954819Y-59738094D01*
X149954819Y-59738094D02*
X149954819Y-59357142D01*
X149954819Y-59357142D02*
X150002438Y-59261904D01*
X150002438Y-59261904D02*
X150050057Y-59214285D01*
X150050057Y-59214285D02*
X150145295Y-59166666D01*
X150145295Y-59166666D02*
X150288152Y-59166666D01*
X150288152Y-59166666D02*
X150383390Y-59214285D01*
X150383390Y-59214285D02*
X150431009Y-59261904D01*
X150431009Y-59261904D02*
X150478628Y-59357142D01*
X150478628Y-59357142D02*
X150478628Y-59738094D01*
X150050057Y-58785713D02*
X150002438Y-58738094D01*
X150002438Y-58738094D02*
X149954819Y-58642856D01*
X149954819Y-58642856D02*
X149954819Y-58404761D01*
X149954819Y-58404761D02*
X150002438Y-58309523D01*
X150002438Y-58309523D02*
X150050057Y-58261904D01*
X150050057Y-58261904D02*
X150145295Y-58214285D01*
X150145295Y-58214285D02*
X150240533Y-58214285D01*
X150240533Y-58214285D02*
X150383390Y-58261904D01*
X150383390Y-58261904D02*
X150954819Y-58833332D01*
X150954819Y-58833332D02*
X150954819Y-58214285D01*
X117584819Y-63916666D02*
X117108628Y-64249999D01*
X117584819Y-64488094D02*
X116584819Y-64488094D01*
X116584819Y-64488094D02*
X116584819Y-64107142D01*
X116584819Y-64107142D02*
X116632438Y-64011904D01*
X116632438Y-64011904D02*
X116680057Y-63964285D01*
X116680057Y-63964285D02*
X116775295Y-63916666D01*
X116775295Y-63916666D02*
X116918152Y-63916666D01*
X116918152Y-63916666D02*
X117013390Y-63964285D01*
X117013390Y-63964285D02*
X117061009Y-64011904D01*
X117061009Y-64011904D02*
X117108628Y-64107142D01*
X117108628Y-64107142D02*
X117108628Y-64488094D01*
X116584819Y-63583332D02*
X116584819Y-62964285D01*
X116584819Y-62964285D02*
X116965771Y-63297618D01*
X116965771Y-63297618D02*
X116965771Y-63154761D01*
X116965771Y-63154761D02*
X117013390Y-63059523D01*
X117013390Y-63059523D02*
X117061009Y-63011904D01*
X117061009Y-63011904D02*
X117156247Y-62964285D01*
X117156247Y-62964285D02*
X117394342Y-62964285D01*
X117394342Y-62964285D02*
X117489580Y-63011904D01*
X117489580Y-63011904D02*
X117537200Y-63059523D01*
X117537200Y-63059523D02*
X117584819Y-63154761D01*
X117584819Y-63154761D02*
X117584819Y-63440475D01*
X117584819Y-63440475D02*
X117537200Y-63535713D01*
X117537200Y-63535713D02*
X117489580Y-63583332D01*
X135083333Y-83574819D02*
X134750000Y-83098628D01*
X134511905Y-83574819D02*
X134511905Y-82574819D01*
X134511905Y-82574819D02*
X134892857Y-82574819D01*
X134892857Y-82574819D02*
X134988095Y-82622438D01*
X134988095Y-82622438D02*
X135035714Y-82670057D01*
X135035714Y-82670057D02*
X135083333Y-82765295D01*
X135083333Y-82765295D02*
X135083333Y-82908152D01*
X135083333Y-82908152D02*
X135035714Y-83003390D01*
X135035714Y-83003390D02*
X134988095Y-83051009D01*
X134988095Y-83051009D02*
X134892857Y-83098628D01*
X134892857Y-83098628D02*
X134511905Y-83098628D01*
X135988095Y-82574819D02*
X135511905Y-82574819D01*
X135511905Y-82574819D02*
X135464286Y-83051009D01*
X135464286Y-83051009D02*
X135511905Y-83003390D01*
X135511905Y-83003390D02*
X135607143Y-82955771D01*
X135607143Y-82955771D02*
X135845238Y-82955771D01*
X135845238Y-82955771D02*
X135940476Y-83003390D01*
X135940476Y-83003390D02*
X135988095Y-83051009D01*
X135988095Y-83051009D02*
X136035714Y-83146247D01*
X136035714Y-83146247D02*
X136035714Y-83384342D01*
X136035714Y-83384342D02*
X135988095Y-83479580D01*
X135988095Y-83479580D02*
X135940476Y-83527200D01*
X135940476Y-83527200D02*
X135845238Y-83574819D01*
X135845238Y-83574819D02*
X135607143Y-83574819D01*
X135607143Y-83574819D02*
X135511905Y-83527200D01*
X135511905Y-83527200D02*
X135464286Y-83479580D01*
X117834819Y-74666666D02*
X117358628Y-74999999D01*
X117834819Y-75238094D02*
X116834819Y-75238094D01*
X116834819Y-75238094D02*
X116834819Y-74857142D01*
X116834819Y-74857142D02*
X116882438Y-74761904D01*
X116882438Y-74761904D02*
X116930057Y-74714285D01*
X116930057Y-74714285D02*
X117025295Y-74666666D01*
X117025295Y-74666666D02*
X117168152Y-74666666D01*
X117168152Y-74666666D02*
X117263390Y-74714285D01*
X117263390Y-74714285D02*
X117311009Y-74761904D01*
X117311009Y-74761904D02*
X117358628Y-74857142D01*
X117358628Y-74857142D02*
X117358628Y-75238094D01*
X116834819Y-73809523D02*
X116834819Y-73999999D01*
X116834819Y-73999999D02*
X116882438Y-74095237D01*
X116882438Y-74095237D02*
X116930057Y-74142856D01*
X116930057Y-74142856D02*
X117072914Y-74238094D01*
X117072914Y-74238094D02*
X117263390Y-74285713D01*
X117263390Y-74285713D02*
X117644342Y-74285713D01*
X117644342Y-74285713D02*
X117739580Y-74238094D01*
X117739580Y-74238094D02*
X117787200Y-74190475D01*
X117787200Y-74190475D02*
X117834819Y-74095237D01*
X117834819Y-74095237D02*
X117834819Y-73904761D01*
X117834819Y-73904761D02*
X117787200Y-73809523D01*
X117787200Y-73809523D02*
X117739580Y-73761904D01*
X117739580Y-73761904D02*
X117644342Y-73714285D01*
X117644342Y-73714285D02*
X117406247Y-73714285D01*
X117406247Y-73714285D02*
X117311009Y-73761904D01*
X117311009Y-73761904D02*
X117263390Y-73809523D01*
X117263390Y-73809523D02*
X117215771Y-73904761D01*
X117215771Y-73904761D02*
X117215771Y-74095237D01*
X117215771Y-74095237D02*
X117263390Y-74190475D01*
X117263390Y-74190475D02*
X117311009Y-74238094D01*
X117311009Y-74238094D02*
X117406247Y-74285713D01*
X138084819Y-68916666D02*
X137608628Y-69249999D01*
X138084819Y-69488094D02*
X137084819Y-69488094D01*
X137084819Y-69488094D02*
X137084819Y-69107142D01*
X137084819Y-69107142D02*
X137132438Y-69011904D01*
X137132438Y-69011904D02*
X137180057Y-68964285D01*
X137180057Y-68964285D02*
X137275295Y-68916666D01*
X137275295Y-68916666D02*
X137418152Y-68916666D01*
X137418152Y-68916666D02*
X137513390Y-68964285D01*
X137513390Y-68964285D02*
X137561009Y-69011904D01*
X137561009Y-69011904D02*
X137608628Y-69107142D01*
X137608628Y-69107142D02*
X137608628Y-69488094D01*
X138084819Y-67964285D02*
X138084819Y-68535713D01*
X138084819Y-68249999D02*
X137084819Y-68249999D01*
X137084819Y-68249999D02*
X137227676Y-68345237D01*
X137227676Y-68345237D02*
X137322914Y-68440475D01*
X137322914Y-68440475D02*
X137370533Y-68535713D01*
X124261905Y-61494819D02*
X124261905Y-60494819D01*
X124261905Y-60494819D02*
X124500000Y-60494819D01*
X124500000Y-60494819D02*
X124642857Y-60542438D01*
X124642857Y-60542438D02*
X124738095Y-60637676D01*
X124738095Y-60637676D02*
X124785714Y-60732914D01*
X124785714Y-60732914D02*
X124833333Y-60923390D01*
X124833333Y-60923390D02*
X124833333Y-61066247D01*
X124833333Y-61066247D02*
X124785714Y-61256723D01*
X124785714Y-61256723D02*
X124738095Y-61351961D01*
X124738095Y-61351961D02*
X124642857Y-61447200D01*
X124642857Y-61447200D02*
X124500000Y-61494819D01*
X124500000Y-61494819D02*
X124261905Y-61494819D01*
X125785714Y-61494819D02*
X125214286Y-61494819D01*
X125500000Y-61494819D02*
X125500000Y-60494819D01*
X125500000Y-60494819D02*
X125404762Y-60637676D01*
X125404762Y-60637676D02*
X125309524Y-60732914D01*
X125309524Y-60732914D02*
X125214286Y-60780533D01*
X128334819Y-69166666D02*
X127858628Y-69499999D01*
X128334819Y-69738094D02*
X127334819Y-69738094D01*
X127334819Y-69738094D02*
X127334819Y-69357142D01*
X127334819Y-69357142D02*
X127382438Y-69261904D01*
X127382438Y-69261904D02*
X127430057Y-69214285D01*
X127430057Y-69214285D02*
X127525295Y-69166666D01*
X127525295Y-69166666D02*
X127668152Y-69166666D01*
X127668152Y-69166666D02*
X127763390Y-69214285D01*
X127763390Y-69214285D02*
X127811009Y-69261904D01*
X127811009Y-69261904D02*
X127858628Y-69357142D01*
X127858628Y-69357142D02*
X127858628Y-69738094D01*
X127668152Y-68309523D02*
X128334819Y-68309523D01*
X127287200Y-68547618D02*
X128001485Y-68785713D01*
X128001485Y-68785713D02*
X128001485Y-68166666D01*
X124261905Y-71494819D02*
X124261905Y-70494819D01*
X124261905Y-70494819D02*
X124500000Y-70494819D01*
X124500000Y-70494819D02*
X124642857Y-70542438D01*
X124642857Y-70542438D02*
X124738095Y-70637676D01*
X124738095Y-70637676D02*
X124785714Y-70732914D01*
X124785714Y-70732914D02*
X124833333Y-70923390D01*
X124833333Y-70923390D02*
X124833333Y-71066247D01*
X124833333Y-71066247D02*
X124785714Y-71256723D01*
X124785714Y-71256723D02*
X124738095Y-71351961D01*
X124738095Y-71351961D02*
X124642857Y-71447200D01*
X124642857Y-71447200D02*
X124500000Y-71494819D01*
X124500000Y-71494819D02*
X124261905Y-71494819D01*
X125166667Y-70494819D02*
X125785714Y-70494819D01*
X125785714Y-70494819D02*
X125452381Y-70875771D01*
X125452381Y-70875771D02*
X125595238Y-70875771D01*
X125595238Y-70875771D02*
X125690476Y-70923390D01*
X125690476Y-70923390D02*
X125738095Y-70971009D01*
X125738095Y-70971009D02*
X125785714Y-71066247D01*
X125785714Y-71066247D02*
X125785714Y-71304342D01*
X125785714Y-71304342D02*
X125738095Y-71399580D01*
X125738095Y-71399580D02*
X125690476Y-71447200D01*
X125690476Y-71447200D02*
X125595238Y-71494819D01*
X125595238Y-71494819D02*
X125309524Y-71494819D01*
X125309524Y-71494819D02*
X125214286Y-71447200D01*
X125214286Y-71447200D02*
X125166667Y-71399580D01*
X116083333Y-47074819D02*
X115750000Y-46598628D01*
X115511905Y-47074819D02*
X115511905Y-46074819D01*
X115511905Y-46074819D02*
X115892857Y-46074819D01*
X115892857Y-46074819D02*
X115988095Y-46122438D01*
X115988095Y-46122438D02*
X116035714Y-46170057D01*
X116035714Y-46170057D02*
X116083333Y-46265295D01*
X116083333Y-46265295D02*
X116083333Y-46408152D01*
X116083333Y-46408152D02*
X116035714Y-46503390D01*
X116035714Y-46503390D02*
X115988095Y-46551009D01*
X115988095Y-46551009D02*
X115892857Y-46598628D01*
X115892857Y-46598628D02*
X115511905Y-46598628D01*
X116654762Y-46503390D02*
X116559524Y-46455771D01*
X116559524Y-46455771D02*
X116511905Y-46408152D01*
X116511905Y-46408152D02*
X116464286Y-46312914D01*
X116464286Y-46312914D02*
X116464286Y-46265295D01*
X116464286Y-46265295D02*
X116511905Y-46170057D01*
X116511905Y-46170057D02*
X116559524Y-46122438D01*
X116559524Y-46122438D02*
X116654762Y-46074819D01*
X116654762Y-46074819D02*
X116845238Y-46074819D01*
X116845238Y-46074819D02*
X116940476Y-46122438D01*
X116940476Y-46122438D02*
X116988095Y-46170057D01*
X116988095Y-46170057D02*
X117035714Y-46265295D01*
X117035714Y-46265295D02*
X117035714Y-46312914D01*
X117035714Y-46312914D02*
X116988095Y-46408152D01*
X116988095Y-46408152D02*
X116940476Y-46455771D01*
X116940476Y-46455771D02*
X116845238Y-46503390D01*
X116845238Y-46503390D02*
X116654762Y-46503390D01*
X116654762Y-46503390D02*
X116559524Y-46551009D01*
X116559524Y-46551009D02*
X116511905Y-46598628D01*
X116511905Y-46598628D02*
X116464286Y-46693866D01*
X116464286Y-46693866D02*
X116464286Y-46884342D01*
X116464286Y-46884342D02*
X116511905Y-46979580D01*
X116511905Y-46979580D02*
X116559524Y-47027200D01*
X116559524Y-47027200D02*
X116654762Y-47074819D01*
X116654762Y-47074819D02*
X116845238Y-47074819D01*
X116845238Y-47074819D02*
X116940476Y-47027200D01*
X116940476Y-47027200D02*
X116988095Y-46979580D01*
X116988095Y-46979580D02*
X117035714Y-46884342D01*
X117035714Y-46884342D02*
X117035714Y-46693866D01*
X117035714Y-46693866D02*
X116988095Y-46598628D01*
X116988095Y-46598628D02*
X116940476Y-46551009D01*
X116940476Y-46551009D02*
X116845238Y-46503390D01*
X144261905Y-71494819D02*
X144261905Y-70494819D01*
X144261905Y-70494819D02*
X144500000Y-70494819D01*
X144500000Y-70494819D02*
X144642857Y-70542438D01*
X144642857Y-70542438D02*
X144738095Y-70637676D01*
X144738095Y-70637676D02*
X144785714Y-70732914D01*
X144785714Y-70732914D02*
X144833333Y-70923390D01*
X144833333Y-70923390D02*
X144833333Y-71066247D01*
X144833333Y-71066247D02*
X144785714Y-71256723D01*
X144785714Y-71256723D02*
X144738095Y-71351961D01*
X144738095Y-71351961D02*
X144642857Y-71447200D01*
X144642857Y-71447200D02*
X144500000Y-71494819D01*
X144500000Y-71494819D02*
X144261905Y-71494819D01*
X145738095Y-70494819D02*
X145261905Y-70494819D01*
X145261905Y-70494819D02*
X145214286Y-70971009D01*
X145214286Y-70971009D02*
X145261905Y-70923390D01*
X145261905Y-70923390D02*
X145357143Y-70875771D01*
X145357143Y-70875771D02*
X145595238Y-70875771D01*
X145595238Y-70875771D02*
X145690476Y-70923390D01*
X145690476Y-70923390D02*
X145738095Y-70971009D01*
X145738095Y-70971009D02*
X145785714Y-71066247D01*
X145785714Y-71066247D02*
X145785714Y-71304342D01*
X145785714Y-71304342D02*
X145738095Y-71399580D01*
X145738095Y-71399580D02*
X145690476Y-71447200D01*
X145690476Y-71447200D02*
X145595238Y-71494819D01*
X145595238Y-71494819D02*
X145357143Y-71494819D01*
X145357143Y-71494819D02*
X145261905Y-71447200D01*
X145261905Y-71447200D02*
X145214286Y-71399580D01*
X144261905Y-61494819D02*
X144261905Y-60494819D01*
X144261905Y-60494819D02*
X144500000Y-60494819D01*
X144500000Y-60494819D02*
X144642857Y-60542438D01*
X144642857Y-60542438D02*
X144738095Y-60637676D01*
X144738095Y-60637676D02*
X144785714Y-60732914D01*
X144785714Y-60732914D02*
X144833333Y-60923390D01*
X144833333Y-60923390D02*
X144833333Y-61066247D01*
X144833333Y-61066247D02*
X144785714Y-61256723D01*
X144785714Y-61256723D02*
X144738095Y-61351961D01*
X144738095Y-61351961D02*
X144642857Y-61447200D01*
X144642857Y-61447200D02*
X144500000Y-61494819D01*
X144500000Y-61494819D02*
X144261905Y-61494819D01*
X145214286Y-60590057D02*
X145261905Y-60542438D01*
X145261905Y-60542438D02*
X145357143Y-60494819D01*
X145357143Y-60494819D02*
X145595238Y-60494819D01*
X145595238Y-60494819D02*
X145690476Y-60542438D01*
X145690476Y-60542438D02*
X145738095Y-60590057D01*
X145738095Y-60590057D02*
X145785714Y-60685295D01*
X145785714Y-60685295D02*
X145785714Y-60780533D01*
X145785714Y-60780533D02*
X145738095Y-60923390D01*
X145738095Y-60923390D02*
X145166667Y-61494819D01*
X145166667Y-61494819D02*
X145785714Y-61494819D01*
%TO.C,D4*%
D15*
X132440000Y-73455000D02*
X132440000Y-76545000D01*
X132440000Y-73455170D02*
G75*
G02*
X137990000Y-75000000I2560000J-1544830D01*
G01*
X137990000Y-75000000D02*
G75*
G02*
X132440000Y-76544830I-2990000J0D01*
G01*
X137500000Y-75000000D02*
G75*
G02*
X132500000Y-75000000I-2500000J0D01*
G01*
X132500000Y-75000000D02*
G75*
G02*
X137500000Y-75000000I2500000J0D01*
G01*
%TO.C,D7*%
X142440000Y-83455000D02*
X142440000Y-86545000D01*
X142440000Y-83455170D02*
G75*
G02*
X147990000Y-85000000I2560000J-1544830D01*
G01*
X147990000Y-85000000D02*
G75*
G02*
X142440000Y-86544830I-2990000J0D01*
G01*
X147500000Y-85000000D02*
G75*
G02*
X142500000Y-85000000I-2500000J0D01*
G01*
X142500000Y-85000000D02*
G75*
G02*
X147500000Y-85000000I2500000J0D01*
G01*
%TO.C,R7*%
X139980000Y-89130000D02*
X139980000Y-89460000D01*
X139980000Y-91870000D02*
X139980000Y-91540000D01*
X146520000Y-89130000D02*
X139980000Y-89130000D01*
X146520000Y-89460000D02*
X146520000Y-89130000D01*
X146520000Y-91540000D02*
X146520000Y-91870000D01*
X146520000Y-91870000D02*
X139980000Y-91870000D01*
%TO.C,D6*%
X122440000Y-83455000D02*
X122440000Y-86545000D01*
X122440000Y-83455170D02*
G75*
G02*
X127990000Y-85000000I2560000J-1544830D01*
G01*
X127990000Y-85000000D02*
G75*
G02*
X122440000Y-86544830I-2990000J0D01*
G01*
X127500000Y-85000000D02*
G75*
G02*
X122500000Y-85000000I-2500000J0D01*
G01*
X122500000Y-85000000D02*
G75*
G02*
X127500000Y-85000000I2500000J0D01*
G01*
%TO.C,R2*%
X149130000Y-61980000D02*
X149130000Y-68520000D01*
X149130000Y-68520000D02*
X149460000Y-68520000D01*
X149460000Y-61980000D02*
X149130000Y-61980000D01*
X151540000Y-61980000D02*
X151870000Y-61980000D01*
X151870000Y-61980000D02*
X151870000Y-68520000D01*
X151870000Y-68520000D02*
X151540000Y-68520000D01*
%TO.C,R3*%
X118130000Y-60480000D02*
X118460000Y-60480000D01*
X118130000Y-67020000D02*
X118130000Y-60480000D01*
X118460000Y-67020000D02*
X118130000Y-67020000D01*
X120540000Y-67020000D02*
X120870000Y-67020000D01*
X120870000Y-60480000D02*
X120540000Y-60480000D01*
X120870000Y-67020000D02*
X120870000Y-60480000D01*
%TO.C,R5*%
X131980000Y-79380000D02*
X131980000Y-79710000D01*
X131980000Y-82120000D02*
X131980000Y-81790000D01*
X138520000Y-79380000D02*
X131980000Y-79380000D01*
X138520000Y-79710000D02*
X138520000Y-79380000D01*
X138520000Y-81790000D02*
X138520000Y-82120000D01*
X138520000Y-82120000D02*
X131980000Y-82120000D01*
%TO.C,R6*%
X118380000Y-71230000D02*
X118710000Y-71230000D01*
X118380000Y-77770000D02*
X118380000Y-71230000D01*
X118710000Y-77770000D02*
X118380000Y-77770000D01*
X120790000Y-77770000D02*
X121120000Y-77770000D01*
X121120000Y-71230000D02*
X120790000Y-71230000D01*
X121120000Y-77770000D02*
X121120000Y-71230000D01*
%TO.C,SW2*%
X131500000Y-45000000D02*
X131500000Y-46500000D01*
X132750000Y-49000000D02*
X137250000Y-49000000D01*
X137250000Y-42500000D02*
X132750000Y-42500000D01*
X138500000Y-46500000D02*
X138500000Y-45000000D01*
%TO.C,R1*%
X138630000Y-65480000D02*
X138960000Y-65480000D01*
X138630000Y-72020000D02*
X138630000Y-65480000D01*
X138960000Y-72020000D02*
X138630000Y-72020000D01*
X141040000Y-72020000D02*
X141370000Y-72020000D01*
X141370000Y-65480000D02*
X141040000Y-65480000D01*
X141370000Y-72020000D02*
X141370000Y-65480000D01*
%TO.C,SW1*%
D13*
X148900000Y-40850000D02*
X161600000Y-40850000D01*
X161600000Y-47550000D01*
X148900000Y-47550000D01*
X148900000Y-40850000D01*
%TO.C,D1*%
D15*
X122440000Y-63455000D02*
X122440000Y-66545000D01*
X122440000Y-63455170D02*
G75*
G02*
X127990000Y-65000000I2560000J-1544830D01*
G01*
X127990000Y-65000000D02*
G75*
G02*
X122440000Y-66544830I-2990000J0D01*
G01*
X127500000Y-65000000D02*
G75*
G02*
X122500000Y-65000000I-2500000J0D01*
G01*
X122500000Y-65000000D02*
G75*
G02*
X127500000Y-65000000I2500000J0D01*
G01*
%TO.C,R4*%
X128880000Y-65730000D02*
X129210000Y-65730000D01*
X128880000Y-72270000D02*
X128880000Y-65730000D01*
X129210000Y-72270000D02*
X128880000Y-72270000D01*
X131290000Y-72270000D02*
X131620000Y-72270000D01*
X131620000Y-65730000D02*
X131290000Y-65730000D01*
X131620000Y-72270000D02*
X131620000Y-65730000D01*
%TO.C,D3*%
X122440000Y-73455000D02*
X122440000Y-76545000D01*
X122440000Y-73455170D02*
G75*
G02*
X127990000Y-75000000I2560000J-1544830D01*
G01*
X127990000Y-75000000D02*
G75*
G02*
X122440000Y-76544830I-2990000J0D01*
G01*
X127500000Y-75000000D02*
G75*
G02*
X122500000Y-75000000I-2500000J0D01*
G01*
X122500000Y-75000000D02*
G75*
G02*
X127500000Y-75000000I2500000J0D01*
G01*
%TO.C,R8*%
X112980000Y-42880000D02*
X112980000Y-43210000D01*
X112980000Y-45620000D02*
X112980000Y-45290000D01*
X119520000Y-42880000D02*
X112980000Y-42880000D01*
X119520000Y-43210000D02*
X119520000Y-42880000D01*
X119520000Y-45290000D02*
X119520000Y-45620000D01*
X119520000Y-45620000D02*
X112980000Y-45620000D01*
%TO.C,D5*%
X142440000Y-73455000D02*
X142440000Y-76545000D01*
X142440000Y-73455170D02*
G75*
G02*
X147990000Y-75000000I2560000J-1544830D01*
G01*
X147990000Y-75000000D02*
G75*
G02*
X142440000Y-76544830I-2990000J0D01*
G01*
X147500000Y-75000000D02*
G75*
G02*
X142500000Y-75000000I-2500000J0D01*
G01*
X142500000Y-75000000D02*
G75*
G02*
X147500000Y-75000000I2500000J0D01*
G01*
%TO.C,D2*%
X142440000Y-63455000D02*
X142440000Y-66545000D01*
X142440000Y-63455170D02*
G75*
G02*
X147990000Y-65000000I2560000J-1544830D01*
G01*
X147990000Y-65000000D02*
G75*
G02*
X142440000Y-66544830I-2990000J0D01*
G01*
X147500000Y-65000000D02*
G75*
G02*
X142500000Y-65000000I-2500000J0D01*
G01*
X142500000Y-65000000D02*
G75*
G02*
X147500000Y-65000000I2500000J0D01*
G01*
%TD*%
M02*
