%TF.GenerationSoftware,KiCad,Pcbnew,10.0.1*%
%TF.CreationDate,2026-07-16T16:05:00+02:00*%
%TF.ProjectId,ArcDice,41726344-6963-4652-9e6b-696361645f70,v2.0*%
%TF.SameCoordinates,Original*%
%TF.FileFunction,Plated,1,2,PTH,Drill*%
%TF.FilePolarity,Positive*%
%FSLAX46Y46*%
G04 Gerber Fmt 4.6, Leading zero omitted, Abs format (unit mm)*
G04 Created by KiCad (PCBNEW 10.0.1) date 2026-07-16 16:05:00*
%MOMM*%
%LPD*%
G01*
G04 APERTURE LIST*
%TA.AperFunction,ComponentDrill*%
%ADD10C,0.800000*%
%TD*%
%TA.AperFunction,ComponentDrill*%
%ADD11C,0.900000*%
%TD*%
%TA.AperFunction,ComponentDrill*%
%ADD12C,1.000000*%
%TD*%
%TA.AperFunction,ComponentDrill*%
%ADD13C,1.100000*%
%TD*%
%TA.AperFunction,ComponentDrill*%
%ADD14C,1.200000*%
%TD*%
G04 APERTURE END LIST*
D10*
%TO.C,C2*%
X106205113Y-55000000D03*
X108205113Y-55000000D03*
%TO.C,C1*%
X108750000Y-47250000D03*
X108750000Y-49750000D03*
%TO.C,R8*%
X112440000Y-44250000D03*
%TO.C,U1*%
X112440000Y-48190000D03*
X112440000Y-50730000D03*
X112440000Y-53270000D03*
X112440000Y-55810000D03*
%TO.C,R3*%
X119500000Y-59940000D03*
X119500000Y-67560000D03*
%TO.C,R6*%
X119750000Y-70690000D03*
X119750000Y-78310000D03*
%TO.C,R8*%
X120060000Y-44250000D03*
%TO.C,U1*%
X120060000Y-48190000D03*
X120060000Y-50730000D03*
X120060000Y-53270000D03*
X120060000Y-55810000D03*
%TO.C,R4*%
X130250000Y-65190000D03*
X130250000Y-72810000D03*
%TO.C,R5*%
X131440000Y-80750000D03*
X139060000Y-80750000D03*
%TO.C,R7*%
X139440000Y-90500000D03*
%TO.C,R1*%
X140000000Y-64940000D03*
X140000000Y-72560000D03*
%TO.C,R7*%
X147060000Y-90500000D03*
%TO.C,R2*%
X150500000Y-61440000D03*
X150500000Y-69060000D03*
D11*
%TO.C,D1*%
X123730000Y-65000000D03*
%TO.C,D3*%
X123730000Y-75000000D03*
%TO.C,D6*%
X123730000Y-85000000D03*
%TO.C,D1*%
X126270000Y-65000000D03*
%TO.C,D3*%
X126270000Y-75000000D03*
%TO.C,D6*%
X126270000Y-85000000D03*
%TO.C,D4*%
X133730000Y-75000000D03*
X136270000Y-75000000D03*
%TO.C,D2*%
X143730000Y-65000000D03*
%TO.C,D5*%
X143730000Y-75000000D03*
%TO.C,D7*%
X143730000Y-85000000D03*
%TO.C,D2*%
X146270000Y-65000000D03*
%TO.C,D5*%
X146270000Y-75000000D03*
%TO.C,D7*%
X146270000Y-85000000D03*
D12*
%TO.C,U2*%
X152595000Y-77505000D03*
X152595000Y-100505000D03*
X155135000Y-77505000D03*
X164055000Y-77505000D03*
X166595000Y-77505000D03*
X166595000Y-100505000D03*
D13*
%TO.C,SW2*%
X131750000Y-43500000D03*
X131750000Y-48000000D03*
X138250000Y-43500000D03*
X138250000Y-48000000D03*
D14*
%TO.C,SW1*%
X150450000Y-52250000D03*
X155250000Y-52250000D03*
X160050000Y-52250000D03*
M02*
