%TF.GenerationSoftware,KiCad,Pcbnew,10.0.1*%
%TF.CreationDate,2026-07-16T16:05:34+02:00*%
%TF.ProjectId,ArcDice,41726344-6963-4652-9e6b-696361645f70,v2.0*%
%TF.SameCoordinates,Original*%
%TF.FileFunction,Legend,Top*%
%TF.FilePolarity,Positive*%
%FSLAX46Y46*%
G04 Gerber Fmt 4.6, Leading zero omitted, Abs format (unit mm)*
G04 Created by KiCad (PCBNEW 10.0.1) date 2026-07-16 16:05:34*
%MOMM*%
%LPD*%
G01*
G04 APERTURE LIST*
%ADD10C,0.000000*%
%ADD11C,0.372616*%
%ADD12C,0.100000*%
%ADD13C,0.150000*%
%ADD14C,0.120000*%
G04 APERTURE END LIST*
D10*
G36*
X104771091Y-69822894D02*
G01*
X104119014Y-69822894D01*
X104119014Y-68425584D01*
X104771091Y-68425584D01*
X104771091Y-69822894D01*
G37*
G36*
X104771091Y-81467144D02*
G01*
X104119014Y-81467144D01*
X104119014Y-80069834D01*
X104771091Y-80069834D01*
X104771091Y-81467144D01*
G37*
G36*
X106401289Y-69822894D02*
G01*
X105749207Y-69822894D01*
X105749207Y-68425584D01*
X106401289Y-68425584D01*
X106401289Y-69822894D01*
G37*
G36*
X106401289Y-81467144D02*
G01*
X105749207Y-81467144D01*
X105749207Y-80069834D01*
X106401289Y-80069834D01*
X106401289Y-81467144D01*
G37*
G36*
X108031482Y-69822894D02*
G01*
X107379405Y-69822894D01*
X107379405Y-68425584D01*
X108031482Y-68425584D01*
X108031482Y-69822894D01*
G37*
G36*
X108031482Y-81467144D02*
G01*
X107379405Y-81467144D01*
X107379405Y-80069834D01*
X108031482Y-80069834D01*
X108031482Y-81467144D01*
G37*
G36*
X103388162Y-80349661D02*
G01*
X103402355Y-80350739D01*
X103416341Y-80352515D01*
X103430101Y-80354975D01*
X103443624Y-80358094D01*
X103456884Y-80361860D01*
X103469870Y-80366255D01*
X103482562Y-80371258D01*
X103494940Y-80376853D01*
X103506990Y-80383027D01*
X103518693Y-80389753D01*
X103530031Y-80397024D01*
X103540989Y-80404815D01*
X103551546Y-80413113D01*
X103561685Y-80421896D01*
X103571391Y-80431150D01*
X103580644Y-80440856D01*
X103589428Y-80450995D01*
X103597724Y-80461551D01*
X103605516Y-80472508D01*
X103612785Y-80483847D01*
X103619515Y-80495550D01*
X103625685Y-80507601D01*
X103631284Y-80519981D01*
X103636287Y-80532669D01*
X103640679Y-80545657D01*
X103644445Y-80558918D01*
X103647566Y-80572437D01*
X103650024Y-80586199D01*
X103651801Y-80600185D01*
X103652882Y-80614378D01*
X103653244Y-80628759D01*
X103652882Y-80643139D01*
X103651801Y-80657333D01*
X103650024Y-80671318D01*
X103647566Y-80685080D01*
X103644445Y-80698600D01*
X103640679Y-80711863D01*
X103636287Y-80724846D01*
X103631284Y-80737537D01*
X103625685Y-80749917D01*
X103619515Y-80761965D01*
X103612785Y-80773670D01*
X103605516Y-80785007D01*
X103597724Y-80795966D01*
X103589428Y-80806523D01*
X103580644Y-80816661D01*
X103571391Y-80826368D01*
X103561685Y-80835623D01*
X103551546Y-80844404D01*
X103540989Y-80852703D01*
X103530031Y-80860492D01*
X103518693Y-80867761D01*
X103506990Y-80874490D01*
X103494940Y-80880662D01*
X103482562Y-80886261D01*
X103469870Y-80891261D01*
X103456884Y-80895656D01*
X103443624Y-80899425D01*
X103430101Y-80902543D01*
X103416341Y-80905002D01*
X103402355Y-80906780D01*
X103388162Y-80907858D01*
X103373781Y-80908223D01*
X103359399Y-80907858D01*
X103345210Y-80906780D01*
X103331223Y-80905002D01*
X103317461Y-80902543D01*
X103303941Y-80899425D01*
X103290678Y-80895656D01*
X103277694Y-80891261D01*
X103265002Y-80886261D01*
X103252622Y-80880662D01*
X103240573Y-80874490D01*
X103228870Y-80867761D01*
X103217532Y-80860492D01*
X103206577Y-80852703D01*
X103196018Y-80844404D01*
X103185878Y-80835623D01*
X103176172Y-80826368D01*
X103166921Y-80816661D01*
X103158136Y-80806523D01*
X103149839Y-80795966D01*
X103142048Y-80785007D01*
X103134778Y-80773670D01*
X103128049Y-80761965D01*
X103121879Y-80749917D01*
X103116283Y-80737537D01*
X103111277Y-80724846D01*
X103106884Y-80711863D01*
X103103118Y-80698600D01*
X103099997Y-80685080D01*
X103097540Y-80671318D01*
X103095763Y-80657333D01*
X103094684Y-80643139D01*
X103094320Y-80628759D01*
X103094684Y-80614378D01*
X103095763Y-80600185D01*
X103097540Y-80586199D01*
X103099997Y-80572437D01*
X103103118Y-80558918D01*
X103106884Y-80545657D01*
X103111277Y-80532669D01*
X103116283Y-80519981D01*
X103121879Y-80507601D01*
X103128049Y-80495550D01*
X103134778Y-80483847D01*
X103142048Y-80472508D01*
X103149839Y-80461551D01*
X103158136Y-80450995D01*
X103166921Y-80440856D01*
X103176172Y-80431150D01*
X103185878Y-80421896D01*
X103196018Y-80413113D01*
X103206577Y-80404815D01*
X103217532Y-80397024D01*
X103228870Y-80389753D01*
X103240573Y-80383027D01*
X103252622Y-80376853D01*
X103265002Y-80371258D01*
X103277694Y-80366255D01*
X103290678Y-80361860D01*
X103303941Y-80358094D01*
X103317461Y-80354975D01*
X103331223Y-80352515D01*
X103345210Y-80350739D01*
X103359399Y-80349661D01*
X103373781Y-80349297D01*
X103388162Y-80349661D01*
G37*
G36*
X106375117Y-71811091D02*
G01*
X106392674Y-71811969D01*
X106409708Y-71813435D01*
X106426221Y-71815486D01*
X106442209Y-71818122D01*
X106457677Y-71821345D01*
X106472624Y-71825152D01*
X106487046Y-71829548D01*
X106500949Y-71834527D01*
X106514327Y-71840092D01*
X106527183Y-71846245D01*
X106539517Y-71852981D01*
X106551331Y-71860305D01*
X106562621Y-71868215D01*
X106573391Y-71876708D01*
X106583637Y-71885788D01*
X106593308Y-71895455D01*
X106602359Y-71905708D01*
X106610781Y-71916548D01*
X106618584Y-71927971D01*
X106625761Y-71939980D01*
X106632312Y-71952575D01*
X106638242Y-71965758D01*
X106643546Y-71979525D01*
X106648225Y-71993878D01*
X106652283Y-72008817D01*
X106655714Y-72024343D01*
X106658522Y-72040453D01*
X106660707Y-72057150D01*
X106662267Y-72074435D01*
X106663204Y-72092301D01*
X106663516Y-72110757D01*
X106663204Y-72128433D01*
X106662267Y-72145601D01*
X106660707Y-72162260D01*
X106658522Y-72178408D01*
X106655714Y-72194048D01*
X106652283Y-72209178D01*
X106648225Y-72223800D01*
X106643546Y-72237913D01*
X106638242Y-72251513D01*
X106632312Y-72264606D01*
X106625761Y-72277190D01*
X106618584Y-72289262D01*
X106610781Y-72300824D01*
X106602359Y-72311881D01*
X106593308Y-72322426D01*
X106583637Y-72332463D01*
X106573391Y-72341937D01*
X106562621Y-72350803D01*
X106551331Y-72359056D01*
X106539517Y-72366695D01*
X106527183Y-72373724D01*
X106514327Y-72380144D01*
X106500949Y-72385955D01*
X106487046Y-72391150D01*
X106472624Y-72395733D01*
X106457677Y-72399709D01*
X106442209Y-72403070D01*
X106426221Y-72405821D01*
X106409708Y-72407960D01*
X106392674Y-72409489D01*
X106375117Y-72410406D01*
X106357039Y-72410712D01*
X104612731Y-72410712D01*
X104594262Y-72410406D01*
X104576356Y-72409489D01*
X104559010Y-72407960D01*
X104542225Y-72405821D01*
X104525999Y-72403070D01*
X104510333Y-72399709D01*
X104495229Y-72395733D01*
X104480684Y-72391150D01*
X104466700Y-72385955D01*
X104453276Y-72380144D01*
X104440413Y-72373724D01*
X104428112Y-72366695D01*
X104416369Y-72359056D01*
X104405187Y-72350803D01*
X104394564Y-72341937D01*
X104384502Y-72332463D01*
X104375027Y-72322426D01*
X104366164Y-72311881D01*
X104357910Y-72300824D01*
X104350267Y-72289262D01*
X104343239Y-72277190D01*
X104336820Y-72264606D01*
X104331013Y-72251513D01*
X104325817Y-72237913D01*
X104321229Y-72223800D01*
X104317256Y-72209178D01*
X104313894Y-72194048D01*
X104311145Y-72178408D01*
X104309004Y-72162260D01*
X104307475Y-72145601D01*
X104306560Y-72128433D01*
X104306252Y-72110757D01*
X104306560Y-72092691D01*
X104307475Y-72075172D01*
X104309004Y-72058199D01*
X104311145Y-72041778D01*
X104313894Y-72025903D01*
X104317256Y-72010574D01*
X104321229Y-71995797D01*
X104325817Y-71981563D01*
X104331013Y-71967877D01*
X104336820Y-71954744D01*
X104343239Y-71942152D01*
X104350267Y-71930110D01*
X104357910Y-71918617D01*
X104366164Y-71907671D01*
X104375027Y-71897272D01*
X104384502Y-71887422D01*
X104394564Y-71878143D01*
X104405187Y-71869463D01*
X104416369Y-71861379D01*
X104428112Y-71853898D01*
X104440413Y-71847015D01*
X104453276Y-71840730D01*
X104466700Y-71835041D01*
X104480684Y-71829955D01*
X104495229Y-71825466D01*
X104510333Y-71821575D01*
X104525999Y-71818282D01*
X104542225Y-71815586D01*
X104559010Y-71813493D01*
X104576356Y-71811997D01*
X104594262Y-71811100D01*
X104612731Y-71810799D01*
X106357039Y-71810799D01*
X106375117Y-71811091D01*
G37*
G36*
X107797065Y-72206151D02*
G01*
X107800325Y-72206317D01*
X107803488Y-72206587D01*
X107806555Y-72206969D01*
X107809525Y-72207459D01*
X107812396Y-72208056D01*
X107815172Y-72208766D01*
X107817852Y-72209581D01*
X107820434Y-72210504D01*
X107822916Y-72211538D01*
X107825306Y-72212682D01*
X107827596Y-72213932D01*
X107829791Y-72215292D01*
X107831886Y-72216761D01*
X107833885Y-72218338D01*
X107835789Y-72220023D01*
X107837584Y-72221820D01*
X107839265Y-72223724D01*
X107840832Y-72225736D01*
X107842277Y-72227858D01*
X107843614Y-72230088D01*
X107844830Y-72232430D01*
X107845931Y-72234877D01*
X107846916Y-72237434D01*
X107847785Y-72240099D01*
X107848538Y-72242874D01*
X107849176Y-72245757D01*
X107849696Y-72248748D01*
X107850102Y-72251850D01*
X107850391Y-72255060D01*
X107850567Y-72258378D01*
X107850625Y-72261804D01*
X107850567Y-72265089D01*
X107850391Y-72268275D01*
X107850102Y-72271368D01*
X107849696Y-72274368D01*
X107849176Y-72277273D01*
X107848538Y-72280083D01*
X107847785Y-72282798D01*
X107846916Y-72285420D01*
X107845931Y-72287945D01*
X107844830Y-72290377D01*
X107843614Y-72292714D01*
X107842277Y-72294956D01*
X107840832Y-72297104D01*
X107839265Y-72299158D01*
X107837584Y-72301116D01*
X107835789Y-72302981D01*
X107833885Y-72304738D01*
X107831886Y-72306387D01*
X107829791Y-72307917D01*
X107827596Y-72309338D01*
X107825306Y-72310644D01*
X107822916Y-72311834D01*
X107820434Y-72312912D01*
X107817852Y-72313879D01*
X107815172Y-72314729D01*
X107812396Y-72315468D01*
X107809525Y-72316091D01*
X107806555Y-72316601D01*
X107803488Y-72317000D01*
X107800325Y-72317284D01*
X107797065Y-72317455D01*
X107793707Y-72317509D01*
X107469764Y-72317509D01*
X107466336Y-72317455D01*
X107463007Y-72317284D01*
X107459787Y-72317000D01*
X107456668Y-72316601D01*
X107453655Y-72316091D01*
X107450748Y-72315468D01*
X107447942Y-72314729D01*
X107445240Y-72313879D01*
X107442643Y-72312912D01*
X107440152Y-72311834D01*
X107437761Y-72310644D01*
X107435476Y-72309338D01*
X107433295Y-72307917D01*
X107431219Y-72306387D01*
X107429246Y-72304738D01*
X107427378Y-72302981D01*
X107425619Y-72301116D01*
X107423973Y-72299158D01*
X107422442Y-72297104D01*
X107421022Y-72294956D01*
X107419717Y-72292714D01*
X107418525Y-72290377D01*
X107417446Y-72287945D01*
X107416480Y-72285420D01*
X107415629Y-72282798D01*
X107414892Y-72280083D01*
X107414266Y-72277273D01*
X107413756Y-72274368D01*
X107413357Y-72271368D01*
X107413075Y-72268275D01*
X107412904Y-72265089D01*
X107412847Y-72261804D01*
X107412904Y-72258449D01*
X107413075Y-72255197D01*
X107413357Y-72252045D01*
X107413756Y-72248996D01*
X107414266Y-72246049D01*
X107414892Y-72243201D01*
X107415629Y-72240457D01*
X107416480Y-72237813D01*
X107417446Y-72235272D01*
X107418525Y-72232832D01*
X107419717Y-72230494D01*
X107421022Y-72228256D01*
X107422442Y-72226123D01*
X107423973Y-72224089D01*
X107425619Y-72222158D01*
X107427378Y-72220329D01*
X107429246Y-72218604D01*
X107431219Y-72216994D01*
X107433295Y-72215493D01*
X107435476Y-72214102D01*
X107437761Y-72212822D01*
X107440152Y-72211657D01*
X107442643Y-72210601D01*
X107445240Y-72209655D01*
X107447942Y-72208819D01*
X107450748Y-72208098D01*
X107453655Y-72207488D01*
X107456668Y-72206988D01*
X107459787Y-72206598D01*
X107463007Y-72206320D01*
X107466336Y-72206154D01*
X107469764Y-72206100D01*
X107793707Y-72206100D01*
X107797065Y-72206151D01*
G37*
G36*
X107797065Y-76289559D02*
G01*
X107800325Y-76289722D01*
X107803488Y-76289994D01*
X107806555Y-76290375D01*
X107809525Y-76290866D01*
X107812396Y-76291464D01*
X107815172Y-76292170D01*
X107817852Y-76292988D01*
X107820434Y-76293912D01*
X107822916Y-76294944D01*
X107825306Y-76296088D01*
X107827596Y-76297339D01*
X107829791Y-76298698D01*
X107831886Y-76300168D01*
X107833885Y-76301746D01*
X107835789Y-76303431D01*
X107837584Y-76305227D01*
X107839265Y-76307130D01*
X107840832Y-76309145D01*
X107842277Y-76311265D01*
X107843614Y-76313496D01*
X107844830Y-76315834D01*
X107845931Y-76318283D01*
X107846916Y-76320839D01*
X107847785Y-76323505D01*
X107848538Y-76326281D01*
X107849176Y-76329163D01*
X107849696Y-76332155D01*
X107850102Y-76335258D01*
X107850391Y-76338466D01*
X107850567Y-76341784D01*
X107850625Y-76345211D01*
X107850567Y-76348494D01*
X107850391Y-76351682D01*
X107850102Y-76354776D01*
X107849696Y-76357776D01*
X107849176Y-76360680D01*
X107848538Y-76363489D01*
X107847785Y-76366206D01*
X107846916Y-76368825D01*
X107845931Y-76371351D01*
X107844830Y-76373783D01*
X107843614Y-76376120D01*
X107842277Y-76378362D01*
X107840832Y-76380509D01*
X107839265Y-76382563D01*
X107837584Y-76384521D01*
X107835789Y-76386384D01*
X107833885Y-76388147D01*
X107831886Y-76389793D01*
X107829791Y-76391323D01*
X107827596Y-76392742D01*
X107825306Y-76394049D01*
X107822916Y-76395242D01*
X107820434Y-76396320D01*
X107817852Y-76397284D01*
X107815172Y-76398136D01*
X107812396Y-76398873D01*
X107809525Y-76399498D01*
X107806555Y-76400010D01*
X107803488Y-76400407D01*
X107800325Y-76400690D01*
X107797065Y-76400860D01*
X107793707Y-76400917D01*
X107469764Y-76400917D01*
X107466336Y-76400860D01*
X107463007Y-76400690D01*
X107459787Y-76400407D01*
X107456668Y-76400010D01*
X107453655Y-76399498D01*
X107450748Y-76398873D01*
X107447942Y-76398136D01*
X107445240Y-76397284D01*
X107442643Y-76396320D01*
X107440152Y-76395242D01*
X107437761Y-76394049D01*
X107435476Y-76392742D01*
X107433295Y-76391323D01*
X107431219Y-76389793D01*
X107429246Y-76388147D01*
X107427378Y-76386384D01*
X107425619Y-76384521D01*
X107423973Y-76382563D01*
X107422442Y-76380509D01*
X107421022Y-76378362D01*
X107419717Y-76376120D01*
X107418525Y-76373783D01*
X107417446Y-76371351D01*
X107416480Y-76368825D01*
X107415629Y-76366206D01*
X107414892Y-76363489D01*
X107414266Y-76360680D01*
X107413756Y-76357776D01*
X107413357Y-76354776D01*
X107413075Y-76351682D01*
X107412904Y-76348494D01*
X107412847Y-76345211D01*
X107412904Y-76341857D01*
X107413075Y-76338605D01*
X107413357Y-76335451D01*
X107413756Y-76332402D01*
X107414266Y-76329452D01*
X107414892Y-76326606D01*
X107415629Y-76323862D01*
X107416480Y-76321219D01*
X107417446Y-76318679D01*
X107418525Y-76316237D01*
X107419717Y-76313898D01*
X107421022Y-76311662D01*
X107422442Y-76309528D01*
X107423973Y-76307496D01*
X107425619Y-76305563D01*
X107427378Y-76303733D01*
X107429246Y-76302011D01*
X107431219Y-76300401D01*
X107433295Y-76298898D01*
X107435476Y-76297509D01*
X107437761Y-76296231D01*
X107440152Y-76295064D01*
X107442643Y-76294006D01*
X107445240Y-76293065D01*
X107447942Y-76292229D01*
X107450748Y-76291506D01*
X107453655Y-76290894D01*
X107456668Y-76290397D01*
X107459787Y-76290005D01*
X107463007Y-76289728D01*
X107466336Y-76289560D01*
X107469764Y-76289502D01*
X107793707Y-76289502D01*
X107797065Y-76289559D01*
G37*
D11*
X108717117Y-69823743D02*
X108750232Y-69826262D01*
X108782866Y-69830408D01*
X108814976Y-69836140D01*
X108846523Y-69843424D01*
X108877468Y-69852209D01*
X108907766Y-69862463D01*
X108937378Y-69874136D01*
X108966265Y-69887195D01*
X108994378Y-69901596D01*
X109021685Y-69917296D01*
X109048143Y-69934258D01*
X109073709Y-69952436D01*
X109098342Y-69971797D01*
X109122005Y-69992291D01*
X109144650Y-70013882D01*
X109166240Y-70036528D01*
X109186735Y-70060191D01*
X109206093Y-70084823D01*
X109224273Y-70110388D01*
X109241236Y-70136844D01*
X109256937Y-70164152D01*
X109271336Y-70192268D01*
X109284395Y-70221152D01*
X109296070Y-70250766D01*
X109306322Y-70281064D01*
X109315108Y-70312007D01*
X109322390Y-70343556D01*
X109328125Y-70375668D01*
X109332272Y-70408299D01*
X109334790Y-70441416D01*
X109335639Y-70474970D01*
X109335639Y-79417758D01*
X109334790Y-79451311D01*
X109332272Y-79484429D01*
X109328125Y-79517060D01*
X109322390Y-79549172D01*
X109315108Y-79580720D01*
X109306322Y-79611664D01*
X109296070Y-79641961D01*
X109284395Y-79671575D01*
X109271336Y-79700458D01*
X109256937Y-79728576D01*
X109241236Y-79755882D01*
X109224273Y-79782340D01*
X109206093Y-79807904D01*
X109186735Y-79832537D01*
X109166240Y-79856199D01*
X109144650Y-79878846D01*
X109122005Y-79900436D01*
X109098342Y-79920931D01*
X109073709Y-79940291D01*
X109048143Y-79958469D01*
X109021685Y-79975431D01*
X108994378Y-79991132D01*
X108966265Y-80005533D01*
X108937378Y-80018592D01*
X108907766Y-80030265D01*
X108877468Y-80040519D01*
X108846523Y-80049304D01*
X108814976Y-80056588D01*
X108782866Y-80062320D01*
X108750232Y-80066466D01*
X108717117Y-80068985D01*
X108683560Y-80069834D01*
X103466936Y-80069834D01*
X103433379Y-80068985D01*
X103400265Y-80066466D01*
X103367630Y-80062320D01*
X103335520Y-80056588D01*
X103303973Y-80049304D01*
X103273028Y-80040519D01*
X103242730Y-80030265D01*
X103213118Y-80018592D01*
X103184232Y-80005533D01*
X103156118Y-79991132D01*
X103128811Y-79975431D01*
X103102353Y-79958469D01*
X103076787Y-79940291D01*
X103052154Y-79920931D01*
X103028491Y-79900436D01*
X103005846Y-79878846D01*
X102984256Y-79856199D01*
X102963761Y-79832537D01*
X102944403Y-79807904D01*
X102926223Y-79782340D01*
X102909260Y-79755882D01*
X102893559Y-79728576D01*
X102879160Y-79700458D01*
X102866101Y-79671575D01*
X102854427Y-79641961D01*
X102844174Y-79611664D01*
X102835388Y-79580720D01*
X102828106Y-79549172D01*
X102822371Y-79517060D01*
X102818224Y-79484429D01*
X102815706Y-79451311D01*
X102814857Y-79417758D01*
X102814857Y-70474970D01*
X102815706Y-70441416D01*
X102818224Y-70408299D01*
X102822371Y-70375668D01*
X102828106Y-70343556D01*
X102835388Y-70312007D01*
X102844174Y-70281064D01*
X102854427Y-70250766D01*
X102866101Y-70221152D01*
X102879160Y-70192268D01*
X102893559Y-70164152D01*
X102909260Y-70136844D01*
X102926223Y-70110388D01*
X102944403Y-70084823D01*
X102963761Y-70060191D01*
X102984256Y-70036528D01*
X103005846Y-70013882D01*
X103028491Y-69992291D01*
X103052154Y-69971797D01*
X103076787Y-69952436D01*
X103102353Y-69934258D01*
X103128811Y-69917296D01*
X103156118Y-69901596D01*
X103184232Y-69887195D01*
X103213118Y-69874136D01*
X103242730Y-69862463D01*
X103273028Y-69852209D01*
X103303973Y-69843424D01*
X103335520Y-69836140D01*
X103367630Y-69830408D01*
X103400265Y-69826262D01*
X103433379Y-69823743D01*
X103466936Y-69822894D01*
X108683560Y-69822894D01*
X108717117Y-69823743D01*
D10*
G36*
X107466393Y-73154593D02*
G01*
X107469004Y-73154730D01*
X107471531Y-73154960D01*
X107473984Y-73155285D01*
X107476357Y-73155699D01*
X107478652Y-73156207D01*
X107480869Y-73156806D01*
X107483007Y-73157498D01*
X107485071Y-73158281D01*
X107487054Y-73159158D01*
X107488959Y-73160127D01*
X107490787Y-73161187D01*
X107492535Y-73162341D01*
X107494206Y-73163587D01*
X107495798Y-73164925D01*
X107497312Y-73166353D01*
X107498743Y-73167872D01*
X107500082Y-73169471D01*
X107501326Y-73171155D01*
X107502479Y-73172919D01*
X107503540Y-73174768D01*
X107504510Y-73176700D01*
X107505385Y-73178713D01*
X107506169Y-73180811D01*
X107506862Y-73182990D01*
X107507460Y-73185252D01*
X107507969Y-73187597D01*
X107508385Y-73190024D01*
X107508706Y-73192534D01*
X107508937Y-73195129D01*
X107509077Y-73197805D01*
X107509123Y-73200564D01*
X107509123Y-73295630D01*
X107794315Y-73295630D01*
X107797597Y-73295684D01*
X107800788Y-73295845D01*
X107803887Y-73296120D01*
X107806895Y-73296498D01*
X107809811Y-73296989D01*
X107812634Y-73297587D01*
X107815366Y-73298294D01*
X107818004Y-73299110D01*
X107820550Y-73300036D01*
X107823004Y-73301070D01*
X107825364Y-73302212D01*
X107827634Y-73303463D01*
X107829812Y-73304821D01*
X107831896Y-73306292D01*
X107833888Y-73307869D01*
X107835789Y-73309554D01*
X107837584Y-73311350D01*
X107839265Y-73313253D01*
X107840832Y-73315266D01*
X107842277Y-73317389D01*
X107843614Y-73319620D01*
X107844830Y-73321956D01*
X107845931Y-73324406D01*
X107846916Y-73326964D01*
X107847785Y-73329629D01*
X107848538Y-73332403D01*
X107849176Y-73335286D01*
X107849696Y-73338279D01*
X107850102Y-73341380D01*
X107850391Y-73344588D01*
X107850567Y-73347908D01*
X107850625Y-73351334D01*
X107850567Y-73354618D01*
X107850391Y-73357806D01*
X107850102Y-73360900D01*
X107849696Y-73363898D01*
X107849176Y-73366801D01*
X107848538Y-73369615D01*
X107847785Y-73372329D01*
X107846916Y-73374950D01*
X107845931Y-73377474D01*
X107844830Y-73379906D01*
X107843614Y-73382242D01*
X107842277Y-73384487D01*
X107840832Y-73386633D01*
X107839265Y-73388686D01*
X107837584Y-73390645D01*
X107835789Y-73392508D01*
X107833888Y-73394268D01*
X107831896Y-73395914D01*
X107829812Y-73397446D01*
X107827634Y-73398867D01*
X107825364Y-73400170D01*
X107823004Y-73401366D01*
X107820550Y-73402441D01*
X107818004Y-73403407D01*
X107815366Y-73404259D01*
X107812634Y-73404997D01*
X107809811Y-73405622D01*
X107806895Y-73406132D01*
X107803887Y-73406528D01*
X107800788Y-73406812D01*
X107797597Y-73406984D01*
X107794315Y-73407039D01*
X107509123Y-73407039D01*
X107509123Y-73502104D01*
X107509077Y-73504863D01*
X107508937Y-73507539D01*
X107508706Y-73510134D01*
X107508385Y-73512645D01*
X107507969Y-73515071D01*
X107507460Y-73517417D01*
X107506862Y-73519681D01*
X107506169Y-73521859D01*
X107505385Y-73523956D01*
X107504510Y-73525970D01*
X107503540Y-73527902D01*
X107502479Y-73529750D01*
X107501326Y-73531516D01*
X107500082Y-73533199D01*
X107498743Y-73534799D01*
X107497312Y-73536316D01*
X107495798Y-73537745D01*
X107494206Y-73539082D01*
X107492535Y-73540327D01*
X107490787Y-73541479D01*
X107488959Y-73542542D01*
X107487054Y-73543511D01*
X107485071Y-73544387D01*
X107483007Y-73545171D01*
X107480869Y-73545862D01*
X107478652Y-73546464D01*
X107476357Y-73546969D01*
X107473984Y-73547384D01*
X107471531Y-73547708D01*
X107469004Y-73547938D01*
X107466393Y-73548074D01*
X107463708Y-73548121D01*
X107460952Y-73548074D01*
X107458278Y-73547938D01*
X107455692Y-73547708D01*
X107453188Y-73547384D01*
X107450771Y-73546969D01*
X107448437Y-73546464D01*
X107446190Y-73545862D01*
X107444027Y-73545171D01*
X107441951Y-73544387D01*
X107439960Y-73543511D01*
X107438054Y-73542542D01*
X107436234Y-73541479D01*
X107434495Y-73540327D01*
X107432848Y-73539082D01*
X107431281Y-73537745D01*
X107429800Y-73536316D01*
X107428408Y-73534799D01*
X107427105Y-73533199D01*
X107425893Y-73531516D01*
X107424770Y-73529750D01*
X107423734Y-73527902D01*
X107422792Y-73525970D01*
X107421936Y-73523956D01*
X107421173Y-73521859D01*
X107420497Y-73519681D01*
X107419914Y-73517417D01*
X107419419Y-73515071D01*
X107419015Y-73512645D01*
X107418701Y-73510134D01*
X107418475Y-73507539D01*
X107418339Y-73504863D01*
X107418295Y-73502104D01*
X107418295Y-73200564D01*
X107418339Y-73197805D01*
X107418475Y-73195129D01*
X107418701Y-73192534D01*
X107419015Y-73190024D01*
X107419419Y-73187597D01*
X107419914Y-73185252D01*
X107420497Y-73182990D01*
X107421173Y-73180811D01*
X107421936Y-73178713D01*
X107422792Y-73176700D01*
X107423734Y-73174768D01*
X107424770Y-73172919D01*
X107425893Y-73171155D01*
X107427105Y-73169471D01*
X107428408Y-73167872D01*
X107429800Y-73166353D01*
X107431281Y-73164925D01*
X107432848Y-73163587D01*
X107434495Y-73162341D01*
X107436234Y-73161187D01*
X107438054Y-73160127D01*
X107439960Y-73159158D01*
X107441951Y-73158281D01*
X107444027Y-73157498D01*
X107446190Y-73156806D01*
X107448437Y-73156207D01*
X107450771Y-73155699D01*
X107453188Y-73155285D01*
X107455692Y-73154960D01*
X107458278Y-73154730D01*
X107460952Y-73154593D01*
X107463708Y-73154547D01*
X107466393Y-73154593D01*
G37*
G36*
X107643974Y-74970739D02*
G01*
X107656162Y-74971476D01*
X107662127Y-74972028D01*
X107668002Y-74972705D01*
X107673792Y-74973505D01*
X107679494Y-74974428D01*
X107685108Y-74975472D01*
X107690635Y-74976639D01*
X107696074Y-74977932D01*
X107701425Y-74979348D01*
X107706690Y-74980884D01*
X107711864Y-74982545D01*
X107716953Y-74984327D01*
X107721956Y-74986236D01*
X107726866Y-74988256D01*
X107731681Y-74990385D01*
X107736403Y-74992629D01*
X107741029Y-74994976D01*
X107745560Y-74997434D01*
X107750000Y-75000000D01*
X107754339Y-75002674D01*
X107758586Y-75005458D01*
X107762741Y-75008353D01*
X107766800Y-75011353D01*
X107770764Y-75014463D01*
X107774632Y-75017682D01*
X107778407Y-75021009D01*
X107782087Y-75024445D01*
X107785674Y-75027992D01*
X107789166Y-75031646D01*
X107792558Y-75035409D01*
X107795846Y-75039278D01*
X107799029Y-75043251D01*
X107802110Y-75047335D01*
X107805084Y-75051520D01*
X107807955Y-75055815D01*
X107810722Y-75060214D01*
X107813386Y-75064723D01*
X107815946Y-75069336D01*
X107818399Y-75074055D01*
X107820752Y-75078882D01*
X107822997Y-75083815D01*
X107825140Y-75088851D01*
X107827180Y-75093999D01*
X107829115Y-75099250D01*
X107830945Y-75104610D01*
X107832670Y-75110069D01*
X107834280Y-75115627D01*
X107835781Y-75121281D01*
X107837170Y-75127034D01*
X107838449Y-75132881D01*
X107839617Y-75138827D01*
X107840672Y-75144867D01*
X107841618Y-75151007D01*
X107843174Y-75163574D01*
X107844285Y-75176531D01*
X107844953Y-75189875D01*
X107845175Y-75203608D01*
X107845175Y-75322286D01*
X107845116Y-75325792D01*
X107844942Y-75329187D01*
X107844653Y-75332480D01*
X107844248Y-75335665D01*
X107843725Y-75338744D01*
X107843090Y-75341715D01*
X107842335Y-75344582D01*
X107841466Y-75347339D01*
X107840480Y-75349993D01*
X107839380Y-75352540D01*
X107838163Y-75354978D01*
X107836831Y-75357312D01*
X107835380Y-75359539D01*
X107833817Y-75361659D01*
X107832137Y-75363673D01*
X107830341Y-75365579D01*
X107828433Y-75367375D01*
X107826427Y-75369057D01*
X107824319Y-75370621D01*
X107822109Y-75372071D01*
X107819798Y-75373405D01*
X107817385Y-75374621D01*
X107814870Y-75375723D01*
X107812251Y-75376706D01*
X107809531Y-75377577D01*
X107806712Y-75378328D01*
X107803788Y-75378968D01*
X107800765Y-75379487D01*
X107797638Y-75379893D01*
X107794411Y-75380184D01*
X107791083Y-75380357D01*
X107787651Y-75380417D01*
X107754955Y-75380417D01*
X107475819Y-75380417D01*
X107472387Y-75380357D01*
X107469058Y-75380184D01*
X107465831Y-75379893D01*
X107462706Y-75379487D01*
X107459682Y-75378968D01*
X107456762Y-75378328D01*
X107453939Y-75377577D01*
X107451222Y-75376706D01*
X107448604Y-75375723D01*
X107446087Y-75374621D01*
X107443674Y-75373405D01*
X107441361Y-75372071D01*
X107439154Y-75370621D01*
X107437043Y-75369057D01*
X107435037Y-75367375D01*
X107433131Y-75365579D01*
X107431334Y-75363673D01*
X107429654Y-75361659D01*
X107428088Y-75359539D01*
X107426641Y-75357312D01*
X107425308Y-75354978D01*
X107424092Y-75352540D01*
X107422989Y-75349993D01*
X107422005Y-75347339D01*
X107421136Y-75344582D01*
X107420383Y-75341715D01*
X107419745Y-75338744D01*
X107419224Y-75335665D01*
X107418819Y-75332480D01*
X107418529Y-75329187D01*
X107418356Y-75325792D01*
X107418295Y-75322286D01*
X107418295Y-75210875D01*
X107508516Y-75210875D01*
X107508516Y-75269004D01*
X107754955Y-75269004D01*
X107754955Y-75210875D01*
X107754831Y-75202988D01*
X107754463Y-75195378D01*
X107753847Y-75188040D01*
X107752988Y-75180978D01*
X107751879Y-75174190D01*
X107750527Y-75167677D01*
X107748926Y-75161438D01*
X107747081Y-75155472D01*
X107746071Y-75152589D01*
X107745003Y-75149764D01*
X107743875Y-75147006D01*
X107742693Y-75144309D01*
X107741455Y-75141670D01*
X107740156Y-75139094D01*
X107738804Y-75136580D01*
X107737395Y-75134127D01*
X107735927Y-75131735D01*
X107734406Y-75129407D01*
X107732826Y-75127137D01*
X107731190Y-75124932D01*
X107729495Y-75122786D01*
X107727745Y-75120701D01*
X107725937Y-75118680D01*
X107724075Y-75116719D01*
X107722151Y-75114820D01*
X107720165Y-75112982D01*
X107718121Y-75111207D01*
X107716014Y-75109493D01*
X107713845Y-75107839D01*
X107711616Y-75106246D01*
X107709322Y-75104715D01*
X107706968Y-75103247D01*
X107704553Y-75101839D01*
X107702076Y-75100495D01*
X107699539Y-75099210D01*
X107696942Y-75097985D01*
X107694279Y-75096826D01*
X107691556Y-75095724D01*
X107688772Y-75094688D01*
X107685927Y-75093710D01*
X107683020Y-75092794D01*
X107680043Y-75091938D01*
X107677001Y-75091138D01*
X107673893Y-75090398D01*
X107670719Y-75089719D01*
X107667479Y-75089099D01*
X107664174Y-75088537D01*
X107660800Y-75088033D01*
X107653854Y-75087206D01*
X107646646Y-75086617D01*
X107639171Y-75086260D01*
X107631433Y-75086141D01*
X107623689Y-75086261D01*
X107616205Y-75086622D01*
X107608978Y-75087227D01*
X107602009Y-75088071D01*
X107595298Y-75089157D01*
X107588845Y-75090483D01*
X107582649Y-75092053D01*
X107576710Y-75093862D01*
X107571031Y-75095912D01*
X107565608Y-75098205D01*
X107560447Y-75100737D01*
X107555538Y-75103510D01*
X107550888Y-75106528D01*
X107546497Y-75109784D01*
X107542365Y-75113282D01*
X107538487Y-75117023D01*
X107534861Y-75121006D01*
X107531464Y-75125242D01*
X107528302Y-75129730D01*
X107525377Y-75134469D01*
X107522682Y-75139457D01*
X107520224Y-75144696D01*
X107518000Y-75150184D01*
X107516009Y-75155925D01*
X107514255Y-75161916D01*
X107512730Y-75168160D01*
X107511443Y-75174652D01*
X107510388Y-75181394D01*
X107509569Y-75188388D01*
X107508983Y-75195632D01*
X107508633Y-75203127D01*
X107508516Y-75210875D01*
X107418295Y-75210875D01*
X107418295Y-75203608D01*
X107418512Y-75189881D01*
X107419165Y-75176547D01*
X107420254Y-75163606D01*
X107421779Y-75151063D01*
X107423736Y-75138914D01*
X107426129Y-75127160D01*
X107428959Y-75115801D01*
X107432223Y-75104837D01*
X107435923Y-75094267D01*
X107440056Y-75084095D01*
X107444626Y-75074315D01*
X107449630Y-75064930D01*
X107455072Y-75055941D01*
X107460947Y-75047347D01*
X107467257Y-75039147D01*
X107474004Y-75031343D01*
X107481146Y-75023974D01*
X107488648Y-75017080D01*
X107496509Y-75010665D01*
X107504731Y-75004721D01*
X107513312Y-74999252D01*
X107522254Y-74994261D01*
X107531552Y-74989745D01*
X107541214Y-74985705D01*
X107551232Y-74982138D01*
X107561610Y-74979049D01*
X107572349Y-74976431D01*
X107583448Y-74974293D01*
X107594903Y-74972631D01*
X107606720Y-74971440D01*
X107618895Y-74970728D01*
X107631433Y-74970491D01*
X107643974Y-74970739D01*
G37*
G36*
X107643974Y-77012954D02*
G01*
X107656162Y-77013691D01*
X107662127Y-77014245D01*
X107668002Y-77014919D01*
X107673792Y-77015721D01*
X107679494Y-77016643D01*
X107685108Y-77017689D01*
X107690635Y-77018857D01*
X107696074Y-77020149D01*
X107701425Y-77021563D01*
X107706690Y-77023099D01*
X107711864Y-77024760D01*
X107716953Y-77026542D01*
X107721956Y-77028449D01*
X107726866Y-77030471D01*
X107731681Y-77032603D01*
X107736403Y-77034843D01*
X107741029Y-77037191D01*
X107745560Y-77039648D01*
X107750000Y-77042215D01*
X107754339Y-77044890D01*
X107758586Y-77047674D01*
X107762741Y-77050566D01*
X107766800Y-77053568D01*
X107770764Y-77056676D01*
X107774632Y-77059897D01*
X107778407Y-77063224D01*
X107782087Y-77066662D01*
X107785674Y-77070207D01*
X107789166Y-77073863D01*
X107792558Y-77077623D01*
X107795846Y-77081494D01*
X107799029Y-77085469D01*
X107802110Y-77089546D01*
X107805084Y-77093737D01*
X107807955Y-77098031D01*
X107810722Y-77102432D01*
X107813386Y-77106938D01*
X107815946Y-77111550D01*
X107818399Y-77116270D01*
X107820752Y-77121096D01*
X107822997Y-77126030D01*
X107825140Y-77131068D01*
X107827180Y-77136215D01*
X107829115Y-77141467D01*
X107830945Y-77146826D01*
X107832670Y-77152286D01*
X107834280Y-77157841D01*
X107835781Y-77163498D01*
X107837170Y-77169247D01*
X107838449Y-77175095D01*
X107839617Y-77181040D01*
X107840672Y-77187083D01*
X107841618Y-77193222D01*
X107843174Y-77205790D01*
X107844285Y-77218747D01*
X107844953Y-77232092D01*
X107845175Y-77245824D01*
X107845175Y-77364504D01*
X107845116Y-77368006D01*
X107844942Y-77371404D01*
X107844653Y-77374695D01*
X107844248Y-77377882D01*
X107843725Y-77380958D01*
X107843090Y-77383931D01*
X107842335Y-77386795D01*
X107841466Y-77389555D01*
X107840480Y-77392209D01*
X107839380Y-77394754D01*
X107838163Y-77397193D01*
X107836831Y-77399527D01*
X107835380Y-77401755D01*
X107833817Y-77403874D01*
X107832137Y-77405888D01*
X107830341Y-77407795D01*
X107828433Y-77409592D01*
X107826427Y-77411273D01*
X107824319Y-77412837D01*
X107822109Y-77414286D01*
X107819798Y-77415619D01*
X107817385Y-77416836D01*
X107814870Y-77417936D01*
X107812251Y-77418921D01*
X107809531Y-77419792D01*
X107806712Y-77420545D01*
X107803788Y-77421181D01*
X107800765Y-77421702D01*
X107797638Y-77422108D01*
X107794411Y-77422398D01*
X107791083Y-77422571D01*
X107787651Y-77422630D01*
X107754955Y-77422630D01*
X107475819Y-77422630D01*
X107472387Y-77422571D01*
X107469058Y-77422398D01*
X107465831Y-77422108D01*
X107462706Y-77421702D01*
X107459682Y-77421181D01*
X107456762Y-77420545D01*
X107453939Y-77419792D01*
X107451222Y-77418921D01*
X107448604Y-77417936D01*
X107446087Y-77416836D01*
X107443674Y-77415619D01*
X107441361Y-77414286D01*
X107439154Y-77412837D01*
X107437043Y-77411273D01*
X107435037Y-77409592D01*
X107433131Y-77407795D01*
X107431334Y-77405888D01*
X107429654Y-77403874D01*
X107428088Y-77401755D01*
X107426641Y-77399527D01*
X107425308Y-77397193D01*
X107424092Y-77394754D01*
X107422989Y-77392209D01*
X107422005Y-77389555D01*
X107421136Y-77386795D01*
X107420383Y-77383931D01*
X107419745Y-77380958D01*
X107419224Y-77377882D01*
X107418819Y-77374695D01*
X107418529Y-77371404D01*
X107418356Y-77368006D01*
X107418295Y-77364504D01*
X107418295Y-77253092D01*
X107508516Y-77253092D01*
X107508516Y-77311218D01*
X107754955Y-77311218D01*
X107754955Y-77253092D01*
X107754831Y-77245204D01*
X107754463Y-77237594D01*
X107753847Y-77230256D01*
X107752988Y-77223194D01*
X107751879Y-77216405D01*
X107750527Y-77209892D01*
X107748926Y-77203652D01*
X107747081Y-77197686D01*
X107746071Y-77194804D01*
X107745003Y-77191981D01*
X107743875Y-77189223D01*
X107742693Y-77186523D01*
X107741455Y-77183887D01*
X107740156Y-77181312D01*
X107738804Y-77178794D01*
X107737395Y-77176341D01*
X107735927Y-77173950D01*
X107734406Y-77171622D01*
X107732826Y-77169353D01*
X107731190Y-77167147D01*
X107729495Y-77165001D01*
X107727745Y-77162919D01*
X107725937Y-77160894D01*
X107724075Y-77158935D01*
X107722151Y-77157035D01*
X107720165Y-77155197D01*
X107718121Y-77153422D01*
X107716014Y-77151707D01*
X107713845Y-77150054D01*
X107711616Y-77148460D01*
X107709322Y-77146931D01*
X107706968Y-77145462D01*
X107704553Y-77144054D01*
X107702076Y-77142708D01*
X107699539Y-77141424D01*
X107696942Y-77140203D01*
X107694279Y-77139040D01*
X107691556Y-77137940D01*
X107688772Y-77136901D01*
X107685927Y-77135927D01*
X107683020Y-77135011D01*
X107680043Y-77134153D01*
X107677001Y-77133353D01*
X107673893Y-77132615D01*
X107670719Y-77131934D01*
X107667479Y-77131315D01*
X107664174Y-77130751D01*
X107660800Y-77130250D01*
X107653854Y-77129422D01*
X107646646Y-77128830D01*
X107639171Y-77128475D01*
X107631433Y-77128356D01*
X107623689Y-77128476D01*
X107616205Y-77128839D01*
X107608978Y-77129442D01*
X107602009Y-77130287D01*
X107595298Y-77131373D01*
X107588845Y-77132699D01*
X107582649Y-77134266D01*
X107576710Y-77136077D01*
X107571031Y-77138128D01*
X107565608Y-77140419D01*
X107560447Y-77142951D01*
X107555538Y-77145726D01*
X107550888Y-77148743D01*
X107546497Y-77152000D01*
X107542365Y-77155497D01*
X107538487Y-77159237D01*
X107534861Y-77163222D01*
X107531464Y-77167457D01*
X107528302Y-77171946D01*
X107525377Y-77176685D01*
X107522682Y-77181671D01*
X107520224Y-77186910D01*
X107518000Y-77192401D01*
X107516009Y-77198142D01*
X107514255Y-77204132D01*
X107512730Y-77210374D01*
X107511443Y-77216867D01*
X107510388Y-77223611D01*
X107509569Y-77230602D01*
X107508983Y-77237846D01*
X107508633Y-77245343D01*
X107508516Y-77253092D01*
X107418295Y-77253092D01*
X107418295Y-77245824D01*
X107418512Y-77232094D01*
X107419165Y-77218761D01*
X107420254Y-77205822D01*
X107421779Y-77193277D01*
X107423736Y-77181129D01*
X107426129Y-77169375D01*
X107428959Y-77158016D01*
X107432223Y-77147053D01*
X107435923Y-77136482D01*
X107440056Y-77126308D01*
X107444626Y-77116532D01*
X107449630Y-77107145D01*
X107455072Y-77098157D01*
X107460947Y-77089563D01*
X107467257Y-77081362D01*
X107474004Y-77073558D01*
X107481146Y-77066190D01*
X107488648Y-77059295D01*
X107496509Y-77052878D01*
X107504731Y-77046936D01*
X107513312Y-77041469D01*
X107522254Y-77036477D01*
X107531552Y-77031959D01*
X107541214Y-77027919D01*
X107551232Y-77024354D01*
X107561610Y-77021264D01*
X107572349Y-77018650D01*
X107583448Y-77016510D01*
X107594903Y-77014845D01*
X107606720Y-77013656D01*
X107618895Y-77012944D01*
X107631433Y-77012708D01*
X107643974Y-77012954D01*
G37*
G36*
X107803206Y-75644881D02*
G01*
X107805974Y-75645023D01*
X107808666Y-75645261D01*
X107811285Y-75645589D01*
X107813832Y-75646015D01*
X107816304Y-75646537D01*
X107818703Y-75647151D01*
X107821030Y-75647861D01*
X107823282Y-75648664D01*
X107825462Y-75649564D01*
X107827568Y-75650556D01*
X107829601Y-75651643D01*
X107831562Y-75652826D01*
X107833447Y-75654103D01*
X107835260Y-75655479D01*
X107837002Y-75656941D01*
X107838650Y-75658490D01*
X107840193Y-75660103D01*
X107841630Y-75661782D01*
X107842960Y-75663527D01*
X107844185Y-75665339D01*
X107845302Y-75667217D01*
X107846314Y-75669161D01*
X107847218Y-75671172D01*
X107848017Y-75673248D01*
X107848706Y-75675392D01*
X107849295Y-75677598D01*
X107849774Y-75679876D01*
X107850146Y-75682216D01*
X107850412Y-75684624D01*
X107850572Y-75687099D01*
X107850625Y-75689639D01*
X107850593Y-75692179D01*
X107850506Y-75694649D01*
X107850356Y-75697050D01*
X107850150Y-75699384D01*
X107849885Y-75701648D01*
X107849560Y-75703846D01*
X107849176Y-75705971D01*
X107848732Y-75708031D01*
X107848229Y-75710022D01*
X107847668Y-75711944D01*
X107847046Y-75713797D01*
X107846367Y-75715581D01*
X107845627Y-75717298D01*
X107844830Y-75718946D01*
X107843972Y-75720523D01*
X107843056Y-75722035D01*
X107842073Y-75723516D01*
X107841026Y-75725008D01*
X107839908Y-75726514D01*
X107838724Y-75728033D01*
X107837466Y-75729561D01*
X107836145Y-75731102D01*
X107834751Y-75732654D01*
X107833294Y-75734219D01*
X107831762Y-75735797D01*
X107830165Y-75737385D01*
X107828499Y-75738985D01*
X107826764Y-75740597D01*
X107824959Y-75742220D01*
X107823089Y-75743856D01*
X107821148Y-75745503D01*
X107819138Y-75747162D01*
X107599987Y-75922151D01*
X107797944Y-75922151D01*
X107801149Y-75922203D01*
X107804256Y-75922354D01*
X107807261Y-75922609D01*
X107810169Y-75922964D01*
X107812977Y-75923422D01*
X107815683Y-75923982D01*
X107818294Y-75924645D01*
X107820803Y-75925405D01*
X107823214Y-75926270D01*
X107825524Y-75927237D01*
X107827735Y-75928305D01*
X107829846Y-75929475D01*
X107831859Y-75930746D01*
X107833774Y-75932120D01*
X107835586Y-75933595D01*
X107837302Y-75935170D01*
X107838915Y-75936847D01*
X107840424Y-75938618D01*
X107841831Y-75940487D01*
X107843129Y-75942457D01*
X107844328Y-75944520D01*
X107845421Y-75946679D01*
X107846407Y-75948935D01*
X107847294Y-75951292D01*
X107848074Y-75953743D01*
X107848751Y-75956292D01*
X107849324Y-75958936D01*
X107849791Y-75961681D01*
X107850156Y-75964522D01*
X107850417Y-75967456D01*
X107850572Y-75970490D01*
X107850625Y-75973619D01*
X107850572Y-75976751D01*
X107850417Y-75979787D01*
X107850156Y-75982730D01*
X107849791Y-75985578D01*
X107849324Y-75988331D01*
X107848751Y-75990987D01*
X107848074Y-75993554D01*
X107847294Y-75996023D01*
X107846407Y-75998398D01*
X107845421Y-76000678D01*
X107844328Y-76002863D01*
X107843129Y-76004954D01*
X107841831Y-76006950D01*
X107840424Y-76008852D01*
X107838915Y-76010659D01*
X107837302Y-76012371D01*
X107835586Y-76013984D01*
X107833774Y-76015494D01*
X107831859Y-76016899D01*
X107829846Y-76018199D01*
X107827735Y-76019396D01*
X107825524Y-76020489D01*
X107823214Y-76021477D01*
X107820803Y-76022361D01*
X107818294Y-76023143D01*
X107815683Y-76023819D01*
X107812977Y-76024393D01*
X107810169Y-76024860D01*
X107807261Y-76025224D01*
X107804256Y-76025485D01*
X107801149Y-76025642D01*
X107797944Y-76025693D01*
X107467948Y-76025693D01*
X107464667Y-76025642D01*
X107461481Y-76025485D01*
X107458392Y-76025224D01*
X107455404Y-76024860D01*
X107452508Y-76024393D01*
X107449711Y-76023819D01*
X107447012Y-76023143D01*
X107444409Y-76022361D01*
X107441904Y-76021477D01*
X107439493Y-76020489D01*
X107437181Y-76019396D01*
X107434966Y-76018199D01*
X107432849Y-76016899D01*
X107430829Y-76015494D01*
X107428903Y-76013984D01*
X107427077Y-76012371D01*
X107425353Y-76010673D01*
X107423741Y-76008909D01*
X107422239Y-76007077D01*
X107420850Y-76005181D01*
X107419571Y-76003218D01*
X107418404Y-76001191D01*
X107417349Y-75999093D01*
X107416404Y-75996931D01*
X107415571Y-75994703D01*
X107414847Y-75992409D01*
X107414236Y-75990049D01*
X107413738Y-75987624D01*
X107413349Y-75985128D01*
X107413069Y-75982569D01*
X107412902Y-75979943D01*
X107412847Y-75977253D01*
X107412874Y-75974863D01*
X107412959Y-75972543D01*
X107413102Y-75970283D01*
X107413301Y-75968094D01*
X107413556Y-75965971D01*
X107413868Y-75963912D01*
X107414237Y-75961922D01*
X107414663Y-75959993D01*
X107415147Y-75958137D01*
X107415686Y-75956342D01*
X107416281Y-75954617D01*
X107416934Y-75952957D01*
X107417643Y-75951363D01*
X107418409Y-75949835D01*
X107419232Y-75948372D01*
X107420113Y-75946977D01*
X107421058Y-75945605D01*
X107422082Y-75944214D01*
X107423177Y-75942807D01*
X107424350Y-75941376D01*
X107425599Y-75939930D01*
X107426923Y-75938462D01*
X107428325Y-75936976D01*
X107429800Y-75935470D01*
X107431351Y-75933950D01*
X107432979Y-75932409D01*
X107434684Y-75930845D01*
X107436462Y-75929265D01*
X107438316Y-75927668D01*
X107440246Y-75926049D01*
X107442250Y-75924413D01*
X107444333Y-75922756D01*
X107662933Y-75747767D01*
X107464920Y-75747767D01*
X107461788Y-75747714D01*
X107458751Y-75747564D01*
X107455809Y-75747310D01*
X107452961Y-75746954D01*
X107450208Y-75746498D01*
X107447548Y-75745937D01*
X107444985Y-75745275D01*
X107442515Y-75744512D01*
X107440142Y-75743647D01*
X107437862Y-75742682D01*
X107435677Y-75741614D01*
X107433585Y-75740445D01*
X107431588Y-75739173D01*
X107429688Y-75737800D01*
X107427881Y-75736325D01*
X107426168Y-75734750D01*
X107424554Y-75733075D01*
X107423047Y-75731301D01*
X107421641Y-75729431D01*
X107420340Y-75727465D01*
X107419144Y-75725401D01*
X107418049Y-75723242D01*
X107417061Y-75720982D01*
X107416178Y-75718629D01*
X107415397Y-75716176D01*
X107414720Y-75713629D01*
X107414149Y-75710985D01*
X107413677Y-75708241D01*
X107413316Y-75705402D01*
X107413053Y-75702464D01*
X107412899Y-75699431D01*
X107412847Y-75696300D01*
X107412899Y-75693168D01*
X107413053Y-75690137D01*
X107413316Y-75687199D01*
X107413677Y-75684361D01*
X107414149Y-75681618D01*
X107414720Y-75678973D01*
X107415397Y-75676424D01*
X107416178Y-75673972D01*
X107417061Y-75671617D01*
X107418049Y-75669361D01*
X107419144Y-75667198D01*
X107420340Y-75665134D01*
X107421641Y-75663169D01*
X107423047Y-75661299D01*
X107424554Y-75659526D01*
X107426168Y-75657850D01*
X107427881Y-75656275D01*
X107429688Y-75654800D01*
X107431588Y-75653427D01*
X107433585Y-75652155D01*
X107435677Y-75650985D01*
X107437862Y-75649919D01*
X107440142Y-75648953D01*
X107442515Y-75648085D01*
X107444985Y-75647325D01*
X107447548Y-75646663D01*
X107450208Y-75646105D01*
X107452961Y-75645647D01*
X107455809Y-75645290D01*
X107458751Y-75645036D01*
X107461788Y-75644885D01*
X107464920Y-75644834D01*
X107800368Y-75644834D01*
X107803206Y-75644881D01*
G37*
G36*
X107804792Y-71635340D02*
G01*
X107807322Y-71635468D01*
X107809769Y-71635679D01*
X107812137Y-71635978D01*
X107814425Y-71636362D01*
X107816630Y-71636830D01*
X107818758Y-71637385D01*
X107820803Y-71638022D01*
X107822770Y-71638747D01*
X107824654Y-71639556D01*
X107826458Y-71640448D01*
X107828183Y-71641429D01*
X107829825Y-71642492D01*
X107831390Y-71643642D01*
X107832872Y-71644876D01*
X107834276Y-71646197D01*
X107835596Y-71647602D01*
X107836831Y-71649092D01*
X107837978Y-71650666D01*
X107839044Y-71652326D01*
X107840022Y-71654073D01*
X107840917Y-71655905D01*
X107841726Y-71657819D01*
X107842448Y-71659819D01*
X107843089Y-71661908D01*
X107843642Y-71664079D01*
X107844110Y-71666336D01*
X107844493Y-71668676D01*
X107844792Y-71671104D01*
X107845004Y-71673615D01*
X107845132Y-71676211D01*
X107845175Y-71678893D01*
X107845175Y-71884160D01*
X107845116Y-71887661D01*
X107844942Y-71891062D01*
X107844653Y-71894352D01*
X107844248Y-71897535D01*
X107843725Y-71900617D01*
X107843090Y-71903584D01*
X107842335Y-71906451D01*
X107841466Y-71909212D01*
X107840480Y-71911863D01*
X107839380Y-71914409D01*
X107838163Y-71916849D01*
X107836831Y-71919183D01*
X107835380Y-71921409D01*
X107833817Y-71923531D01*
X107832137Y-71925544D01*
X107830341Y-71927452D01*
X107828433Y-71929249D01*
X107826427Y-71930928D01*
X107824319Y-71932494D01*
X107822109Y-71933943D01*
X107819798Y-71935275D01*
X107817385Y-71936492D01*
X107814870Y-71937593D01*
X107812251Y-71938576D01*
X107809531Y-71939446D01*
X107806712Y-71940201D01*
X107803788Y-71940838D01*
X107800765Y-71941358D01*
X107797638Y-71941765D01*
X107794411Y-71942054D01*
X107791083Y-71942228D01*
X107787651Y-71942285D01*
X107475819Y-71942285D01*
X107472387Y-71942228D01*
X107469058Y-71942054D01*
X107465831Y-71941765D01*
X107462706Y-71941358D01*
X107459682Y-71940838D01*
X107456762Y-71940201D01*
X107453939Y-71939446D01*
X107451222Y-71938576D01*
X107448604Y-71937593D01*
X107446087Y-71936492D01*
X107443674Y-71935275D01*
X107441361Y-71933943D01*
X107439154Y-71932494D01*
X107437043Y-71930928D01*
X107435037Y-71929249D01*
X107433131Y-71927452D01*
X107431334Y-71925544D01*
X107429654Y-71923531D01*
X107428088Y-71921409D01*
X107426641Y-71919183D01*
X107425308Y-71916849D01*
X107424092Y-71914409D01*
X107422989Y-71911863D01*
X107422005Y-71909212D01*
X107421136Y-71906451D01*
X107420383Y-71903584D01*
X107419745Y-71900617D01*
X107419224Y-71897535D01*
X107418819Y-71894352D01*
X107418529Y-71891062D01*
X107418356Y-71887661D01*
X107418295Y-71884160D01*
X107418295Y-71678893D01*
X107418338Y-71676211D01*
X107418465Y-71673615D01*
X107418678Y-71671104D01*
X107418978Y-71668676D01*
X107419360Y-71666336D01*
X107419828Y-71664079D01*
X107420383Y-71661908D01*
X107421022Y-71659819D01*
X107421745Y-71657819D01*
X107422553Y-71655905D01*
X107423447Y-71654073D01*
X107424429Y-71652326D01*
X107425491Y-71650666D01*
X107426641Y-71649092D01*
X107427874Y-71647602D01*
X107429196Y-71646197D01*
X107430597Y-71644876D01*
X107432071Y-71643642D01*
X107433622Y-71642492D01*
X107435249Y-71641429D01*
X107436952Y-71640448D01*
X107438730Y-71639556D01*
X107440586Y-71638747D01*
X107442515Y-71638022D01*
X107444520Y-71637385D01*
X107446604Y-71636830D01*
X107448761Y-71636362D01*
X107450992Y-71635978D01*
X107453302Y-71635679D01*
X107455685Y-71635468D01*
X107458145Y-71635340D01*
X107460681Y-71635297D01*
X107463290Y-71635340D01*
X107465822Y-71635468D01*
X107468278Y-71635679D01*
X107470652Y-71635978D01*
X107472951Y-71636362D01*
X107475171Y-71636830D01*
X107477311Y-71637385D01*
X107479376Y-71638022D01*
X107481364Y-71638747D01*
X107483270Y-71639556D01*
X107485099Y-71640448D01*
X107486851Y-71641429D01*
X107488523Y-71642492D01*
X107490119Y-71643642D01*
X107491635Y-71644876D01*
X107493076Y-71646197D01*
X107494433Y-71647602D01*
X107495702Y-71649092D01*
X107496881Y-71650666D01*
X107497975Y-71652326D01*
X107498982Y-71654073D01*
X107499901Y-71655905D01*
X107500732Y-71657819D01*
X107501477Y-71659819D01*
X107502135Y-71661908D01*
X107502700Y-71664079D01*
X107503184Y-71666336D01*
X107503577Y-71668676D01*
X107503883Y-71671104D01*
X107504103Y-71673615D01*
X107504234Y-71676211D01*
X107504277Y-71678893D01*
X107504277Y-71835719D01*
X107585415Y-71835719D01*
X107585415Y-71692217D01*
X107585459Y-71689606D01*
X107585585Y-71687073D01*
X107585797Y-71684619D01*
X107586095Y-71682242D01*
X107586477Y-71679946D01*
X107586946Y-71677725D01*
X107587500Y-71675583D01*
X107588140Y-71673518D01*
X107588863Y-71671533D01*
X107589672Y-71669628D01*
X107590564Y-71667796D01*
X107591545Y-71666045D01*
X107592610Y-71664373D01*
X107593759Y-71662778D01*
X107594993Y-71661259D01*
X107596313Y-71659819D01*
X107597716Y-71658465D01*
X107599198Y-71657194D01*
X107600763Y-71656012D01*
X107602406Y-71654920D01*
X107604130Y-71653913D01*
X107605936Y-71652994D01*
X107607822Y-71652162D01*
X107609786Y-71651418D01*
X107611832Y-71650762D01*
X107613959Y-71650193D01*
X107616165Y-71649711D01*
X107618454Y-71649318D01*
X107620819Y-71649011D01*
X107623267Y-71648792D01*
X107625797Y-71648661D01*
X107628403Y-71648617D01*
X107631015Y-71648661D01*
X107633542Y-71648792D01*
X107635990Y-71649011D01*
X107638358Y-71649318D01*
X107640645Y-71649711D01*
X107642851Y-71650193D01*
X107644979Y-71650762D01*
X107647026Y-71651418D01*
X107648990Y-71652162D01*
X107650875Y-71652994D01*
X107652681Y-71653913D01*
X107654405Y-71654920D01*
X107656047Y-71656012D01*
X107657610Y-71657194D01*
X107659094Y-71658465D01*
X107660496Y-71659819D01*
X107661816Y-71661259D01*
X107663051Y-71662778D01*
X107664201Y-71664373D01*
X107665264Y-71666045D01*
X107666243Y-71667796D01*
X107667137Y-71669628D01*
X107667946Y-71671533D01*
X107668670Y-71673518D01*
X107669309Y-71675583D01*
X107669862Y-71677725D01*
X107670331Y-71679946D01*
X107670713Y-71682242D01*
X107671013Y-71684619D01*
X107671226Y-71687073D01*
X107671353Y-71689606D01*
X107671395Y-71692217D01*
X107671395Y-71835719D01*
X107759194Y-71835719D01*
X107759194Y-71678893D01*
X107759236Y-71676211D01*
X107759369Y-71673615D01*
X107759588Y-71671104D01*
X107759892Y-71668676D01*
X107760286Y-71666336D01*
X107760769Y-71664079D01*
X107761337Y-71661908D01*
X107761994Y-71659819D01*
X107762737Y-71657819D01*
X107763569Y-71655905D01*
X107764488Y-71654073D01*
X107765496Y-71652326D01*
X107766588Y-71650666D01*
X107767771Y-71649092D01*
X107769039Y-71647602D01*
X107770394Y-71646197D01*
X107771831Y-71644876D01*
X107773341Y-71643642D01*
X107774926Y-71642492D01*
X107776582Y-71641429D01*
X107778313Y-71640448D01*
X107780114Y-71639556D01*
X107781993Y-71638747D01*
X107783943Y-71638022D01*
X107785966Y-71637385D01*
X107788062Y-71636830D01*
X107790233Y-71636362D01*
X107792477Y-71635978D01*
X107794794Y-71635679D01*
X107797183Y-71635468D01*
X107799647Y-71635340D01*
X107802183Y-71635297D01*
X107804792Y-71635340D01*
G37*
G36*
X107671239Y-74339828D02*
G01*
X107678799Y-74340081D01*
X107686200Y-74340502D01*
X107693438Y-74341089D01*
X107700523Y-74341844D01*
X107707446Y-74342769D01*
X107714211Y-74343860D01*
X107720819Y-74345118D01*
X107727267Y-74346545D01*
X107733559Y-74348142D01*
X107739690Y-74349906D01*
X107745665Y-74351836D01*
X107751481Y-74353937D01*
X107757137Y-74356202D01*
X107762632Y-74358637D01*
X107767974Y-74361242D01*
X107773151Y-74364009D01*
X107778163Y-74366941D01*
X107783009Y-74370037D01*
X107787690Y-74373294D01*
X107792206Y-74376714D01*
X107796554Y-74380301D01*
X107800738Y-74384047D01*
X107804757Y-74387958D01*
X107808612Y-74392031D01*
X107812296Y-74396268D01*
X107815821Y-74400671D01*
X107819178Y-74405232D01*
X107822369Y-74409960D01*
X107825393Y-74414851D01*
X107828253Y-74419905D01*
X107830945Y-74425121D01*
X107833473Y-74430494D01*
X107835840Y-74436020D01*
X107838043Y-74441697D01*
X107840084Y-74447523D01*
X107841962Y-74453504D01*
X107843675Y-74459636D01*
X107845226Y-74465917D01*
X107846612Y-74472350D01*
X107847836Y-74478936D01*
X107848898Y-74485671D01*
X107849794Y-74492559D01*
X107850529Y-74499597D01*
X107851100Y-74506788D01*
X107851508Y-74514129D01*
X107851754Y-74521623D01*
X107851834Y-74529268D01*
X107851650Y-74540751D01*
X107851097Y-74551899D01*
X107850175Y-74562703D01*
X107848883Y-74573166D01*
X107847222Y-74583288D01*
X107845193Y-74593073D01*
X107842795Y-74602513D01*
X107840028Y-74611616D01*
X107838505Y-74616036D01*
X107836892Y-74620371D01*
X107835184Y-74624618D01*
X107833387Y-74628778D01*
X107831496Y-74632850D01*
X107829511Y-74636834D01*
X107827435Y-74640730D01*
X107825268Y-74644538D01*
X107823009Y-74648262D01*
X107820657Y-74651896D01*
X107818212Y-74655441D01*
X107815674Y-74658901D01*
X107813047Y-74662272D01*
X107810324Y-74665556D01*
X107807511Y-74668754D01*
X107804606Y-74671864D01*
X107801608Y-74674880D01*
X107798519Y-74677804D01*
X107795335Y-74680633D01*
X107792060Y-74683369D01*
X107788694Y-74686007D01*
X107785236Y-74688551D01*
X107781685Y-74691000D01*
X107778040Y-74693359D01*
X107774304Y-74695619D01*
X107770477Y-74697784D01*
X107766555Y-74699856D01*
X107762542Y-74701835D01*
X107758439Y-74703717D01*
X107754238Y-74705505D01*
X107749952Y-74707199D01*
X107745569Y-74708796D01*
X107741098Y-74710303D01*
X107736538Y-74711709D01*
X107731891Y-74713018D01*
X107727158Y-74714228D01*
X107722336Y-74715342D01*
X107717428Y-74716362D01*
X107712432Y-74717281D01*
X107707347Y-74718108D01*
X107702176Y-74718834D01*
X107696916Y-74719464D01*
X107691570Y-74719998D01*
X107686136Y-74720435D01*
X107675007Y-74721015D01*
X107663524Y-74721210D01*
X107469159Y-74721210D01*
X107465730Y-74721155D01*
X107462409Y-74720983D01*
X107459192Y-74720700D01*
X107456084Y-74720302D01*
X107453080Y-74719791D01*
X107450184Y-74719167D01*
X107447395Y-74718430D01*
X107444711Y-74717578D01*
X107442132Y-74716613D01*
X107439664Y-74715534D01*
X107437300Y-74714343D01*
X107435041Y-74713035D01*
X107432891Y-74711618D01*
X107430847Y-74710085D01*
X107428907Y-74708438D01*
X107427077Y-74706680D01*
X107425353Y-74704815D01*
X107423741Y-74702856D01*
X107422239Y-74700803D01*
X107420850Y-74698656D01*
X107419571Y-74696414D01*
X107418404Y-74694077D01*
X107417349Y-74691644D01*
X107416404Y-74689120D01*
X107415571Y-74686499D01*
X107414847Y-74683783D01*
X107414236Y-74680975D01*
X107413738Y-74678070D01*
X107413349Y-74675069D01*
X107413069Y-74671977D01*
X107412902Y-74668787D01*
X107412847Y-74665504D01*
X107412902Y-74662150D01*
X107413069Y-74658897D01*
X107413349Y-74655744D01*
X107413738Y-74652693D01*
X107414236Y-74649745D01*
X107414847Y-74646900D01*
X107415571Y-74644155D01*
X107416404Y-74641510D01*
X107417349Y-74638970D01*
X107418404Y-74636529D01*
X107419571Y-74634192D01*
X107420850Y-74631956D01*
X107422239Y-74629821D01*
X107423741Y-74627788D01*
X107425353Y-74625856D01*
X107427077Y-74624028D01*
X107428907Y-74622302D01*
X107430847Y-74620692D01*
X107432891Y-74619193D01*
X107435041Y-74617802D01*
X107437300Y-74616525D01*
X107439664Y-74615356D01*
X107442132Y-74614300D01*
X107444711Y-74613356D01*
X107447395Y-74612523D01*
X107450184Y-74611800D01*
X107453080Y-74611189D01*
X107456084Y-74610689D01*
X107459192Y-74610298D01*
X107462409Y-74610021D01*
X107465730Y-74609855D01*
X107469159Y-74609800D01*
X107664735Y-74609800D01*
X107670474Y-74609718D01*
X107676032Y-74609476D01*
X107681411Y-74609075D01*
X107686609Y-74608511D01*
X107691628Y-74607788D01*
X107696468Y-74606903D01*
X107701126Y-74605858D01*
X107705606Y-74604653D01*
X107709909Y-74603284D01*
X107714027Y-74601755D01*
X107717967Y-74600069D01*
X107721728Y-74598218D01*
X107725310Y-74596208D01*
X107728711Y-74594037D01*
X107731933Y-74591703D01*
X107734974Y-74589213D01*
X107737832Y-74586565D01*
X107740508Y-74583772D01*
X107742999Y-74580830D01*
X107745306Y-74577744D01*
X107747428Y-74574512D01*
X107749364Y-74571131D01*
X107751118Y-74567605D01*
X107752684Y-74563931D01*
X107754068Y-74560112D01*
X107755269Y-74556146D01*
X107756282Y-74552034D01*
X107757113Y-74547772D01*
X107757758Y-74543367D01*
X107758220Y-74538813D01*
X107758495Y-74534111D01*
X107758586Y-74529268D01*
X107758495Y-74524493D01*
X107758220Y-74519862D01*
X107757758Y-74515373D01*
X107757113Y-74511027D01*
X107756282Y-74506821D01*
X107755269Y-74502756D01*
X107754068Y-74498836D01*
X107752684Y-74495054D01*
X107751118Y-74491418D01*
X107749364Y-74487924D01*
X107747428Y-74484567D01*
X107745306Y-74481356D01*
X107742999Y-74478286D01*
X107740508Y-74475358D01*
X107737832Y-74472572D01*
X107734974Y-74469927D01*
X107731933Y-74467435D01*
X107728711Y-74465102D01*
X107725310Y-74462932D01*
X107721728Y-74460919D01*
X107717967Y-74459071D01*
X107714027Y-74457382D01*
X107709909Y-74455856D01*
X107705606Y-74454487D01*
X107701126Y-74453281D01*
X107696468Y-74452235D01*
X107691628Y-74451351D01*
X107686609Y-74450628D01*
X107681411Y-74450063D01*
X107676032Y-74449662D01*
X107670474Y-74449421D01*
X107664735Y-74449341D01*
X107469159Y-74449341D01*
X107465730Y-74449285D01*
X107462409Y-74449120D01*
X107459192Y-74448840D01*
X107456084Y-74448451D01*
X107453080Y-74447951D01*
X107450184Y-74447340D01*
X107447395Y-74446617D01*
X107444711Y-74445782D01*
X107442132Y-74444836D01*
X107439664Y-74443782D01*
X107437300Y-74442615D01*
X107435041Y-74441337D01*
X107432891Y-74439946D01*
X107430847Y-74438447D01*
X107428907Y-74436835D01*
X107427077Y-74435111D01*
X107425353Y-74433285D01*
X107423741Y-74431360D01*
X107422239Y-74429337D01*
X107420850Y-74427222D01*
X107419571Y-74425005D01*
X107418404Y-74422694D01*
X107417349Y-74420285D01*
X107416404Y-74417780D01*
X107415571Y-74415177D01*
X107414847Y-74412477D01*
X107414236Y-74409679D01*
X107413738Y-74406786D01*
X107413349Y-74403794D01*
X107413069Y-74400706D01*
X107412902Y-74397522D01*
X107412847Y-74394240D01*
X107412902Y-74390959D01*
X107413069Y-74387779D01*
X107413349Y-74384697D01*
X107413738Y-74381715D01*
X107414236Y-74378831D01*
X107414847Y-74376046D01*
X107415571Y-74373362D01*
X107416404Y-74370776D01*
X107417349Y-74368291D01*
X107418404Y-74365905D01*
X107419571Y-74363619D01*
X107420850Y-74361428D01*
X107422239Y-74359341D01*
X107423741Y-74357351D01*
X107425353Y-74355460D01*
X107427077Y-74353671D01*
X107428907Y-74351985D01*
X107430847Y-74350406D01*
X107432891Y-74348939D01*
X107435041Y-74347577D01*
X107437300Y-74346326D01*
X107439664Y-74345184D01*
X107442132Y-74344150D01*
X107444711Y-74343228D01*
X107447395Y-74342410D01*
X107450184Y-74341703D01*
X107453080Y-74341103D01*
X107456084Y-74340614D01*
X107459192Y-74340235D01*
X107462409Y-74339963D01*
X107465730Y-74339799D01*
X107469159Y-74339743D01*
X107663524Y-74339743D01*
X107671239Y-74339828D01*
G37*
G36*
X106405717Y-72788252D02*
G01*
X106421329Y-72789056D01*
X106436484Y-72790392D01*
X106451183Y-72792265D01*
X106465423Y-72794672D01*
X106479201Y-72797615D01*
X106492523Y-72801092D01*
X106505387Y-72805103D01*
X106517792Y-72809650D01*
X106529739Y-72814731D01*
X106541225Y-72820348D01*
X106552255Y-72826499D01*
X106562827Y-72833184D01*
X106572939Y-72840408D01*
X106582593Y-72848163D01*
X106591788Y-72856455D01*
X106600473Y-72865267D01*
X106608597Y-72874592D01*
X106616162Y-72884422D01*
X106623169Y-72894763D01*
X106629612Y-72905615D01*
X106635496Y-72916975D01*
X106640819Y-72928845D01*
X106645585Y-72941224D01*
X106649787Y-72954113D01*
X106653429Y-72967511D01*
X106656510Y-72981417D01*
X106659033Y-72995837D01*
X106660992Y-73010762D01*
X106662394Y-73026199D01*
X106663236Y-73042144D01*
X106663516Y-73058600D01*
X106663236Y-73074665D01*
X106662394Y-73090260D01*
X106660992Y-73105384D01*
X106659033Y-73120037D01*
X106656510Y-73134218D01*
X106653429Y-73147927D01*
X106649787Y-73161165D01*
X106645585Y-73173933D01*
X106640819Y-73186232D01*
X106635496Y-73198056D01*
X106629612Y-73209410D01*
X106623169Y-73220292D01*
X106616162Y-73230706D01*
X106608597Y-73240645D01*
X106600473Y-73250114D01*
X106591788Y-73259112D01*
X106582593Y-73267600D01*
X106572939Y-73275541D01*
X106562827Y-73282934D01*
X106552255Y-73289778D01*
X106541225Y-73296077D01*
X106529739Y-73301828D01*
X106517792Y-73307032D01*
X106505387Y-73311685D01*
X106492523Y-73315792D01*
X106479201Y-73319353D01*
X106465423Y-73322365D01*
X106451183Y-73324830D01*
X106436484Y-73326743D01*
X106421329Y-73328116D01*
X106405717Y-73328937D01*
X106389643Y-73329209D01*
X105387145Y-73329209D01*
X106180978Y-73785665D01*
X106189803Y-73791389D01*
X106198351Y-73797154D01*
X106206616Y-73802954D01*
X106214602Y-73808795D01*
X106222306Y-73814670D01*
X106229732Y-73820586D01*
X106236876Y-73826541D01*
X106243740Y-73832533D01*
X106250324Y-73838564D01*
X106256631Y-73844632D01*
X106262653Y-73850738D01*
X106268397Y-73856884D01*
X106273861Y-73863067D01*
X106279044Y-73869290D01*
X106283948Y-73875547D01*
X106288571Y-73881846D01*
X106292915Y-73888297D01*
X106296976Y-73895017D01*
X106300760Y-73902002D01*
X106304262Y-73909254D01*
X106307483Y-73916775D01*
X106310426Y-73924562D01*
X106313087Y-73932616D01*
X106315469Y-73940940D01*
X106317569Y-73949533D01*
X106319391Y-73958389D01*
X106320933Y-73967516D01*
X106322192Y-73976907D01*
X106323172Y-73986567D01*
X106323875Y-73996495D01*
X106324294Y-74006692D01*
X106324436Y-74017154D01*
X106324294Y-74027226D01*
X106323875Y-74037073D01*
X106323172Y-74046686D01*
X106322192Y-74056073D01*
X106320933Y-74065231D01*
X106319391Y-74074157D01*
X106317569Y-74082857D01*
X106315469Y-74091327D01*
X106313087Y-74099567D01*
X106310426Y-74107579D01*
X106307483Y-74115359D01*
X106304262Y-74122911D01*
X106300760Y-74130235D01*
X106296976Y-74137329D01*
X106292915Y-74144193D01*
X106288571Y-74150829D01*
X106283948Y-74157310D01*
X106279044Y-74163717D01*
X106273861Y-74170048D01*
X106268397Y-74176301D01*
X106262653Y-74182478D01*
X106256631Y-74188577D01*
X106250324Y-74194601D01*
X106243740Y-74200548D01*
X106236876Y-74206419D01*
X106229732Y-74212214D01*
X106222306Y-74217936D01*
X106214602Y-74223574D01*
X106206616Y-74229141D01*
X106198351Y-74234629D01*
X106189803Y-74240043D01*
X106180978Y-74245381D01*
X105394881Y-74698575D01*
X106389643Y-74698575D01*
X106405717Y-74698840D01*
X106421329Y-74699644D01*
X106436484Y-74700981D01*
X106451183Y-74702853D01*
X106465423Y-74705261D01*
X106479201Y-74708201D01*
X106492523Y-74711680D01*
X106505387Y-74715691D01*
X106517792Y-74720238D01*
X106529739Y-74725320D01*
X106541225Y-74730934D01*
X106552255Y-74737088D01*
X106562827Y-74743773D01*
X106572939Y-74750996D01*
X106582593Y-74758751D01*
X106591788Y-74767043D01*
X106600473Y-74775854D01*
X106608597Y-74785179D01*
X106616162Y-74795011D01*
X106623169Y-74805352D01*
X106629612Y-74816202D01*
X106635496Y-74827564D01*
X106640819Y-74839433D01*
X106645585Y-74851812D01*
X106649787Y-74864703D01*
X106653429Y-74878099D01*
X106656510Y-74892007D01*
X106659033Y-74906424D01*
X106660992Y-74921349D01*
X106662394Y-74936787D01*
X106663236Y-74952732D01*
X106663516Y-74969186D01*
X106663236Y-74985253D01*
X106662394Y-75000848D01*
X106660992Y-75015971D01*
X106659033Y-75030625D01*
X106656510Y-75044805D01*
X106653429Y-75058515D01*
X106649787Y-75071754D01*
X106645585Y-75084521D01*
X106640819Y-75096820D01*
X106635496Y-75108644D01*
X106629612Y-75119997D01*
X106623169Y-75130881D01*
X106616162Y-75141293D01*
X106608597Y-75151234D01*
X106600473Y-75160703D01*
X106591788Y-75169701D01*
X106582593Y-75178188D01*
X106572939Y-75186131D01*
X106562827Y-75193524D01*
X106552255Y-75200369D01*
X106541225Y-75206667D01*
X106529739Y-75212418D01*
X106517792Y-75217619D01*
X106505387Y-75222274D01*
X106492523Y-75226382D01*
X106479201Y-75229942D01*
X106465423Y-75232954D01*
X106451183Y-75235419D01*
X106436484Y-75237334D01*
X106421329Y-75238704D01*
X106405717Y-75239525D01*
X106389643Y-75239799D01*
X104580125Y-75239799D01*
X104563664Y-75239506D01*
X104547702Y-75238626D01*
X104532232Y-75237165D01*
X104517263Y-75235112D01*
X104502788Y-75232477D01*
X104488810Y-75229253D01*
X104475327Y-75225447D01*
X104462344Y-75221051D01*
X104449858Y-75216072D01*
X104437866Y-75210506D01*
X104426372Y-75204354D01*
X104415375Y-75197617D01*
X104404875Y-75190295D01*
X104394869Y-75182386D01*
X104385362Y-75173892D01*
X104376352Y-75164808D01*
X104367864Y-75155195D01*
X104359921Y-75145096D01*
X104352528Y-75134512D01*
X104345684Y-75123443D01*
X104339385Y-75111893D01*
X104333635Y-75099857D01*
X104328433Y-75087338D01*
X104323779Y-75074334D01*
X104319671Y-75060847D01*
X104316111Y-75046875D01*
X104313099Y-75032420D01*
X104310634Y-75017482D01*
X104308719Y-75002057D01*
X104307350Y-74986149D01*
X104306526Y-74969759D01*
X104306252Y-74952883D01*
X104306423Y-74938805D01*
X104306942Y-74925093D01*
X104307801Y-74911754D01*
X104309004Y-74898782D01*
X104310552Y-74886181D01*
X104312443Y-74873948D01*
X104314678Y-74862083D01*
X104317256Y-74850590D01*
X104320179Y-74839464D01*
X104323447Y-74828709D01*
X104327058Y-74818324D01*
X104331013Y-74808308D01*
X104335311Y-74798658D01*
X104339954Y-74789381D01*
X104344940Y-74780472D01*
X104350267Y-74771932D01*
X104355994Y-74763622D01*
X104362164Y-74755402D01*
X104368779Y-74747270D01*
X104375843Y-74739226D01*
X104383352Y-74731274D01*
X104391303Y-74723408D01*
X104399704Y-74715635D01*
X104408547Y-74707947D01*
X104417840Y-74700351D01*
X104427577Y-74692842D01*
X104437760Y-74685423D01*
X104448388Y-74678096D01*
X104459460Y-74670855D01*
X104470980Y-74663704D01*
X104482945Y-74656641D01*
X104495356Y-74649670D01*
X105651190Y-74005873D01*
X104495356Y-73365076D01*
X104482945Y-73357706D01*
X104470980Y-73350276D01*
X104459460Y-73342780D01*
X104448388Y-73335222D01*
X104437760Y-73327599D01*
X104427577Y-73319912D01*
X104417840Y-73312163D01*
X104408547Y-73304350D01*
X104399704Y-73296473D01*
X104391303Y-73288532D01*
X104383352Y-73280527D01*
X104375843Y-73272460D01*
X104368779Y-73264328D01*
X104362164Y-73256131D01*
X104355994Y-73247872D01*
X104350267Y-73239550D01*
X104344940Y-73231010D01*
X104339954Y-73222101D01*
X104335311Y-73212825D01*
X104331013Y-73203176D01*
X104327058Y-73193159D01*
X104323447Y-73182774D01*
X104320179Y-73172015D01*
X104317256Y-73160890D01*
X104314678Y-73149398D01*
X104312443Y-73137535D01*
X104310552Y-73125301D01*
X104309004Y-73112700D01*
X104307801Y-73099729D01*
X104306942Y-73086387D01*
X104306423Y-73072676D01*
X104306252Y-73058600D01*
X104306526Y-73042532D01*
X104307350Y-73026936D01*
X104308719Y-73011813D01*
X104310634Y-72997161D01*
X104313099Y-72982979D01*
X104316111Y-72969268D01*
X104319671Y-72956029D01*
X104323779Y-72943260D01*
X104328433Y-72930965D01*
X104333635Y-72919139D01*
X104339385Y-72907785D01*
X104345684Y-72896902D01*
X104352528Y-72886491D01*
X104359921Y-72876550D01*
X104367864Y-72867082D01*
X104376352Y-72858085D01*
X104385362Y-72849594D01*
X104394869Y-72841655D01*
X104404875Y-72834260D01*
X104415375Y-72827415D01*
X104426372Y-72821119D01*
X104437866Y-72815368D01*
X104449858Y-72810164D01*
X104462344Y-72805511D01*
X104475327Y-72801402D01*
X104488810Y-72797842D01*
X104502788Y-72794831D01*
X104517263Y-72792368D01*
X104532232Y-72790449D01*
X104547702Y-72789082D01*
X104563664Y-72788258D01*
X104580125Y-72787986D01*
X106389643Y-72787986D01*
X106405717Y-72788252D01*
G37*
G36*
X106405717Y-75623861D02*
G01*
X106421329Y-75624663D01*
X106436484Y-75625999D01*
X106451183Y-75627871D01*
X106465423Y-75630278D01*
X106479201Y-75633222D01*
X106492523Y-75636698D01*
X106505387Y-75640709D01*
X106517792Y-75645257D01*
X106529739Y-75650338D01*
X106541225Y-75655956D01*
X106552255Y-75662107D01*
X106562827Y-75668792D01*
X106572939Y-75676015D01*
X106582593Y-75683770D01*
X106591788Y-75692061D01*
X106600473Y-75700875D01*
X106608597Y-75710198D01*
X106616162Y-75720029D01*
X106623169Y-75730371D01*
X106629612Y-75741221D01*
X106635496Y-75752582D01*
X106640819Y-75764452D01*
X106645585Y-75776831D01*
X106649787Y-75789719D01*
X106653429Y-75803120D01*
X106656510Y-75817027D01*
X106659033Y-75831443D01*
X106660992Y-75846369D01*
X106662394Y-75861806D01*
X106663236Y-75877752D01*
X106663516Y-75894207D01*
X106663236Y-75910273D01*
X106662394Y-75925868D01*
X106660992Y-75940992D01*
X106659033Y-75955645D01*
X106656510Y-75969827D01*
X106653429Y-75983535D01*
X106649787Y-75996775D01*
X106645585Y-76009543D01*
X106640819Y-76021837D01*
X106635496Y-76033663D01*
X106629612Y-76045019D01*
X106623169Y-76055900D01*
X106616162Y-76066311D01*
X106608597Y-76076253D01*
X106600473Y-76085721D01*
X106591788Y-76094719D01*
X106582593Y-76103210D01*
X106572939Y-76111148D01*
X106562827Y-76118542D01*
X106552255Y-76125387D01*
X106541225Y-76131685D01*
X106529739Y-76137436D01*
X106517792Y-76142640D01*
X106505387Y-76147294D01*
X106492523Y-76151401D01*
X106479201Y-76154960D01*
X106465423Y-76157974D01*
X106451183Y-76160438D01*
X106436484Y-76162354D01*
X106421329Y-76163723D01*
X106405717Y-76164545D01*
X106389643Y-76164818D01*
X105387145Y-76164818D01*
X106180978Y-76621274D01*
X106189803Y-76626998D01*
X106198351Y-76632762D01*
X106206616Y-76638561D01*
X106214602Y-76644401D01*
X106222306Y-76650278D01*
X106229732Y-76656193D01*
X106236876Y-76662150D01*
X106243740Y-76668141D01*
X106250324Y-76674173D01*
X106256631Y-76680242D01*
X106262653Y-76686349D01*
X106268397Y-76692491D01*
X106273861Y-76698676D01*
X106279044Y-76704897D01*
X106283948Y-76711154D01*
X106288571Y-76717455D01*
X106292915Y-76723903D01*
X106296976Y-76730623D01*
X106300760Y-76737610D01*
X106304262Y-76744860D01*
X106307483Y-76752383D01*
X106310426Y-76760170D01*
X106313087Y-76768226D01*
X106315469Y-76776548D01*
X106317569Y-76785139D01*
X106319391Y-76793996D01*
X106320933Y-76803122D01*
X106322192Y-76812515D01*
X106323172Y-76822176D01*
X106323875Y-76832104D01*
X106324294Y-76842298D01*
X106324436Y-76852761D01*
X106324294Y-76862836D01*
X106323875Y-76872682D01*
X106323172Y-76882296D01*
X106322192Y-76891683D01*
X106320933Y-76900838D01*
X106319391Y-76909768D01*
X106317569Y-76918467D01*
X106315469Y-76926934D01*
X106313087Y-76935175D01*
X106310426Y-76943186D01*
X106307483Y-76950969D01*
X106304262Y-76958520D01*
X106300760Y-76965844D01*
X106296976Y-76972936D01*
X106292915Y-76979802D01*
X106288571Y-76986436D01*
X106283948Y-76992920D01*
X106279044Y-76999326D01*
X106273861Y-77005655D01*
X106268397Y-77011909D01*
X106262653Y-77018086D01*
X106256631Y-77024186D01*
X106250324Y-77030209D01*
X106243740Y-77036157D01*
X106236876Y-77042029D01*
X106229732Y-77047824D01*
X106222306Y-77053543D01*
X106214602Y-77059187D01*
X106206616Y-77064750D01*
X106198351Y-77070239D01*
X106189803Y-77075652D01*
X106180978Y-77080988D01*
X105394881Y-77534182D01*
X106389643Y-77534182D01*
X106405717Y-77534450D01*
X106421329Y-77535252D01*
X106436484Y-77536588D01*
X106451183Y-77538461D01*
X106465423Y-77540869D01*
X106479201Y-77543811D01*
X106492523Y-77547288D01*
X106505387Y-77551298D01*
X106517792Y-77555846D01*
X106529739Y-77560927D01*
X106541225Y-77566543D01*
X106552255Y-77572697D01*
X106562827Y-77579383D01*
X106572939Y-77586602D01*
X106582593Y-77594360D01*
X106591788Y-77602650D01*
X106600473Y-77611464D01*
X106608597Y-77620787D01*
X106616162Y-77630619D01*
X106623169Y-77640960D01*
X106629612Y-77651811D01*
X106635496Y-77663171D01*
X106640819Y-77675040D01*
X106645585Y-77687422D01*
X106649787Y-77700309D01*
X106653429Y-77713708D01*
X106656510Y-77727615D01*
X106659033Y-77742032D01*
X106660992Y-77756958D01*
X106662394Y-77772394D01*
X106663236Y-77788341D01*
X106663516Y-77804794D01*
X106663236Y-77820861D01*
X106662394Y-77836455D01*
X106660992Y-77851579D01*
X106659033Y-77866233D01*
X106656510Y-77880413D01*
X106653429Y-77894125D01*
X106649787Y-77907364D01*
X106645585Y-77920131D01*
X106640819Y-77932425D01*
X106635496Y-77944253D01*
X106629612Y-77955608D01*
X106623169Y-77966490D01*
X106616162Y-77976902D01*
X106608597Y-77986841D01*
X106600473Y-77996311D01*
X106591788Y-78005308D01*
X106582593Y-78013796D01*
X106572939Y-78021738D01*
X106562827Y-78029132D01*
X106552255Y-78035976D01*
X106541225Y-78042276D01*
X106529739Y-78048023D01*
X106517792Y-78053226D01*
X106505387Y-78057883D01*
X106492523Y-78061990D01*
X106479201Y-78065550D01*
X106465423Y-78068561D01*
X106451183Y-78071025D01*
X106436484Y-78072943D01*
X106421329Y-78074312D01*
X106405717Y-78075131D01*
X106389643Y-78075406D01*
X104580125Y-78075406D01*
X104563664Y-78075113D01*
X104547702Y-78074234D01*
X104532232Y-78072770D01*
X104517263Y-78070721D01*
X104502788Y-78068083D01*
X104488810Y-78064862D01*
X104475327Y-78061052D01*
X104462344Y-78056661D01*
X104449858Y-78051680D01*
X104437866Y-78046116D01*
X104426372Y-78039963D01*
X104415375Y-78033225D01*
X104404875Y-78025903D01*
X104394869Y-78017994D01*
X104385362Y-78009499D01*
X104376352Y-78000417D01*
X104367864Y-77990805D01*
X104359921Y-77980702D01*
X104352528Y-77970120D01*
X104345684Y-77959052D01*
X104339385Y-77947501D01*
X104333635Y-77935465D01*
X104328433Y-77922945D01*
X104323779Y-77909942D01*
X104319671Y-77896457D01*
X104316111Y-77882484D01*
X104313099Y-77868029D01*
X104310634Y-77853091D01*
X104308719Y-77837668D01*
X104307350Y-77821760D01*
X104306526Y-77805370D01*
X104306252Y-77788492D01*
X104306423Y-77774412D01*
X104306942Y-77760703D01*
X104307801Y-77747362D01*
X104309004Y-77734389D01*
X104310552Y-77721789D01*
X104312443Y-77709557D01*
X104314678Y-77697693D01*
X104317256Y-77686198D01*
X104320179Y-77675074D01*
X104323447Y-77664318D01*
X104327058Y-77653932D01*
X104331013Y-77643915D01*
X104335311Y-77634266D01*
X104339954Y-77624988D01*
X104344940Y-77616080D01*
X104350267Y-77607543D01*
X104355994Y-77599232D01*
X104362164Y-77591010D01*
X104368779Y-77582877D01*
X104375843Y-77574836D01*
X104383352Y-77566881D01*
X104391303Y-77559016D01*
X104399704Y-77551242D01*
X104408547Y-77543555D01*
X104417840Y-77535959D01*
X104427577Y-77528451D01*
X104437760Y-77521032D01*
X104448388Y-77513703D01*
X104459460Y-77506465D01*
X104470980Y-77499311D01*
X104482945Y-77492249D01*
X104495356Y-77485276D01*
X105651190Y-76841483D01*
X104495356Y-76200682D01*
X104482945Y-76193314D01*
X104470980Y-76185883D01*
X104459460Y-76178388D01*
X104448388Y-76170829D01*
X104437760Y-76163206D01*
X104427577Y-76155520D01*
X104417840Y-76147771D01*
X104408547Y-76139959D01*
X104399704Y-76132079D01*
X104391303Y-76124140D01*
X104383352Y-76116137D01*
X104375843Y-76108071D01*
X104368779Y-76099936D01*
X104362164Y-76091738D01*
X104355994Y-76083481D01*
X104350267Y-76075158D01*
X104344940Y-76066618D01*
X104339954Y-76057709D01*
X104335311Y-76048433D01*
X104331013Y-76038784D01*
X104327058Y-76028766D01*
X104323447Y-76018381D01*
X104320179Y-76007626D01*
X104317256Y-75996502D01*
X104314678Y-75985008D01*
X104312443Y-75973141D01*
X104310552Y-75960909D01*
X104309004Y-75948308D01*
X104307801Y-75935336D01*
X104306942Y-75921996D01*
X104306423Y-75908287D01*
X104306252Y-75894207D01*
X104306526Y-75878140D01*
X104307350Y-75862543D01*
X104308719Y-75847422D01*
X104310634Y-75832767D01*
X104313099Y-75818587D01*
X104316111Y-75804875D01*
X104319671Y-75791637D01*
X104323779Y-75778869D01*
X104328433Y-75766574D01*
X104333635Y-75754748D01*
X104339385Y-75743396D01*
X104345684Y-75732511D01*
X104352528Y-75722102D01*
X104359921Y-75712158D01*
X104367864Y-75702690D01*
X104376352Y-75693691D01*
X104385362Y-75685203D01*
X104394869Y-75677262D01*
X104404875Y-75669869D01*
X104415375Y-75663023D01*
X104426372Y-75656725D01*
X104437866Y-75650975D01*
X104449858Y-75645773D01*
X104462344Y-75641117D01*
X104475327Y-75637009D01*
X104488810Y-75633449D01*
X104502788Y-75630439D01*
X104517263Y-75627975D01*
X104532232Y-75626057D01*
X104547702Y-75624689D01*
X104563664Y-75623865D01*
X104580125Y-75623593D01*
X106389643Y-75623593D01*
X106405717Y-75623861D01*
G37*
G36*
X107802745Y-78362648D02*
G01*
X107805647Y-78362799D01*
X107808461Y-78363047D01*
X107811189Y-78363395D01*
X107813835Y-78363843D01*
X107816395Y-78364389D01*
X107818868Y-78365033D01*
X107821257Y-78365778D01*
X107823559Y-78366624D01*
X107825780Y-78367567D01*
X107827914Y-78368611D01*
X107829962Y-78369753D01*
X107831924Y-78370997D01*
X107833801Y-78372337D01*
X107835596Y-78373777D01*
X107837302Y-78375318D01*
X107838915Y-78376953D01*
X107840424Y-78378685D01*
X107841831Y-78380513D01*
X107843129Y-78382432D01*
X107844328Y-78384447D01*
X107845421Y-78386556D01*
X107846407Y-78388760D01*
X107847294Y-78391059D01*
X107848074Y-78393453D01*
X107848751Y-78395940D01*
X107849324Y-78398524D01*
X107849791Y-78401202D01*
X107850156Y-78403976D01*
X107850417Y-78406841D01*
X107850572Y-78409801D01*
X107850625Y-78412857D01*
X107850572Y-78415842D01*
X107850417Y-78418738D01*
X107850156Y-78421547D01*
X107849791Y-78424267D01*
X107849324Y-78426899D01*
X107848751Y-78429449D01*
X107848074Y-78431904D01*
X107847294Y-78434277D01*
X107846407Y-78436561D01*
X107845421Y-78438756D01*
X107844328Y-78440865D01*
X107843129Y-78442887D01*
X107841831Y-78444820D01*
X107840424Y-78446668D01*
X107838915Y-78448425D01*
X107837302Y-78450096D01*
X107835596Y-78451673D01*
X107833801Y-78453146D01*
X107831924Y-78454518D01*
X107829962Y-78455791D01*
X107827914Y-78456962D01*
X107825780Y-78458029D01*
X107823559Y-78458994D01*
X107821257Y-78459860D01*
X107818868Y-78460623D01*
X107816395Y-78461284D01*
X107813835Y-78461842D01*
X107811189Y-78462302D01*
X107808461Y-78462656D01*
X107805647Y-78462910D01*
X107802745Y-78463063D01*
X107799761Y-78463114D01*
X107613582Y-78463114D01*
X107761009Y-78547884D01*
X107762647Y-78548949D01*
X107764235Y-78550017D01*
X107765771Y-78551095D01*
X107767255Y-78552180D01*
X107768684Y-78553271D01*
X107770064Y-78554371D01*
X107771391Y-78555476D01*
X107772666Y-78556589D01*
X107773888Y-78557709D01*
X107775059Y-78558834D01*
X107776178Y-78559970D01*
X107777245Y-78561109D01*
X107778260Y-78562258D01*
X107779223Y-78563416D01*
X107780132Y-78564578D01*
X107780992Y-78565747D01*
X107781798Y-78566944D01*
X107782554Y-78568192D01*
X107783256Y-78569488D01*
X107783904Y-78570837D01*
X107784502Y-78572232D01*
X107785052Y-78573680D01*
X107785545Y-78575174D01*
X107785985Y-78576720D01*
X107786378Y-78578317D01*
X107786715Y-78579961D01*
X107787002Y-78581656D01*
X107787236Y-78583400D01*
X107787418Y-78585194D01*
X107787549Y-78587039D01*
X107787624Y-78588934D01*
X107787651Y-78590876D01*
X107787624Y-78592746D01*
X107787549Y-78594573D01*
X107787418Y-78596360D01*
X107787236Y-78598101D01*
X107787002Y-78599803D01*
X107786715Y-78601459D01*
X107786378Y-78603077D01*
X107785985Y-78604650D01*
X107785545Y-78606180D01*
X107785052Y-78607669D01*
X107784502Y-78609113D01*
X107783904Y-78610517D01*
X107783256Y-78611876D01*
X107782554Y-78613193D01*
X107781798Y-78614467D01*
X107780992Y-78615700D01*
X107780132Y-78616904D01*
X107779223Y-78618095D01*
X107778260Y-78619271D01*
X107777245Y-78620431D01*
X107776178Y-78621579D01*
X107775059Y-78622710D01*
X107773888Y-78623830D01*
X107772666Y-78624935D01*
X107771391Y-78626024D01*
X107770064Y-78627101D01*
X107768684Y-78628162D01*
X107767255Y-78629211D01*
X107765771Y-78630243D01*
X107764235Y-78631264D01*
X107762647Y-78632269D01*
X107761009Y-78633260D01*
X107615020Y-78717425D01*
X107799761Y-78717425D01*
X107802745Y-78717473D01*
X107805647Y-78717624D01*
X107808461Y-78717870D01*
X107811189Y-78718220D01*
X107813835Y-78718667D01*
X107816395Y-78719211D01*
X107818868Y-78719860D01*
X107821257Y-78720605D01*
X107823559Y-78721447D01*
X107825780Y-78722390D01*
X107827914Y-78723434D01*
X107829962Y-78724578D01*
X107831924Y-78725819D01*
X107833801Y-78727160D01*
X107835596Y-78728600D01*
X107837302Y-78730139D01*
X107838915Y-78731775D01*
X107840424Y-78733509D01*
X107841831Y-78735332D01*
X107843129Y-78737254D01*
X107844328Y-78739270D01*
X107845421Y-78741380D01*
X107846407Y-78743586D01*
X107847294Y-78745883D01*
X107848074Y-78748277D01*
X107848751Y-78750765D01*
X107849324Y-78753348D01*
X107849791Y-78756025D01*
X107850156Y-78758798D01*
X107850417Y-78761663D01*
X107850572Y-78764625D01*
X107850625Y-78767682D01*
X107850572Y-78770665D01*
X107850417Y-78773561D01*
X107850156Y-78776369D01*
X107849791Y-78779089D01*
X107849324Y-78781726D01*
X107848751Y-78784271D01*
X107848074Y-78786730D01*
X107847294Y-78789101D01*
X107846407Y-78791385D01*
X107845421Y-78793581D01*
X107844328Y-78795690D01*
X107843129Y-78797710D01*
X107841831Y-78799644D01*
X107840424Y-78801488D01*
X107838915Y-78803250D01*
X107837302Y-78804919D01*
X107835596Y-78806497D01*
X107833801Y-78807970D01*
X107831924Y-78809345D01*
X107829962Y-78810615D01*
X107827914Y-78811785D01*
X107825780Y-78812850D01*
X107823559Y-78813818D01*
X107821257Y-78814683D01*
X107818868Y-78815447D01*
X107816395Y-78816106D01*
X107813835Y-78816667D01*
X107811189Y-78817126D01*
X107808461Y-78817481D01*
X107805647Y-78817735D01*
X107802745Y-78817885D01*
X107799761Y-78817938D01*
X107463708Y-78817938D01*
X107460651Y-78817884D01*
X107457686Y-78817720D01*
X107454814Y-78817448D01*
X107452032Y-78817067D01*
X107449344Y-78816578D01*
X107446750Y-78815979D01*
X107444246Y-78815272D01*
X107441836Y-78814455D01*
X107439515Y-78813532D01*
X107437288Y-78812498D01*
X107435154Y-78811354D01*
X107433112Y-78810104D01*
X107431163Y-78808744D01*
X107429305Y-78807273D01*
X107427538Y-78805698D01*
X107425862Y-78804011D01*
X107424287Y-78802226D01*
X107422815Y-78800348D01*
X107421441Y-78798384D01*
X107420169Y-78796328D01*
X107418999Y-78794183D01*
X107417933Y-78791949D01*
X107416964Y-78789625D01*
X107416102Y-78787209D01*
X107415339Y-78784704D01*
X107414675Y-78782109D01*
X107414119Y-78779424D01*
X107413661Y-78776649D01*
X107413305Y-78773785D01*
X107413050Y-78770830D01*
X107412897Y-78767786D01*
X107412847Y-78764654D01*
X107412877Y-78762039D01*
X107412973Y-78759492D01*
X107413133Y-78757016D01*
X107413357Y-78754605D01*
X107413644Y-78752265D01*
X107413996Y-78749993D01*
X107414411Y-78747793D01*
X107414892Y-78745656D01*
X107415434Y-78743590D01*
X107416041Y-78741594D01*
X107416710Y-78739663D01*
X107417446Y-78737805D01*
X107418242Y-78736012D01*
X107419103Y-78734290D01*
X107420030Y-78732635D01*
X107421021Y-78731049D01*
X107422084Y-78729506D01*
X107423229Y-78727979D01*
X107424459Y-78726468D01*
X107425769Y-78724974D01*
X107427166Y-78723497D01*
X107428641Y-78722033D01*
X107430201Y-78720591D01*
X107431845Y-78719166D01*
X107433570Y-78717754D01*
X107435379Y-78716360D01*
X107437270Y-78714981D01*
X107439242Y-78713620D01*
X107441298Y-78712277D01*
X107443438Y-78710950D01*
X107445661Y-78709637D01*
X107447966Y-78708343D01*
X107662621Y-78588779D01*
X107447966Y-78469775D01*
X107445661Y-78468407D01*
X107443438Y-78467027D01*
X107441298Y-78465634D01*
X107439242Y-78464232D01*
X107437270Y-78462815D01*
X107435379Y-78461388D01*
X107433570Y-78459947D01*
X107431845Y-78458497D01*
X107430201Y-78457034D01*
X107428641Y-78455559D01*
X107427166Y-78454070D01*
X107425769Y-78452575D01*
X107424459Y-78451064D01*
X107423229Y-78449542D01*
X107422084Y-78448010D01*
X107421021Y-78446465D01*
X107420030Y-78444876D01*
X107419103Y-78443222D01*
X107418242Y-78441499D01*
X107417446Y-78439709D01*
X107416710Y-78437847D01*
X107416041Y-78435918D01*
X107415434Y-78433921D01*
X107414892Y-78431854D01*
X107414411Y-78429721D01*
X107413996Y-78427517D01*
X107413644Y-78425246D01*
X107413357Y-78422904D01*
X107413133Y-78420496D01*
X107412973Y-78418019D01*
X107412877Y-78415472D01*
X107412847Y-78412857D01*
X107412897Y-78409874D01*
X107413050Y-78406979D01*
X107413305Y-78404170D01*
X107413661Y-78401447D01*
X107414119Y-78398813D01*
X107414675Y-78396268D01*
X107415339Y-78393810D01*
X107416102Y-78391437D01*
X107416964Y-78389154D01*
X107417933Y-78386959D01*
X107418999Y-78384851D01*
X107420169Y-78382829D01*
X107421441Y-78380895D01*
X107422815Y-78379049D01*
X107424287Y-78377290D01*
X107425862Y-78375620D01*
X107427538Y-78374043D01*
X107429305Y-78372568D01*
X107431163Y-78371195D01*
X107433112Y-78369924D01*
X107435154Y-78368753D01*
X107437288Y-78367686D01*
X107439515Y-78366720D01*
X107441836Y-78365855D01*
X107444246Y-78365094D01*
X107446750Y-78364433D01*
X107449344Y-78363871D01*
X107452032Y-78363414D01*
X107454814Y-78363059D01*
X107457686Y-78362806D01*
X107460651Y-78362651D01*
X107463708Y-78362602D01*
X107799761Y-78362602D01*
X107802745Y-78362648D01*
G37*
G36*
X107812780Y-72573452D02*
G01*
X107814838Y-72573573D01*
X107816850Y-72573789D01*
X107818812Y-72574096D01*
X107820729Y-72574492D01*
X107822596Y-72574983D01*
X107824417Y-72575567D01*
X107826194Y-72576241D01*
X107827918Y-72577009D01*
X107829597Y-72577868D01*
X107831229Y-72578821D01*
X107832813Y-72579865D01*
X107834352Y-72581003D01*
X107835840Y-72582228D01*
X107837284Y-72583551D01*
X107838679Y-72584964D01*
X107840028Y-72586469D01*
X107841313Y-72588066D01*
X107842512Y-72589749D01*
X107843628Y-72591520D01*
X107844665Y-72593375D01*
X107845616Y-72595321D01*
X107846485Y-72597355D01*
X107847272Y-72599475D01*
X107847976Y-72601681D01*
X107848595Y-72603979D01*
X107849133Y-72606364D01*
X107849588Y-72608830D01*
X107849961Y-72611389D01*
X107850252Y-72614036D01*
X107850458Y-72616770D01*
X107850583Y-72619590D01*
X107850625Y-72622497D01*
X107850586Y-72625416D01*
X107850474Y-72628263D01*
X107850283Y-72631046D01*
X107850019Y-72633757D01*
X107849679Y-72636398D01*
X107849263Y-72638974D01*
X107848771Y-72641479D01*
X107848201Y-72643917D01*
X107847558Y-72646285D01*
X107846839Y-72648585D01*
X107846046Y-72650817D01*
X107845175Y-72652980D01*
X107844229Y-72655074D01*
X107843208Y-72657099D01*
X107842110Y-72659058D01*
X107840936Y-72660946D01*
X107839683Y-72662789D01*
X107838344Y-72664603D01*
X107836920Y-72666394D01*
X107835410Y-72668157D01*
X107833817Y-72669892D01*
X107832138Y-72671605D01*
X107830373Y-72673290D01*
X107828524Y-72674949D01*
X107826588Y-72676581D01*
X107824571Y-72678190D01*
X107822466Y-72679770D01*
X107820273Y-72681326D01*
X107818000Y-72682855D01*
X107815637Y-72684358D01*
X107813191Y-72685836D01*
X107810660Y-72687285D01*
X107709542Y-72742384D01*
X107707908Y-72743310D01*
X107706340Y-72744265D01*
X107704833Y-72745248D01*
X107703392Y-72746264D01*
X107702016Y-72747314D01*
X107700700Y-72748388D01*
X107699450Y-72749497D01*
X107698264Y-72750637D01*
X107697142Y-72751806D01*
X107696085Y-72753008D01*
X107695089Y-72754238D01*
X107694157Y-72755499D01*
X107693292Y-72756792D01*
X107692488Y-72758115D01*
X107691749Y-72759469D01*
X107691075Y-72760855D01*
X107690451Y-72762268D01*
X107689869Y-72763707D01*
X107689324Y-72765173D01*
X107688821Y-72766663D01*
X107688357Y-72768180D01*
X107687938Y-72769725D01*
X107687557Y-72771294D01*
X107687216Y-72772888D01*
X107686911Y-72774511D01*
X107686653Y-72776158D01*
X107686430Y-72777833D01*
X107686250Y-72779530D01*
X107686107Y-72781255D01*
X107686008Y-72783007D01*
X107685947Y-72784784D01*
X107685927Y-72786589D01*
X107685927Y-72819891D01*
X107794315Y-72819891D01*
X107797597Y-72819945D01*
X107800788Y-72820107D01*
X107803887Y-72820381D01*
X107806895Y-72820762D01*
X107809811Y-72821251D01*
X107812634Y-72821849D01*
X107815366Y-72822556D01*
X107818004Y-72823372D01*
X107820550Y-72824298D01*
X107823004Y-72825332D01*
X107825364Y-72826472D01*
X107827634Y-72827723D01*
X107829812Y-72829083D01*
X107831896Y-72830551D01*
X107833888Y-72832131D01*
X107835789Y-72833817D01*
X107837584Y-72835613D01*
X107839265Y-72837517D01*
X107840832Y-72839529D01*
X107842277Y-72841650D01*
X107843614Y-72843880D01*
X107844830Y-72846219D01*
X107845931Y-72848668D01*
X107846916Y-72851225D01*
X107847785Y-72853890D01*
X107848538Y-72856666D01*
X107849176Y-72859549D01*
X107849696Y-72862540D01*
X107850102Y-72865641D01*
X107850391Y-72868851D01*
X107850567Y-72872171D01*
X107850625Y-72875597D01*
X107850567Y-72878880D01*
X107850391Y-72882067D01*
X107850102Y-72885162D01*
X107849696Y-72888161D01*
X107849176Y-72891065D01*
X107848538Y-72893876D01*
X107847785Y-72896592D01*
X107846916Y-72899213D01*
X107845931Y-72901737D01*
X107844830Y-72904169D01*
X107843614Y-72906505D01*
X107842277Y-72908747D01*
X107840832Y-72910894D01*
X107839265Y-72912950D01*
X107837584Y-72914908D01*
X107835789Y-72916769D01*
X107833888Y-72918531D01*
X107831896Y-72920177D01*
X107829812Y-72921709D01*
X107827634Y-72923129D01*
X107825364Y-72924434D01*
X107823004Y-72925628D01*
X107820550Y-72926706D01*
X107818004Y-72927669D01*
X107815366Y-72928520D01*
X107812634Y-72929261D01*
X107809811Y-72929884D01*
X107806895Y-72930393D01*
X107803887Y-72930793D01*
X107800788Y-72931076D01*
X107797597Y-72931244D01*
X107794315Y-72931303D01*
X107607213Y-72931303D01*
X107474609Y-72931303D01*
X107471251Y-72931243D01*
X107467996Y-72931071D01*
X107464837Y-72930782D01*
X107461778Y-72930374D01*
X107458821Y-72929853D01*
X107455959Y-72929216D01*
X107453200Y-72928461D01*
X107450539Y-72927594D01*
X107447977Y-72926610D01*
X107445515Y-72925508D01*
X107443155Y-72924290D01*
X107440889Y-72922959D01*
X107438725Y-72921509D01*
X107436661Y-72919946D01*
X107434694Y-72918265D01*
X107432828Y-72916468D01*
X107431069Y-72914568D01*
X107429423Y-72912575D01*
X107427888Y-72910490D01*
X107426472Y-72908313D01*
X107425165Y-72906044D01*
X107423973Y-72903681D01*
X107422895Y-72901229D01*
X107421930Y-72898681D01*
X107421077Y-72896042D01*
X107420340Y-72893312D01*
X107419717Y-72890490D01*
X107419204Y-72887573D01*
X107418806Y-72884568D01*
X107418525Y-72881467D01*
X107418354Y-72878276D01*
X107418295Y-72874989D01*
X107418295Y-72746021D01*
X107503672Y-72746021D01*
X107503672Y-72819891D01*
X107607213Y-72819891D01*
X107607213Y-72746021D01*
X107607164Y-72742069D01*
X107607015Y-72738234D01*
X107606765Y-72734520D01*
X107606418Y-72730919D01*
X107605971Y-72727440D01*
X107605425Y-72724080D01*
X107604777Y-72720838D01*
X107604033Y-72717713D01*
X107603189Y-72714707D01*
X107602247Y-72711818D01*
X107601200Y-72709049D01*
X107600060Y-72706398D01*
X107598819Y-72703862D01*
X107597478Y-72701449D01*
X107596037Y-72699151D01*
X107594498Y-72696975D01*
X107592852Y-72694920D01*
X107591100Y-72692998D01*
X107589240Y-72691212D01*
X107587268Y-72689555D01*
X107585191Y-72688034D01*
X107583003Y-72686641D01*
X107580707Y-72685382D01*
X107578299Y-72684258D01*
X107575784Y-72683265D01*
X107573162Y-72682402D01*
X107570430Y-72681674D01*
X107567589Y-72681079D01*
X107564641Y-72680615D01*
X107561584Y-72680283D01*
X107558414Y-72680087D01*
X107555138Y-72680020D01*
X107552009Y-72680087D01*
X107548975Y-72680283D01*
X107546039Y-72680615D01*
X107543201Y-72681079D01*
X107540456Y-72681674D01*
X107537811Y-72682402D01*
X107535264Y-72683265D01*
X107532811Y-72684258D01*
X107530457Y-72685382D01*
X107528201Y-72686641D01*
X107526038Y-72688034D01*
X107523975Y-72689555D01*
X107522007Y-72691212D01*
X107520138Y-72692998D01*
X107518364Y-72694920D01*
X107516690Y-72696975D01*
X107515113Y-72699151D01*
X107513639Y-72701449D01*
X107512266Y-72703862D01*
X107510996Y-72706398D01*
X107509825Y-72709049D01*
X107508757Y-72711818D01*
X107507792Y-72714707D01*
X107506928Y-72717713D01*
X107506163Y-72720838D01*
X107505504Y-72724080D01*
X107504943Y-72727440D01*
X107504486Y-72730919D01*
X107504130Y-72734520D01*
X107503875Y-72738234D01*
X107503724Y-72742069D01*
X107503672Y-72746021D01*
X107418295Y-72746021D01*
X107418295Y-72726038D01*
X107418435Y-72717085D01*
X107418849Y-72708391D01*
X107419542Y-72699952D01*
X107420511Y-72691773D01*
X107421755Y-72683848D01*
X107423278Y-72676183D01*
X107425076Y-72668777D01*
X107427153Y-72661629D01*
X107429504Y-72654736D01*
X107432133Y-72648103D01*
X107435040Y-72641730D01*
X107438221Y-72635611D01*
X107441680Y-72629753D01*
X107445417Y-72624148D01*
X107449428Y-72618805D01*
X107453720Y-72613718D01*
X107458255Y-72608915D01*
X107463004Y-72604423D01*
X107467970Y-72600239D01*
X107473151Y-72596365D01*
X107478546Y-72592803D01*
X107484160Y-72589548D01*
X107489985Y-72586606D01*
X107496027Y-72583972D01*
X107502284Y-72581648D01*
X107508757Y-72579635D01*
X107515445Y-72577931D01*
X107522347Y-72576535D01*
X107529464Y-72575451D01*
X107536801Y-72574678D01*
X107544348Y-72574212D01*
X107552112Y-72574058D01*
X107557142Y-72574128D01*
X107562090Y-72574337D01*
X107566951Y-72574686D01*
X107571735Y-72575175D01*
X107576432Y-72575801D01*
X107581047Y-72576570D01*
X107585581Y-72577478D01*
X107590031Y-72578523D01*
X107594400Y-72579709D01*
X107598683Y-72581034D01*
X107602887Y-72582498D01*
X107607004Y-72584104D01*
X107611043Y-72585850D01*
X107614993Y-72587733D01*
X107618864Y-72589756D01*
X107622653Y-72591919D01*
X107626345Y-72594213D01*
X107629928Y-72596630D01*
X107633403Y-72599172D01*
X107636769Y-72601835D01*
X107640026Y-72604620D01*
X107643173Y-72607529D01*
X107646213Y-72610565D01*
X107649143Y-72613716D01*
X107651965Y-72616995D01*
X107654679Y-72620395D01*
X107657282Y-72623922D01*
X107659778Y-72627569D01*
X107662163Y-72631338D01*
X107664441Y-72635230D01*
X107666610Y-72639248D01*
X107668670Y-72643386D01*
X107670612Y-72647648D01*
X107672431Y-72652029D01*
X107674123Y-72656533D01*
X107675690Y-72661156D01*
X107677134Y-72665898D01*
X107677270Y-72666403D01*
X107677745Y-72664755D01*
X107678666Y-72661950D01*
X107679686Y-72659191D01*
X107680800Y-72656480D01*
X107682013Y-72653819D01*
X107683324Y-72651201D01*
X107684728Y-72648633D01*
X107686231Y-72646112D01*
X107687831Y-72643640D01*
X107689536Y-72641220D01*
X107691343Y-72638853D01*
X107693250Y-72636537D01*
X107695259Y-72634274D01*
X107697370Y-72632062D01*
X107699584Y-72629902D01*
X107701898Y-72627796D01*
X107704313Y-72625740D01*
X107706831Y-72623736D01*
X107709451Y-72621786D01*
X107712172Y-72619886D01*
X107714997Y-72618038D01*
X107717921Y-72616243D01*
X107720945Y-72614499D01*
X107724075Y-72612810D01*
X107778570Y-72582532D01*
X107780761Y-72581363D01*
X107782946Y-72580271D01*
X107785122Y-72579263D01*
X107787294Y-72578334D01*
X107789455Y-72577483D01*
X107791611Y-72576716D01*
X107793760Y-72576027D01*
X107795902Y-72575420D01*
X107798037Y-72574894D01*
X107800165Y-72574443D01*
X107802285Y-72574080D01*
X107804399Y-72573794D01*
X107806506Y-72573587D01*
X107808603Y-72573462D01*
X107810698Y-72573415D01*
X107812780Y-72573452D01*
G37*
G36*
X107643703Y-77675180D02*
G01*
X107655691Y-77675904D01*
X107661579Y-77676446D01*
X107667393Y-77677111D01*
X107673138Y-77677893D01*
X107678813Y-77678798D01*
X107684416Y-77679824D01*
X107689949Y-77680969D01*
X107695410Y-77682237D01*
X107700801Y-77683623D01*
X107706119Y-77685132D01*
X107711368Y-77686758D01*
X107716545Y-77688508D01*
X107721652Y-77690378D01*
X107726679Y-77692359D01*
X107731618Y-77694448D01*
X107736472Y-77696637D01*
X107741237Y-77698930D01*
X107745914Y-77701329D01*
X107750504Y-77703831D01*
X107755004Y-77706438D01*
X107759420Y-77709148D01*
X107763747Y-77711962D01*
X107767987Y-77714882D01*
X107772138Y-77717905D01*
X107776205Y-77721031D01*
X107780181Y-77724262D01*
X107784070Y-77727597D01*
X107787873Y-77731037D01*
X107791587Y-77734581D01*
X107795204Y-77738218D01*
X107798711Y-77741944D01*
X107802112Y-77745759D01*
X107805400Y-77749659D01*
X107808581Y-77753649D01*
X107811656Y-77757725D01*
X107814618Y-77761890D01*
X107817473Y-77766142D01*
X107820217Y-77770481D01*
X107822857Y-77774907D01*
X107825384Y-77779423D01*
X107827805Y-77784023D01*
X107830115Y-77788714D01*
X107832318Y-77793488D01*
X107834411Y-77798353D01*
X107836394Y-77803305D01*
X107838264Y-77808331D01*
X107840012Y-77813428D01*
X107841644Y-77818588D01*
X107843150Y-77823817D01*
X107844536Y-77829109D01*
X107845803Y-77834468D01*
X107846950Y-77839896D01*
X107847976Y-77845388D01*
X107848879Y-77850946D01*
X107849662Y-77856568D01*
X107850327Y-77862259D01*
X107850870Y-77868018D01*
X107851292Y-77873840D01*
X107851594Y-77879731D01*
X107851774Y-77885684D01*
X107851834Y-77891706D01*
X107851726Y-77899743D01*
X107851405Y-77907657D01*
X107850866Y-77915449D01*
X107850114Y-77923117D01*
X107849144Y-77930663D01*
X107847960Y-77938084D01*
X107846561Y-77945384D01*
X107844947Y-77952561D01*
X107843119Y-77959613D01*
X107841073Y-77966543D01*
X107838812Y-77973350D01*
X107836338Y-77980035D01*
X107833647Y-77986595D01*
X107830742Y-77993034D01*
X107827622Y-77999350D01*
X107824285Y-78005541D01*
X107820755Y-78011585D01*
X107817051Y-78017457D01*
X107813175Y-78023157D01*
X107809127Y-78028684D01*
X107804907Y-78034038D01*
X107800513Y-78039218D01*
X107795948Y-78044226D01*
X107791209Y-78049061D01*
X107786296Y-78053723D01*
X107781214Y-78058214D01*
X107775957Y-78062533D01*
X107770528Y-78066677D01*
X107764926Y-78070650D01*
X107759150Y-78074451D01*
X107753202Y-78078075D01*
X107747081Y-78081531D01*
X107740812Y-78084795D01*
X107734414Y-78087847D01*
X107727890Y-78090688D01*
X107721236Y-78093320D01*
X107714455Y-78095740D01*
X107707547Y-78097949D01*
X107700510Y-78099951D01*
X107693345Y-78101741D01*
X107686053Y-78103319D01*
X107678634Y-78104690D01*
X107671086Y-78105845D01*
X107663412Y-78106794D01*
X107655607Y-78107531D01*
X107647678Y-78108057D01*
X107639618Y-78108373D01*
X107631433Y-78108476D01*
X107619162Y-78108234D01*
X107607174Y-78107511D01*
X107601289Y-78106971D01*
X107595471Y-78106306D01*
X107589725Y-78105522D01*
X107584052Y-78104615D01*
X107578448Y-78103591D01*
X107572918Y-78102446D01*
X107567454Y-78101178D01*
X107562065Y-78099791D01*
X107556745Y-78098282D01*
X107551498Y-78096654D01*
X107546320Y-78094904D01*
X107541213Y-78093036D01*
X107536186Y-78091054D01*
X107531251Y-78088969D01*
X107526406Y-78086778D01*
X107521647Y-78084483D01*
X107516981Y-78082085D01*
X107512405Y-78079583D01*
X107507917Y-78076978D01*
X107503519Y-78074265D01*
X107499213Y-78071450D01*
X107494997Y-78068533D01*
X107490869Y-78065510D01*
X107486832Y-78062383D01*
X107482882Y-78059153D01*
X107479027Y-78055815D01*
X107475259Y-78052379D01*
X107471580Y-78048833D01*
X107468001Y-78045197D01*
X107464527Y-78041470D01*
X107461160Y-78037657D01*
X107457900Y-78033755D01*
X107454747Y-78029766D01*
X107451698Y-78025689D01*
X107448757Y-78021525D01*
X107445921Y-78017274D01*
X107443193Y-78012933D01*
X107440572Y-78008507D01*
X107438056Y-78003995D01*
X107435646Y-77999394D01*
X107433344Y-77994703D01*
X107431149Y-77989926D01*
X107429058Y-77985065D01*
X107427077Y-77980112D01*
X107425205Y-77975083D01*
X107423457Y-77969988D01*
X107421829Y-77964828D01*
X107420322Y-77959599D01*
X107418933Y-77954304D01*
X107417666Y-77948946D01*
X107416521Y-77943520D01*
X107415495Y-77938028D01*
X107414590Y-77932470D01*
X107413807Y-77926846D01*
X107413144Y-77921155D01*
X107412599Y-77915398D01*
X107412179Y-77909573D01*
X107411876Y-77903685D01*
X107411697Y-77897731D01*
X107411637Y-77891706D01*
X107504882Y-77891706D01*
X107504941Y-77895608D01*
X107505114Y-77899442D01*
X107505404Y-77903206D01*
X107505811Y-77906902D01*
X107506331Y-77910528D01*
X107506969Y-77914087D01*
X107507721Y-77917576D01*
X107508592Y-77920998D01*
X107509577Y-77924350D01*
X107510676Y-77927635D01*
X107511894Y-77930852D01*
X107513228Y-77933997D01*
X107514677Y-77937074D01*
X107516242Y-77940086D01*
X107517921Y-77943028D01*
X107519719Y-77945900D01*
X107521623Y-77948697D01*
X107523635Y-77951411D01*
X107525749Y-77954041D01*
X107527968Y-77956590D01*
X107530290Y-77959057D01*
X107532718Y-77961438D01*
X107535247Y-77963738D01*
X107537883Y-77965958D01*
X107540622Y-77968092D01*
X107543464Y-77970143D01*
X107546412Y-77972111D01*
X107549463Y-77973998D01*
X107552618Y-77975801D01*
X107555876Y-77977523D01*
X107559241Y-77979162D01*
X107562706Y-77980715D01*
X107566276Y-77982182D01*
X107569938Y-77983553D01*
X107573704Y-77984833D01*
X107577560Y-77986015D01*
X107581518Y-77987102D01*
X107585569Y-77988095D01*
X107589720Y-77988992D01*
X107593967Y-77989800D01*
X107598309Y-77990507D01*
X107602752Y-77991122D01*
X107607290Y-77991643D01*
X107611924Y-77992068D01*
X107616656Y-77992400D01*
X107621485Y-77992637D01*
X107626410Y-77992779D01*
X107631433Y-77992826D01*
X107638822Y-77992723D01*
X107646008Y-77992409D01*
X107652985Y-77991889D01*
X107659758Y-77991160D01*
X107666325Y-77990226D01*
X107672687Y-77989080D01*
X107678842Y-77987727D01*
X107684791Y-77986166D01*
X107690537Y-77984396D01*
X107696075Y-77982419D01*
X107701407Y-77980236D01*
X107706533Y-77977841D01*
X107711456Y-77975239D01*
X107716170Y-77972430D01*
X107720680Y-77969411D01*
X107724984Y-77966185D01*
X107729054Y-77962772D01*
X107732859Y-77959193D01*
X107736404Y-77955449D01*
X107739685Y-77951539D01*
X107742706Y-77947464D01*
X107745462Y-77943223D01*
X107747954Y-77938817D01*
X107750187Y-77934245D01*
X107752157Y-77929506D01*
X107753859Y-77924602D01*
X107755305Y-77919533D01*
X107756487Y-77914299D01*
X107757407Y-77908901D01*
X107758063Y-77903336D01*
X107758457Y-77897606D01*
X107758586Y-77891706D01*
X107758529Y-77887735D01*
X107758351Y-77883836D01*
X107758056Y-77880014D01*
X107757644Y-77876267D01*
X107757111Y-77872595D01*
X107756460Y-77869000D01*
X107755691Y-77865482D01*
X107754803Y-77862038D01*
X107753798Y-77858669D01*
X107752674Y-77855377D01*
X107751434Y-77852161D01*
X107750072Y-77849021D01*
X107748594Y-77845953D01*
X107746999Y-77842964D01*
X107745282Y-77840049D01*
X107743451Y-77837213D01*
X107741506Y-77834452D01*
X107739458Y-77831772D01*
X107737305Y-77829174D01*
X107735049Y-77826654D01*
X107732689Y-77824215D01*
X107730223Y-77821857D01*
X107727657Y-77819581D01*
X107724984Y-77817381D01*
X107722207Y-77815264D01*
X107719326Y-77813229D01*
X107716340Y-77811273D01*
X107713252Y-77809397D01*
X107710058Y-77807603D01*
X107706761Y-77805885D01*
X107703358Y-77804253D01*
X107699854Y-77802699D01*
X107696251Y-77801233D01*
X107692560Y-77799861D01*
X107688777Y-77798582D01*
X107684906Y-77797401D01*
X107680945Y-77796312D01*
X107676892Y-77795319D01*
X107672749Y-77794421D01*
X107668520Y-77793617D01*
X107664200Y-77792906D01*
X107659786Y-77792291D01*
X107655286Y-77791772D01*
X107650694Y-77791345D01*
X107646016Y-77791014D01*
X107641244Y-77790778D01*
X107636382Y-77790635D01*
X107631433Y-77790589D01*
X107624045Y-77790694D01*
X107616862Y-77791005D01*
X107609891Y-77791525D01*
X107603124Y-77792253D01*
X107596568Y-77793190D01*
X107590220Y-77794336D01*
X107584081Y-77795689D01*
X107578149Y-77797250D01*
X107572426Y-77799018D01*
X107566910Y-77800997D01*
X107561599Y-77803182D01*
X107556501Y-77805574D01*
X107551610Y-77808178D01*
X107546928Y-77810986D01*
X107542453Y-77814004D01*
X107538187Y-77817230D01*
X107534153Y-77820642D01*
X107530377Y-77824223D01*
X107526868Y-77827968D01*
X107523615Y-77831876D01*
X107520622Y-77835951D01*
X107517892Y-77840191D01*
X107515421Y-77844599D01*
X107513208Y-77849172D01*
X107511257Y-77853908D01*
X107509565Y-77858811D01*
X107508135Y-77863882D01*
X107506963Y-77869112D01*
X107506053Y-77874516D01*
X107505403Y-77880080D01*
X107505013Y-77885811D01*
X107504882Y-77891706D01*
X107411637Y-77891706D01*
X107411742Y-77883671D01*
X107412062Y-77875761D01*
X107412594Y-77867976D01*
X107413339Y-77860317D01*
X107414296Y-77852782D01*
X107415467Y-77845372D01*
X107416851Y-77838087D01*
X107418448Y-77830929D01*
X107420256Y-77823898D01*
X107422280Y-77816989D01*
X107424515Y-77810208D01*
X107426962Y-77803550D01*
X107429623Y-77797020D01*
X107432495Y-77790613D01*
X107435584Y-77784329D01*
X107438882Y-77778175D01*
X107442374Y-77772166D01*
X107446040Y-77766326D01*
X107449877Y-77760652D01*
X107453889Y-77755147D01*
X107458070Y-77749811D01*
X107462428Y-77744641D01*
X107466953Y-77739639D01*
X107471656Y-77734807D01*
X107476528Y-77730142D01*
X107481577Y-77725644D01*
X107486795Y-77721315D01*
X107492185Y-77717153D01*
X107497750Y-77713159D01*
X107503486Y-77709332D01*
X107509397Y-77705677D01*
X107515480Y-77702184D01*
X107521715Y-77698886D01*
X107528085Y-77695801D01*
X107534590Y-77692925D01*
X107541232Y-77690266D01*
X107548006Y-77687818D01*
X107554919Y-77685583D01*
X107561961Y-77683559D01*
X107569142Y-77681750D01*
X107576455Y-77680154D01*
X107583906Y-77678767D01*
X107591491Y-77677600D01*
X107599207Y-77676640D01*
X107607063Y-77675897D01*
X107615052Y-77675365D01*
X107623175Y-77675044D01*
X107631433Y-77674938D01*
X107643703Y-77675180D01*
G37*
G36*
X107718298Y-71050618D02*
G01*
X107722162Y-71050769D01*
X107725981Y-71051017D01*
X107729750Y-71051363D01*
X107733475Y-71051811D01*
X107737150Y-71052357D01*
X107740777Y-71053003D01*
X107744358Y-71053748D01*
X107747892Y-71054593D01*
X107751378Y-71055537D01*
X107754817Y-71056579D01*
X107758210Y-71057722D01*
X107761555Y-71058965D01*
X107764851Y-71060308D01*
X107768102Y-71061745D01*
X107771303Y-71063286D01*
X107774453Y-71064917D01*
X107777542Y-71066637D01*
X107780573Y-71068437D01*
X107783546Y-71070326D01*
X107786459Y-71072299D01*
X107789312Y-71074355D01*
X107792106Y-71076497D01*
X107794842Y-71078726D01*
X107797519Y-71081037D01*
X107800137Y-71083438D01*
X107802696Y-71085921D01*
X107805194Y-71088487D01*
X107807632Y-71091144D01*
X107810012Y-71093882D01*
X107812334Y-71096706D01*
X107814597Y-71099617D01*
X107816799Y-71102606D01*
X107818934Y-71105669D01*
X107821008Y-71108812D01*
X107823017Y-71112028D01*
X107824962Y-71115321D01*
X107826843Y-71118690D01*
X107828661Y-71122133D01*
X107830416Y-71125653D01*
X107832106Y-71129248D01*
X107833733Y-71132918D01*
X107835293Y-71136666D01*
X107836792Y-71140486D01*
X107838228Y-71144385D01*
X107839597Y-71148357D01*
X107840903Y-71152409D01*
X107842146Y-71156532D01*
X107844418Y-71164991D01*
X107846386Y-71173714D01*
X107848050Y-71182700D01*
X107849415Y-71191955D01*
X107850474Y-71201472D01*
X107851231Y-71211254D01*
X107851683Y-71221303D01*
X107851834Y-71231614D01*
X107851783Y-71237703D01*
X107851626Y-71243856D01*
X107851367Y-71250078D01*
X107851003Y-71256365D01*
X107850534Y-71262718D01*
X107849961Y-71269138D01*
X107849286Y-71275622D01*
X107848506Y-71282175D01*
X107847622Y-71288716D01*
X107846631Y-71295176D01*
X107845539Y-71301546D01*
X107844343Y-71307834D01*
X107843041Y-71314034D01*
X107841636Y-71320150D01*
X107840126Y-71326181D01*
X107838514Y-71332128D01*
X107836811Y-71337955D01*
X107835034Y-71343633D01*
X107833176Y-71349158D01*
X107831245Y-71354531D01*
X107829242Y-71359753D01*
X107827162Y-71364825D01*
X107825005Y-71369744D01*
X107822772Y-71374512D01*
X107821768Y-71376519D01*
X107820722Y-71378450D01*
X107819638Y-71380306D01*
X107818514Y-71382082D01*
X107817350Y-71383784D01*
X107816144Y-71385413D01*
X107814897Y-71386964D01*
X107813612Y-71388441D01*
X107812288Y-71389841D01*
X107810920Y-71391165D01*
X107809515Y-71392412D01*
X107808070Y-71393587D01*
X107806582Y-71394685D01*
X107805056Y-71395707D01*
X107803488Y-71396653D01*
X107801881Y-71397524D01*
X107800248Y-71398321D01*
X107798603Y-71399055D01*
X107796947Y-71399723D01*
X107795278Y-71400323D01*
X107793597Y-71400858D01*
X107791905Y-71401326D01*
X107790201Y-71401727D01*
X107788485Y-71402063D01*
X107786754Y-71402335D01*
X107785018Y-71402538D01*
X107783266Y-71402675D01*
X107781501Y-71402745D01*
X107779726Y-71402748D01*
X107777939Y-71402688D01*
X107776140Y-71402561D01*
X107774332Y-71402366D01*
X107772527Y-71402114D01*
X107770750Y-71401809D01*
X107769000Y-71401452D01*
X107767272Y-71401042D01*
X107765571Y-71400582D01*
X107763901Y-71400069D01*
X107762253Y-71399500D01*
X107760632Y-71398886D01*
X107759036Y-71398216D01*
X107757466Y-71397495D01*
X107755922Y-71396720D01*
X107754405Y-71395895D01*
X107752916Y-71395017D01*
X107751449Y-71394087D01*
X107750011Y-71393104D01*
X107748597Y-71392073D01*
X107747225Y-71390994D01*
X107745910Y-71389867D01*
X107744650Y-71388700D01*
X107743452Y-71387493D01*
X107742305Y-71386242D01*
X107741219Y-71384949D01*
X107740186Y-71383611D01*
X107739213Y-71382232D01*
X107738294Y-71380813D01*
X107737433Y-71379348D01*
X107736630Y-71377840D01*
X107735882Y-71376292D01*
X107735191Y-71374699D01*
X107734556Y-71373066D01*
X107733981Y-71371389D01*
X107733460Y-71369669D01*
X107733014Y-71367916D01*
X107732660Y-71366130D01*
X107732400Y-71364321D01*
X107732231Y-71362480D01*
X107732152Y-71360613D01*
X107732168Y-71358715D01*
X107732275Y-71356787D01*
X107732474Y-71354835D01*
X107732768Y-71352851D01*
X107733154Y-71350841D01*
X107733629Y-71348802D01*
X107734198Y-71346736D01*
X107734858Y-71344639D01*
X107735611Y-71342515D01*
X107736458Y-71340363D01*
X107737395Y-71338184D01*
X107740044Y-71332338D01*
X107742542Y-71326301D01*
X107744888Y-71320074D01*
X107747082Y-71313659D01*
X107749129Y-71307056D01*
X107751019Y-71300265D01*
X107752760Y-71293281D01*
X107754350Y-71286111D01*
X107755768Y-71278900D01*
X107756998Y-71271804D01*
X107758039Y-71264822D01*
X107758890Y-71257954D01*
X107759553Y-71251198D01*
X107760027Y-71244558D01*
X107760309Y-71238029D01*
X107760403Y-71231614D01*
X107760239Y-71221997D01*
X107760031Y-71217470D01*
X107759744Y-71213128D01*
X107759369Y-71208974D01*
X107758913Y-71205008D01*
X107758376Y-71201224D01*
X107757755Y-71197631D01*
X107757052Y-71194225D01*
X107756266Y-71191005D01*
X107755394Y-71187970D01*
X107754442Y-71185125D01*
X107753411Y-71182464D01*
X107752291Y-71179992D01*
X107751090Y-71177707D01*
X107749808Y-71175607D01*
X107748464Y-71173664D01*
X107747080Y-71171845D01*
X107745653Y-71170153D01*
X107744188Y-71168588D01*
X107742683Y-71167144D01*
X107741136Y-71165829D01*
X107739553Y-71164638D01*
X107737926Y-71163572D01*
X107737098Y-71163085D01*
X107736259Y-71162632D01*
X107735411Y-71162208D01*
X107734552Y-71161818D01*
X107733683Y-71161455D01*
X107732803Y-71161127D01*
X107731915Y-71160828D01*
X107731019Y-71160562D01*
X107730111Y-71160329D01*
X107729191Y-71160124D01*
X107728262Y-71159951D01*
X107727322Y-71159811D01*
X107726375Y-71159702D01*
X107725417Y-71159622D01*
X107723468Y-71159560D01*
X107721749Y-71159604D01*
X107720072Y-71159734D01*
X107718438Y-71159952D01*
X107716846Y-71160261D01*
X107715297Y-71160654D01*
X107713790Y-71161134D01*
X107712325Y-71161704D01*
X107710905Y-71162362D01*
X107709526Y-71163105D01*
X107708189Y-71163936D01*
X107706897Y-71164856D01*
X107705644Y-71165862D01*
X107704435Y-71166953D01*
X107703270Y-71168139D01*
X107702147Y-71169408D01*
X107701065Y-71170762D01*
X107700014Y-71172230D01*
X107698982Y-71173832D01*
X107697972Y-71175569D01*
X107696977Y-71177440D01*
X107696004Y-71179448D01*
X107695049Y-71181590D01*
X107694110Y-71183868D01*
X107693195Y-71186277D01*
X107692295Y-71188824D01*
X107691416Y-71191504D01*
X107690554Y-71194322D01*
X107689713Y-71197271D01*
X107688889Y-71200355D01*
X107688084Y-71203576D01*
X107687298Y-71206931D01*
X107686535Y-71210423D01*
X107671395Y-71281267D01*
X107669812Y-71288418D01*
X107668085Y-71295335D01*
X107666216Y-71302020D01*
X107664204Y-71308476D01*
X107662053Y-71314698D01*
X107659759Y-71320689D01*
X107657323Y-71326450D01*
X107654744Y-71331974D01*
X107652026Y-71337274D01*
X107649163Y-71342334D01*
X107646158Y-71347169D01*
X107643011Y-71351770D01*
X107639724Y-71356138D01*
X107636295Y-71360276D01*
X107632724Y-71364181D01*
X107629011Y-71367853D01*
X107625158Y-71371299D01*
X107621166Y-71374523D01*
X107617040Y-71377524D01*
X107612776Y-71380306D01*
X107608374Y-71382862D01*
X107603834Y-71385194D01*
X107599160Y-71387306D01*
X107594348Y-71389196D01*
X107589395Y-71390864D01*
X107584308Y-71392308D01*
X107579084Y-71393533D01*
X107573720Y-71394535D01*
X107568222Y-71395308D01*
X107562586Y-71395867D01*
X107556811Y-71396202D01*
X107550900Y-71396310D01*
X107546986Y-71396260D01*
X107543120Y-71396108D01*
X107539296Y-71395853D01*
X107535519Y-71395498D01*
X107531784Y-71395039D01*
X107528095Y-71394481D01*
X107524450Y-71393819D01*
X107520852Y-71393056D01*
X107517302Y-71392191D01*
X107513790Y-71391226D01*
X107510327Y-71390159D01*
X107506908Y-71388989D01*
X107503533Y-71387717D01*
X107500205Y-71386344D01*
X107496921Y-71384869D01*
X107493681Y-71383293D01*
X107490495Y-71381623D01*
X107487366Y-71379869D01*
X107484297Y-71378026D01*
X107481287Y-71376101D01*
X107478338Y-71374091D01*
X107475447Y-71371995D01*
X107472614Y-71369816D01*
X107469840Y-71367548D01*
X107467126Y-71365199D01*
X107464472Y-71362763D01*
X107461875Y-71360241D01*
X107459337Y-71357634D01*
X107456860Y-71354942D01*
X107454442Y-71352166D01*
X107452084Y-71349305D01*
X107449782Y-71346358D01*
X107447543Y-71343332D01*
X107445368Y-71340235D01*
X107443259Y-71337070D01*
X107441210Y-71333830D01*
X107439227Y-71330523D01*
X107437309Y-71327144D01*
X107435454Y-71323692D01*
X107433662Y-71320170D01*
X107431933Y-71316578D01*
X107430267Y-71312913D01*
X107428670Y-71309177D01*
X107427132Y-71305371D01*
X107425660Y-71301494D01*
X107424253Y-71297548D01*
X107422907Y-71293529D01*
X107421626Y-71289440D01*
X107419286Y-71281072D01*
X107417256Y-71272467D01*
X107415539Y-71263628D01*
X107414135Y-71254549D01*
X107413042Y-71245235D01*
X107412259Y-71235685D01*
X107411793Y-71225896D01*
X107411637Y-71215872D01*
X107411744Y-71207985D01*
X107412070Y-71200071D01*
X107412616Y-71192131D01*
X107413378Y-71184159D01*
X107414355Y-71176159D01*
X107415554Y-71168131D01*
X107416967Y-71160074D01*
X107418600Y-71151991D01*
X107420448Y-71144030D01*
X107422515Y-71136341D01*
X107424801Y-71128928D01*
X107427303Y-71121794D01*
X107430026Y-71114928D01*
X107432960Y-71108339D01*
X107436116Y-71102024D01*
X107437777Y-71098969D01*
X107439489Y-71095983D01*
X107440417Y-71094271D01*
X107441390Y-71092625D01*
X107442405Y-71091036D01*
X107443461Y-71089512D01*
X107444562Y-71088049D01*
X107445704Y-71086645D01*
X107446889Y-71085302D01*
X107448116Y-71084025D01*
X107449386Y-71082806D01*
X107450700Y-71081647D01*
X107452055Y-71080554D01*
X107453453Y-71079522D01*
X107454894Y-71078548D01*
X107456376Y-71077637D01*
X107457900Y-71076791D01*
X107459471Y-71076002D01*
X107461064Y-71075272D01*
X107462665Y-71074601D01*
X107464270Y-71073986D01*
X107465885Y-71073426D01*
X107467509Y-71072923D01*
X107469134Y-71072482D01*
X107470772Y-71072093D01*
X107472414Y-71071761D01*
X107474061Y-71071486D01*
X107475720Y-71071268D01*
X107477383Y-71071109D01*
X107479054Y-71071006D01*
X107480732Y-71070957D01*
X107482419Y-71070968D01*
X107484109Y-71071035D01*
X107485810Y-71071158D01*
X107487500Y-71071334D01*
X107489163Y-71071567D01*
X107490803Y-71071856D01*
X107492414Y-71072196D01*
X107493998Y-71072595D01*
X107495560Y-71073045D01*
X107497091Y-71073549D01*
X107498601Y-71074107D01*
X107500083Y-71074722D01*
X107501539Y-71075390D01*
X107502970Y-71076113D01*
X107504371Y-71076890D01*
X107505750Y-71077721D01*
X107507103Y-71078607D01*
X107508429Y-71079547D01*
X107509726Y-71080541D01*
X107510986Y-71081585D01*
X107512192Y-71082670D01*
X107513342Y-71083798D01*
X107514438Y-71084970D01*
X107515480Y-71086183D01*
X107516467Y-71087438D01*
X107517402Y-71088737D01*
X107518281Y-71090079D01*
X107519103Y-71091462D01*
X107519873Y-71092888D01*
X107520588Y-71094359D01*
X107521248Y-71095870D01*
X107521858Y-71097423D01*
X107522408Y-71099022D01*
X107522907Y-71100661D01*
X107523349Y-71102342D01*
X107523724Y-71104064D01*
X107524008Y-71105827D01*
X107524205Y-71107630D01*
X107524316Y-71109473D01*
X107524338Y-71111358D01*
X107524273Y-71113281D01*
X107524121Y-71115247D01*
X107523881Y-71117250D01*
X107523553Y-71119294D01*
X107523137Y-71121381D01*
X107522635Y-71123506D01*
X107522044Y-71125672D01*
X107521368Y-71127875D01*
X107520601Y-71130122D01*
X107519750Y-71132409D01*
X107518810Y-71134735D01*
X107516904Y-71139194D01*
X107515120Y-71143798D01*
X107513460Y-71148543D01*
X107511922Y-71153430D01*
X107510507Y-71158459D01*
X107509215Y-71163629D01*
X107508049Y-71168940D01*
X107507002Y-71174395D01*
X107506080Y-71179898D01*
X107505281Y-71185350D01*
X107504604Y-71190758D01*
X107504049Y-71196119D01*
X107503619Y-71201431D01*
X107503313Y-71206695D01*
X107503126Y-71211913D01*
X107503067Y-71217084D01*
X107503147Y-71222580D01*
X107503388Y-71227870D01*
X107503791Y-71232947D01*
X107504353Y-71237821D01*
X107505078Y-71242484D01*
X107505963Y-71246942D01*
X107507007Y-71251189D01*
X107508213Y-71255231D01*
X107508875Y-71257167D01*
X107509571Y-71259045D01*
X107510303Y-71260864D01*
X107511071Y-71262628D01*
X107511873Y-71264330D01*
X107512712Y-71265973D01*
X107513587Y-71267554D01*
X107514495Y-71269079D01*
X107515441Y-71270545D01*
X107516418Y-71271951D01*
X107517435Y-71273298D01*
X107518487Y-71274585D01*
X107519574Y-71275815D01*
X107520697Y-71276985D01*
X107521855Y-71278096D01*
X107523047Y-71279148D01*
X107524270Y-71280137D01*
X107525519Y-71281063D01*
X107526788Y-71281924D01*
X107528082Y-71282725D01*
X107529399Y-71283458D01*
X107530740Y-71284128D01*
X107532106Y-71284733D01*
X107533493Y-71285277D01*
X107534906Y-71285757D01*
X107536342Y-71286172D01*
X107537801Y-71286523D01*
X107539284Y-71286809D01*
X107540789Y-71287035D01*
X107542321Y-71287194D01*
X107543874Y-71287289D01*
X107545453Y-71287321D01*
X107547025Y-71287280D01*
X107548567Y-71287155D01*
X107550081Y-71286948D01*
X107551562Y-71286658D01*
X107553014Y-71286285D01*
X107554434Y-71285831D01*
X107555825Y-71285292D01*
X107557183Y-71284674D01*
X107558511Y-71283967D01*
X107559807Y-71283183D01*
X107561076Y-71282312D01*
X107562312Y-71281362D01*
X107563516Y-71280325D01*
X107564690Y-71279207D01*
X107565834Y-71278008D01*
X107566947Y-71276724D01*
X107568033Y-71275328D01*
X107569099Y-71273796D01*
X107570143Y-71272123D01*
X107571166Y-71270311D01*
X107572168Y-71268357D01*
X107573148Y-71266265D01*
X107574108Y-71264033D01*
X107575045Y-71261661D01*
X107575963Y-71259150D01*
X107576858Y-71256502D01*
X107577731Y-71253711D01*
X107578584Y-71250781D01*
X107579418Y-71247712D01*
X107580224Y-71244506D01*
X107581013Y-71241158D01*
X107581783Y-71237670D01*
X107596918Y-71167432D01*
X107598571Y-71160206D01*
X107600352Y-71153211D01*
X107602262Y-71146449D01*
X107604297Y-71139921D01*
X107606463Y-71133619D01*
X107608756Y-71127554D01*
X107611175Y-71121717D01*
X107613720Y-71116114D01*
X107616397Y-71110742D01*
X107619198Y-71105603D01*
X107622130Y-71100696D01*
X107625187Y-71096021D01*
X107628374Y-71091575D01*
X107631688Y-71087360D01*
X107635129Y-71083382D01*
X107638700Y-71079633D01*
X107642402Y-71076115D01*
X107646240Y-71072823D01*
X107650216Y-71069756D01*
X107654329Y-71066919D01*
X107658578Y-71064308D01*
X107662965Y-71061923D01*
X107667491Y-71059766D01*
X107672154Y-71057837D01*
X107676951Y-71056133D01*
X107681889Y-71054658D01*
X107686962Y-71053409D01*
X107692172Y-71052386D01*
X107697519Y-71051591D01*
X107703004Y-71051024D01*
X107708627Y-71050684D01*
X107714386Y-71050570D01*
X107718298Y-71050618D01*
G37*
G36*
X107718298Y-73739325D02*
G01*
X107722162Y-73739472D01*
X107725981Y-73739723D01*
X107729750Y-73740069D01*
X107733475Y-73740518D01*
X107737150Y-73741063D01*
X107740777Y-73741706D01*
X107744358Y-73742452D01*
X107747892Y-73743296D01*
X107751378Y-73744241D01*
X107754817Y-73745284D01*
X107758210Y-73746427D01*
X107761555Y-73747669D01*
X107764851Y-73749009D01*
X107768102Y-73750450D01*
X107771303Y-73751988D01*
X107774453Y-73753622D01*
X107777542Y-73755339D01*
X107780573Y-73757141D01*
X107783546Y-73759028D01*
X107786459Y-73761000D01*
X107789312Y-73763059D01*
X107792106Y-73765202D01*
X107794842Y-73767431D01*
X107797519Y-73769744D01*
X107800137Y-73772141D01*
X107802696Y-73774627D01*
X107805194Y-73777194D01*
X107807632Y-73779847D01*
X107810012Y-73782586D01*
X107812334Y-73785412D01*
X107814597Y-73788319D01*
X107816799Y-73791310D01*
X107818934Y-73794376D01*
X107821008Y-73797517D01*
X107823017Y-73800733D01*
X107824962Y-73804024D01*
X107826843Y-73807394D01*
X107828661Y-73810837D01*
X107830416Y-73814357D01*
X107832106Y-73817951D01*
X107833733Y-73821622D01*
X107835293Y-73825368D01*
X107836792Y-73829191D01*
X107838228Y-73833090D01*
X107839597Y-73837061D01*
X107840903Y-73841111D01*
X107842146Y-73845236D01*
X107844418Y-73853695D01*
X107846386Y-73862416D01*
X107848050Y-73871405D01*
X107849415Y-73880659D01*
X107850474Y-73890177D01*
X107851231Y-73899959D01*
X107851683Y-73910006D01*
X107851834Y-73920319D01*
X107851783Y-73926407D01*
X107851626Y-73932561D01*
X107851367Y-73938780D01*
X107851003Y-73945069D01*
X107850534Y-73951420D01*
X107849961Y-73957841D01*
X107849286Y-73964330D01*
X107848506Y-73970879D01*
X107847622Y-73977421D01*
X107846631Y-73983879D01*
X107845539Y-73990250D01*
X107844343Y-73996536D01*
X107843041Y-74002737D01*
X107841636Y-74008854D01*
X107840126Y-74014886D01*
X107838514Y-74020833D01*
X107836811Y-74026661D01*
X107835034Y-74032335D01*
X107833176Y-74037861D01*
X107831245Y-74043236D01*
X107829242Y-74048460D01*
X107827162Y-74053529D01*
X107825005Y-74058449D01*
X107822772Y-74063219D01*
X107821768Y-74065223D01*
X107820722Y-74067152D01*
X107819638Y-74069008D01*
X107818514Y-74070785D01*
X107817350Y-74072489D01*
X107816144Y-74074117D01*
X107814897Y-74075668D01*
X107813612Y-74077144D01*
X107812288Y-74078544D01*
X107810920Y-74079867D01*
X107809515Y-74081118D01*
X107808070Y-74082291D01*
X107806582Y-74083387D01*
X107805056Y-74084410D01*
X107803488Y-74085357D01*
X107801881Y-74086225D01*
X107800248Y-74087026D01*
X107798603Y-74087757D01*
X107796947Y-74088427D01*
X107795278Y-74089027D01*
X107793597Y-74089560D01*
X107791905Y-74090029D01*
X107790201Y-74090433D01*
X107788485Y-74090768D01*
X107786754Y-74091037D01*
X107785018Y-74091241D01*
X107783266Y-74091375D01*
X107781501Y-74091450D01*
X107779726Y-74091454D01*
X107777939Y-74091392D01*
X107776140Y-74091264D01*
X107774332Y-74091070D01*
X107772527Y-74090818D01*
X107770750Y-74090512D01*
X107769000Y-74090153D01*
X107767272Y-74089746D01*
X107765571Y-74089285D01*
X107763901Y-74088770D01*
X107762253Y-74088207D01*
X107760632Y-74087588D01*
X107759036Y-74086920D01*
X107757466Y-74086198D01*
X107755922Y-74085425D01*
X107754405Y-74084599D01*
X107752916Y-74083722D01*
X107751449Y-74082792D01*
X107750011Y-74081810D01*
X107748597Y-74080778D01*
X107747225Y-74079696D01*
X107745910Y-74078573D01*
X107744650Y-74077406D01*
X107743452Y-74076197D01*
X107742305Y-74074945D01*
X107741219Y-74073652D01*
X107740186Y-74072317D01*
X107739213Y-74070938D01*
X107738294Y-74069515D01*
X107737433Y-74068050D01*
X107736630Y-74066547D01*
X107735882Y-74064996D01*
X107735191Y-74063404D01*
X107734556Y-74061769D01*
X107733981Y-74060091D01*
X107733460Y-74058372D01*
X107733014Y-74056619D01*
X107732660Y-74054835D01*
X107732400Y-74053021D01*
X107732231Y-74051183D01*
X107732152Y-74049313D01*
X107732168Y-74047418D01*
X107732275Y-74045493D01*
X107732474Y-74043536D01*
X107732768Y-74041555D01*
X107733154Y-74039547D01*
X107733629Y-74037509D01*
X107734198Y-74035440D01*
X107734858Y-74033345D01*
X107735611Y-74031220D01*
X107736458Y-74029067D01*
X107737395Y-74026887D01*
X107740044Y-74021041D01*
X107742542Y-74015003D01*
X107744888Y-74008780D01*
X107747082Y-74002365D01*
X107749129Y-73995762D01*
X107751019Y-73988969D01*
X107752760Y-73981987D01*
X107754350Y-73974814D01*
X107755768Y-73967606D01*
X107756998Y-73960509D01*
X107758039Y-73953526D01*
X107758890Y-73946659D01*
X107759553Y-73939902D01*
X107760027Y-73933261D01*
X107760309Y-73926733D01*
X107760403Y-73920319D01*
X107760239Y-73910701D01*
X107760031Y-73906174D01*
X107759744Y-73901835D01*
X107759369Y-73897678D01*
X107758913Y-73893711D01*
X107758376Y-73889928D01*
X107757755Y-73886336D01*
X107757052Y-73882927D01*
X107756266Y-73879708D01*
X107755394Y-73876675D01*
X107754442Y-73873826D01*
X107753411Y-73871171D01*
X107752291Y-73868694D01*
X107751090Y-73866409D01*
X107749808Y-73864310D01*
X107748464Y-73862367D01*
X107747080Y-73860549D01*
X107745653Y-73858857D01*
X107744188Y-73857290D01*
X107742683Y-73855849D01*
X107741136Y-73854533D01*
X107739553Y-73853341D01*
X107737926Y-73852278D01*
X107737098Y-73851790D01*
X107736259Y-73851336D01*
X107735411Y-73850913D01*
X107734552Y-73850521D01*
X107733683Y-73850160D01*
X107732803Y-73849833D01*
X107731915Y-73849533D01*
X107731019Y-73849267D01*
X107730111Y-73849032D01*
X107729191Y-73848828D01*
X107728262Y-73848657D01*
X107727322Y-73848515D01*
X107726375Y-73848405D01*
X107725417Y-73848327D01*
X107723468Y-73848264D01*
X107721749Y-73848308D01*
X107720072Y-73848441D01*
X107718438Y-73848658D01*
X107716846Y-73848967D01*
X107715297Y-73849359D01*
X107713790Y-73849839D01*
X107712325Y-73850409D01*
X107710905Y-73851064D01*
X107709526Y-73851807D01*
X107708189Y-73852640D01*
X107706897Y-73853558D01*
X107705644Y-73854564D01*
X107704435Y-73855660D01*
X107703270Y-73856841D01*
X107702147Y-73858109D01*
X107701065Y-73859467D01*
X107700014Y-73860932D01*
X107698982Y-73862537D01*
X107697972Y-73864274D01*
X107696977Y-73866147D01*
X107696004Y-73868152D01*
X107695049Y-73870292D01*
X107694110Y-73872570D01*
X107693195Y-73874982D01*
X107692295Y-73877528D01*
X107691416Y-73880209D01*
X107690554Y-73883024D01*
X107689713Y-73885975D01*
X107688889Y-73889061D01*
X107688084Y-73892282D01*
X107687298Y-73895636D01*
X107686535Y-73899127D01*
X107671395Y-73969972D01*
X107669812Y-73977121D01*
X107668085Y-73984039D01*
X107666216Y-73990725D01*
X107664204Y-73997180D01*
X107662053Y-74003401D01*
X107659759Y-74009394D01*
X107657323Y-74015153D01*
X107654744Y-74020679D01*
X107652026Y-74025977D01*
X107649163Y-74031040D01*
X107646158Y-74035871D01*
X107643011Y-74040473D01*
X107639724Y-74044842D01*
X107636295Y-74048978D01*
X107632724Y-74052884D01*
X107629011Y-74056557D01*
X107625158Y-74060004D01*
X107621166Y-74063225D01*
X107617040Y-74066229D01*
X107612776Y-74069008D01*
X107608374Y-74071564D01*
X107603834Y-74073898D01*
X107599160Y-74076012D01*
X107594348Y-74077900D01*
X107589395Y-74079567D01*
X107584308Y-74081013D01*
X107579084Y-74082235D01*
X107573720Y-74083239D01*
X107568222Y-74084016D01*
X107562586Y-74084571D01*
X107556811Y-74084906D01*
X107550900Y-74085015D01*
X107546986Y-74084964D01*
X107543120Y-74084811D01*
X107539296Y-74084557D01*
X107535519Y-74084201D01*
X107531784Y-74083744D01*
X107528095Y-74083186D01*
X107524450Y-74082523D01*
X107520852Y-74081760D01*
X107517302Y-74080895D01*
X107513790Y-74079929D01*
X107510327Y-74078863D01*
X107506908Y-74077693D01*
X107503533Y-74076421D01*
X107500205Y-74075047D01*
X107496921Y-74073575D01*
X107493681Y-74071994D01*
X107490495Y-74070326D01*
X107487366Y-74068572D01*
X107484297Y-74066734D01*
X107481287Y-74064806D01*
X107478338Y-74062796D01*
X107475447Y-74060700D01*
X107472614Y-74058521D01*
X107469840Y-74056252D01*
X107467126Y-74053904D01*
X107464472Y-74051468D01*
X107461875Y-74048945D01*
X107459337Y-74046339D01*
X107456860Y-74043649D01*
X107454442Y-74040870D01*
X107452084Y-74038008D01*
X107449782Y-74035061D01*
X107447543Y-74032036D01*
X107445368Y-74028940D01*
X107443259Y-74025773D01*
X107441210Y-74022537D01*
X107439227Y-74019227D01*
X107437309Y-74015846D01*
X107435454Y-74012394D01*
X107433662Y-74008874D01*
X107431933Y-74005282D01*
X107430267Y-74001616D01*
X107428670Y-73997882D01*
X107427132Y-73994076D01*
X107425660Y-73990199D01*
X107424253Y-73986252D01*
X107422907Y-73982234D01*
X107421626Y-73978145D01*
X107419286Y-73969775D01*
X107417256Y-73961172D01*
X107415539Y-73952329D01*
X107414135Y-73943252D01*
X107413042Y-73933937D01*
X107412259Y-73924386D01*
X107411793Y-73914600D01*
X107411637Y-73904575D01*
X107411744Y-73896691D01*
X107412070Y-73888776D01*
X107412616Y-73880833D01*
X107413378Y-73872863D01*
X107414355Y-73864864D01*
X107415554Y-73856836D01*
X107416967Y-73848780D01*
X107418600Y-73840694D01*
X107420448Y-73832734D01*
X107422515Y-73825046D01*
X107424801Y-73817634D01*
X107427303Y-73810496D01*
X107430026Y-73803631D01*
X107432960Y-73797044D01*
X107436116Y-73790728D01*
X107437777Y-73787673D01*
X107439489Y-73784686D01*
X107440417Y-73782977D01*
X107441390Y-73781328D01*
X107442405Y-73779742D01*
X107443461Y-73778216D01*
X107444562Y-73776752D01*
X107445704Y-73775350D01*
X107446889Y-73774007D01*
X107448116Y-73772729D01*
X107449386Y-73771511D01*
X107450700Y-73770352D01*
X107452055Y-73769257D01*
X107453453Y-73768223D01*
X107454894Y-73767250D01*
X107456376Y-73766343D01*
X107457900Y-73765492D01*
X107459471Y-73764704D01*
X107461064Y-73763978D01*
X107462665Y-73763306D01*
X107464270Y-73762690D01*
X107465885Y-73762132D01*
X107467509Y-73761631D01*
X107469134Y-73761187D01*
X107470772Y-73760798D01*
X107472414Y-73760466D01*
X107474061Y-73760193D01*
X107475720Y-73759973D01*
X107477383Y-73759815D01*
X107479054Y-73759709D01*
X107480732Y-73759663D01*
X107482419Y-73759672D01*
X107484109Y-73759739D01*
X107485810Y-73759861D01*
X107487500Y-73760040D01*
X107489163Y-73760273D01*
X107490803Y-73760561D01*
X107492414Y-73760901D01*
X107493998Y-73761299D01*
X107495560Y-73761751D01*
X107497091Y-73762254D01*
X107498601Y-73762813D01*
X107500083Y-73763426D01*
X107501539Y-73764096D01*
X107502970Y-73764817D01*
X107504371Y-73765595D01*
X107505750Y-73766426D01*
X107507103Y-73767312D01*
X107508429Y-73768251D01*
X107509726Y-73769248D01*
X107510986Y-73770289D01*
X107512192Y-73771376D01*
X107513342Y-73772503D01*
X107514438Y-73773674D01*
X107515480Y-73774888D01*
X107516467Y-73776143D01*
X107517402Y-73777442D01*
X107518281Y-73778783D01*
X107519103Y-73780168D01*
X107519873Y-73781593D01*
X107520588Y-73783063D01*
X107521248Y-73784573D01*
X107521858Y-73786127D01*
X107522408Y-73787724D01*
X107522907Y-73789363D01*
X107523349Y-73791045D01*
X107523724Y-73792766D01*
X107524008Y-73794530D01*
X107524205Y-73796335D01*
X107524316Y-73798180D01*
X107524338Y-73800061D01*
X107524273Y-73801987D01*
X107524121Y-73803949D01*
X107523881Y-73805955D01*
X107523553Y-73807999D01*
X107523137Y-73810086D01*
X107522635Y-73812210D01*
X107522044Y-73814375D01*
X107521368Y-73816581D01*
X107520601Y-73818827D01*
X107519750Y-73821114D01*
X107518810Y-73823439D01*
X107516904Y-73827900D01*
X107515120Y-73832503D01*
X107513460Y-73837248D01*
X107511922Y-73842134D01*
X107510507Y-73847163D01*
X107509215Y-73852332D01*
X107508049Y-73857645D01*
X107507002Y-73863099D01*
X107506080Y-73868600D01*
X107505281Y-73874054D01*
X107504604Y-73879462D01*
X107504049Y-73884820D01*
X107503619Y-73890136D01*
X107503313Y-73895399D01*
X107503126Y-73900615D01*
X107503067Y-73905787D01*
X107503147Y-73911285D01*
X107503388Y-73916573D01*
X107503791Y-73921654D01*
X107504353Y-73926527D01*
X107505078Y-73931190D01*
X107505963Y-73935645D01*
X107507007Y-73939895D01*
X107508213Y-73943934D01*
X107508875Y-73945871D01*
X107509571Y-73947751D01*
X107510303Y-73949572D01*
X107511071Y-73951333D01*
X107511873Y-73953031D01*
X107512712Y-73954676D01*
X107513587Y-73956259D01*
X107514495Y-73957785D01*
X107515441Y-73959248D01*
X107516418Y-73960655D01*
X107517435Y-73962004D01*
X107518487Y-73963292D01*
X107519574Y-73964519D01*
X107520697Y-73965689D01*
X107521855Y-73966798D01*
X107523047Y-73967852D01*
X107524270Y-73968840D01*
X107525519Y-73969766D01*
X107526788Y-73970628D01*
X107528082Y-73971426D01*
X107529399Y-73972163D01*
X107530740Y-73972831D01*
X107532106Y-73973439D01*
X107533493Y-73973981D01*
X107534906Y-73974463D01*
X107536342Y-73974874D01*
X107537801Y-73975227D01*
X107539284Y-73975516D01*
X107540789Y-73975738D01*
X107542321Y-73975898D01*
X107543874Y-73975993D01*
X107545453Y-73976025D01*
X107547025Y-73975985D01*
X107548567Y-73975860D01*
X107550081Y-73975652D01*
X107551562Y-73975363D01*
X107553014Y-73974990D01*
X107554434Y-73974536D01*
X107555825Y-73973997D01*
X107557183Y-73973376D01*
X107558511Y-73972671D01*
X107559807Y-73971886D01*
X107561076Y-73971017D01*
X107562312Y-73970064D01*
X107563516Y-73969030D01*
X107564690Y-73967913D01*
X107565834Y-73966711D01*
X107566947Y-73965430D01*
X107568033Y-73964033D01*
X107569099Y-73962499D01*
X107570143Y-73960827D01*
X107571166Y-73959015D01*
X107572168Y-73957061D01*
X107573148Y-73954970D01*
X107574108Y-73952737D01*
X107575045Y-73950366D01*
X107575963Y-73947856D01*
X107576858Y-73945206D01*
X107577731Y-73942417D01*
X107578584Y-73939488D01*
X107579418Y-73936416D01*
X107580224Y-73933208D01*
X107581013Y-73929861D01*
X107581783Y-73926373D01*
X107596918Y-73856137D01*
X107598571Y-73848911D01*
X107600352Y-73841916D01*
X107602262Y-73835153D01*
X107604297Y-73828623D01*
X107606463Y-73822325D01*
X107608756Y-73816259D01*
X107611175Y-73810425D01*
X107613720Y-73804818D01*
X107616397Y-73799449D01*
X107619198Y-73794308D01*
X107622130Y-73789399D01*
X107625187Y-73784723D01*
X107628374Y-73780281D01*
X107631688Y-73776067D01*
X107635129Y-73772088D01*
X107638700Y-73768338D01*
X107642402Y-73764818D01*
X107646240Y-73761526D01*
X107650216Y-73758459D01*
X107654329Y-73755622D01*
X107658578Y-73753011D01*
X107662965Y-73750626D01*
X107667491Y-73748470D01*
X107672154Y-73746541D01*
X107676951Y-73744837D01*
X107681889Y-73743362D01*
X107686962Y-73742112D01*
X107692172Y-73741090D01*
X107697519Y-73740294D01*
X107703004Y-73739729D01*
X107708627Y-73739389D01*
X107714386Y-73739274D01*
X107718298Y-73739325D01*
G37*
D12*
X160708646Y-106955752D02*
X160946741Y-107622419D01*
X160946741Y-107622419D02*
X161184836Y-106955752D01*
X161518170Y-106717657D02*
X161565789Y-106670038D01*
X161565789Y-106670038D02*
X161661027Y-106622419D01*
X161661027Y-106622419D02*
X161899122Y-106622419D01*
X161899122Y-106622419D02*
X161994360Y-106670038D01*
X161994360Y-106670038D02*
X162041979Y-106717657D01*
X162041979Y-106717657D02*
X162089598Y-106812895D01*
X162089598Y-106812895D02*
X162089598Y-106908133D01*
X162089598Y-106908133D02*
X162041979Y-107050990D01*
X162041979Y-107050990D02*
X161470551Y-107622419D01*
X161470551Y-107622419D02*
X162089598Y-107622419D01*
X162518170Y-107527180D02*
X162565789Y-107574800D01*
X162565789Y-107574800D02*
X162518170Y-107622419D01*
X162518170Y-107622419D02*
X162470551Y-107574800D01*
X162470551Y-107574800D02*
X162518170Y-107527180D01*
X162518170Y-107527180D02*
X162518170Y-107622419D01*
X163184836Y-106622419D02*
X163280074Y-106622419D01*
X163280074Y-106622419D02*
X163375312Y-106670038D01*
X163375312Y-106670038D02*
X163422931Y-106717657D01*
X163422931Y-106717657D02*
X163470550Y-106812895D01*
X163470550Y-106812895D02*
X163518169Y-107003371D01*
X163518169Y-107003371D02*
X163518169Y-107241466D01*
X163518169Y-107241466D02*
X163470550Y-107431942D01*
X163470550Y-107431942D02*
X163422931Y-107527180D01*
X163422931Y-107527180D02*
X163375312Y-107574800D01*
X163375312Y-107574800D02*
X163280074Y-107622419D01*
X163280074Y-107622419D02*
X163184836Y-107622419D01*
X163184836Y-107622419D02*
X163089598Y-107574800D01*
X163089598Y-107574800D02*
X163041979Y-107527180D01*
X163041979Y-107527180D02*
X162994360Y-107431942D01*
X162994360Y-107431942D02*
X162946741Y-107241466D01*
X162946741Y-107241466D02*
X162946741Y-107003371D01*
X162946741Y-107003371D02*
X162994360Y-106812895D01*
X162994360Y-106812895D02*
X163041979Y-106717657D01*
X163041979Y-106717657D02*
X163089598Y-106670038D01*
X163089598Y-106670038D02*
X163184836Y-106622419D01*
D13*
X134261905Y-71494819D02*
X134261905Y-70494819D01*
X134261905Y-70494819D02*
X134500000Y-70494819D01*
X134500000Y-70494819D02*
X134642857Y-70542438D01*
X134642857Y-70542438D02*
X134738095Y-70637676D01*
X134738095Y-70637676D02*
X134785714Y-70732914D01*
X134785714Y-70732914D02*
X134833333Y-70923390D01*
X134833333Y-70923390D02*
X134833333Y-71066247D01*
X134833333Y-71066247D02*
X134785714Y-71256723D01*
X134785714Y-71256723D02*
X134738095Y-71351961D01*
X134738095Y-71351961D02*
X134642857Y-71447200D01*
X134642857Y-71447200D02*
X134500000Y-71494819D01*
X134500000Y-71494819D02*
X134261905Y-71494819D01*
X135690476Y-70828152D02*
X135690476Y-71494819D01*
X135452381Y-70447200D02*
X135214286Y-71161485D01*
X135214286Y-71161485D02*
X135833333Y-71161485D01*
X144261905Y-81494819D02*
X144261905Y-80494819D01*
X144261905Y-80494819D02*
X144500000Y-80494819D01*
X144500000Y-80494819D02*
X144642857Y-80542438D01*
X144642857Y-80542438D02*
X144738095Y-80637676D01*
X144738095Y-80637676D02*
X144785714Y-80732914D01*
X144785714Y-80732914D02*
X144833333Y-80923390D01*
X144833333Y-80923390D02*
X144833333Y-81066247D01*
X144833333Y-81066247D02*
X144785714Y-81256723D01*
X144785714Y-81256723D02*
X144738095Y-81351961D01*
X144738095Y-81351961D02*
X144642857Y-81447200D01*
X144642857Y-81447200D02*
X144500000Y-81494819D01*
X144500000Y-81494819D02*
X144261905Y-81494819D01*
X145166667Y-80494819D02*
X145833333Y-80494819D01*
X145833333Y-80494819D02*
X145404762Y-81494819D01*
X143083333Y-93324819D02*
X142750000Y-92848628D01*
X142511905Y-93324819D02*
X142511905Y-92324819D01*
X142511905Y-92324819D02*
X142892857Y-92324819D01*
X142892857Y-92324819D02*
X142988095Y-92372438D01*
X142988095Y-92372438D02*
X143035714Y-92420057D01*
X143035714Y-92420057D02*
X143083333Y-92515295D01*
X143083333Y-92515295D02*
X143083333Y-92658152D01*
X143083333Y-92658152D02*
X143035714Y-92753390D01*
X143035714Y-92753390D02*
X142988095Y-92801009D01*
X142988095Y-92801009D02*
X142892857Y-92848628D01*
X142892857Y-92848628D02*
X142511905Y-92848628D01*
X143416667Y-92324819D02*
X144083333Y-92324819D01*
X144083333Y-92324819D02*
X143654762Y-93324819D01*
X124261905Y-81494819D02*
X124261905Y-80494819D01*
X124261905Y-80494819D02*
X124500000Y-80494819D01*
X124500000Y-80494819D02*
X124642857Y-80542438D01*
X124642857Y-80542438D02*
X124738095Y-80637676D01*
X124738095Y-80637676D02*
X124785714Y-80732914D01*
X124785714Y-80732914D02*
X124833333Y-80923390D01*
X124833333Y-80923390D02*
X124833333Y-81066247D01*
X124833333Y-81066247D02*
X124785714Y-81256723D01*
X124785714Y-81256723D02*
X124738095Y-81351961D01*
X124738095Y-81351961D02*
X124642857Y-81447200D01*
X124642857Y-81447200D02*
X124500000Y-81494819D01*
X124500000Y-81494819D02*
X124261905Y-81494819D01*
X125690476Y-80494819D02*
X125500000Y-80494819D01*
X125500000Y-80494819D02*
X125404762Y-80542438D01*
X125404762Y-80542438D02*
X125357143Y-80590057D01*
X125357143Y-80590057D02*
X125261905Y-80732914D01*
X125261905Y-80732914D02*
X125214286Y-80923390D01*
X125214286Y-80923390D02*
X125214286Y-81304342D01*
X125214286Y-81304342D02*
X125261905Y-81399580D01*
X125261905Y-81399580D02*
X125309524Y-81447200D01*
X125309524Y-81447200D02*
X125404762Y-81494819D01*
X125404762Y-81494819D02*
X125595238Y-81494819D01*
X125595238Y-81494819D02*
X125690476Y-81447200D01*
X125690476Y-81447200D02*
X125738095Y-81399580D01*
X125738095Y-81399580D02*
X125785714Y-81304342D01*
X125785714Y-81304342D02*
X125785714Y-81066247D01*
X125785714Y-81066247D02*
X125738095Y-80971009D01*
X125738095Y-80971009D02*
X125690476Y-80923390D01*
X125690476Y-80923390D02*
X125595238Y-80875771D01*
X125595238Y-80875771D02*
X125404762Y-80875771D01*
X125404762Y-80875771D02*
X125309524Y-80923390D01*
X125309524Y-80923390D02*
X125261905Y-80971009D01*
X125261905Y-80971009D02*
X125214286Y-81066247D01*
X150954819Y-59166666D02*
X150478628Y-59499999D01*
X150954819Y-59738094D02*
X149954819Y-59738094D01*
X149954819Y-59738094D02*
X149954819Y-59357142D01*
X149954819Y-59357142D02*
X150002438Y-59261904D01*
X150002438Y-59261904D02*
X150050057Y-59214285D01*
X150050057Y-59214285D02*
X150145295Y-59166666D01*
X150145295Y-59166666D02*
X150288152Y-59166666D01*
X150288152Y-59166666D02*
X150383390Y-59214285D01*
X150383390Y-59214285D02*
X150431009Y-59261904D01*
X150431009Y-59261904D02*
X150478628Y-59357142D01*
X150478628Y-59357142D02*
X150478628Y-59738094D01*
X150050057Y-58785713D02*
X150002438Y-58738094D01*
X150002438Y-58738094D02*
X149954819Y-58642856D01*
X149954819Y-58642856D02*
X149954819Y-58404761D01*
X149954819Y-58404761D02*
X150002438Y-58309523D01*
X150002438Y-58309523D02*
X150050057Y-58261904D01*
X150050057Y-58261904D02*
X150145295Y-58214285D01*
X150145295Y-58214285D02*
X150240533Y-58214285D01*
X150240533Y-58214285D02*
X150383390Y-58261904D01*
X150383390Y-58261904D02*
X150954819Y-58833332D01*
X150954819Y-58833332D02*
X150954819Y-58214285D01*
X117584819Y-63916666D02*
X117108628Y-64249999D01*
X117584819Y-64488094D02*
X116584819Y-64488094D01*
X116584819Y-64488094D02*
X116584819Y-64107142D01*
X116584819Y-64107142D02*
X116632438Y-64011904D01*
X116632438Y-64011904D02*
X116680057Y-63964285D01*
X116680057Y-63964285D02*
X116775295Y-63916666D01*
X116775295Y-63916666D02*
X116918152Y-63916666D01*
X116918152Y-63916666D02*
X117013390Y-63964285D01*
X117013390Y-63964285D02*
X117061009Y-64011904D01*
X117061009Y-64011904D02*
X117108628Y-64107142D01*
X117108628Y-64107142D02*
X117108628Y-64488094D01*
X116584819Y-63583332D02*
X116584819Y-62964285D01*
X116584819Y-62964285D02*
X116965771Y-63297618D01*
X116965771Y-63297618D02*
X116965771Y-63154761D01*
X116965771Y-63154761D02*
X117013390Y-63059523D01*
X117013390Y-63059523D02*
X117061009Y-63011904D01*
X117061009Y-63011904D02*
X117156247Y-62964285D01*
X117156247Y-62964285D02*
X117394342Y-62964285D01*
X117394342Y-62964285D02*
X117489580Y-63011904D01*
X117489580Y-63011904D02*
X117537200Y-63059523D01*
X117537200Y-63059523D02*
X117584819Y-63154761D01*
X117584819Y-63154761D02*
X117584819Y-63440475D01*
X117584819Y-63440475D02*
X117537200Y-63535713D01*
X117537200Y-63535713D02*
X117489580Y-63583332D01*
X135083333Y-83574819D02*
X134750000Y-83098628D01*
X134511905Y-83574819D02*
X134511905Y-82574819D01*
X134511905Y-82574819D02*
X134892857Y-82574819D01*
X134892857Y-82574819D02*
X134988095Y-82622438D01*
X134988095Y-82622438D02*
X135035714Y-82670057D01*
X135035714Y-82670057D02*
X135083333Y-82765295D01*
X135083333Y-82765295D02*
X135083333Y-82908152D01*
X135083333Y-82908152D02*
X135035714Y-83003390D01*
X135035714Y-83003390D02*
X134988095Y-83051009D01*
X134988095Y-83051009D02*
X134892857Y-83098628D01*
X134892857Y-83098628D02*
X134511905Y-83098628D01*
X135988095Y-82574819D02*
X135511905Y-82574819D01*
X135511905Y-82574819D02*
X135464286Y-83051009D01*
X135464286Y-83051009D02*
X135511905Y-83003390D01*
X135511905Y-83003390D02*
X135607143Y-82955771D01*
X135607143Y-82955771D02*
X135845238Y-82955771D01*
X135845238Y-82955771D02*
X135940476Y-83003390D01*
X135940476Y-83003390D02*
X135988095Y-83051009D01*
X135988095Y-83051009D02*
X136035714Y-83146247D01*
X136035714Y-83146247D02*
X136035714Y-83384342D01*
X136035714Y-83384342D02*
X135988095Y-83479580D01*
X135988095Y-83479580D02*
X135940476Y-83527200D01*
X135940476Y-83527200D02*
X135845238Y-83574819D01*
X135845238Y-83574819D02*
X135607143Y-83574819D01*
X135607143Y-83574819D02*
X135511905Y-83527200D01*
X135511905Y-83527200D02*
X135464286Y-83479580D01*
X117834819Y-74666666D02*
X117358628Y-74999999D01*
X117834819Y-75238094D02*
X116834819Y-75238094D01*
X116834819Y-75238094D02*
X116834819Y-74857142D01*
X116834819Y-74857142D02*
X116882438Y-74761904D01*
X116882438Y-74761904D02*
X116930057Y-74714285D01*
X116930057Y-74714285D02*
X117025295Y-74666666D01*
X117025295Y-74666666D02*
X117168152Y-74666666D01*
X117168152Y-74666666D02*
X117263390Y-74714285D01*
X117263390Y-74714285D02*
X117311009Y-74761904D01*
X117311009Y-74761904D02*
X117358628Y-74857142D01*
X117358628Y-74857142D02*
X117358628Y-75238094D01*
X116834819Y-73809523D02*
X116834819Y-73999999D01*
X116834819Y-73999999D02*
X116882438Y-74095237D01*
X116882438Y-74095237D02*
X116930057Y-74142856D01*
X116930057Y-74142856D02*
X117072914Y-74238094D01*
X117072914Y-74238094D02*
X117263390Y-74285713D01*
X117263390Y-74285713D02*
X117644342Y-74285713D01*
X117644342Y-74285713D02*
X117739580Y-74238094D01*
X117739580Y-74238094D02*
X117787200Y-74190475D01*
X117787200Y-74190475D02*
X117834819Y-74095237D01*
X117834819Y-74095237D02*
X117834819Y-73904761D01*
X117834819Y-73904761D02*
X117787200Y-73809523D01*
X117787200Y-73809523D02*
X117739580Y-73761904D01*
X117739580Y-73761904D02*
X117644342Y-73714285D01*
X117644342Y-73714285D02*
X117406247Y-73714285D01*
X117406247Y-73714285D02*
X117311009Y-73761904D01*
X117311009Y-73761904D02*
X117263390Y-73809523D01*
X117263390Y-73809523D02*
X117215771Y-73904761D01*
X117215771Y-73904761D02*
X117215771Y-74095237D01*
X117215771Y-74095237D02*
X117263390Y-74190475D01*
X117263390Y-74190475D02*
X117311009Y-74238094D01*
X117311009Y-74238094D02*
X117406247Y-74285713D01*
X133666667Y-41907200D02*
X133809524Y-41954819D01*
X133809524Y-41954819D02*
X134047619Y-41954819D01*
X134047619Y-41954819D02*
X134142857Y-41907200D01*
X134142857Y-41907200D02*
X134190476Y-41859580D01*
X134190476Y-41859580D02*
X134238095Y-41764342D01*
X134238095Y-41764342D02*
X134238095Y-41669104D01*
X134238095Y-41669104D02*
X134190476Y-41573866D01*
X134190476Y-41573866D02*
X134142857Y-41526247D01*
X134142857Y-41526247D02*
X134047619Y-41478628D01*
X134047619Y-41478628D02*
X133857143Y-41431009D01*
X133857143Y-41431009D02*
X133761905Y-41383390D01*
X133761905Y-41383390D02*
X133714286Y-41335771D01*
X133714286Y-41335771D02*
X133666667Y-41240533D01*
X133666667Y-41240533D02*
X133666667Y-41145295D01*
X133666667Y-41145295D02*
X133714286Y-41050057D01*
X133714286Y-41050057D02*
X133761905Y-41002438D01*
X133761905Y-41002438D02*
X133857143Y-40954819D01*
X133857143Y-40954819D02*
X134095238Y-40954819D01*
X134095238Y-40954819D02*
X134238095Y-41002438D01*
X134571429Y-40954819D02*
X134809524Y-41954819D01*
X134809524Y-41954819D02*
X135000000Y-41240533D01*
X135000000Y-41240533D02*
X135190476Y-41954819D01*
X135190476Y-41954819D02*
X135428572Y-40954819D01*
X135761905Y-41050057D02*
X135809524Y-41002438D01*
X135809524Y-41002438D02*
X135904762Y-40954819D01*
X135904762Y-40954819D02*
X136142857Y-40954819D01*
X136142857Y-40954819D02*
X136238095Y-41002438D01*
X136238095Y-41002438D02*
X136285714Y-41050057D01*
X136285714Y-41050057D02*
X136333333Y-41145295D01*
X136333333Y-41145295D02*
X136333333Y-41240533D01*
X136333333Y-41240533D02*
X136285714Y-41383390D01*
X136285714Y-41383390D02*
X135714286Y-41954819D01*
X135714286Y-41954819D02*
X136333333Y-41954819D01*
X138084819Y-68916666D02*
X137608628Y-69249999D01*
X138084819Y-69488094D02*
X137084819Y-69488094D01*
X137084819Y-69488094D02*
X137084819Y-69107142D01*
X137084819Y-69107142D02*
X137132438Y-69011904D01*
X137132438Y-69011904D02*
X137180057Y-68964285D01*
X137180057Y-68964285D02*
X137275295Y-68916666D01*
X137275295Y-68916666D02*
X137418152Y-68916666D01*
X137418152Y-68916666D02*
X137513390Y-68964285D01*
X137513390Y-68964285D02*
X137561009Y-69011904D01*
X137561009Y-69011904D02*
X137608628Y-69107142D01*
X137608628Y-69107142D02*
X137608628Y-69488094D01*
X138084819Y-67964285D02*
X138084819Y-68535713D01*
X138084819Y-68249999D02*
X137084819Y-68249999D01*
X137084819Y-68249999D02*
X137227676Y-68345237D01*
X137227676Y-68345237D02*
X137322914Y-68440475D01*
X137322914Y-68440475D02*
X137370533Y-68535713D01*
D12*
X143916667Y-51159800D02*
X144059524Y-51207419D01*
X144059524Y-51207419D02*
X144297619Y-51207419D01*
X144297619Y-51207419D02*
X144392857Y-51159800D01*
X144392857Y-51159800D02*
X144440476Y-51112180D01*
X144440476Y-51112180D02*
X144488095Y-51016942D01*
X144488095Y-51016942D02*
X144488095Y-50921704D01*
X144488095Y-50921704D02*
X144440476Y-50826466D01*
X144440476Y-50826466D02*
X144392857Y-50778847D01*
X144392857Y-50778847D02*
X144297619Y-50731228D01*
X144297619Y-50731228D02*
X144107143Y-50683609D01*
X144107143Y-50683609D02*
X144011905Y-50635990D01*
X144011905Y-50635990D02*
X143964286Y-50588371D01*
X143964286Y-50588371D02*
X143916667Y-50493133D01*
X143916667Y-50493133D02*
X143916667Y-50397895D01*
X143916667Y-50397895D02*
X143964286Y-50302657D01*
X143964286Y-50302657D02*
X144011905Y-50255038D01*
X144011905Y-50255038D02*
X144107143Y-50207419D01*
X144107143Y-50207419D02*
X144345238Y-50207419D01*
X144345238Y-50207419D02*
X144488095Y-50255038D01*
X144821429Y-50207419D02*
X145059524Y-51207419D01*
X145059524Y-51207419D02*
X145250000Y-50493133D01*
X145250000Y-50493133D02*
X145440476Y-51207419D01*
X145440476Y-51207419D02*
X145678572Y-50207419D01*
X146583333Y-51207419D02*
X146011905Y-51207419D01*
X146297619Y-51207419D02*
X146297619Y-50207419D01*
X146297619Y-50207419D02*
X146202381Y-50350276D01*
X146202381Y-50350276D02*
X146107143Y-50445514D01*
X146107143Y-50445514D02*
X146011905Y-50493133D01*
D13*
X124261905Y-61494819D02*
X124261905Y-60494819D01*
X124261905Y-60494819D02*
X124500000Y-60494819D01*
X124500000Y-60494819D02*
X124642857Y-60542438D01*
X124642857Y-60542438D02*
X124738095Y-60637676D01*
X124738095Y-60637676D02*
X124785714Y-60732914D01*
X124785714Y-60732914D02*
X124833333Y-60923390D01*
X124833333Y-60923390D02*
X124833333Y-61066247D01*
X124833333Y-61066247D02*
X124785714Y-61256723D01*
X124785714Y-61256723D02*
X124738095Y-61351961D01*
X124738095Y-61351961D02*
X124642857Y-61447200D01*
X124642857Y-61447200D02*
X124500000Y-61494819D01*
X124500000Y-61494819D02*
X124261905Y-61494819D01*
X125785714Y-61494819D02*
X125214286Y-61494819D01*
X125500000Y-61494819D02*
X125500000Y-60494819D01*
X125500000Y-60494819D02*
X125404762Y-60637676D01*
X125404762Y-60637676D02*
X125309524Y-60732914D01*
X125309524Y-60732914D02*
X125214286Y-60780533D01*
X128334819Y-69166666D02*
X127858628Y-69499999D01*
X128334819Y-69738094D02*
X127334819Y-69738094D01*
X127334819Y-69738094D02*
X127334819Y-69357142D01*
X127334819Y-69357142D02*
X127382438Y-69261904D01*
X127382438Y-69261904D02*
X127430057Y-69214285D01*
X127430057Y-69214285D02*
X127525295Y-69166666D01*
X127525295Y-69166666D02*
X127668152Y-69166666D01*
X127668152Y-69166666D02*
X127763390Y-69214285D01*
X127763390Y-69214285D02*
X127811009Y-69261904D01*
X127811009Y-69261904D02*
X127858628Y-69357142D01*
X127858628Y-69357142D02*
X127858628Y-69738094D01*
X127668152Y-68309523D02*
X128334819Y-68309523D01*
X127287200Y-68547618D02*
X128001485Y-68785713D01*
X128001485Y-68785713D02*
X128001485Y-68166666D01*
X124261905Y-71494819D02*
X124261905Y-70494819D01*
X124261905Y-70494819D02*
X124500000Y-70494819D01*
X124500000Y-70494819D02*
X124642857Y-70542438D01*
X124642857Y-70542438D02*
X124738095Y-70637676D01*
X124738095Y-70637676D02*
X124785714Y-70732914D01*
X124785714Y-70732914D02*
X124833333Y-70923390D01*
X124833333Y-70923390D02*
X124833333Y-71066247D01*
X124833333Y-71066247D02*
X124785714Y-71256723D01*
X124785714Y-71256723D02*
X124738095Y-71351961D01*
X124738095Y-71351961D02*
X124642857Y-71447200D01*
X124642857Y-71447200D02*
X124500000Y-71494819D01*
X124500000Y-71494819D02*
X124261905Y-71494819D01*
X125166667Y-70494819D02*
X125785714Y-70494819D01*
X125785714Y-70494819D02*
X125452381Y-70875771D01*
X125452381Y-70875771D02*
X125595238Y-70875771D01*
X125595238Y-70875771D02*
X125690476Y-70923390D01*
X125690476Y-70923390D02*
X125738095Y-70971009D01*
X125738095Y-70971009D02*
X125785714Y-71066247D01*
X125785714Y-71066247D02*
X125785714Y-71304342D01*
X125785714Y-71304342D02*
X125738095Y-71399580D01*
X125738095Y-71399580D02*
X125690476Y-71447200D01*
X125690476Y-71447200D02*
X125595238Y-71494819D01*
X125595238Y-71494819D02*
X125309524Y-71494819D01*
X125309524Y-71494819D02*
X125214286Y-71447200D01*
X125214286Y-71447200D02*
X125166667Y-71399580D01*
X116083333Y-47074819D02*
X115750000Y-46598628D01*
X115511905Y-47074819D02*
X115511905Y-46074819D01*
X115511905Y-46074819D02*
X115892857Y-46074819D01*
X115892857Y-46074819D02*
X115988095Y-46122438D01*
X115988095Y-46122438D02*
X116035714Y-46170057D01*
X116035714Y-46170057D02*
X116083333Y-46265295D01*
X116083333Y-46265295D02*
X116083333Y-46408152D01*
X116083333Y-46408152D02*
X116035714Y-46503390D01*
X116035714Y-46503390D02*
X115988095Y-46551009D01*
X115988095Y-46551009D02*
X115892857Y-46598628D01*
X115892857Y-46598628D02*
X115511905Y-46598628D01*
X116654762Y-46503390D02*
X116559524Y-46455771D01*
X116559524Y-46455771D02*
X116511905Y-46408152D01*
X116511905Y-46408152D02*
X116464286Y-46312914D01*
X116464286Y-46312914D02*
X116464286Y-46265295D01*
X116464286Y-46265295D02*
X116511905Y-46170057D01*
X116511905Y-46170057D02*
X116559524Y-46122438D01*
X116559524Y-46122438D02*
X116654762Y-46074819D01*
X116654762Y-46074819D02*
X116845238Y-46074819D01*
X116845238Y-46074819D02*
X116940476Y-46122438D01*
X116940476Y-46122438D02*
X116988095Y-46170057D01*
X116988095Y-46170057D02*
X117035714Y-46265295D01*
X117035714Y-46265295D02*
X117035714Y-46312914D01*
X117035714Y-46312914D02*
X116988095Y-46408152D01*
X116988095Y-46408152D02*
X116940476Y-46455771D01*
X116940476Y-46455771D02*
X116845238Y-46503390D01*
X116845238Y-46503390D02*
X116654762Y-46503390D01*
X116654762Y-46503390D02*
X116559524Y-46551009D01*
X116559524Y-46551009D02*
X116511905Y-46598628D01*
X116511905Y-46598628D02*
X116464286Y-46693866D01*
X116464286Y-46693866D02*
X116464286Y-46884342D01*
X116464286Y-46884342D02*
X116511905Y-46979580D01*
X116511905Y-46979580D02*
X116559524Y-47027200D01*
X116559524Y-47027200D02*
X116654762Y-47074819D01*
X116654762Y-47074819D02*
X116845238Y-47074819D01*
X116845238Y-47074819D02*
X116940476Y-47027200D01*
X116940476Y-47027200D02*
X116988095Y-46979580D01*
X116988095Y-46979580D02*
X117035714Y-46884342D01*
X117035714Y-46884342D02*
X117035714Y-46693866D01*
X117035714Y-46693866D02*
X116988095Y-46598628D01*
X116988095Y-46598628D02*
X116940476Y-46551009D01*
X116940476Y-46551009D02*
X116845238Y-46503390D01*
X144261905Y-71494819D02*
X144261905Y-70494819D01*
X144261905Y-70494819D02*
X144500000Y-70494819D01*
X144500000Y-70494819D02*
X144642857Y-70542438D01*
X144642857Y-70542438D02*
X144738095Y-70637676D01*
X144738095Y-70637676D02*
X144785714Y-70732914D01*
X144785714Y-70732914D02*
X144833333Y-70923390D01*
X144833333Y-70923390D02*
X144833333Y-71066247D01*
X144833333Y-71066247D02*
X144785714Y-71256723D01*
X144785714Y-71256723D02*
X144738095Y-71351961D01*
X144738095Y-71351961D02*
X144642857Y-71447200D01*
X144642857Y-71447200D02*
X144500000Y-71494819D01*
X144500000Y-71494819D02*
X144261905Y-71494819D01*
X145738095Y-70494819D02*
X145261905Y-70494819D01*
X145261905Y-70494819D02*
X145214286Y-70971009D01*
X145214286Y-70971009D02*
X145261905Y-70923390D01*
X145261905Y-70923390D02*
X145357143Y-70875771D01*
X145357143Y-70875771D02*
X145595238Y-70875771D01*
X145595238Y-70875771D02*
X145690476Y-70923390D01*
X145690476Y-70923390D02*
X145738095Y-70971009D01*
X145738095Y-70971009D02*
X145785714Y-71066247D01*
X145785714Y-71066247D02*
X145785714Y-71304342D01*
X145785714Y-71304342D02*
X145738095Y-71399580D01*
X145738095Y-71399580D02*
X145690476Y-71447200D01*
X145690476Y-71447200D02*
X145595238Y-71494819D01*
X145595238Y-71494819D02*
X145357143Y-71494819D01*
X145357143Y-71494819D02*
X145261905Y-71447200D01*
X145261905Y-71447200D02*
X145214286Y-71399580D01*
X144261905Y-61494819D02*
X144261905Y-60494819D01*
X144261905Y-60494819D02*
X144500000Y-60494819D01*
X144500000Y-60494819D02*
X144642857Y-60542438D01*
X144642857Y-60542438D02*
X144738095Y-60637676D01*
X144738095Y-60637676D02*
X144785714Y-60732914D01*
X144785714Y-60732914D02*
X144833333Y-60923390D01*
X144833333Y-60923390D02*
X144833333Y-61066247D01*
X144833333Y-61066247D02*
X144785714Y-61256723D01*
X144785714Y-61256723D02*
X144738095Y-61351961D01*
X144738095Y-61351961D02*
X144642857Y-61447200D01*
X144642857Y-61447200D02*
X144500000Y-61494819D01*
X144500000Y-61494819D02*
X144261905Y-61494819D01*
X145214286Y-60590057D02*
X145261905Y-60542438D01*
X145261905Y-60542438D02*
X145357143Y-60494819D01*
X145357143Y-60494819D02*
X145595238Y-60494819D01*
X145595238Y-60494819D02*
X145690476Y-60542438D01*
X145690476Y-60542438D02*
X145738095Y-60590057D01*
X145738095Y-60590057D02*
X145785714Y-60685295D01*
X145785714Y-60685295D02*
X145785714Y-60780533D01*
X145785714Y-60780533D02*
X145738095Y-60923390D01*
X145738095Y-60923390D02*
X145166667Y-61494819D01*
X145166667Y-61494819D02*
X145785714Y-61494819D01*
%TO.C,D4*%
D14*
X132440000Y-73455000D02*
X132440000Y-76545000D01*
X132440000Y-73455170D02*
G75*
G02*
X137990000Y-75000000I2560000J-1544830D01*
G01*
X137990000Y-75000000D02*
G75*
G02*
X132440000Y-76544830I-2990000J0D01*
G01*
X137500000Y-75000000D02*
G75*
G02*
X132500000Y-75000000I-2500000J0D01*
G01*
X132500000Y-75000000D02*
G75*
G02*
X137500000Y-75000000I2500000J0D01*
G01*
%TO.C,D7*%
X142440000Y-83455000D02*
X142440000Y-86545000D01*
X142440000Y-83455170D02*
G75*
G02*
X147990000Y-85000000I2560000J-1544830D01*
G01*
X147990000Y-85000000D02*
G75*
G02*
X142440000Y-86544830I-2990000J0D01*
G01*
X147500000Y-85000000D02*
G75*
G02*
X142500000Y-85000000I-2500000J0D01*
G01*
X142500000Y-85000000D02*
G75*
G02*
X147500000Y-85000000I2500000J0D01*
G01*
%TO.C,R7*%
X139980000Y-89130000D02*
X139980000Y-89460000D01*
X139980000Y-91870000D02*
X139980000Y-91540000D01*
X146520000Y-89130000D02*
X139980000Y-89130000D01*
X146520000Y-89460000D02*
X146520000Y-89130000D01*
X146520000Y-91540000D02*
X146520000Y-91870000D01*
X146520000Y-91870000D02*
X139980000Y-91870000D01*
%TO.C,D6*%
X122440000Y-83455000D02*
X122440000Y-86545000D01*
X122440000Y-83455170D02*
G75*
G02*
X127990000Y-85000000I2560000J-1544830D01*
G01*
X127990000Y-85000000D02*
G75*
G02*
X122440000Y-86544830I-2990000J0D01*
G01*
X127500000Y-85000000D02*
G75*
G02*
X122500000Y-85000000I-2500000J0D01*
G01*
X122500000Y-85000000D02*
G75*
G02*
X127500000Y-85000000I2500000J0D01*
G01*
%TO.C,R2*%
X149130000Y-61980000D02*
X149130000Y-68520000D01*
X149130000Y-68520000D02*
X149460000Y-68520000D01*
X149460000Y-61980000D02*
X149130000Y-61980000D01*
X151540000Y-61980000D02*
X151870000Y-61980000D01*
X151870000Y-61980000D02*
X151870000Y-68520000D01*
X151870000Y-68520000D02*
X151540000Y-68520000D01*
%TO.C,R3*%
X118130000Y-60480000D02*
X118460000Y-60480000D01*
X118130000Y-67020000D02*
X118130000Y-60480000D01*
X118460000Y-67020000D02*
X118130000Y-67020000D01*
X120540000Y-67020000D02*
X120870000Y-67020000D01*
X120870000Y-60480000D02*
X120540000Y-60480000D01*
X120870000Y-67020000D02*
X120870000Y-60480000D01*
%TO.C,R5*%
X131980000Y-79380000D02*
X131980000Y-79710000D01*
X131980000Y-82120000D02*
X131980000Y-81790000D01*
X138520000Y-79380000D02*
X131980000Y-79380000D01*
X138520000Y-79710000D02*
X138520000Y-79380000D01*
X138520000Y-81790000D02*
X138520000Y-82120000D01*
X138520000Y-82120000D02*
X131980000Y-82120000D01*
%TO.C,R6*%
X118380000Y-71230000D02*
X118710000Y-71230000D01*
X118380000Y-77770000D02*
X118380000Y-71230000D01*
X118710000Y-77770000D02*
X118380000Y-77770000D01*
X120790000Y-77770000D02*
X121120000Y-77770000D01*
X121120000Y-71230000D02*
X120790000Y-71230000D01*
X121120000Y-77770000D02*
X121120000Y-71230000D01*
%TO.C,SW2*%
X131500000Y-45000000D02*
X131500000Y-46500000D01*
X132750000Y-49000000D02*
X137250000Y-49000000D01*
X137250000Y-42500000D02*
X132750000Y-42500000D01*
X138500000Y-46500000D02*
X138500000Y-45000000D01*
%TO.C,R1*%
X138630000Y-65480000D02*
X138960000Y-65480000D01*
X138630000Y-72020000D02*
X138630000Y-65480000D01*
X138960000Y-72020000D02*
X138630000Y-72020000D01*
X141040000Y-72020000D02*
X141370000Y-72020000D01*
X141370000Y-65480000D02*
X141040000Y-65480000D01*
X141370000Y-72020000D02*
X141370000Y-65480000D01*
%TO.C,SW1*%
D12*
X148900000Y-40850000D02*
X161600000Y-40850000D01*
X161600000Y-47550000D01*
X148900000Y-47550000D01*
X148900000Y-40850000D01*
%TO.C,D1*%
D14*
X122440000Y-63455000D02*
X122440000Y-66545000D01*
X122440000Y-63455170D02*
G75*
G02*
X127990000Y-65000000I2560000J-1544830D01*
G01*
X127990000Y-65000000D02*
G75*
G02*
X122440000Y-66544830I-2990000J0D01*
G01*
X127500000Y-65000000D02*
G75*
G02*
X122500000Y-65000000I-2500000J0D01*
G01*
X122500000Y-65000000D02*
G75*
G02*
X127500000Y-65000000I2500000J0D01*
G01*
%TO.C,R4*%
X128880000Y-65730000D02*
X129210000Y-65730000D01*
X128880000Y-72270000D02*
X128880000Y-65730000D01*
X129210000Y-72270000D02*
X128880000Y-72270000D01*
X131290000Y-72270000D02*
X131620000Y-72270000D01*
X131620000Y-65730000D02*
X131290000Y-65730000D01*
X131620000Y-72270000D02*
X131620000Y-65730000D01*
%TO.C,D3*%
X122440000Y-73455000D02*
X122440000Y-76545000D01*
X122440000Y-73455170D02*
G75*
G02*
X127990000Y-75000000I2560000J-1544830D01*
G01*
X127990000Y-75000000D02*
G75*
G02*
X122440000Y-76544830I-2990000J0D01*
G01*
X127500000Y-75000000D02*
G75*
G02*
X122500000Y-75000000I-2500000J0D01*
G01*
X122500000Y-75000000D02*
G75*
G02*
X127500000Y-75000000I2500000J0D01*
G01*
%TO.C,R8*%
X112980000Y-42880000D02*
X112980000Y-43210000D01*
X112980000Y-45620000D02*
X112980000Y-45290000D01*
X119520000Y-42880000D02*
X112980000Y-42880000D01*
X119520000Y-43210000D02*
X119520000Y-42880000D01*
X119520000Y-45290000D02*
X119520000Y-45620000D01*
X119520000Y-45620000D02*
X112980000Y-45620000D01*
%TO.C,D5*%
X142440000Y-73455000D02*
X142440000Y-76545000D01*
X142440000Y-73455170D02*
G75*
G02*
X147990000Y-75000000I2560000J-1544830D01*
G01*
X147990000Y-75000000D02*
G75*
G02*
X142440000Y-76544830I-2990000J0D01*
G01*
X147500000Y-75000000D02*
G75*
G02*
X142500000Y-75000000I-2500000J0D01*
G01*
X142500000Y-75000000D02*
G75*
G02*
X147500000Y-75000000I2500000J0D01*
G01*
%TO.C,D2*%
X142440000Y-63455000D02*
X142440000Y-66545000D01*
X142440000Y-63455170D02*
G75*
G02*
X147990000Y-65000000I2560000J-1544830D01*
G01*
X147990000Y-65000000D02*
G75*
G02*
X142440000Y-66544830I-2990000J0D01*
G01*
X147500000Y-65000000D02*
G75*
G02*
X142500000Y-65000000I-2500000J0D01*
G01*
X142500000Y-65000000D02*
G75*
G02*
X147500000Y-65000000I2500000J0D01*
G01*
%TD*%
M02*
